<svg width="300" height="300" viewBox="0 0 300 300" fill="none" xmlns="http://www.w3.org/2000/svg">
<path d="M0 7.99999C0 3.58171 3.58172 0 8 0H292C296.418 0 300 3.58172 300 8V292C300 296.418 296.418 300 292 300H7.99999C3.58171 300 0 296.418 0 292V7.99999Z" fill="#E4F7E8"/>
<path d="M25.3443 200.732C23.3724 199.784 23.3441 197.98 24.0076 196.461C24.1259 196.19 24.4268 196.057 24.7135 196.122L27.7599 196.81C28.2198 196.914 28.4147 197.457 28.128 197.835L26.0867 200.53C25.9115 200.761 25.6034 200.857 25.3443 200.732Z" fill="#002850" stroke="black" stroke-width="0.36791" stroke-linecap="round"/>
<path d="M75.9422 167.283C78.0686 168.446 77.9932 170.768 77.3311 172.174C77.2153 172.42 76.9393 172.535 76.6741 172.483L73.2687 171.821C72.8093 171.732 72.5966 171.202 72.8648 170.815L75.1646 167.494C75.3408 167.24 75.6733 167.136 75.9422 167.283Z" fill="#002850" stroke="black" stroke-width="0.36791" stroke-linecap="round"/>
<path d="M22.1923 200.564C20.0046 199.518 19.9541 197.196 20.5397 195.758C20.6421 195.507 20.9116 195.377 21.1794 195.414L24.6179 195.891C25.0818 195.956 25.3229 196.473 25.0759 196.874L22.9578 200.311C22.7955 200.575 22.4689 200.696 22.1923 200.564Z" fill="#002850" stroke="black" stroke-width="0.36791" stroke-linecap="round"/>
<path d="M74.6149 167.121C76.921 168.192 76.9354 170.276 76.1547 172.011C76.0336 172.28 75.7335 172.413 75.4472 172.349L71.8236 171.531C71.3633 171.427 71.1684 170.884 71.4558 170.505L73.8714 167.325C74.0466 167.094 74.3547 167 74.6149 167.121Z" fill="#002850" stroke="black" stroke-width="0.36791" stroke-linecap="round"/>
<path d="M75.7131 169.188C77.2378 169.721 77.8043 171.572 76.8453 172.888L50.729 208.719C50.0909 209.595 48.956 209.953 47.9416 209.598L22.8869 200.844C21.3623 200.311 20.796 198.459 21.7552 197.143L47.8715 161.312C48.5097 160.437 49.6454 160.079 50.6597 160.434L75.7131 169.188Z" fill="#002850" stroke="black" stroke-width="0.36791"/>
<path d="M75.0644 166.895C76.5892 167.428 77.1557 169.279 76.1967 170.595L50.0804 206.426C49.4423 207.302 48.3074 207.66 47.293 207.305L22.2383 198.551C20.7137 198.018 20.1474 196.166 21.1066 194.85L47.2229 159.019C47.8611 158.144 48.9968 157.786 50.0111 158.141L75.0644 166.895Z" fill="#0064FF" stroke="black" stroke-width="0.36791"/>
<path d="M73.4498 168.084C74.5698 168.476 74.9806 169.839 74.2685 170.801L49.5641 204.152C48.9233 205.017 47.795 205.368 46.7872 205.016L23.9864 197.049C22.8665 196.657 22.4556 195.294 23.1677 194.332L47.8721 160.981C48.5128 160.116 49.6411 159.765 50.649 160.117L73.4498 168.084Z" fill="white" stroke="black" stroke-width="0.36791"/>
<path d="M48.2243 169.035C48.4084 168.787 48.7393 168.699 49.0191 168.823L49.5115 169.041C49.89 169.208 50.0131 169.683 49.7653 170.019L41.8024 180.821L39.9321 180.199L48.2243 169.035Z" fill="#7DB0FF"/>
<path d="M48.2259 172.905C48.4099 172.656 48.741 172.568 49.021 172.692L49.5147 172.91C49.8926 173.078 50.0161 173.552 49.7693 173.888L44.1058 181.606L42.2355 180.984L48.2259 172.905Z" fill="#002850"/>
<path d="M61.8048 172.664C61.9889 172.416 62.3199 172.328 62.5997 172.452L63.092 172.67C63.4705 172.837 63.5937 173.312 63.3458 173.648L54.7672 185.286L52.8969 184.664L61.8048 172.664Z" fill="#7DB0FF"/>
<path d="M62.0116 176.25C62.1957 176.002 62.5268 175.913 62.8067 176.037L63.3 176.255C63.6781 176.423 63.8015 176.897 63.5544 177.233L57.0661 186.065L55.1959 185.443L62.0116 176.25Z" fill="#002850"/>
<path d="M52.8463 173.71C53.0304 173.462 53.3615 173.374 53.6415 173.498L54.1349 173.716C54.513 173.883 54.6364 174.357 54.3895 174.694L48.2953 182.994L46.4251 182.372L52.8463 173.71Z" fill="#7DB0FF"/>
<path d="M53.0875 177.301C53.2718 177.053 53.6022 176.965 53.8817 177.089L54.3761 177.308C54.7542 177.475 54.8776 177.95 54.6305 178.286L50.5958 183.778L48.7255 183.156L53.0875 177.301Z" fill="#002850"/>
<path d="M48.5811 164.979L37.8222 179.291L59.6596 186.849" stroke="#BEC5CC" stroke-width="0.36791" stroke-linecap="round"/>
<mask id="mask0_579_16722" style="mask-type:alpha" maskUnits="userSpaceOnUse" x="30" y="184" width="13" height="12">
<ellipse cx="6.13884" cy="5.50922" rx="6.13884" ry="5.50922" transform="matrix(0.995609 0.0936117 -0.105842 0.994383 30.8665 184.055)" fill="#0064FF"/>
</mask>
<g mask="url(#mask0_579_16722)">
<path d="M36.3169 190.104L37.2635 181.211L46.7916 185.843L43.5882 195.602L36.3169 190.104Z" fill="#002850"/>
<path d="M30.9707 195.131L36.3163 190.1L42.3292 194.618L39.3163 196.562L30.9707 195.131Z" fill="#3F5880"/>
<path d="M28.6917 187.156L36.3151 190.101L31.4872 195.539L28.6917 187.156Z" fill="#7DB0FF"/>
<path d="M37.783 183.843L36.3153 190.1L29.8332 188.484L30.6956 184.901L37.783 183.843Z" fill="#9669D2"/>
<ellipse cx="2.63093" cy="2.36109" rx="2.63093" ry="2.36109" transform="matrix(0.995609 0.0936117 -0.105842 0.994383 34.0319 187.518)" fill="white"/>
</g>
<path d="M39.9675 175.741C40.3605 175.736 40.6754 175.453 40.6709 175.108C40.6663 174.763 40.3441 174.487 39.9511 174.492C39.5581 174.496 39.2432 174.78 39.2478 175.124C39.2523 175.469 39.5745 175.745 39.9675 175.741Z" fill="#002850"/>
<path d="M38.4485 177.832C38.8415 177.828 39.1564 177.545 39.1518 177.2C39.1473 176.855 38.8251 176.579 38.4321 176.584C38.0391 176.588 37.7242 176.871 37.7287 177.216C37.7332 177.561 38.0555 177.837 38.4485 177.832Z" fill="#3F5880"/>
<path d="M36.9332 179.922C37.3262 179.918 37.6411 179.634 37.6366 179.29C37.6321 178.945 37.3098 178.669 36.9168 178.673C36.5239 178.678 36.209 178.961 36.2135 179.306C36.218 179.651 36.5403 179.927 36.9332 179.922Z" fill="#7DB0FF"/>
<path d="M49.041 190.939L52.9133 192.345" stroke="black" stroke-width="0.36791" stroke-linecap="round"/>
<path d="M46.927 194.012L50.7993 195.417" stroke="black" stroke-width="0.36791" stroke-linecap="round"/>
<path d="M44.8142 197.088L48.6865 198.493" stroke="black" stroke-width="0.36791" stroke-linecap="round"/>
<path d="M152.789 126.941L192.583 102.439C192.991 102.188 193.531 102.298 193.792 102.673L213.738 131.289C214.088 131.792 213.942 132.475 213.398 132.81L174.099 157.007C173.555 157.342 172.831 157.195 172.48 156.692L152.534 128.076C152.273 127.701 152.381 127.192 152.789 126.941Z" fill="white" stroke="black" stroke-width="0.372906"/>
<path d="M152.169 127.322L193.202 102.058C193.267 102.018 193.348 102.038 193.385 102.09L199.272 110.536L158.015 135.939L152.128 127.493C152.091 127.44 152.104 127.362 152.169 127.322Z" fill="#0064FF" stroke="black" stroke-width="0.372906"/>
<path d="M161.642 131.052L162.12 131.737L159.488 133.357L159.011 132.672L161.642 131.052Z" fill="white" stroke="black" stroke-width="0.372906"/>
<path d="M167.279 127.577L167.756 128.262L165.124 129.883L164.647 129.198L167.279 127.577Z" fill="white" stroke="black" stroke-width="0.372906"/>
<path d="M172.809 124.179L173.287 124.864L170.655 126.484L170.177 125.799L172.809 124.179Z" fill="white" stroke="black" stroke-width="0.372906"/>
<path d="M178.445 120.706L178.923 121.391L176.291 123.012L175.813 122.327L178.445 120.706Z" fill="white" stroke="black" stroke-width="0.372906"/>
<path d="M184.392 117.046L184.869 117.731L182.237 119.352L181.76 118.667L184.392 117.046Z" fill="white" stroke="black" stroke-width="0.372906"/>
<path d="M190.028 113.573L190.505 114.258L187.873 115.879L187.396 115.194L190.028 113.573Z" fill="white" stroke="black" stroke-width="0.372906"/>
<path d="M195.765 110.044L196.242 110.729L193.61 112.35L193.133 111.665L195.765 110.044Z" fill="white" stroke="black" stroke-width="0.372906"/>
<path d="M188.469 101.542L189.559 100.871C189.574 100.861 189.588 100.868 189.592 100.874L192.761 105.421C192.765 105.427 192.767 105.442 192.752 105.452L191.662 106.123C191.646 106.132 191.632 106.125 191.628 106.119L188.459 101.572C188.455 101.566 188.453 101.551 188.469 101.542Z" fill="#7BB1FF" stroke="black" stroke-width="0.372906"/>
<path d="M164.356 116.386L165.446 115.714C165.462 115.705 165.475 115.712 165.479 115.718L168.649 120.264C168.653 120.27 168.655 120.286 168.639 120.295L167.549 120.967C167.533 120.976 167.519 120.968 167.515 120.962L164.346 116.416C164.342 116.41 164.341 116.395 164.356 116.386Z" fill="#7BB1FF" stroke="black" stroke-width="0.372906"/>
<path d="M170.527 112.587L171.617 111.916C171.632 111.906 171.646 111.913 171.65 111.919L174.819 116.466C174.824 116.472 174.826 116.487 174.81 116.497L173.72 117.168C173.704 117.177 173.69 117.17 173.686 117.164L170.517 112.617C170.513 112.611 170.512 112.596 170.527 112.587Z" fill="#7BB1FF" stroke="black" stroke-width="0.372906"/>
<path d="M176.698 108.79L177.788 108.119C177.803 108.109 177.817 108.116 177.821 108.122L180.99 112.669C180.994 112.675 180.996 112.69 180.981 112.7L179.891 113.371C179.875 113.38 179.861 113.373 179.857 113.367L176.688 108.82C176.684 108.814 176.682 108.8 176.698 108.79Z" fill="#7BB1FF" stroke="black" stroke-width="0.372906"/>
<path d="M182.871 104.985L183.961 104.314C183.977 104.305 183.99 104.312 183.995 104.318L187.164 108.864C187.168 108.87 187.17 108.885 187.154 108.895L186.064 109.566C186.049 109.576 186.035 109.568 186.03 109.562L182.861 105.015C182.857 105.009 182.856 104.995 182.871 104.985Z" fill="#7BB1FF" stroke="black" stroke-width="0.372906"/>
<path d="M158.169 120.198L159.26 119.527C159.275 119.517 159.289 119.524 159.293 119.53L162.462 124.077C162.466 124.083 162.468 124.098 162.453 124.108L161.363 124.779C161.347 124.789 161.333 124.781 161.329 124.775L158.16 120.228C158.155 120.222 158.154 120.208 158.169 120.198Z" fill="#7BB1FF" stroke="black" stroke-width="0.372906"/>
<path d="M152.44 123.724L153.53 123.052C153.546 123.043 153.56 123.05 153.564 123.056L156.733 127.602C156.737 127.608 156.739 127.624 156.723 127.633L155.633 128.305C155.618 128.314 155.604 128.306 155.599 128.3L152.43 123.754C152.426 123.748 152.425 123.733 152.44 123.724Z" fill="#7BB1FF" stroke="black" stroke-width="0.372906"/>
<path d="M176.043 127.354L178.668 131.12L174.659 133.588L172.034 129.823L176.043 127.354Z" fill="#7BB1FF" stroke="black" stroke-width="0.372906"/>
<path d="M181.731 123.847L184.356 127.612L180.347 130.08L177.722 126.315L181.731 123.847Z" fill="#7BB1FF" stroke="black" stroke-width="0.372906"/>
<path d="M187.582 120.251L190.206 124.016L186.197 126.485L183.573 122.719L187.582 120.251Z" fill="#7BB1FF" stroke="black" stroke-width="0.372906"/>
<path d="M193.267 116.747L195.892 120.512L191.883 122.981L189.258 119.215L193.267 116.747Z" fill="#7BB1FF" stroke="black" stroke-width="0.372906"/>
<path d="M198.916 113.266L201.541 117.032L197.532 119.5L194.907 115.735L198.916 113.266Z" fill="#7BB1FF" stroke="black" stroke-width="0.372906"/>
<path d="M168.266 139.362L170.89 143.128L166.881 145.596L164.257 141.831L168.266 139.362Z" fill="#7BB1FF" stroke="black" stroke-width="0.372906"/>
<path d="M173.956 135.854L176.581 139.62L172.572 142.088L169.947 138.323L173.956 135.854Z" fill="#7BB1FF" stroke="black" stroke-width="0.372906"/>
<path d="M179.564 132.403L182.189 136.169L178.18 138.637L175.555 134.872L179.564 132.403Z" fill="#7BB1FF" stroke="black" stroke-width="0.372906"/>
<path d="M185.252 128.901L187.877 132.667L183.868 135.135L181.243 131.37L185.252 128.901Z" fill="#7BB1FF" stroke="black" stroke-width="0.372906"/>
<path d="M191.1 125.302L193.725 129.067L189.716 131.535L187.091 127.77L191.1 125.302Z" fill="#7BB1FF" stroke="black" stroke-width="0.372906"/>
<path d="M196.788 121.798L199.412 125.563L195.403 128.032L192.779 124.266L196.788 121.798Z" fill="#7BB1FF" stroke="black" stroke-width="0.372906"/>
<path d="M202.437 118.321L205.062 122.087L201.053 124.555L198.428 120.79L202.437 118.321Z" fill="#7BB1FF" stroke="black" stroke-width="0.372906"/>
<path d="M171.737 144.343L174.362 148.108L170.353 150.576L167.728 146.811L171.737 144.343Z" fill="#7BB1FF" stroke="black" stroke-width="0.372906"/>
<path d="M177.431 140.839L180.055 144.604L176.046 147.073L173.422 143.307L177.431 140.839Z" fill="#7BB1FF" stroke="black" stroke-width="0.372906"/>
<path d="M183.038 137.388L185.663 141.153L181.654 143.621L179.029 139.856L183.038 137.388Z" fill="#7BB1FF" stroke="black" stroke-width="0.372906"/>
<path d="M188.726 133.886L191.351 137.651L187.342 140.119L184.717 136.354L188.726 133.886Z" fill="#7BB1FF" stroke="black" stroke-width="0.372906"/>
<path d="M194.574 130.282L197.199 134.048L193.19 136.516L190.565 132.751L194.574 130.282Z" fill="#7BB1FF" stroke="black" stroke-width="0.372906"/>
<path d="M200.262 126.782L202.887 130.548L198.878 133.016L196.253 129.251L200.262 126.782Z" fill="#7BB1FF" stroke="black" stroke-width="0.372906"/>
<path d="M205.909 123.306L208.533 127.071L204.524 129.539L201.9 125.774L205.909 123.306Z" fill="#7BB1FF" stroke="black" stroke-width="0.372906"/>
<path d="M175.258 149.39L177.883 153.155L173.874 155.623L171.249 151.858L175.258 149.39Z" fill="#7BB1FF" stroke="black" stroke-width="0.372906"/>
<path d="M180.949 145.89L183.573 149.655L179.564 152.123L176.94 148.358L180.949 145.89Z" fill="#7BB1FF" stroke="black" stroke-width="0.372906"/>
<path d="M186.556 142.434L189.181 146.2L185.172 148.668L182.547 144.903L186.556 142.434Z" fill="#7BB1FF" stroke="black" stroke-width="0.372906"/>
<path d="M222.757 167.815L229.018 191.181C229.381 192.536 230.774 193.34 232.129 192.977L268.641 183.194C269.996 182.831 270.801 181.438 270.438 180.083L264.177 156.717L222.757 167.815Z" fill="#F7F7F7" stroke="#000926" stroke-width="0.338722"/>
<path d="M222.805 167.799L233.086 186.312C233.652 187.33 234.839 187.834 235.964 187.532L272.316 177.792C273.912 177.364 274.681 175.55 273.878 174.105L264.215 156.703L222.805 167.799Z" fill="white" stroke="#000926" stroke-width="0.338722"/>
<path d="M264.506 159.965C264.34 159.739 264.054 159.639 263.784 159.711L226.614 169.671C226.153 169.794 225.961 170.341 226.243 170.725L226.794 171.478C226.959 171.704 227.246 171.804 227.516 171.732L264.686 161.772C265.146 161.649 265.339 161.102 265.057 160.718L264.506 159.965Z" fill="#0064FF"/>
<path d="M256.104 174.96C256.074 175.237 255.877 175.466 255.608 175.539L233.598 181.436C233.139 181.559 232.701 181.183 232.752 180.711V180.711C232.782 180.434 232.98 180.204 233.249 180.132L255.258 174.234C255.717 174.112 256.155 174.488 256.104 174.96V174.96Z" fill="#BEC5CC"/>
<path d="M257.506 177.516C257.476 177.793 257.279 178.023 257.01 178.095L235 183.993C234.542 184.115 234.103 183.739 234.155 183.267V183.267C234.185 182.99 234.382 182.761 234.651 182.688L256.661 176.791C257.119 176.668 257.558 177.044 257.506 177.516V177.516Z" fill="#BEC5CC"/>
<path fill-rule="evenodd" clip-rule="evenodd" d="M270.95 167.062C267.349 167.062 264.43 169.982 264.43 173.583C264.43 177.184 267.349 180.103 270.95 180.103C274.551 180.103 277.471 177.184 277.471 173.583C277.471 169.982 274.551 167.062 270.95 167.062Z" fill="#11AB54"/>
<path fill-rule="evenodd" clip-rule="evenodd" d="M274.364 171.598L269.84 176.861L267.539 174.206L268.435 173.43L269.836 175.047L273.465 170.825L274.364 171.598Z" fill="white"/>
<mask id="path-72-inside-1_579_16722" fill="white">
<path d="M70.0903 104.666C69.7419 102.871 67.9993 101.667 66.1976 101.976L65.751 102.053L65.7508 102.052L82.4275 99.1933C84.2291 98.8845 85.9718 100.088 86.3202 101.883L70.0903 104.666Z"/>
</mask>
<path d="M70.0903 104.666C69.7419 102.871 67.9993 101.667 66.1976 101.976L65.751 102.053L65.7508 102.052L82.4275 99.1933C84.2291 98.8845 85.9718 100.088 86.3202 101.883L70.0903 104.666Z" fill="#D9DBDE"/>
<path d="M70.0903 104.666L69.7227 104.729L69.7938 105.095L70.1613 105.032L70.0903 104.666ZM66.1976 101.976L66.1266 101.61L66.1265 101.61L66.1976 101.976ZM65.751 102.053L65.3835 102.116L65.4545 102.482L65.8221 102.419L65.751 102.053ZM65.7508 102.052L65.6798 101.686L65.3122 101.749L65.3833 102.115L65.7508 102.052ZM82.4275 99.1933L82.3565 98.8272L82.3565 98.8272L82.4275 99.1933ZM86.3202 101.883L86.3912 102.249L86.7588 102.186L86.6877 101.82L86.3202 101.883ZM70.0903 104.666L70.4578 104.603C70.0702 102.606 68.1312 101.267 66.1266 101.61L66.1976 101.976L66.2687 102.342C67.8674 102.068 69.4136 103.137 69.7227 104.729L70.0903 104.666ZM66.1976 101.976L66.1265 101.61L65.6799 101.687L65.751 102.053L65.8221 102.419L66.2687 102.342L66.1976 101.976ZM65.751 102.053L66.1185 101.99L66.1184 101.989L65.7508 102.052L65.3833 102.115L65.3835 102.116L65.751 102.053ZM65.7508 102.052L65.8219 102.418L82.4986 99.5593L82.4275 99.1933L82.3565 98.8272L65.6798 101.686L65.7508 102.052ZM82.4275 99.1933L82.4985 99.5593C84.0972 99.2854 85.6435 100.354 85.9526 101.946L86.3202 101.883L86.6877 101.82C86.3001 99.8232 84.361 98.4837 82.3565 98.8272L82.4275 99.1933ZM86.3202 101.883L86.2491 101.517L70.0192 104.3L70.0903 104.666L70.1613 105.032L86.3912 102.249L86.3202 101.883Z" fill="#000926" mask="url(#path-72-inside-1_579_16722)"/>
<path d="M81.4769 99.5489C81.23 99.7439 81.0192 99.9792 80.843 100.254C80.3811 100.974 80.1708 101.949 80.157 103.15C80.1423 104.441 80.0961 116.559 80.0708 123.353C80.0612 125.918 78.2235 128.079 75.6842 128.514L62.3005 130.809L63.6583 106.88C63.8022 104.344 65.6657 102.265 68.1815 101.833L81.4769 99.5489Z" fill="#F7F7F7" stroke="#000926" stroke-width="0.372906"/>
<path d="M86.1589 118.652L85.9744 121.798C85.9588 122.064 86.2007 122.279 86.4652 122.234L103.03 119.393C103.216 119.362 103.353 119.208 103.364 119.022L103.549 115.876C103.565 115.61 103.323 115.395 103.058 115.44L86.4929 118.281C86.3074 118.312 86.1699 118.465 86.1589 118.652Z" fill="#000926"/>
<path d="M65.3778 116.715L69.5415 116.001" stroke="#000926" stroke-width="0.372906" stroke-linecap="round"/>
<path d="M75.9125 114.912L77.4465 114.649" stroke="#EB144B" stroke-width="0.372906" stroke-linecap="round"/>
<path d="M72.1014 122.508L77.0062 121.667" stroke="#EB144B" stroke-width="0.372906" stroke-linecap="round"/>
<path d="M65.5728 113.344L71.3935 112.346" stroke="#000926" stroke-width="0.372906" stroke-linecap="round"/>
<path d="M75.988 111.559L77.522 111.296" stroke="#EB144B" stroke-width="0.372906" stroke-linecap="round"/>
<path d="M65.1714 119.984L70.9921 118.986" stroke="#000926" stroke-width="0.372906" stroke-linecap="round"/>
<path d="M75.8297 118.158L77.3637 117.895" stroke="#EB144B" stroke-width="0.372906" stroke-linecap="round"/>
<mask id="path-83-inside-2_579_16722" fill="white">
<path d="M73.926 125.645C74.2744 127.439 76.017 128.643 77.8187 128.334L61.5888 131.117C59.7872 131.426 58.0444 130.222 57.6961 128.428L73.926 125.645Z"/>
</mask>
<path d="M73.926 125.645C74.2744 127.439 76.017 128.643 77.8187 128.334L61.5888 131.117C59.7872 131.426 58.0444 130.222 57.6961 128.428L73.926 125.645Z" fill="#D9DBDE"/>
<path d="M73.926 125.645L74.2935 125.582L74.2225 125.216L73.8549 125.279L73.926 125.645ZM77.8187 128.334L77.8897 128.7L77.7476 127.968L77.8187 128.334ZM61.5888 131.117L61.6598 131.483L61.6598 131.483L61.5888 131.117ZM57.6961 128.428L57.625 128.062L57.2575 128.125L57.3286 128.491L57.6961 128.428ZM73.926 125.645L73.5585 125.708C73.9461 127.704 75.8851 129.044 77.8897 128.7L77.8187 128.334L77.7476 127.968C76.149 128.242 74.6027 127.174 74.2935 125.582L73.926 125.645ZM77.8187 128.334L77.7476 127.968L61.5177 130.751L61.5888 131.117L61.6598 131.483L77.8897 128.7L77.8187 128.334ZM61.5888 131.117L61.5177 130.751C59.9191 131.025 58.3727 129.957 58.0636 128.365L57.6961 128.428L57.3286 128.491C57.7161 130.487 59.6553 131.827 61.6598 131.483L61.5888 131.117ZM57.6961 128.428L57.7672 128.794L73.9971 126.011L73.926 125.645L73.8549 125.279L57.625 128.062L57.6961 128.428Z" fill="#000926" mask="url(#path-83-inside-2_579_16722)"/>
<g clip-path="url(#clip0_579_16722)">
<path d="M161.146 161.797C174.409 163.956 183.184 176.437 180.744 189.674C178.305 202.911 165.576 211.891 152.313 209.732C139.05 207.573 130.275 195.093 132.715 181.856C135.154 168.618 147.883 159.638 161.146 161.797Z" fill="#0064FF" stroke="black" stroke-width="0.370374"/>
<path d="M158.167 161.315C171.43 163.474 180.205 175.954 177.766 189.191C175.326 202.429 162.597 211.409 149.334 209.25C136.071 207.091 127.296 194.611 129.736 181.373C132.175 168.136 144.904 159.156 158.167 161.315Z" fill="#002850" stroke="black" stroke-width="0.370374"/>
<path d="M144.546 172.191C151.92 166.989 162.018 168.632 167.101 175.862C172.184 183.092 170.327 193.171 162.953 198.374C155.579 203.576 145.481 201.931 140.398 194.701C135.315 187.471 137.172 177.393 144.546 172.191Z" fill="white" stroke="black" stroke-width="0.370374"/>
<path d="M149.203 178.81C152.848 176.239 157.839 177.051 160.352 180.624C162.864 184.198 161.946 189.18 158.301 191.752C154.657 194.323 149.665 193.51 147.153 189.936C144.64 186.363 145.558 181.382 149.203 178.81Z" fill="#002850" stroke="black" stroke-width="0.370374"/>
<path d="M152.981 185.518L157.564 181.888L158.028 182.547L153.071 185.646C152.986 185.7 152.902 185.581 152.981 185.518Z" fill="white"/>
<path d="M152.989 185.787C152.936 185.779 152.888 185.75 152.855 185.703C152.791 185.613 152.81 185.492 152.899 185.422L157.482 181.791C157.51 181.768 157.545 181.759 157.58 181.763C157.615 181.766 157.646 181.787 157.666 181.815L158.13 182.475C158.15 182.503 158.157 182.539 158.15 182.574C158.142 182.608 158.121 182.638 158.091 182.657L153.135 185.756C153.088 185.785 153.037 185.795 152.989 185.787L152.989 185.787ZM157.532 182.074L153.738 185.08L157.842 182.514L157.532 182.074Z" fill="black"/>
<path d="M159.455 180.366L160.105 181.29L158.128 182.685C157.936 182.82 157.673 182.778 157.541 182.59L157.37 182.346C157.238 182.158 157.286 181.896 157.478 181.76L159.455 180.365L159.455 180.366Z" fill="white"/>
<path d="M157.786 182.884C157.642 182.86 157.516 182.782 157.433 182.663L157.262 182.42C157.089 182.175 157.153 181.832 157.403 181.655L159.38 180.26C159.438 180.219 159.518 180.232 159.558 180.289L160.209 181.214C160.228 181.242 160.236 181.276 160.229 181.31C160.223 181.343 160.204 181.373 160.176 181.393L158.199 182.788C158.078 182.873 157.931 182.907 157.786 182.884ZM159.42 180.543L157.548 181.863C157.415 181.957 157.381 182.14 157.473 182.271L157.644 182.514C157.733 182.641 157.923 182.672 158.053 182.581L159.924 181.26L159.42 180.543Z" fill="black"/>
<path d="M158.948 181.719L158.654 181.302C158.427 180.98 158.51 180.53 158.839 180.297L180.874 164.752C181.203 164.52 181.654 164.593 181.881 164.916L182.174 165.333C182.401 165.656 182.318 166.106 181.989 166.338L159.954 181.883C159.625 182.115 159.174 182.042 158.948 181.719Z" fill="white"/>
<path d="M159.385 182.133C159.171 182.098 158.971 181.982 158.838 181.792L158.545 181.375C158.278 180.996 158.376 180.465 158.763 180.192L180.797 164.647C180.985 164.514 181.211 164.462 181.435 164.498C181.659 164.534 181.854 164.656 181.983 164.839L182.276 165.257C182.543 165.636 182.445 166.167 182.058 166.44L160.023 181.985C159.83 182.122 159.6 182.168 159.385 182.133ZM181.389 164.75C181.232 164.725 181.074 164.761 180.943 164.854L158.909 180.399C158.638 180.59 158.57 180.961 158.756 181.226L159.05 181.643C159.236 181.908 159.607 181.969 159.878 181.778L181.912 166.232C182.183 166.042 182.251 165.671 182.065 165.406L181.771 164.989C181.681 164.86 181.545 164.776 181.389 164.75L181.389 164.75Z" fill="black"/>
<path d="M174.338 169.353L174.278 166.52C174.254 165.403 174.796 164.338 175.722 163.685L179.867 160.76C180.018 160.653 180.224 160.754 180.228 160.936L180.317 165.135L174.338 169.353Z" fill="#2962F5"/>
<path d="M174.318 169.481C174.305 169.479 174.294 169.475 174.282 169.47C174.24 169.449 174.213 169.407 174.212 169.36L174.152 166.527C174.127 165.363 174.688 164.263 175.652 163.583L179.797 160.658C179.906 160.581 180.047 160.57 180.165 160.627C180.282 160.685 180.357 160.802 180.36 160.933L180.449 165.131C180.45 165.174 180.429 165.215 180.394 165.24L174.414 169.459C174.386 169.479 174.351 169.487 174.318 169.481L174.318 169.481ZM180.018 160.848C179.998 160.844 179.971 160.846 179.943 160.866L175.797 163.79C174.905 164.42 174.386 165.439 174.409 166.516L174.464 169.113L180.19 165.073L180.102 160.944C180.101 160.889 180.063 160.865 180.047 160.857C180.041 160.854 180.031 160.85 180.018 160.848L180.018 160.848Z" fill="black"/>
<path d="M175.457 170.941L178.1 171.953C179.142 172.351 180.325 172.198 181.251 171.546L185.397 168.621C185.548 168.514 185.523 168.286 185.352 168.221L181.437 166.723L175.457 170.941Z" fill="#2962F5"/>
<path d="M178.733 172.253C178.503 172.216 178.276 172.155 178.054 172.07L175.411 171.059C175.367 171.042 175.337 171.003 175.332 170.956C175.327 170.909 175.348 170.863 175.387 170.836L181.366 166.617C181.402 166.592 181.447 166.586 181.487 166.602L185.403 168.1C185.525 168.147 185.611 168.257 185.625 168.387C185.64 168.518 185.581 168.646 185.472 168.723L181.326 171.648C180.559 172.189 179.628 172.399 178.733 172.253L178.733 172.253ZM175.729 170.905L178.151 171.832C179.155 172.216 180.288 172.07 181.181 171.44L185.326 168.515C185.371 168.483 185.372 168.438 185.37 168.42C185.368 168.402 185.358 168.358 185.307 168.339L181.455 166.865L175.729 170.905L175.729 170.905Z" fill="black"/>
<path d="M183.779 169.337C183.772 169.336 183.764 169.334 183.756 169.331L180.562 168.175C180.496 168.151 180.463 168.078 180.488 168.012C180.514 167.945 180.588 167.911 180.654 167.935L183.848 169.091C183.915 169.115 183.948 169.188 183.922 169.254C183.899 169.313 183.839 169.347 183.779 169.337L183.779 169.337Z" fill="black"/>
<path d="M182.185 170.459C182.178 170.457 182.17 170.455 182.163 170.453L178.968 169.296C178.902 169.272 178.869 169.199 178.894 169.133C178.92 169.066 178.994 169.032 179.06 169.056L182.254 170.212C182.321 170.236 182.354 170.309 182.328 170.375C182.306 170.434 182.245 170.468 182.185 170.458L182.185 170.459Z" fill="black"/>
<path d="M174.119 171.403C174.087 171.398 174.057 171.38 174.037 171.352L173.48 170.559C173.44 170.502 173.454 170.422 173.513 170.381C173.571 170.34 173.651 170.353 173.691 170.41L174.248 171.202C174.289 171.26 174.274 171.34 174.216 171.381C174.186 171.401 174.152 171.408 174.119 171.403Z" fill="black"/>
<path d="M175.053 170.745C175.021 170.74 174.991 170.722 174.971 170.693L174.414 169.901C174.373 169.844 174.388 169.764 174.447 169.723C174.505 169.681 174.585 169.694 174.625 169.752L175.182 170.544C175.223 170.601 175.208 170.681 175.15 170.722C175.12 170.743 175.086 170.75 175.053 170.745Z" fill="black"/>
<path d="M175.993 170.085C175.961 170.079 175.931 170.062 175.911 170.033L175.354 169.241C175.314 169.184 175.329 169.104 175.387 169.062C175.445 169.021 175.525 169.034 175.566 169.092L176.122 169.884C176.163 169.941 176.148 170.021 176.09 170.062C176.06 170.083 176.026 170.09 175.993 170.085Z" fill="black"/>
</g>
<defs>
<clipPath id="clip0_579_16722">
<rect width="52.8261" height="53.1542" fill="white" transform="matrix(0.987009 0.160665 -0.181221 0.983442 134.735 153.223)"/>
</clipPath>
</defs>
</svg>
