<svg width="376" height="275" viewBox="0 0 376 275" fill="none" xmlns="http://www.w3.org/2000/svg">
<path d="M167.839 78.1382C183.856 59.9612 216.461 58.0323 230.762 59.34C215.381 66.2708 192.256 75.2016 181.345 78.5799C180.964 81.1952 187.648 90.7793 192.309 95.4652L181.346 102.494C160.818 89.2947 164.82 80.5901 167.839 78.1382Z" stroke="black" strokeWidth="0.814241"/>
<path d="M167.839 78.1382C183.856 59.9612 216.461 58.0323 230.762 59.34C215.381 66.2708 192.256 75.2016 181.345 78.5798C180.964 81.1952 187.648 90.7793 192.309 95.4652L181.346 102.494C160.818 89.2947 164.82 80.5901 167.839 78.1382Z" fill="#067F5D" stroke="black" strokeWidth="0.814241"/>
<ellipse cx="233.803" cy="89.1394" rx="29.4981" ry="30.1257" fill="#067F5D"/>
<path d="M233.805 59.0137C239.703 59.0137 245.198 60.7819 249.807 63.8276C257.928 69.1937 263.303 78.5256 263.303 89.1394C263.303 94.8495 261.747 100.189 259.045 104.739" stroke="black" strokeWidth="0.814241"/>
<path d="M154.371 77.3516H139.734V126.78H154.371V77.3516Z" fill="#C9DEFF"/>
<path d="M154.371 77.3516H139.734V126.78H154.371V77.3516Z" stroke="black" strokeWidth="0.814241" strokeMiterlimit="10"/>
<path d="M156.06 81.4453H138.05C134.799 81.4453 131.462 82.7247 132.16 75.4322V74.6125C131.772 66.9306 134.797 68.5994 138.05 68.5994H156.063C163.154 67.7761 161.951 71.2927 161.951 74.6125V75.4322C161.951 78.7529 163.154 82.1761 156.063 81.4453" fill="#002850"/>
<path d="M134.37 68.5986H159.728C160.316 68.5986 160.88 68.8372 161.296 69.2618C161.712 69.6864 161.945 70.2623 161.945 70.8628V79.1821C161.945 79.7824 161.712 80.3581 161.296 80.7825C160.881 81.207 160.317 81.4454 159.729 81.4454H134.37C133.783 81.4454 133.219 81.207 132.803 80.7825C132.388 80.3581 132.154 79.7824 132.154 79.1821V70.862C132.154 70.2617 132.388 69.686 132.803 69.2615C133.219 68.8371 133.783 68.5986 134.37 68.5986Z" stroke="black" strokeWidth="0.814241" strokeMiterlimit="10"/>
<g opacity="0.5">
<mask id="mask0_1940_129860" style="mask-type:luminance" maskUnits="userSpaceOnUse" x="199" y="200" width="34" height="19">
<path d="M232.997 200.025H199.453V218.556H232.997V200.025Z" fill="white"/>
</mask>
<g mask="url(#mask0_1940_129860)">
<path d="M200.259 217.401C200.416 217.746 200.665 218.038 200.979 218.242C201.293 218.447 201.657 218.555 202.029 218.555C202.401 218.555 202.766 218.447 203.079 218.242C203.393 218.038 203.643 217.746 203.799 217.401C206.584 211.26 219.697 205.407 224.546 203.656C224.596 203.637 229.402 201.866 232.997 203.726C232.406 202.563 231.495 201.602 230.376 200.961C226.766 198.957 221.812 200.794 221.762 200.81C216.91 202.557 203.8 208.412 201.013 214.557C200.871 214.868 200.653 215.136 200.379 215.335C200.106 215.534 199.787 215.657 199.453 215.693C199.728 216.265 200.003 216.835 200.26 217.4" fill="white"/>
</g>
</g>
<g opacity="0.5">
<mask id="mask1_1940_129860" style="mask-type:luminance" maskUnits="userSpaceOnUse" x="238" y="216" width="22" height="13">
<path d="M259.626 216.911H238.023V228.777H259.626V216.911Z" fill="white"/>
</mask>
<g mask="url(#mask1_1940_129860)">
<path d="M238.025 226.714C238.012 227.096 238.107 227.474 238.299 227.803C238.49 228.131 238.771 228.397 239.106 228.567C239.442 228.737 239.818 228.804 240.19 228.761C240.563 228.719 240.915 228.567 241.205 228.325C244.336 225.723 250.446 221.16 256.23 219.874C257.377 219.618 258.575 219.772 259.624 220.311C259.341 219.768 258.991 219.264 258.583 218.812C257.959 218.076 257.154 217.524 256.252 217.211C255.35 216.899 254.382 216.837 253.449 217.033C247.665 218.32 241.555 222.88 238.424 225.485C238.311 225.577 238.187 225.655 238.056 225.719C238.049 226.048 238.04 226.38 238.029 226.717" fill="white"/>
</g>
</g>
<path d="M125.238 145.576V263.991H288.238V152.342L209.389 67.0869L125.238 145.576Z" fill="#C9DEFF" stroke="black" strokeWidth="0.814241"/>
<path d="M125.238 145.576V263.991H288.238V152.342L209.389 67.0869L125.238 145.576Z" stroke="black" strokeWidth="0.814241" strokeMiterlimit="10"/>
<path d="M207.191 111.811C203.131 111.811 199.163 113.04 195.787 115.344C192.411 117.647 189.78 120.921 188.227 124.752C186.673 128.582 186.266 132.798 187.058 136.864C187.851 140.931 189.806 144.666 192.676 147.598C195.547 150.53 199.205 152.526 203.186 153.335C207.168 154.144 211.296 153.729 215.046 152.142C218.797 150.556 222.003 147.869 224.259 144.421C226.514 140.974 227.718 136.921 227.718 132.774C227.712 127.216 225.547 121.888 221.699 117.958C217.851 114.027 212.633 111.817 207.191 111.811Z" fill="#E7144B"/>
<path d="M207.191 153.738C218.528 153.738 227.718 144.352 227.718 132.774C227.718 121.196 218.528 111.811 207.191 111.811C195.854 111.811 186.664 121.196 186.664 132.774C186.664 144.352 195.854 153.738 207.191 153.738Z" fill="#002850" stroke="black" strokeWidth="0.814241" strokeMiterlimit="10"/>
<path d="M206.244 80.4341C208.14 80.4286 209.969 81.1505 211.369 82.4569L296.447 162.148C297.22 162.873 298.124 163.435 299.109 163.802C300.095 164.169 301.141 164.335 302.189 164.289C303.237 164.243 304.265 163.987 305.216 163.534C306.167 163.082 307.021 162.443 307.73 161.654C308.438 160.864 308.988 159.939 309.347 158.933C309.705 157.926 309.866 156.857 309.821 155.787C309.775 154.717 309.523 153.666 309.079 152.695C308.636 151.725 308.009 150.853 307.236 150.129L211.566 60.5188C210.082 59.1426 208.148 58.3834 206.144 58.3907C204.139 58.398 202.21 59.1712 200.736 60.5581L106.912 149.649C106.102 150.425 105.451 151.357 104.996 152.391C104.54 153.426 104.29 154.542 104.259 155.676C104.22 156.739 104.391 157.799 104.761 158.794C105.131 159.789 105.692 160.697 106.412 161.466C107.87 162.992 109.852 163.878 111.939 163.935C114.026 163.993 116.052 163.217 117.587 161.773L201.077 82.4892C202.481 81.1606 204.326 80.4253 206.24 80.4315" fill="#003382"/>
<path d="M206.244 80.4341C208.14 80.4286 209.969 81.1505 211.369 82.4569L296.447 162.148C297.22 162.873 298.124 163.435 299.109 163.802C300.095 164.169 301.141 164.335 302.189 164.289C303.237 164.243 304.265 163.987 305.216 163.534C306.167 163.082 307.021 162.443 307.73 161.654C308.438 160.864 308.988 159.939 309.347 158.933C309.705 157.926 309.866 156.857 309.821 155.787C309.775 154.717 309.523 153.666 309.079 152.695C308.636 151.725 308.009 150.853 307.236 150.129L211.566 60.5188C210.082 59.1426 208.148 58.3834 206.144 58.3907C204.139 58.398 202.21 59.1712 200.736 60.5581L106.912 149.649C106.102 150.425 105.451 151.357 104.996 152.391C104.54 153.426 104.29 154.542 104.259 155.676C104.22 156.739 104.391 157.799 104.761 158.794C105.131 159.789 105.692 160.697 106.412 161.466C107.87 162.992 109.852 163.878 111.939 163.935C114.026 163.993 116.052 163.217 117.587 161.773L201.077 82.4892C202.482 81.1608 204.329 80.4263 206.244 80.4341Z" fill="#002850" stroke="black" strokeWidth="0.814241" strokeMiterlimit="10"/>
<path d="M123.684 250.734H290.402C293.833 250.735 297.124 252.1 299.551 254.532C301.977 256.964 303.341 260.263 303.341 263.703V264.206H110.745V263.703C110.745 260.263 112.109 256.964 114.535 254.532C116.962 252.1 120.253 250.735 123.684 250.734Z" fill="#003382" stroke="black" strokeWidth="0.814241"/>
<path d="M303.748 264.614H110.338V263.703C110.338 260.156 111.744 256.754 114.247 254.245C116.75 251.737 120.144 250.327 123.683 250.327H290.403C293.942 250.327 297.336 251.737 299.839 254.245C302.342 256.754 303.748 260.156 303.748 263.703V264.614Z" fill="#002850" stroke="black" strokeWidth="0.814241" strokeMiterlimit="10"/>
<path d="M187.576 179.515H146.826V255.295H187.576V179.515Z" fill="#002850"/>
<path d="M187.576 179.515H146.826V255.295H187.576V179.515Z" stroke="black" strokeWidth="0.814241" strokeMiterlimit="10"/>
<path d="M189.619 183.862H145.088C144.558 183.862 144.033 183.753 143.542 183.541C143.052 183.33 142.607 183.019 142.232 182.628C141.857 182.236 141.559 181.771 141.356 181.26C141.153 180.748 141.049 180.2 141.049 179.647V179.074C141.049 178.52 141.153 177.971 141.356 177.46C141.559 176.948 141.856 176.483 142.231 176.091C142.606 175.7 143.052 175.389 143.542 175.177C144.032 174.965 144.558 174.856 145.088 174.855H189.619C190.15 174.856 190.675 174.965 191.166 175.177C191.656 175.389 192.101 175.7 192.476 176.091C192.851 176.483 193.149 176.948 193.352 177.46C193.555 177.971 193.659 178.52 193.659 179.074V179.647C193.659 180.2 193.555 180.748 193.352 181.26C193.149 181.771 192.851 182.236 192.476 182.628C192.101 183.019 191.655 183.33 191.165 183.541C190.675 183.753 190.15 183.862 189.619 183.862Z" fill="white" stroke="black" strokeWidth="0.814241"/>
<path d="M259.034 227.651H218.216C217.066 227.651 215.928 227.418 214.866 226.967C213.803 226.516 212.838 225.854 212.025 225.02C211.213 224.186 208.579 228.294 209.622 223.433C209.182 222.343 209.462 219.848 209.462 218.669V186.323C209.462 181.361 207.195 176.409 218.216 177.341H259.034C270.296 176.098 267.79 181.361 267.79 186.323V218.672C267.79 221.054 268.036 225.49 265.225 225.023C263.583 226.707 261.356 227.653 259.034 227.654" fill="white"/>
<path d="M212.772 177.342H264.562C265.437 177.342 266.276 177.698 266.895 178.332C267.513 178.966 267.861 179.825 267.861 180.722V224.274C267.861 224.718 267.775 225.158 267.61 225.568C267.444 225.978 267.201 226.351 266.894 226.665C266.588 226.979 266.224 227.228 265.824 227.397C265.424 227.567 264.995 227.655 264.562 227.655H212.772C212.338 227.655 211.909 227.567 211.509 227.397C211.109 227.228 210.745 226.979 210.439 226.665C210.133 226.351 209.89 225.978 209.724 225.568C209.558 225.158 209.473 224.718 209.473 224.274V180.722C209.473 179.826 209.82 178.966 210.439 178.332C211.058 177.698 211.897 177.342 212.772 177.342Z" stroke="black" strokeWidth="0.814241" strokeMiterlimit="10"/>
<path d="M270.708 231.381H206.616C205.598 231.381 204.105 231.935 203.386 231.225C202.666 230.516 202.777 228.602 202.777 227.599V227.085C202.778 226.082 202.514 224.325 203.234 223.616C203.953 222.908 205.598 223.306 206.616 223.306H270.708C271.725 223.306 273.37 223.063 274.09 223.772C274.81 224.48 274.545 226.082 274.546 227.085V227.599C274.546 228.602 274.81 230.361 274.09 231.07C273.37 231.78 271.726 231.381 270.708 231.381Z" fill="#A1C6FF"/>
<path d="M204.232 223.308H273.111C273.494 223.308 273.862 223.458 274.133 223.724C274.403 223.991 274.556 224.353 274.556 224.731V229.96C274.556 230.338 274.404 230.699 274.133 230.966C273.862 231.233 273.495 231.383 273.112 231.383H204.232C203.849 231.383 203.481 231.233 203.21 230.966C202.939 230.699 202.787 230.337 202.787 229.959V224.731C202.787 224.353 202.939 223.991 203.21 223.724C203.481 223.458 203.849 223.308 204.232 223.308Z" stroke="black" strokeWidth="0.814241" strokeMiterlimit="10"/>
<path d="M196.091 264.615H138.615V263.447C138.616 258.897 140.376 254.533 143.508 251.316C146.64 248.099 150.888 246.291 155.317 246.291H179.389C183.818 246.291 188.066 248.098 191.198 251.316C194.331 254.533 196.09 258.897 196.091 263.447V264.615Z" fill="white"/>
<path d="M196.091 264.615H138.615V263.447C138.616 258.897 140.376 254.533 143.508 251.316C146.64 248.099 150.888 246.291 155.317 246.291H179.389C183.818 246.291 188.066 248.098 191.198 251.316C194.331 254.533 196.09 258.897 196.091 263.447V264.615Z" stroke="black" strokeWidth="0.814241" strokeMiterlimit="10"/>
<path d="M222.548 132.929C222.548 136.062 221.638 139.124 219.934 141.729C218.23 144.334 215.808 146.364 212.974 147.563C210.14 148.762 207.021 149.075 204.013 148.464C201.004 147.853 198.241 146.344 196.072 144.129C193.903 141.914 192.426 139.092 191.827 136.019C191.229 132.947 191.536 129.762 192.71 126.868C193.884 123.973 195.872 121.5 198.422 119.759C200.973 118.019 203.971 117.09 207.039 117.09C211.152 117.09 215.097 118.759 218.005 121.729C220.914 124.7 222.548 128.728 222.548 132.929Z" fill="white"/>
<path d="M207.044 149.7C203.736 149.7 200.502 148.708 197.752 146.848C195.001 144.988 192.857 142.344 191.592 139.251C190.326 136.158 189.994 132.755 190.64 129.472C191.285 126.188 192.878 123.172 195.217 120.805C197.556 118.438 200.537 116.826 203.781 116.173C207.026 115.52 210.389 115.855 213.445 117.136C216.501 118.417 219.113 120.587 220.951 123.37C222.789 126.154 223.77 129.426 223.77 132.774C223.765 137.262 222.001 141.564 218.865 144.737C215.73 147.91 211.478 149.695 207.044 149.7ZM207.044 118.109C204.178 118.109 201.376 118.969 198.993 120.58C196.61 122.192 194.753 124.482 193.656 127.162C192.559 129.842 192.272 132.79 192.831 135.635C193.39 138.48 194.77 141.093 196.797 143.144C198.824 145.195 201.406 146.592 204.217 147.157C207.028 147.723 209.942 147.433 212.59 146.323C215.238 145.213 217.501 143.333 219.093 140.922C220.686 138.51 221.536 135.674 221.536 132.774C221.531 128.886 220.003 125.158 217.286 122.409C214.569 119.66 210.886 118.113 207.044 118.109Z" fill="black"/>
<path d="M159.294 211.04C159.294 211.685 159.107 212.316 158.756 212.852C158.405 213.388 157.907 213.806 157.323 214.053C156.74 214.3 156.098 214.365 155.478 214.239C154.859 214.113 154.29 213.802 153.843 213.346C153.397 212.89 153.093 212.309 152.97 211.677C152.846 211.044 152.91 210.388 153.151 209.792C153.393 209.197 153.802 208.687 154.327 208.329C154.852 207.971 155.47 207.779 156.101 207.779C156.948 207.779 157.76 208.123 158.359 208.734C158.958 209.346 159.294 210.175 159.294 211.04Z" fill="white" stroke="black" strokeWidth="0.814241"/>
<g opacity="0.2">
<mask id="mask2_1940_129860" style="mask-type:luminance" maskUnits="userSpaceOnUse" x="146" y="183" width="42" height="8">
<path d="M187.557 183.898H146.324V190.73H187.557V183.898Z" fill="white"/>
</mask>
<g mask="url(#mask2_1940_129860)">
<path d="M187.557 183.904H146.324V190.733H187.557V183.904Z" fill="black"/>
</g>
</g>
<path d="M178.806 98.9008C180.781 99.6349 184.638 103.956 185.058 104.43C185.084 104.46 185.101 104.492 185.112 104.53L186.077 107.846L187.622 113.244C188.082 113.868 188.795 114.55 189.902 115.64C190.155 115.89 190.515 115.999 190.866 115.93L191.821 115.744L192.521 116.334C192.898 116.742 193.469 116.887 193.986 116.707L194.784 116.431L195.348 116.886C195.701 117.171 196.203 117.152 196.534 116.839C196.959 116.435 196.921 115.732 196.454 115.379L193.008 112.455L191.379 108.28L193 111.808L197.276 115.489C197.726 115.823 197.912 115.318 198.186 114.82C198.178 114.384 198.191 114.095 197.861 113.794L196.114 111.983L194.669 109.977L191.967 103.643L194.607 105.087L195.189 107.075C195.374 108.212 196.266 109.083 197.377 109.212L197.598 109.238L197.045 103.53C196.969 102.697 196.563 101.934 195.926 101.419L192.339 98.4079L184.01 93.2991" fill="#E28A46"/>
<path d="M178.806 98.9008C180.781 99.6349 184.638 103.956 185.058 104.43C185.084 104.46 185.101 104.492 185.112 104.53L186.077 107.846L187.622 113.244C188.082 113.868 188.795 114.55 189.902 115.64C190.155 115.89 190.515 115.999 190.866 115.93L191.821 115.744L192.521 116.334C192.898 116.742 193.469 116.887 193.986 116.707L194.784 116.431L195.348 116.886C195.701 117.171 196.203 117.152 196.534 116.839C196.959 116.435 196.921 115.732 196.454 115.379L193.008 112.455L191.379 108.28L193 111.808L197.276 115.489C197.726 115.823 197.912 115.318 198.186 114.82C198.178 114.384 198.191 114.095 197.861 113.794L196.114 111.983L194.669 109.977L191.967 103.643L194.607 105.087L195.189 107.075C195.374 108.212 196.266 109.083 197.377 109.212L197.598 109.238L197.045 103.53C196.969 102.697 196.563 101.934 195.926 101.419L192.339 98.4079L184.01 93.2991" stroke="black" strokeWidth="0.814246" stroke-linecap="round" stroke-linejoin="round"/>
<path d="M238.836 116.662C236.722 116.221 230.823 118.361 230.254 118.57C230.222 118.582 230.197 118.598 230.172 118.622L227.615 120.963L223.988 124.136C223.262 124.426 222.097 124.723 220.52 125.086C220.18 125.164 219.824 125.068 219.564 124.829L218.811 124.135L217.896 124.264C217.358 124.411 216.786 124.227 216.428 123.792L215.875 123.122L215.15 123.209C214.694 123.263 214.267 122.975 214.141 122.526C213.979 121.947 214.375 121.361 214.963 121.31L219.474 120.655L223.046 117.938L219.814 120.103L214.191 120.96C213.626 121.004 213.725 120.468 213.743 119.89C213.975 119.519 214.112 119.262 214.555 119.181L217.011 118.567L219.304 117.619L224.926 113.621L221.881 113.437L220.349 114.835C219.601 115.715 218.375 115.984 217.34 115.493L217.134 115.395L220.561 110.773C221.057 110.096 221.804 109.658 222.625 109.559L227.302 108.906L237.192 109.012" fill="#E28A46"/>
<path d="M238.836 116.662C236.722 116.221 230.823 118.361 230.254 118.57C230.222 118.582 230.197 118.598 230.172 118.622L227.615 120.963L223.988 124.136C223.262 124.426 222.097 124.723 220.52 125.086C220.18 125.164 219.824 125.068 219.564 124.829L218.811 124.135L217.896 124.264C217.358 124.411 216.786 124.227 216.428 123.792L215.875 123.122L215.15 123.209C214.694 123.263 214.267 122.975 214.141 122.526C213.979 121.947 214.375 121.361 214.963 121.31L219.474 120.655L223.046 117.938L219.814 120.103L214.191 120.96C213.626 121.004 213.725 120.468 213.743 119.89C213.975 119.519 214.112 119.262 214.555 119.181L217.011 118.567L219.304 117.619L224.926 113.621L221.881 113.437L220.349 114.835C219.601 115.715 218.375 115.984 217.34 115.493L217.134 115.395L220.561 110.773C221.057 110.096 221.804 109.658 222.625 109.559L227.302 108.906L237.192 109.012" stroke="black" strokeWidth="0.814328" stroke-linecap="round" stroke-linejoin="round"/>
<path d="M192.308 95.4635L181.344 102.492L181.227 102.404C175.02 97.7278 169.776 93.7769 167.963 90.6905L174.653 84.4791L181.343 78.2676C180.962 80.883 187.647 90.7776 192.308 95.4635Z" fill="#067F5D"/>
<path d="M181.343 78.4238C180.976 80.9417 187.158 90.0621 191.778 94.9198C192.048 95.2037 191.996 95.664 191.667 95.8754L181.704 102.263C181.487 102.401 181.207 102.39 181.002 102.235C174.893 97.633 169.754 93.7405 167.963 90.6915" stroke="black" strokeWidth="0.814241" stroke-linecap="round"/>
<path d="M237.865 117.628C263.547 112.444 264.748 91.4206 261.938 80.4783C261.815 79.9989 261.204 79.8801 260.894 80.2662L249.977 93.8776C249.937 93.9266 249.906 93.9811 249.883 94.0394C247.17 100.834 236.771 105.014 231.15 106.476C230.737 106.584 230.548 107.063 230.78 107.421L237.224 117.363C237.36 117.573 237.619 117.678 237.865 117.628Z" fill="#067F5D"/>
<path d="M261.625 79.3545C265.558 89.7051 264.465 112.259 237.864 117.628C237.619 117.678 237.36 117.573 237.224 117.363L230.78 107.421C230.548 107.063 230.738 106.584 231.151 106.476C236.446 105.099 245.981 101.308 249.336 95.1938C250.069 92.5539 251.134 90.8457 249.336 82.1497" stroke="black" strokeWidth="0.814241"/>
<path d="M98.7825 90.4615C99.91 90.3985 100.952 91.0932 101.348 92.173L111.811 120.662C112.097 121.44 112.004 122.307 111.562 122.999L72.2707 184.431C71.4997 185.637 69.9098 185.97 68.7195 185.176L28.5077 158.352C27.3174 157.558 26.9775 155.937 27.7483 154.731L67.0392 93.2986C67.4816 92.6069 68.2218 92.1713 69.034 92.1259L98.7825 90.4615Z" fill="#0064FF" stroke="black" strokeWidth="0.814316"/>
<path d="M98.1349 94.3317C99.0421 94.9371 99.3013 96.1826 98.7043 97.1164C98.107 98.0503 96.8856 98.3091 95.9781 97.7039C95.0706 97.0985 94.8111 95.8518 95.4084 94.9178C96.0058 93.9842 97.2275 93.7264 98.1349 94.3317Z" fill="white" stroke="black" strokeWidth="0.814316"/>
<path d="M138.41 78.7358C138.57 78.5763 138.573 78.3168 138.417 78.1562C138.262 77.9955 138.005 77.9946 137.845 78.1541L138.41 78.7358ZM95.6286 94.0539L95.991 93.8684C95.5967 93.065 95.7062 91.9667 96.4028 90.5892C97.0949 89.2208 98.3293 87.6563 100.029 85.9951C103.425 82.6762 108.608 79.0379 114.776 75.8801L114.597 75.5146L114.417 75.1491C108.197 78.3337 102.94 82.0167 99.4706 85.4077C97.7377 87.1015 96.4334 88.7391 95.6839 90.2211C94.939 91.6941 94.7042 93.0946 95.2662 94.2395L95.6286 94.0539ZM98.6442 95.8811L98.7193 95.4775C97.2741 95.2158 96.3772 94.6552 95.991 93.8684L95.6286 94.0539L95.2662 94.2395C95.8166 95.3608 97.0171 96.0035 98.5692 96.2846L98.6442 95.8811ZM121.523 89.6255L121.344 89.26C113.868 93.0873 106.714 95.3039 101.844 95.6049L101.865 96.014L101.885 96.4231C106.907 96.1127 114.174 93.8454 121.702 89.991L121.523 89.6255ZM138.127 78.445L137.845 78.1541C134.462 81.5264 127.66 86.0262 121.344 89.26L121.523 89.6255L121.702 89.991C128.052 86.7404 134.939 82.1949 138.41 78.7358L138.127 78.445ZM114.597 75.5146L114.776 75.8801C121.472 72.4521 127.629 70.9096 132.428 70.2907L132.38 69.8841L132.333 69.4775C127.454 70.1068 121.206 71.6736 114.417 75.1491L114.597 75.5146Z" fill="black"/>
<path d="M52.6972 87.9708H50.7849V85.9509C50.787 85.7303 50.707 85.5176 50.5621 85.3586C50.4172 85.1997 50.2191 85.1071 50.0103 85.1009C49.8014 85.0947 49.5987 85.1753 49.4455 85.3254C49.2924 85.4755 49.2012 85.6831 49.1915 85.9035C49.1915 85.9196 49.1915 85.9354 49.1915 85.9509V87.9708H47.2796C47.0708 87.9686 46.8694 88.0532 46.7189 88.2062C46.5684 88.3592 46.4808 88.5685 46.4749 88.7891C46.469 89.0096 46.5454 89.2238 46.6875 89.3856C46.8296 89.5473 47.0261 89.6436 47.2348 89.6539H49.1929V91.6733C49.1879 91.7851 49.2042 91.8967 49.2406 92.0018C49.277 92.1068 49.3328 92.2032 49.4049 92.2852C49.4769 92.3671 49.5637 92.4332 49.6602 92.4793C49.7566 92.5255 49.8609 92.5509 49.9667 92.554C50.0726 92.5572 50.178 92.538 50.2768 92.4977C50.3755 92.4573 50.4657 92.3966 50.542 92.319C50.6183 92.2414 50.6792 92.1485 50.7211 92.0458C50.7631 91.9431 50.7852 91.8326 50.7863 91.7207C50.7863 91.7046 50.7863 91.6888 50.7863 91.6733V89.6529H52.6986C52.9053 89.6456 53.1012 89.5537 53.2449 89.3967C53.3886 89.2397 53.469 89.0298 53.469 88.8114C53.469 88.593 53.3886 88.3831 53.2449 88.2261C53.1012 88.0691 52.9053 87.9772 52.6986 87.9699" fill="#2962F5"/>
<path d="M322.332 171.171H320.42V169.151C320.422 168.93 320.342 168.718 320.197 168.559C320.052 168.4 319.854 168.307 319.645 168.301C319.436 168.295 319.233 168.376 319.08 168.526C318.927 168.676 318.836 168.883 318.826 169.104C318.826 169.12 318.826 169.136 318.826 169.151V171.171H316.914C316.706 171.169 316.504 171.253 316.354 171.406C316.203 171.559 316.116 171.769 316.11 171.989C316.104 172.21 316.18 172.424 316.322 172.586C316.464 172.747 316.661 172.844 316.87 172.854H318.828V174.874C318.823 174.985 318.839 175.097 318.875 175.202C318.912 175.307 318.968 175.403 319.04 175.485C319.112 175.567 319.198 175.633 319.295 175.68C319.391 175.726 319.496 175.751 319.601 175.754C319.707 175.757 319.813 175.738 319.912 175.698C320.01 175.657 320.1 175.597 320.177 175.519C320.253 175.442 320.314 175.349 320.356 175.246C320.398 175.143 320.42 175.033 320.421 174.921C320.421 174.905 320.421 174.889 320.421 174.874V172.853H322.333C322.54 172.846 322.736 172.754 322.88 172.597C323.023 172.44 323.104 172.23 323.104 172.012C323.104 171.793 323.023 171.583 322.88 171.426C322.736 171.269 322.54 171.177 322.333 171.17" fill="#2962F5"/>
<path d="M96.1836 189.219H94.2712V187.199C94.2733 186.978 94.1933 186.766 94.0484 186.607C93.9035 186.448 93.7054 186.355 93.4966 186.349C93.2878 186.343 93.085 186.423 92.9319 186.573C92.7788 186.724 92.6875 186.931 92.6778 187.152C92.6778 187.168 92.6778 187.183 92.6778 187.199V189.219H90.766C90.5571 189.217 90.3557 189.301 90.2052 189.454C90.0547 189.607 89.9671 189.817 89.9613 190.037C89.9554 190.258 90.0317 190.472 90.1738 190.634C90.3159 190.795 90.5124 190.892 90.7211 190.902H92.6792V192.921C92.6743 193.033 92.6905 193.145 92.7269 193.25C92.7633 193.355 92.8192 193.451 92.8912 193.533C92.9633 193.615 93.05 193.681 93.1465 193.727C93.243 193.774 93.3472 193.799 93.453 193.802C93.5589 193.805 93.6643 193.786 93.7631 193.746C93.8619 193.705 93.952 193.645 94.0283 193.567C94.1046 193.489 94.1655 193.397 94.2075 193.294C94.2494 193.191 94.2715 193.081 94.2726 192.969C94.2726 192.953 94.2726 192.937 94.2726 192.921V190.901H96.1849C96.3916 190.894 96.5875 190.802 96.7312 190.645C96.875 190.488 96.9553 190.278 96.9553 190.059C96.9553 189.841 96.875 189.631 96.7312 189.474C96.5875 189.317 96.3916 189.225 96.1849 189.218" fill="#2962F5"/>
<path d="M50.4276 75.1602C50.4276 75.3445 50.3651 75.5247 50.2482 75.6779C50.1312 75.8311 49.965 75.9505 49.7705 76.021C49.576 76.0916 49.362 76.11 49.1555 76.0741C48.9491 76.0381 48.7594 75.9494 48.6106 75.8191C48.4617 75.6888 48.3603 75.5227 48.3193 75.342C48.2782 75.1613 48.2993 74.9739 48.3799 74.8037C48.4604 74.6334 48.5968 74.4879 48.7719 74.3855C48.9469 74.2832 49.1527 74.2285 49.3632 74.2285C49.6455 74.2285 49.9162 74.3267 50.1158 74.5014C50.3154 74.6761 50.4276 74.9131 50.4276 75.1602Z" fill="#2962F5"/>
<path d="M337.306 187.61C337.306 187.795 337.244 187.975 337.127 188.128C337.01 188.281 336.844 188.401 336.649 188.471C336.455 188.542 336.241 188.56 336.034 188.524C335.828 188.488 335.638 188.4 335.489 188.269C335.341 188.139 335.239 187.973 335.198 187.792C335.157 187.611 335.178 187.424 335.259 187.254C335.339 187.084 335.476 186.938 335.651 186.836C335.826 186.733 336.032 186.679 336.242 186.679C336.524 186.679 336.795 186.777 336.995 186.952C337.194 187.126 337.306 187.363 337.306 187.61Z" fill="#2962F5"/>
<path d="M56.8182 82.6163C56.8182 82.8006 56.7558 82.9807 56.6388 83.1339C56.5219 83.2872 56.3556 83.4066 56.1611 83.4771C55.9666 83.5476 55.7526 83.5661 55.5462 83.5301C55.3397 83.4942 55.1501 83.4054 55.0012 83.2751C54.8523 83.1448 54.751 82.9788 54.7099 82.7981C54.6688 82.6173 54.6899 82.43 54.7705 82.2597C54.851 82.0895 54.9875 81.944 55.1625 81.8416C55.3375 81.7392 55.5433 81.6846 55.7538 81.6846C56.0361 81.6846 56.3068 81.7827 56.5064 81.9575C56.706 82.1322 56.8182 82.3692 56.8182 82.6163Z" fill="#2962F5"/>
<path d="M330.055 163.199C330.055 163.384 329.992 163.564 329.875 163.717C329.758 163.87 329.592 163.99 329.397 164.06C329.203 164.131 328.989 164.149 328.782 164.113C328.576 164.077 328.386 163.988 328.238 163.858C328.089 163.728 327.987 163.562 327.946 163.381C327.905 163.2 327.926 163.013 328.007 162.843C328.087 162.672 328.224 162.527 328.399 162.425C328.574 162.322 328.78 162.268 328.99 162.268C329.272 162.268 329.543 162.366 329.743 162.54C329.942 162.715 330.055 162.952 330.055 163.199Z" fill="#2962F5"/>
<path d="M107.903 122.525C107.902 122.813 107.806 123.089 107.635 123.293C107.464 123.497 107.232 123.611 106.99 123.611C106.748 123.61 106.516 123.496 106.345 123.292C106.174 123.088 106.078 122.812 106.078 122.524C106.078 122.235 106.174 121.959 106.345 121.755C106.516 121.551 106.748 121.437 106.99 121.437C107.232 121.436 107.464 121.551 107.635 121.754C107.806 121.958 107.902 122.234 107.903 122.522" fill="#2962F5"/>
<path d="M65.0238 194.735C65.0238 194.919 64.9702 195.099 64.8699 195.252C64.7696 195.406 64.6271 195.525 64.4604 195.595C64.2936 195.666 64.1102 195.684 63.9333 195.648C63.7563 195.612 63.5938 195.523 63.4663 195.393C63.3387 195.263 63.2519 195.097 63.2167 194.916C63.1816 194.735 63.1996 194.548 63.2687 194.378C63.3378 194.208 63.4547 194.062 63.6047 193.96C63.7547 193.857 63.9311 193.803 64.1115 193.803C64.2314 193.803 64.35 193.827 64.4608 193.874C64.5715 193.921 64.6721 193.989 64.7568 194.076C64.8415 194.162 64.9087 194.265 64.9545 194.378C65.0004 194.491 65.0239 194.613 65.0238 194.735Z" fill="#2962F5"/>
<path d="M93.9125 178.274C93.9124 178.458 93.8589 178.638 93.7586 178.791C93.6583 178.945 93.5157 179.064 93.349 179.134C93.1823 179.205 92.9989 179.223 92.822 179.187C92.645 179.151 92.4825 179.063 92.3549 178.932C92.2274 178.802 92.1406 178.636 92.1054 178.455C92.0702 178.274 92.0883 178.087 92.1574 177.917C92.2264 177.747 92.3434 177.601 92.4934 177.499C92.6434 177.396 92.8198 177.342 93.0002 177.342C93.12 177.342 93.2387 177.366 93.3494 177.413C93.4601 177.46 93.5607 177.528 93.6455 177.615C93.7302 177.701 93.7974 177.804 93.8432 177.917C93.889 178.03 93.9126 178.152 93.9125 178.274Z" fill="#2962F5"/>
<path d="M240.797 33.0984C238.111 30.3654 231.979 29.1568 229.282 29.1976C225.269 29.2584 222.922 31.6 221.304 32.8088C218.432 36.1686 217.38 39.2665 217.997 42.7486C218.599 45.0675 222.098 49.6689 229.405 47.7461C238.921 43.6969 240.797 33.0984 240.797 33.0984Z" fill="black"/>
<path d="M232.332 34.4698C233.186 34.089 234.495 34.1943 236.175 34.9298C239.373 36.3287 242.513 39.665 244.153 43.893L244.308 44.305C245.362 47.2394 245.163 49.7615 244.606 51.6413C244.044 53.5369 243.122 54.7657 242.764 55.1005L242.56 55.2908L242.657 55.5511L244.638 60.8512L236.98 64.2663L236.98 64.2597L236.507 64.4706L234.329 59.2479L234.178 58.8876L233.814 59.0305C232.999 59.3527 230.268 60.2444 227.841 58.9508C225.709 57.8111 224.712 56.0261 224.246 54.5053C223.799 53.049 223.844 51.851 223.849 51.7421L225.103 40.454C225.548 40.0481 229.351 36.5848 231.984 34.6699C232.088 34.5943 232.205 34.5263 232.332 34.4698Z" fill="#E28A46" stroke="black" strokeWidth="0.814285"/>
<path d="M228.741 54.3139C231.517 57.3137 233.831 54.8037 234.001 51.5893L228.741 54.3139Z" fill="white" stroke="black" strokeWidth="0.814285" stroke-linecap="round" stroke-linejoin="round"/>
<path d="M224.563 41.274C220.716 37.7941 233.161 32.8453 233.161 32.8453C233.161 32.8453 249.593 25.7989 250.515 41.2302C251.831 52.5425 247.244 48.87 246.732 51.7928C245.682 57.7753 242.81 55.3694 242.642 55.2776C245.483 50.2802 244.223 46.117 240.833 43.2355C237.322 45.3 234.812 40.3782 234.812 40.3782C234.812 40.3782 227.334 42.2408 224.564 41.2766L224.563 41.274Z" fill="black"/>
<path d="M242.449 50.1475L237.851 45.532L241.139 42.1649C242.394 40.8805 244.443 40.8716 245.711 42.1449C246.98 43.4183 246.991 45.496 245.737 46.7804L242.449 50.1475Z" fill="#E28A46"/>
<path d="M233.171 45.6989C233.467 45.5686 233.604 45.2181 233.476 44.9161C233.349 44.614 233.005 44.4747 232.71 44.605C232.414 44.7352 232.277 45.0857 232.405 45.3878C232.532 45.6898 232.875 45.8291 233.171 45.6989Z" fill="black"/>
<path d="M226.521 46.8297C226.817 46.6995 226.953 46.349 226.826 46.0469C226.698 45.7449 226.355 45.6056 226.059 45.7358C225.763 45.8661 225.627 46.2166 225.754 46.5186C225.882 46.8207 226.225 46.96 226.521 46.8297Z" fill="black"/>
<path d="M228.047 46.2194L227.405 51.2058L230.154 50.7277" fill="#E28A46"/>
<path d="M228.047 46.2194L227.405 51.2058L230.154 50.7277" stroke="black" strokeWidth="0.814285" stroke-linecap="round" stroke-linejoin="round"/>
<path d="M225.714 51.3347C225.307 50.3568 224.768 49.7229 223.897 49.3422C223.09 52.7892 224.246 54.9832 224.76 55.8909C226.067 54.838 226.412 53.0107 225.714 51.3347Z" fill="#E25333"/>
<path d="M240.352 53.1263C242.261 52.2898 243.126 50.0126 242.285 48.0399C241.444 46.0672 239.214 45.1461 237.305 45.9826C235.395 46.819 234.53 49.0962 235.371 51.0689C236.213 53.0416 238.442 53.9627 240.352 53.1263Z" fill="#E25333"/>
<path d="M236.074 68.0817V64.6048L244.522 60.9844L248.966 63.3887L237.872 69.1717C237.053 69.5984 236.074 69.0046 236.074 68.0817Z" fill="#D0F2DB" stroke="black" strokeWidth="0.814241"/>
<path d="M234.006 67.3277L235.701 64.8993C235.935 64.5643 235.987 64.135 235.84 63.7538L234.061 59.1357L231.233 60.5596C230.721 60.817 230.456 61.3931 230.591 61.9491L231.804 66.9157C232.055 67.9435 233.401 68.1953 234.006 67.3277Z" fill="#D0F2DB" stroke="black" strokeWidth="0.814241"/>
<path d="M77.1592 112.828C78.1462 113.092 78.748 114.129 78.4848 115.155L77.4199 119.306L79.1444 119.768C84.0148 121.071 86.9517 126.184 85.6713 131.176C85.0864 133.456 83.7202 135.317 81.9446 136.543L81.5451 136.819L81.8903 137.167C84.1441 139.44 85.1868 142.847 84.3273 146.197C83.0467 151.189 78.0325 154.175 73.162 152.872L69.0894 151.782L68.0245 155.934C67.7613 156.96 66.7391 157.562 65.752 157.298C64.7649 157.034 64.1623 155.997 64.4255 154.971L65.4904 150.819L57.8952 148.787C56.9082 148.523 56.3055 147.486 56.5687 146.46L63.9526 117.675C64.2159 116.649 65.2387 116.047 66.2257 116.312L73.8209 118.344L74.8858 114.192C75.149 113.166 76.1721 112.564 77.1592 112.828Z" fill="white" stroke="black" strokeWidth="0.814262"/>
<path d="M76.5298 139.298C78.982 139.954 80.4667 142.531 79.8198 145.053C79.1729 147.575 76.6416 149.078 74.1893 148.422L61.5083 145.029L63.8488 135.905L76.5298 139.298Z" fill="#0064FF" stroke="black" strokeWidth="0.814262"/>
<path d="M77.8692 124.279C80.3213 124.935 81.8061 127.512 81.1593 130.034C80.5123 132.556 77.9809 134.059 75.5287 133.403L65.1958 130.639L67.5363 121.514L77.8692 124.279Z" fill="#0064FF" stroke="black" strokeWidth="0.814262"/>
<path d="M298.346 207.231C299.49 200.223 297.203 194.09 295.916 191.9H297.632C300.202 195.4 300.466 203.098 300.254 207.18C300.234 207.569 299.838 207.817 299.476 207.675L298.346 207.231Z" fill="#083D37" stroke="black" strokeWidth="0.814241"/>
<path d="M284.756 191.47C286.171 191.47 287.602 191.975 288.891 192.953C297.678 199.639 299.432 207.86 299.507 208.225V208.226C299.514 208.263 299.498 208.3 299.47 208.321C299.46 208.327 299.452 208.329 299.446 208.331H299.438C299.425 208.331 299.412 208.327 299.401 208.319L299.398 208.317L299.073 208.093C297.632 207.111 291.5 203.04 282.449 198.494C281.048 197.789 280.417 196.979 280.141 196.293C279.862 195.6 279.924 194.981 280.004 194.632C280.404 192.882 282.408 191.47 284.756 191.47Z" fill="#083D37" stroke="black" strokeWidth="0.814241"/>
<path d="M314.326 187.251C316.802 187.251 318.817 188.568 319.335 190.324C319.781 191.84 319.033 193.498 317.026 194.854C308.325 200.735 302.357 205.737 300.075 207.721L299.972 207.811L299.944 207.945C299.039 212.281 299.252 217.257 299.439 221.592V221.593C299.468 222.227 299.491 222.851 299.516 223.463C299.521 223.676 299.451 223.871 299.314 224.02C299.176 224.171 298.994 224.255 298.796 224.267H298.682C298.322 224.227 298.026 223.916 298.014 223.527V223.526L297.946 221.857V221.855L297.937 221.658C297.685 215.748 297.411 209.178 299.643 203.783L299.652 203.76L299.659 203.735C300.576 200.382 302.925 195.179 308.938 189.535L308.939 189.536C310.965 187.638 312.992 187.251 314.326 187.251Z" fill="#067F5D" stroke="black" strokeWidth="0.814241"/>
<path d="M313.985 254.859L319.169 223.261H279.53L284.948 254.859H313.985Z" fill="#067F5D" stroke="black" strokeWidth="0.814241"/>
<path d="M289.613 264.497H309.082C312.567 264.497 315.727 262.45 317.15 259.27L319.021 255.091H279.676L281.545 259.27C282.969 262.45 286.129 264.497 289.613 264.497Z" fill="#083D37" stroke="black" strokeWidth="0.814241"/>
<path d="M297.196 191.932H293.219C288.237 191.932 284.199 187.807 284.199 182.72V182.717C284.199 177.63 288.237 173.506 293.219 173.506H297.196C302.177 173.506 306.216 177.63 306.216 182.717V182.72C306.216 187.807 302.177 191.932 297.196 191.932Z" fill="#F3C76B" stroke="black" strokeWidth="0.814241" strokeMiterlimit="10"/>
<path d="M303.381 176.157H287.005" stroke="black" strokeWidth="0.814241" strokeMiterlimit="10" stroke-linecap="round"/>
<path d="M305.824 180.593H289.446" stroke="black" strokeWidth="0.814241" strokeMiterlimit="10" stroke-linecap="round"/>
<path d="M305.824 185.025H289.446" stroke="black" strokeWidth="0.814241" strokeMiterlimit="10" stroke-linecap="round"/>
<path d="M303.189 189.459H287.054" stroke="black" strokeWidth="0.814241" strokeMiterlimit="10" stroke-linecap="round"/>
<path d="M293.352 191.932H293.35C288.368 191.932 284.33 187.807 284.33 182.72V182.717C284.33 177.63 288.368 173.506 293.35 173.506H293.352C298.334 173.506 302.372 177.63 302.372 182.717V182.72C302.372 187.807 298.334 191.932 293.352 191.932Z" fill="#FFB700" stroke="black" strokeWidth="0.814241" strokeMiterlimit="10"/>
<path d="M293.349 189.719H293.347C289.563 189.719 286.496 186.586 286.496 182.722V182.72C286.496 178.856 289.563 175.723 293.347 175.723H293.349C297.133 175.723 300.2 178.856 300.2 182.72V182.722C300.2 186.586 297.133 189.719 293.349 189.719Z" fill="#FFB700" stroke="black" strokeWidth="0.814241" strokeMiterlimit="10"/>
<ellipse cx="7.51554" cy="2.33607" rx="7.51554" ry="2.33607" transform="matrix(0.856132 -0.516758 0.500881 0.865516 221.348 41.582)" fill="black"/>
<ellipse cx="7.51554" cy="2.33607" rx="7.51554" ry="2.33607" transform="matrix(0.856132 -0.516758 0.500881 0.865516 228.244 41.582)" fill="black"/>
<rect x="0.523751" y="0.229075" width="8.17319" height="14.5739" rx="1.10239" transform="matrix(0.928576 -0.371141 0.357834 0.933785 228.877 106.503)" fill="#D0F2DB" stroke="black" strokeWidth="0.814282"/>
<rect x="-0.0798719" y="0.576106" width="8.26933" height="15.424" rx="1.10245" transform="matrix(0.595194 0.803582 -0.791361 0.611349 188.484 88.4141)" fill="#D0F2DB" stroke="black" strokeWidth="0.814324"/>
<path d="M238.76 177.353V223.433" stroke="black" strokeWidth="0.814241"/>
<path d="M311.585 58.3174C316.444 58.3174 320.816 60.4389 323.865 63.8209C325.272 63.2848 326.794 62.9911 328.383 62.9911C335.519 62.9911 341.305 68.8995 341.305 76.188V79.011H294.891V75.3639C294.891 65.9481 302.366 58.3174 311.582 58.3174H311.585Z" fill="#F5F5F5" stroke="black" strokeWidth="0.814241" stroke-linecap="round" stroke-linejoin="round"/>
<path d="M323.865 63.8203C323.865 63.8203 325.504 65.5141 325.984 68.2174L323.865 63.8203Z" fill="white"/>
<path d="M323.865 63.8203C323.865 63.8203 325.504 65.5141 325.984 68.2174" stroke="black" strokeWidth="0.814241" stroke-linecap="round" stroke-linejoin="round"/>
<path d="M191.625 113.856L191.248 114.009L191.285 114.101L191.361 114.166L191.625 113.856ZM190.391 109.726C190.307 109.518 190.069 109.417 189.861 109.502C189.652 109.586 189.552 109.823 189.636 110.032L190.391 109.726ZM195.654 117.285L195.918 116.975L191.889 113.546L191.625 113.856L191.361 114.166L195.39 117.595L195.654 117.285ZM191.625 113.856L192.002 113.703L190.391 109.726L190.014 109.879L189.636 110.032L191.248 114.009L191.625 113.856Z" fill="black"/>
<path d="M219.958 122.433L220.192 122.77L220.112 122.827L220.013 122.84L219.958 122.433ZM223.174 119.625C223.356 119.494 223.608 119.54 223.737 119.725C223.866 119.911 223.824 120.167 223.642 120.297L223.174 119.625ZM214.757 123.117L214.702 122.71L219.903 122.026L219.958 122.433L220.013 122.84L214.812 123.525L214.757 123.117ZM219.958 122.433L219.724 122.097L223.174 119.625L223.408 119.961L223.642 120.297L220.192 122.77L219.958 122.433Z" fill="black"/>
<path d="M191.894 115.914L189.746 113.857L188.537 110.977" stroke="black" strokeWidth="0.814241" stroke-linecap="round"/>
<path d="M218.751 124.143L221.543 123.464L224.076 121.696" stroke="black" strokeWidth="0.814315" stroke-linecap="round"/>
</svg>
