<svg width="408" height="408" viewBox="0 0 408 408" fill="none" xmlns="http://www.w3.org/2000/svg">
<path d="M0 8C0 3.58172 3.58172 0 8 0H400C404.418 0 408 3.58172 408 8V400C408 404.418 404.418 408 400 408H8C3.58172 408 0 404.418 0 400V8Z" fill="#F5F5F5"/>
<path d="M72.4721 316.419L72.6139 316.543C75.078 318.694 75.5803 318.954 75.669 318.978C75.9467 319.013 76.5376 318.936 76.5376 318.936C76.9454 318.848 80.6327 316.608 80.9577 316.052C81.2532 315.544 81.3123 315.083 81.1232 314.752L79.5986 311.041L79.705 310.906C81.0286 309.21 81.9091 307.384 82.3228 305.481L82.3523 305.351L83.7883 304.547C84.5978 304.092 85.0883 302.798 84.8637 301.717L84.2787 298.927C84.0542 297.846 83.0791 296.859 82.1573 296.765L80.5145 296.605L80.4377 296.499C79.9354 295.807 79.3091 295.128 78.5763 294.484C78.0208 293.993 77.4831 293.58 76.9276 293.219L76.8213 293.154C76.8213 293.154 75.0839 285.98 74.7235 285.998C74.7057 285.998 74.6703 286.004 74.6289 286.016C74.3748 286.069 72.0643 286.648 69.3638 290.442L69.2633 290.584L69.092 290.566C66.9174 290.341 64.6955 290.465 62.4913 290.926C51.8192 293.166 46.5009 299.53 48.2678 307.951C48.9828 311.361 51.2933 314.274 54.768 316.153L54.9216 316.236L55.0161 320.207C54.9748 320.626 55.2171 321.022 55.6898 321.365C56.2098 321.743 61.1204 322.269 61.7231 321.909C61.7645 321.873 62.1013 321.495 63.5314 318.458L63.6141 318.286H63.8032C66.6869 318.263 69.6533 317.642 72.3066 316.502L72.478 316.425L72.4721 316.419Z" fill="#A1C6FF" stroke="black" stroke-width="0.938176" stroke-miterlimit="10"/>
<path d="M76.2541 298.511C75.9941 298.511 75.7695 298.328 75.7164 298.074C75.6868 297.932 75.7163 297.784 75.7932 297.66C75.8759 297.536 76 297.453 76.1418 297.424C76.1773 297.418 76.2186 297.412 76.2541 297.412C76.5141 297.412 76.7386 297.595 76.7918 297.849C76.8568 298.145 76.6618 298.44 76.3664 298.505C76.3309 298.511 76.2895 298.517 76.2541 298.517V298.511Z" fill="#A1C6FF"/>
<path d="M76.26 296.814C76.1832 296.814 76.1004 296.82 76.0236 296.838C75.409 296.968 75.0131 297.571 75.1431 298.191C75.2554 298.729 75.7281 299.101 76.26 299.101C76.3368 299.101 76.4195 299.095 76.4963 299.078C77.1109 298.948 77.5068 298.345 77.3768 297.724C77.2645 297.187 76.7918 296.814 76.26 296.814Z" fill="black"/>
<path d="M47.0801 296.36C46.8851 297.293 47.6474 298.156 48.4983 297.453C51.7189 294.782 44.1432 295.527 51.3288 298.706" fill="#A1C6FF"/>
<path d="M47.0801 296.36C46.8851 297.293 47.6474 298.156 48.4983 297.453C51.7189 294.782 44.1432 295.527 51.3288 298.706" stroke="black" stroke-width="0.938176" stroke-miterlimit="10"/>
<path d="M58.8336 294.195C58.6563 294.036 58.4908 293.858 58.3372 293.669C57.959 293.191 57.6872 292.623 57.5513 291.979C57.0844 289.746 58.5145 287.553 60.7482 287.086C62.976 286.62 65.1683 288.05 65.6351 290.283C65.771 290.921 65.7474 291.554 65.5878 292.145C65.5406 292.381 65.4578 292.612 65.3574 292.824" fill="#A1C6FF"/>
<path d="M58.8336 294.195C58.6563 294.036 58.4908 293.858 58.3372 293.669C57.959 293.191 57.6872 292.623 57.5513 291.979C57.0844 289.746 58.5145 287.553 60.7482 287.086C62.976 286.62 65.1683 288.05 65.6351 290.283C65.771 290.921 65.7474 291.554 65.5878 292.145C65.5406 292.381 65.4578 292.612 65.3574 292.824" stroke="black" stroke-width="0.938176" stroke-miterlimit="10"/>
<path d="M58.3372 293.664C57.8645 293.865 57.3917 294.096 56.9426 294.338C56.7772 294.426 56.7181 294.633 56.8067 294.799C56.8776 294.935 57.0313 295 57.179 294.97C57.2085 294.964 57.244 294.952 57.2676 294.935C57.7758 294.657 58.2958 294.409 58.8336 294.196C60.89 293.333 63.1296 292.861 65.3633 292.825C65.9424 292.813 66.5156 292.825 67.0947 292.872C67.2779 292.89 67.4433 292.748 67.4611 292.565C67.4729 292.376 67.337 292.216 67.1479 292.199C66.6338 292.157 66.1138 292.134 65.5938 292.14" fill="#A1C6FF"/>
<path d="M58.3372 293.664C57.8645 293.865 57.3917 294.096 56.9426 294.338C56.7772 294.426 56.7181 294.633 56.8067 294.799C56.8776 294.935 57.0313 295 57.179 294.97C57.2085 294.964 57.244 294.952 57.2676 294.935C57.7758 294.657 58.2958 294.409 58.8336 294.196C60.89 293.333 63.1296 292.861 65.3633 292.825C65.9424 292.813 66.5156 292.825 67.0947 292.872C67.2779 292.89 67.4433 292.748 67.4611 292.565C67.4729 292.376 67.337 292.216 67.1479 292.199C66.6338 292.157 66.1138 292.134 65.5938 292.14" stroke="black" stroke-width="0.938176" stroke-miterlimit="10"/>
<path d="M259.287 344.146C237.104 344.146 219.057 326.099 219.057 303.916C219.057 281.732 237.104 263.686 259.287 263.686C281.47 263.686 299.517 281.732 299.517 303.916C299.517 326.099 281.47 344.146 259.287 344.146Z" fill="#0064FF"/>
<path d="M259.287 264.238C281.198 264.238 298.962 282.001 298.962 303.913C298.962 325.824 281.198 343.587 259.287 343.587C237.375 343.587 219.612 325.824 219.612 303.913C219.612 282.001 237.375 264.238 259.287 264.238ZM259.287 263.127C236.796 263.127 218.495 281.422 218.495 303.918C218.495 326.415 236.79 344.71 259.287 344.71C281.783 344.71 300.078 326.415 300.078 303.918C300.078 281.422 281.783 263.127 259.287 263.127Z" fill="black"/>
<mask id="mask0_586_32452" style="mask-type:luminance" maskUnits="userSpaceOnUse" x="219" y="264" width="80" height="80">
<path d="M259.287 343.592C281.199 343.592 298.962 325.829 298.962 303.917C298.962 282.005 281.199 264.242 259.287 264.242C237.375 264.242 219.612 282.005 219.612 303.917C219.612 325.829 237.375 343.592 259.287 343.592Z" fill="white"/>
</mask>
<g mask="url(#mask0_586_32452)">
<path d="M296.013 370.098L295.936 354.143C296.013 335.813 291.427 336.77 286.8 336.528C260.888 335.169 274.899 335.541 273.605 344.854L267.028 370.429L296.019 370.104L296.013 370.098Z" fill="white" stroke="black" stroke-width="0.708323" stroke-miterlimit="10"/>
<path d="M223.702 370.092L223.778 353.563C223.702 334.577 228.287 335.57 232.914 335.316C258.826 333.909 244.815 334.293 246.109 343.937L252.686 370.428L223.696 370.092H223.702Z" fill="white" stroke="black" stroke-width="0.708323" stroke-miterlimit="10"/>
<path d="M287.043 370.098L290.31 336.463L259.854 324.432V370.098H287.043Z" fill="#002850" stroke="black" stroke-width="0.708323" stroke-miterlimit="10"/>
<path d="M232.672 370.098L229.404 335.204L259.854 324.432V370.098H232.672Z" fill="#002850" stroke="black" stroke-width="0.708323" stroke-miterlimit="10"/>
<path d="M273.339 329.553L272.595 331.449L271.005 335.521L270.987 335.562L262.933 356.174L261.485 359.873C261.485 359.873 261.485 359.885 261.479 359.891L259.848 364.057L259.819 364.139L256.793 357.013H256.787L255.736 354.531L251.174 343.788L246.074 331.786L245.164 329.641L252.208 325.617V325.499L252.22 325.404H266.774L266.762 325.794L273.333 329.547L273.339 329.553Z" fill="white" stroke="black" stroke-width="0.708323" stroke-miterlimit="10"/>
<path d="M267.022 317.088L266.786 325.408L266.774 325.798L266.768 325.987L266.709 327.719L266.691 328.422L266.662 329.48L266.549 333.362L265.362 334.16C263.725 335.247 261.869 335.814 260.002 335.814C259.961 335.814 259.907 335.814 259.866 335.808C259.695 335.808 259.529 335.802 259.358 335.785H259.352C258.992 335.767 258.643 335.72 258.282 335.655L258.123 335.625C257.957 335.596 257.81 335.554 257.65 335.519C257.426 335.454 257.189 335.383 256.965 335.306C255.08 334.644 253.431 333.38 252.255 331.666L252.036 331.341L252.078 329.816L252.149 327.157L252.225 325.639V325.52L252.237 325.426L252.367 323.015L252.586 318.713L267.028 317.106L267.022 317.088Z" fill="#FFCD9F" stroke="black" stroke-width="0.708323" stroke-linecap="round" stroke-linejoin="round"/>
<path d="M277.452 303.579C277.44 307.208 276.725 310.145 275.449 312.561C273.901 315.492 271.537 317.661 268.624 319.345C268.086 319.658 267.519 319.954 266.94 320.22C262.579 322.235 257.242 322.926 252.432 321.792C248.237 320.799 244.449 318.417 242.044 314.322C241.477 313.365 241.128 312.372 240.933 311.38C240.123 307.202 242.127 302.923 243.397 300.737C243.947 299.797 244.354 299.248 244.354 299.248L244.029 295.472L243.303 287.004V286.992C243.303 286.992 255.86 281.762 261.934 281.242C268.009 280.722 276.371 290.549 277.316 300.501C277.375 301.086 277.411 301.659 277.434 302.208C277.452 302.675 277.464 303.13 277.464 303.579H277.452Z" fill="#FFCD9F"/>
<path d="M263.211 304.56C264.239 303.532 265.994 302.965 267.076 302.965C268.157 302.965 269.221 303.284 270.113 303.887C271.005 304.484 271.708 305.34 272.122 306.339C272.536 307.338 272.642 308.443 272.429 309.495C272.217 310.558 271.697 311.533 270.94 312.29C270.166 313.046 269.197 313.566 268.145 313.779C267.081 313.992 265.988 313.885 264.99 313.471C263.991 313.058 263.14 312.355 262.537 311.462C261.94 310.558 261.615 309.506 261.615 308.425C261.615 306.971 262.189 305.589 263.211 304.56Z" fill="#FFA195"/>
<path d="M255.606 288.767C252.131 295.415 244.112 295.469 244.112 295.469C231.301 295.669 226.124 268.434 250.689 270.679C265.829 261.815 276.264 272.588 275.922 279.33C278.622 278.982 289.401 279.584 288.124 294.594C287.273 304.492 276.761 304.651 272.89 302.453C269.014 300.255 268.523 288.454 268.523 288.454C262.141 291.409 255.617 288.773 255.617 288.773L255.606 288.767Z" fill="black"/>
<path d="M267.489 300.072C265.787 297.567 263.932 296.834 261.255 296.993" stroke="black" stroke-width="0.708323" stroke-linecap="round" stroke-linejoin="round"/>
<path d="M261.03 301.909C261.243 301.685 261.627 301.561 261.858 301.561C262.088 301.561 262.313 301.626 262.508 301.761C262.703 301.897 262.856 302.081 262.945 302.293C263.039 302.506 263.051 302.748 263.01 302.973C262.969 303.197 262.85 303.41 262.691 303.57C262.531 303.729 262.318 303.847 262.094 303.889C261.869 303.93 261.627 303.918 261.414 303.824C261.19 303.729 261.013 303.582 260.883 303.387C260.747 303.197 260.682 302.961 260.682 302.736C260.682 302.429 260.8 302.14 261.03 301.909Z" fill="black"/>
<path d="M248.03 300.882C248.243 300.657 248.627 300.533 248.857 300.533C249.088 300.533 249.312 300.598 249.507 300.734C249.702 300.87 249.856 301.053 249.945 301.266C250.039 301.479 250.051 301.721 250.01 301.946C249.968 302.17 249.85 302.383 249.69 302.542C249.531 302.702 249.318 302.82 249.094 302.861C248.869 302.903 248.627 302.891 248.414 302.796C248.189 302.702 248.012 302.554 247.882 302.359C247.746 302.17 247.681 301.934 247.681 301.709C247.681 301.402 247.799 301.112 248.03 300.882Z" fill="black"/>
<path d="M252.716 308.997C251.516 307.425 252.527 304.482 252.527 304.482" stroke="black" stroke-width="0.708323" stroke-miterlimit="10"/>
<path d="M258.359 312.299C256.776 313.481 253.845 312.447 253.845 312.447" stroke="black" stroke-width="0.708323" stroke-miterlimit="10"/>
<path d="M259.027 310.404C259.027 310.404 260.351 311.291 260.688 312.573" stroke="black" stroke-width="0.708323" stroke-miterlimit="10"/>
<path d="M263.678 354.288C261.733 358.531 259.825 364.145 259.825 364.145C258.359 360.971 256.941 357.349 255.724 354.66C256.232 350.648 256.87 344.786 257.024 343.781H261.237L263.678 354.294V354.288Z" fill="#0064FF" stroke="black" stroke-width="0.708323" stroke-miterlimit="10"/>
<path d="M263.193 337.967L262.644 341.294L261.881 345.868H257.012C257.012 345.868 255.688 338.287 255.505 336.963C255.422 336.378 255.694 335.811 256.055 335.811H262.206C262.874 335.811 263.37 336.88 263.193 337.967Z" fill="#0064FF" stroke="black" stroke-width="0.708323" stroke-miterlimit="10"/>
<path d="M259.34 335.779V335.785L259.316 335.815L255.865 339.195L251.179 343.792L246.086 331.79L245.17 329.645L252.219 325.621L254.565 328.972L259.34 335.779Z" fill="white" stroke="black" stroke-width="0.708323" stroke-miterlimit="10"/>
<path d="M273.505 329.645L272.719 331.489L271.005 335.525L270.987 335.566L267.495 343.792L262.968 339.342L259.854 336.287L259.364 335.815L259.34 335.785V335.779H259.346L259.854 335.052L264.304 328.688L266.455 325.621L266.768 325.798V325.804L273.339 329.551L273.505 329.645Z" fill="white" stroke="black" stroke-width="0.708323" stroke-miterlimit="10"/>
<path d="M247.415 307.103C247.203 308.166 246.688 309.141 245.926 309.898C245.152 310.654 244.177 311.174 243.131 311.387C242.387 311.54 241.642 311.529 240.927 311.375C240.117 307.197 242.121 302.919 243.391 300.732C244 300.886 244.579 301.14 245.099 301.495C245.991 302.092 246.7 302.948 247.108 303.941C247.522 304.94 247.628 306.045 247.415 307.103Z" fill="#FFA195"/>
<path d="M277.452 303.579C277.44 307.208 276.725 310.145 275.449 312.561C273.901 315.492 271.537 317.661 268.624 319.345C268.086 319.658 267.519 319.954 266.94 320.22C262.579 322.235 257.242 322.926 252.432 321.792C248.237 320.799 244.449 318.417 242.044 314.322C241.477 313.365 241.128 312.372 240.933 311.38C240.123 307.202 242.127 302.923 243.397 300.737C243.947 299.797 244.354 299.248 244.354 299.248L244.029 295.472L243.303 287.004V286.992C243.303 286.992 255.86 281.762 261.934 281.242C268.009 280.722 276.371 290.549 277.316 300.501C277.375 301.086 277.411 301.659 277.434 302.208C277.452 302.675 277.464 303.13 277.464 303.579H277.452Z" stroke="black" stroke-width="0.708323" stroke-linecap="round" stroke-linejoin="round"/>
<path d="M273.611 303.973L275.727 302.749C276.702 302.188 277.86 302.046 278.935 302.336C280.029 302.631 280.945 303.334 281.506 304.309C282.067 305.284 282.227 306.443 281.931 307.518C281.636 308.594 280.933 309.527 279.958 310.089L275.094 312.754L273.605 303.978L273.611 303.973Z" fill="#FFCD9F"/>
<path d="M273.611 303.973L275.727 302.749C276.702 302.188 277.86 302.046 278.935 302.336C280.029 302.631 280.944 303.334 281.506 304.309C282.067 305.284 282.227 306.443 281.931 307.518C281.636 308.594 280.933 309.527 279.958 310.089L275.094 312.754" stroke="black" stroke-width="0.708323" stroke-linecap="round" stroke-linejoin="round"/>
</g>
<path d="M247.9 300.769C248.124 300.526 248.532 300.402 248.774 300.402C249.017 300.402 249.253 300.473 249.466 300.615C249.678 300.757 249.832 300.952 249.933 301.176C250.033 301.401 250.045 301.655 250.003 301.897C249.962 302.14 249.832 302.364 249.667 302.53C249.495 302.701 249.271 302.825 249.034 302.867C248.792 302.908 248.544 302.896 248.313 302.796C248.071 302.695 247.888 302.541 247.752 302.329C247.61 302.134 247.539 301.88 247.539 301.637C247.539 301.312 247.663 301.005 247.906 300.763L247.9 300.769Z" fill="black"/>
<path d="M260.977 301.911C261.201 301.669 261.609 301.545 261.852 301.545C262.094 301.545 262.33 301.616 262.543 301.758C262.756 301.899 262.909 302.094 263.01 302.319C263.11 302.544 263.122 302.798 263.081 303.04C263.039 303.282 262.909 303.507 262.744 303.672C262.572 303.844 262.348 303.968 262.112 304.009C261.869 304.05 261.621 304.039 261.391 303.938C261.148 303.838 260.965 303.684 260.829 303.471C260.687 303.276 260.616 303.022 260.616 302.78C260.616 302.455 260.741 302.148 260.983 301.905L260.977 301.911Z" fill="black"/>
<path d="M140.068 344.236C117.884 344.236 99.8375 326.189 99.8375 304.006C99.8375 281.822 117.884 263.775 140.068 263.775C162.251 263.775 180.298 281.822 180.298 304.006C180.298 326.189 162.251 344.236 140.068 344.236Z" fill="#0064FF"/>
<path d="M140.068 264.326C161.979 264.326 179.742 282.089 179.742 304C179.742 325.912 161.979 343.675 140.068 343.675C118.156 343.675 100.393 325.912 100.393 304C100.393 282.089 118.156 264.326 140.068 264.326ZM140.068 263.215C117.577 263.215 99.2761 281.51 99.2761 304.006C99.2761 326.503 117.571 344.798 140.068 344.798C162.564 344.798 180.859 326.503 180.859 304.006C180.859 281.51 162.564 263.215 140.068 263.215Z" fill="black"/>
<path d="M140.068 343.679C161.979 343.679 179.742 325.916 179.742 304.005C179.742 282.093 161.979 264.33 140.068 264.33C118.156 264.33 100.393 282.093 100.393 304.005C100.393 325.916 118.156 343.679 140.068 343.679Z" fill="#0064FF"/>
<mask id="mask1_586_32452" style="mask-type:luminance" maskUnits="userSpaceOnUse" x="100" y="264" width="80" height="80">
<path d="M140.068 343.677C161.979 343.677 179.742 325.914 179.742 304.003C179.742 282.091 161.979 264.328 140.068 264.328C118.156 264.328 100.393 282.091 100.393 304.003C100.393 325.914 118.156 343.677 140.068 343.677Z" fill="white"/>
</mask>
<g mask="url(#mask1_586_32452)">
<path d="M118.239 289.214C118.239 289.214 96.2093 346.77 140.168 341.523C169.383 338.036 173.077 325.491 166.789 292.931C160.502 260.371 125.324 260.655 118.239 289.214Z" fill="black" stroke="black" stroke-width="0.609814" stroke-miterlimit="10"/>
<path d="M129.679 301.947L124.544 297.622C124.083 297.214 123.534 296.93 122.96 296.735C122.387 296.546 121.755 296.464 121.158 296.523C120.532 296.594 119.941 296.73 119.403 297.025C118.848 297.291 118.404 297.699 117.991 298.16C117.583 298.62 117.299 299.17 117.104 299.743C116.945 300.305 116.862 300.937 116.921 301.528C116.992 302.154 117.158 302.727 117.453 303.271C117.719 303.827 118.127 304.27 118.588 304.683L125.519 310.439L131.464 303.348L129.685 301.947H129.679Z" fill="#FDD3BB"/>
<path d="M175.346 359.139L175.269 347.161C175.222 339.166 170.299 332.01 162.848 329.109L153.996 325.658C153.222 325.12 152.282 324.807 151.266 324.807H137.775C136.759 324.807 135.819 325.12 135.045 325.658L126.193 329.109C118.741 332.01 113.819 339.166 113.772 347.161L113.701 359.139H175.346Z" fill="white" stroke="black" stroke-width="0.717705" stroke-miterlimit="10" stroke-linecap="round"/>
<path d="M151.591 302.117H133.615V325.081H151.591V302.117Z" fill="#FDD3BB" stroke="black" stroke-width="0.717705" stroke-miterlimit="10"/>
<path d="M155.107 298.215C155.633 299.888 155.887 301.678 155.84 303.528C155.81 304.586 155.68 305.62 155.461 306.618C155.349 307.156 155.207 307.7 155.024 308.214C152.82 314.98 146.367 319.778 138.892 319.577C129.774 319.329 122.588 311.748 122.836 302.63C122.884 300.898 123.197 299.232 123.735 297.678C123.735 297.678 123.74 297.648 123.746 297.636C123.776 297.542 123.811 297.447 123.853 297.358C123.327 295.686 123.073 293.896 123.12 292.046C123.167 290.315 123.48 288.648 124.018 287.094C124.018 287.094 124.024 287.065 124.03 287.053C126.329 280.44 132.699 275.784 140.068 275.985C140.446 275.997 140.818 276.02 141.179 276.056C142.544 282.018 147.797 286.533 154.185 286.704C154.48 286.71 154.782 286.716 155.071 286.692C155.804 288.631 156.17 290.74 156.111 292.932C156.082 293.99 155.952 295.024 155.733 296.023C155.621 296.561 155.479 297.104 155.296 297.619C155.237 297.814 155.166 298.009 155.095 298.198L155.107 298.215Z" fill="#FDD3BB" stroke="black" stroke-width="0.717705" stroke-miterlimit="10"/>
<path d="M131.434 305.543C131.434 308.344 129.171 310.607 126.37 310.607C125.927 310.607 125.496 310.554 125.088 310.447C123.865 308.06 123.203 305.348 123.285 302.47C123.291 302.145 123.315 301.82 123.339 301.495C124.184 300.857 125.23 300.479 126.364 300.479C129.165 300.479 131.428 302.748 131.428 305.543H131.434Z" fill="#FFB2AB"/>
<path d="M129.425 299.963C129.467 300.135 129.561 300.288 129.685 300.401C129.815 300.519 129.975 300.596 130.146 300.619C130.318 300.643 130.495 300.619 130.654 300.548C130.814 300.471 130.944 300.353 131.033 300.206C131.121 300.058 131.168 299.886 131.157 299.709C131.151 299.538 131.092 299.366 130.985 299.225C130.885 299.083 130.737 298.976 130.578 298.917C130.412 298.858 130.235 298.846 130.069 298.888C129.845 298.947 129.65 299.089 129.526 299.29C129.408 299.491 129.366 299.727 129.425 299.957" fill="black"/>
<path d="M142.786 299.963C142.827 300.135 142.922 300.288 143.046 300.401C143.176 300.519 143.336 300.596 143.507 300.619C143.678 300.643 143.856 300.619 144.015 300.548C144.175 300.471 144.305 300.353 144.393 300.206C144.482 300.058 144.529 299.886 144.517 299.709C144.511 299.538 144.452 299.366 144.346 299.225C144.246 299.083 144.098 298.976 143.938 298.917C143.773 298.858 143.596 298.846 143.43 298.888C143.206 298.947 143.011 299.089 142.886 299.29C142.768 299.491 142.727 299.727 142.786 299.957" fill="black"/>
<path d="M159.143 288.852C159.143 291.883 157.222 294.466 154.539 295.453L151.195 288.036C150.846 287.256 149.794 287.138 149.268 287.818L143.064 295.884H126.512C124 295.884 121.962 293.851 121.962 291.334V286.293C121.962 279.503 127.463 274.002 134.253 274.002H144.293C152.495 274.002 159.137 280.65 159.137 288.846L159.143 288.852Z" fill="black"/>
<path d="M132.403 308.932H143.247C143.247 308.932 143.66 315.03 139.063 315.255C133.963 315.503 132.847 312.394 132.403 308.932Z" fill="white" stroke="black" stroke-width="0.717705" stroke-miterlimit="10"/>
<path d="M150.409 299.106L155.544 294.78C156.005 294.372 156.555 294.089 157.128 293.894C157.701 293.705 158.333 293.622 158.93 293.681C159.556 293.752 160.147 293.888 160.685 294.183C161.241 294.449 161.684 294.857 162.097 295.318C162.505 295.779 162.789 296.328 162.984 296.901C163.143 297.463 163.226 298.095 163.167 298.686C163.096 299.312 162.931 299.886 162.635 300.429C162.369 300.985 161.962 301.428 161.501 301.842L154.569 307.597L148.624 300.506L150.403 299.106H150.409Z" fill="#FDD3BB"/>
<path d="M149.587 309.478C152.388 309.478 154.658 307.208 154.658 304.408C154.658 301.608 152.388 299.338 149.587 299.338C146.787 299.338 144.517 301.608 144.517 304.408C144.517 307.208 146.787 309.478 149.587 309.478Z" fill="#FFB2AB"/>
<path d="M135.08 306.697L132.155 305.35L134.696 302.117" stroke="black" stroke-width="0.717705" stroke-miterlimit="10"/>
<path d="M134.253 326.763C132.941 326.763 131.878 325.699 131.878 324.393C131.878 323.087 132.935 322.012 134.253 322.012C135.039 322.012 135.736 322.396 136.174 322.987C136.599 322.396 137.302 322.012 138.088 322.012C138.815 322.012 139.477 322.343 139.92 322.863C140.351 322.343 141.007 322.012 141.734 322.012C142.52 322.012 143.217 322.396 143.655 322.987C144.08 322.396 144.783 322.012 145.569 322.012C146.296 322.012 146.958 322.343 147.401 322.863C147.833 322.343 148.489 322.012 149.215 322.012C150.001 322.012 150.699 322.396 151.136 322.987C151.561 322.396 152.265 322.012 153.05 322.012C154.362 322.012 155.432 323.075 155.432 324.393C155.432 325.711 154.368 326.763 153.05 326.763" fill="white"/>
<path d="M134.253 326.763C132.941 326.763 131.878 325.699 131.878 324.393C131.878 323.087 132.935 322.012 134.253 322.012C135.039 322.012 135.736 322.396 136.174 322.987C136.599 322.396 137.302 322.012 138.088 322.012C138.815 322.012 139.477 322.343 139.92 322.863C140.351 322.343 141.007 322.012 141.734 322.012C142.52 322.012 143.217 322.396 143.655 322.987C144.08 322.396 144.783 322.012 145.569 322.012C146.296 322.012 146.958 322.343 147.401 322.863C147.833 322.343 148.489 322.012 149.215 322.012C150.001 322.012 150.699 322.396 151.136 322.987C151.561 322.396 152.265 322.012 153.05 322.012C154.362 322.012 155.432 323.075 155.432 324.393C155.432 325.711 154.368 326.763 153.05 326.763" stroke="black" stroke-width="0.717705" stroke-miterlimit="10"/>
<path d="M129.443 298.872C129.668 298.63 130.075 298.506 130.318 298.506C130.56 298.506 130.796 298.577 131.009 298.719C131.222 298.86 131.375 299.055 131.476 299.28C131.576 299.505 131.588 299.759 131.547 300.001C131.505 300.243 131.375 300.468 131.21 300.633C131.039 300.805 130.814 300.929 130.578 300.97C130.335 301.011 130.087 301 129.857 300.899C129.614 300.799 129.431 300.645 129.295 300.432C129.153 300.237 129.083 299.983 129.083 299.741C129.083 299.416 129.207 299.109 129.449 298.866L129.443 298.872Z" fill="black"/>
<path d="M142.544 298.872C142.768 298.63 143.176 298.506 143.418 298.506C143.661 298.506 143.897 298.577 144.11 298.719C144.322 298.86 144.476 299.055 144.576 299.28C144.677 299.505 144.689 299.759 144.647 300.001C144.606 300.243 144.476 300.468 144.311 300.633C144.139 300.805 143.915 300.929 143.678 300.97C143.436 301.011 143.188 301 142.957 300.899C142.715 300.799 142.532 300.645 142.396 300.432C142.254 300.237 142.183 299.983 142.183 299.741C142.183 299.416 142.307 299.109 142.55 298.866L142.544 298.872Z" fill="black"/>
</g>
<path d="M200.011 275.193C177.828 275.193 159.781 257.146 159.781 234.963C159.781 212.779 177.828 194.732 200.011 194.732C222.195 194.732 240.241 212.779 240.241 234.963C240.241 257.146 222.195 275.193 200.011 275.193Z" fill="#0064FF"/>
<path d="M200.005 195.281C221.917 195.281 239.68 213.044 239.68 234.956C239.68 256.867 221.917 274.63 200.005 274.63C178.094 274.63 160.331 256.867 160.331 234.956C160.331 213.044 178.094 195.281 200.005 195.281ZM200.005 194.17C177.515 194.17 159.214 212.465 159.214 234.961C159.214 257.458 177.509 275.753 200.005 275.753C222.502 275.753 240.797 257.458 240.797 234.961C240.797 212.465 222.502 194.17 200.005 194.17Z" fill="black"/>
<path d="M200.005 274.634C221.917 274.634 239.68 256.872 239.68 234.96C239.68 213.048 221.917 195.285 200.005 195.285C178.094 195.285 160.331 213.048 160.331 234.96C160.331 256.872 178.094 274.634 200.005 274.634Z" fill="#0064FF"/>
<mask id="mask2_586_32452" style="mask-type:luminance" maskUnits="userSpaceOnUse" x="160" y="195" width="80" height="80">
<path d="M200.005 274.631C221.917 274.631 239.68 256.868 239.68 234.956C239.68 213.044 221.917 195.281 200.005 195.281C178.094 195.281 160.331 213.044 160.331 234.956C160.331 256.868 178.094 274.631 200.005 274.631Z" fill="white"/>
</mask>
<g mask="url(#mask2_586_32452)">
<path d="M220.369 212.116C220.369 212.116 230.769 228.721 223.666 240.457C217.981 249.841 206.115 250.916 203.74 250.733C181.823 249.008 171.428 231.971 177.083 214.433C183.099 195.765 209.389 194.572 220.374 212.122L220.369 212.116Z" fill="black" stroke="black" stroke-width="0.450325" stroke-miterlimit="10" stroke-linecap="round"/>
<path d="M215.954 235.879L213.366 242.882C213.124 243.543 213.662 244.229 214.424 244.229H219.742C220.51 244.229 221.048 243.532 220.788 242.87L218.052 235.867C217.698 234.957 216.285 234.969 215.948 235.885L215.954 235.879Z" fill="#0064FF" stroke="black" stroke-width="0.684869" stroke-miterlimit="10" stroke-linecap="round"/>
<path d="M245.577 294.465L245.501 281.601C245.447 273.014 240.159 265.326 232.157 262.212L220.457 257.65V294.465H245.571H245.577Z" fill="white" stroke="black" stroke-width="0.717705" stroke-miterlimit="10" stroke-linecap="round"/>
<path d="M230.503 294.467L233.948 262.971L208.999 253.244V294.467H230.503Z" fill="white" stroke="black" stroke-width="0.717705" stroke-miterlimit="10" stroke-linecap="round"/>
<path d="M155.219 294.465L155.296 281.601C155.349 273.014 160.638 265.326 168.639 262.212L180.339 257.65V294.465H155.225H155.219Z" fill="white" stroke="black" stroke-width="0.717705" stroke-miterlimit="10" stroke-linecap="round"/>
<path d="M170.293 294.467L166.848 262.971L191.797 253.244V294.467H170.293Z" fill="white" stroke="black" stroke-width="0.717705" stroke-miterlimit="10" stroke-linecap="round"/>
<path d="M212.338 293.979H187.643V260.845C187.643 254.771 192.577 249.836 198.652 249.836H201.335C207.409 249.836 212.344 254.771 212.344 260.845V293.979H212.338Z" fill="#2E3192" stroke="black" stroke-width="0.717705" stroke-miterlimit="10" stroke-linecap="round"/>
<path d="M183.093 227.165C183.093 230.179 183.861 233.01 185.208 235.474C185.811 236.579 186.538 237.613 187.365 238.553C190.539 242.175 195.195 244.468 200.389 244.468C209.23 244.468 216.516 237.849 217.562 229.287C217.567 229.251 217.567 229.228 217.567 229.204C217.65 228.542 217.692 227.857 217.692 227.165C217.692 217.758 210.181 210.094 200.809 209.869C201.483 211.441 201.849 213.172 201.849 214.992C201.849 216.133 201.707 217.238 201.429 218.29C199.97 223.957 194.829 228.141 188.713 228.141C188.429 228.141 188.139 228.135 187.862 228.105C186.166 227.999 184.553 227.573 183.093 226.876C183.087 226.97 183.087 227.065 183.087 227.165H183.093Z" fill="white" stroke="black" stroke-width="0.520688" stroke-miterlimit="10" stroke-linecap="round"/>
<path d="M200.395 267.859C195.65 267.859 191.797 264.007 191.797 259.261V233.137H208.999V259.261C208.999 264.007 205.146 267.859 200.401 267.859H200.395Z" fill="#FFCD9F" stroke="black" stroke-width="0.717705" stroke-miterlimit="10" stroke-linecap="round"/>
<path d="M186.958 229.392C186.455 230.994 186.213 232.701 186.26 234.474C186.29 235.485 186.414 236.477 186.621 237.435C186.727 237.955 186.863 238.469 187.04 238.965C189.15 245.436 195.325 250.027 202.469 249.832C211.191 249.596 218.07 242.339 217.833 233.623C217.786 231.969 217.491 230.373 216.977 228.89C216.977 228.89 216.971 228.866 216.965 228.849C216.935 228.76 216.9 228.665 216.864 228.583C217.367 226.981 217.609 225.273 217.562 223.501C217.514 221.846 217.219 220.251 216.705 218.767C216.705 218.767 216.699 218.744 216.693 218.726C214.495 212.403 208.396 207.948 201.347 208.137C200.986 208.148 200.632 208.172 200.283 208.208C198.977 213.91 193.954 218.23 187.838 218.395C187.554 218.401 187.265 218.407 186.987 218.383C186.29 220.239 185.935 222.254 185.988 224.352C186.018 225.362 186.142 226.355 186.349 227.312C186.455 227.826 186.591 228.346 186.769 228.843C186.828 229.032 186.893 229.215 186.964 229.398L186.958 229.392Z" fill="#FFCD9F" stroke="black" stroke-width="0.717705" stroke-miterlimit="10" stroke-linecap="round"/>
<path d="M190.208 229.408L185.297 225.271C184.854 224.881 184.328 224.61 183.778 224.426C183.229 224.243 182.62 224.166 182.053 224.22C181.456 224.291 180.889 224.415 180.369 224.698C179.837 224.958 179.411 225.342 179.021 225.78C178.631 226.223 178.36 226.749 178.176 227.298C178.023 227.83 177.946 228.439 177.999 229.006C178.07 229.603 178.224 230.158 178.507 230.673C178.767 231.204 179.151 231.63 179.589 232.02L186.219 237.527L191.904 230.743L190.202 229.402L190.208 229.408Z" fill="#FFCD9F"/>
<path d="M209.265 250.918L218.211 262.382L215.694 266.424L219.606 270.661L211.776 293.979H206.742C206.742 293.979 211.114 265.886 209.259 250.918H209.265Z" fill="#0064FF" stroke="black" stroke-width="0.717705" stroke-miterlimit="10" stroke-linecap="round"/>
<path d="M191.561 250.918L182.614 262.382L185.132 266.424L181.22 270.661L189.049 293.979H194.084C194.084 293.979 189.711 265.886 191.567 250.918H191.561Z" fill="#0064FF" stroke="black" stroke-width="0.717705" stroke-miterlimit="10" stroke-linecap="round"/>
<path d="M200.88 240.012C200.88 240.012 204.112 241.826 206.6 240.278" stroke="black" stroke-width="0.717705" stroke-miterlimit="10" stroke-linecap="round"/>
<path d="M205.329 236.517L208.13 235.229L205.696 232.133" stroke="black" stroke-width="0.717705" stroke-miterlimit="10" stroke-linecap="round"/>
<path d="M186.349 227.315C186.349 227.315 200.785 215.774 198.569 208.334C198.569 208.334 178.874 207.353 186.349 227.315Z" fill="black" stroke="black" stroke-width="0.520688" stroke-miterlimit="10" stroke-linecap="round"/>
<path d="M185.161 235.653L182.573 242.655C182.331 243.317 182.868 244.002 183.631 244.002H188.949C189.717 244.002 190.255 243.305 189.995 242.643L187.259 235.641C186.904 234.731 185.492 234.743 185.155 235.658L185.161 235.653Z" fill="#0064FF" stroke="black" stroke-width="0.684869" stroke-miterlimit="10" stroke-linecap="round"/>
<path d="M197.925 228.109C198.15 227.866 198.557 227.742 198.8 227.742C199.042 227.742 199.278 227.813 199.491 227.955C199.704 228.097 199.857 228.292 199.958 228.516C200.058 228.741 200.07 228.995 200.029 229.237C199.987 229.48 199.857 229.704 199.692 229.87C199.521 230.041 199.296 230.165 199.06 230.206C198.817 230.248 198.569 230.236 198.339 230.135C198.097 230.035 197.913 229.881 197.777 229.669C197.636 229.474 197.565 229.219 197.565 228.977C197.565 228.652 197.689 228.345 197.931 228.103L197.925 228.109Z" fill="black"/>
<path d="M209.555 228.109C209.779 227.866 210.187 227.742 210.429 227.742C210.671 227.742 210.908 227.813 211.121 227.955C211.333 228.097 211.487 228.292 211.587 228.516C211.688 228.741 211.7 228.995 211.658 229.237C211.617 229.48 211.487 229.704 211.321 229.87C211.15 230.041 210.925 230.165 210.689 230.206C210.447 230.248 210.199 230.236 209.968 230.135C209.726 230.035 209.543 229.881 209.407 229.669C209.265 229.474 209.194 229.219 209.194 228.977C209.194 228.652 209.318 228.345 209.56 228.103L209.555 228.109Z" fill="black"/>
<path d="M217.361 233.619C217.426 235.846 217.018 237.974 216.244 239.912C215.783 240.054 215.286 240.137 214.772 240.137C212.095 240.137 209.921 237.962 209.921 235.285C209.921 232.608 212.095 230.434 214.772 230.434C215.611 230.434 216.392 230.64 217.071 231.019C217.242 231.858 217.331 232.732 217.361 233.613V233.619Z" fill="#FFA195"/>
<path d="M193.15 238.648C195.827 238.648 197.996 236.479 197.996 233.803C197.996 231.126 195.827 228.957 193.15 228.957C190.474 228.957 188.305 231.126 188.305 233.803C188.305 236.479 190.474 238.648 193.15 238.648Z" fill="#FFA195"/>
<path d="M192.01 208.936C192.01 208.936 215.47 220.359 219.228 238.553C219.228 238.553 230.757 211.128 201.76 204.752C195.053 203.281 192.01 208.93 192.01 208.93V208.936Z" fill="black"/>
</g>
<path d="M322.209 275.193C300.025 275.193 281.978 257.146 281.978 234.963C281.978 212.779 300.025 194.732 322.209 194.732C344.392 194.732 362.445 212.779 362.445 234.963C362.445 257.146 344.398 275.193 322.209 275.193Z" fill="#0064FF"/>
<path d="M322.209 195.281C344.12 195.281 361.883 213.044 361.883 234.956C361.883 256.867 344.12 274.63 322.209 274.63C300.297 274.63 282.534 256.867 282.534 234.956C282.534 213.044 300.297 195.281 322.209 195.281ZM322.209 194.17C299.718 194.17 281.417 212.465 281.417 234.961C281.417 257.458 299.712 275.753 322.209 275.753C344.705 275.753 363 257.458 363 234.961C363 212.465 344.705 194.17 322.209 194.17Z" fill="black"/>
<path d="M322.209 274.634C344.12 274.634 361.883 256.872 361.883 234.96C361.883 213.048 344.12 195.285 322.209 195.285C300.297 195.285 282.534 213.048 282.534 234.96C282.534 256.872 300.297 274.634 322.209 274.634Z" fill="#0064FF"/>
<mask id="mask3_586_32452" style="mask-type:luminance" maskUnits="userSpaceOnUse" x="282" y="195" width="80" height="80">
<path d="M322.209 274.631C344.12 274.631 361.883 256.868 361.883 234.956C361.883 213.044 344.12 195.281 322.209 195.281C300.297 195.281 282.534 213.044 282.534 234.956C282.534 256.868 300.297 274.631 322.209 274.631Z" fill="white"/>
</mask>
<g mask="url(#mask3_586_32452)">
<path d="M331.616 236.873H313.15V267.902H331.616V236.873Z" fill="#F2AF7D" stroke="black" stroke-width="0.708323" stroke-miterlimit="10"/>
<path d="M333.643 259.371H311.117V280.473H333.643V259.371Z" fill="white" stroke="black" stroke-width="0.717705" stroke-miterlimit="10" stroke-linecap="round"/>
<path d="M314.385 251.01C335.959 251.867 334.76 235.699 335.439 231.734C336.816 223.384 335.67 214.78 332.638 212.387C330.499 210.679 326.977 209.84 322.161 209.87C314.131 209.917 304.971 215.785 304.883 215.821L304.64 212.547L305.054 228.011C304.309 229.093 301.16 236.278 304.753 243.358C308.351 250.437 314.385 251.01 314.385 251.01Z" fill="#F2AF7D" stroke="black" stroke-width="0.708323" stroke-miterlimit="10"/>
<path d="M305.485 232.917C304.558 232.776 303.967 232.858 303.588 233.148C303.435 234.483 303.382 235.807 303.47 237.148C303.541 238.596 303.819 240.038 304.333 241.397C305.438 241.527 306.567 241.214 307.453 240.528C308.345 239.837 308.913 238.838 309.078 237.727C309.244 236.622 308.93 235.5 308.263 234.59C307.589 233.697 306.59 233.095 305.485 232.911V232.917Z" fill="#EE887B"/>
<path d="M321.564 236.618C321.824 235.814 322.309 235.093 322.983 234.573C323.638 234.053 324.442 233.728 325.293 233.657C326.144 233.586 326.983 233.775 327.728 234.171C328.472 234.585 329.063 235.211 329.459 235.95C329.855 236.706 329.997 237.557 329.896 238.402C329.796 239.247 329.465 240.045 328.91 240.677C328.354 241.327 327.633 241.794 326.829 242.031C326.008 242.267 325.145 242.249 324.342 241.989C323.26 241.647 322.356 240.872 321.842 239.862C321.316 238.851 321.216 237.687 321.576 236.606H321.558V236.624L321.564 236.618Z" fill="#EE887B"/>
<path d="M312.092 242.65C315.301 243.726 318.427 240.842 318.427 240.842" stroke="black" stroke-width="0.708323" stroke-linecap="round" stroke-linejoin="round"/>
<path d="M314.367 230.943L312.21 235.771C312.151 235.878 312.133 235.978 312.127 236.084C312.121 236.191 312.157 236.297 312.204 236.404C312.251 236.492 312.34 236.587 312.423 236.64C312.511 236.699 312.612 236.734 312.736 236.74L316.234 236.628" stroke="black" stroke-width="0.708323" stroke-linecap="round" stroke-linejoin="round"/>
<path d="M308.86 229.599C308.676 229.77 308.428 229.865 308.18 229.853C307.932 229.841 307.69 229.729 307.518 229.546C307.347 229.363 307.252 229.114 307.264 228.866C307.276 228.618 307.388 228.376 307.571 228.204C307.755 228.033 308.003 227.938 308.251 227.95C308.499 227.962 308.742 228.074 308.913 228.257C309.084 228.441 309.179 228.689 309.167 228.937C309.155 229.185 309.043 229.428 308.86 229.599Z" fill="black"/>
<path d="M321.305 230.072C321.121 230.243 320.873 230.337 320.625 230.326C320.377 230.314 320.134 230.202 319.963 230.018C319.792 229.835 319.697 229.587 319.709 229.339C319.721 229.091 319.833 228.848 320.016 228.677C320.199 228.506 320.448 228.411 320.696 228.423C320.944 228.435 321.186 228.547 321.358 228.73C321.529 228.913 321.624 229.162 321.612 229.41C321.6 229.658 321.488 229.9 321.305 230.072Z" fill="black"/>
<path d="M316.506 235.08C316.506 235.08 318.515 236.073 318.84 239.583" stroke="black" stroke-width="0.708323" stroke-linecap="round" stroke-linejoin="round"/>
<path d="M317.706 220.524C317.706 220.524 315.366 222.185 311.158 220.436" stroke="black" stroke-width="0.708323" stroke-linecap="round" stroke-linejoin="round"/>
<path d="M316.589 218.916C315.939 219.282 315.206 219.483 314.467 219.489C313.723 219.495 312.99 219.294 312.334 218.934" stroke="black" stroke-width="0.708323" stroke-linecap="round" stroke-linejoin="round"/>
<path d="M340.356 232.943C340.356 232.943 345.455 232.695 345.154 217.573C345.03 211.398 339.345 187.696 310.42 203.173C296.308 207.209 304.877 221.178 304.877 221.178C306.596 214.122 311.211 212.397 315.383 213.425C322.669 209.052 333.85 211.776 335.268 220.274C335.953 224.404 335.676 228.76 334.736 231.07C333.962 232.979 337.478 233.416 337.478 233.416L340.362 232.932L340.356 232.943Z" fill="#939399" stroke="black" stroke-width="0.708323" stroke-miterlimit="10"/>
<path d="M334.228 226.851L337.602 226.142C338.725 225.87 339.907 226.065 340.888 226.668C341.88 227.276 342.584 228.239 342.85 229.356C343.121 230.479 342.938 231.667 342.335 232.648C341.733 233.629 340.764 234.344 339.647 234.61L334.08 235.827" fill="#F2AF7D"/>
<path d="M334.228 226.851L337.602 226.142C338.725 225.87 339.907 226.065 340.888 226.668C341.88 227.276 342.584 228.239 342.85 229.356C343.121 230.479 342.938 231.667 342.335 232.648C341.733 233.629 340.764 234.344 339.647 234.61L334.08 235.827" stroke="black" stroke-width="0.708323" stroke-miterlimit="10"/>
<path d="M306.898 234.531C309.947 234.649 312.523 232.274 312.641 229.207C312.76 226.14 310.384 223.581 307.317 223.463C304.25 223.345 301.692 225.721 301.573 228.787C301.455 231.854 303.831 234.413 306.898 234.531Z" stroke="black" stroke-width="0.708323" stroke-linecap="round" stroke-linejoin="round"/>
<path d="M320.14 233.957C323.19 234.075 325.766 231.7 325.884 228.633C326.002 225.566 323.627 223.007 320.56 222.889C317.493 222.771 314.934 225.146 314.816 228.213C314.698 231.28 317.073 233.839 320.14 233.957Z" stroke="black" stroke-width="0.708323" stroke-linecap="round" stroke-linejoin="round"/>
<path d="M312.641 229.224C312.931 229.059 313.232 228.946 313.569 228.905C313.888 228.864 314.225 228.875 314.538 228.94" stroke="black" stroke-width="0.708323" stroke-linecap="round" stroke-linejoin="round"/>
<path d="M326.162 228.248L335.303 226.67" stroke="black" stroke-width="0.708323" stroke-linecap="round" stroke-linejoin="round"/>
<path d="M285.217 294.971L285.294 282.662C285.217 263.587 289.826 264.586 294.471 264.332C320.501 262.92 306.431 263.304 307.725 272.995L314.337 294.818L285.211 294.971H285.217Z" fill="white" stroke="black" stroke-width="0.717705" stroke-miterlimit="10"/>
<path d="M359.206 294.975L359.129 282.79C359.206 263.91 354.597 264.891 349.952 264.643C323.922 263.243 337.992 263.627 336.698 273.217L330.204 294.916L359.212 294.975H359.206Z" fill="white" stroke="black" stroke-width="0.717705" stroke-miterlimit="10"/>
<path d="M337.921 259.106L320.743 275.959L307.559 259.041L289.92 264.95V294.821H319.727L353.811 295.146V264.998L337.921 259.106Z" fill="black" stroke="black" stroke-width="0.717705" stroke-miterlimit="10"/>
<path d="M322.303 259.038L313.085 253.324L306.685 259.103L315.212 268.47L322.303 259.038Z" fill="white" stroke="black" stroke-width="0.717705" stroke-miterlimit="10" stroke-linecap="round"/>
<path d="M322.303 259.038L331.522 253.324L337.921 259.103L328.667 267.896L322.303 259.038Z" fill="white" stroke="black" stroke-width="0.717705" stroke-miterlimit="10" stroke-linecap="round"/>
<path d="M319.904 228.501C320.129 228.259 320.536 228.135 320.779 228.135C321.021 228.135 321.257 228.206 321.47 228.347C321.683 228.489 321.836 228.684 321.937 228.909C322.037 229.133 322.049 229.388 322.008 229.63C321.966 229.872 321.836 230.097 321.671 230.262C321.5 230.433 321.275 230.558 321.039 230.599C320.796 230.64 320.548 230.628 320.318 230.528C320.075 230.428 319.892 230.274 319.756 230.061C319.614 229.866 319.544 229.612 319.544 229.37C319.544 229.045 319.668 228.738 319.91 228.495L319.904 228.501Z" fill="black"/>
<path d="M307.335 228.177C307.56 227.935 307.967 227.811 308.21 227.811C308.452 227.811 308.688 227.881 308.901 228.023C309.114 228.165 309.267 228.36 309.368 228.585C309.468 228.809 309.48 229.063 309.439 229.306C309.397 229.548 309.267 229.772 309.102 229.938C308.931 230.109 308.706 230.233 308.47 230.275C308.227 230.316 307.979 230.304 307.749 230.204C307.506 230.103 307.323 229.95 307.187 229.737C307.046 229.542 306.975 229.288 306.975 229.046C306.975 228.721 307.099 228.413 307.341 228.171L307.335 228.177Z" fill="black"/>
</g>
<path d="M85.7915 275.193C63.6082 275.193 45.5614 257.146 45.5614 234.963C45.5614 212.779 63.6082 194.732 85.7915 194.732C107.975 194.732 126.022 212.779 126.022 234.963C126.022 257.146 107.975 275.193 85.7915 275.193Z" fill="#0064FF"/>
<path d="M85.7915 195.281C107.703 195.281 125.466 213.044 125.466 234.956C125.466 256.867 107.703 274.63 85.7915 274.63C63.88 274.63 46.1168 256.867 46.1168 234.956C46.1168 213.044 63.88 195.281 85.7915 195.281ZM85.7915 194.17C63.3009 194.17 45 212.465 45 234.961C45 257.458 63.295 275.753 85.7915 275.753C108.288 275.753 126.583 257.458 126.583 234.961C126.583 212.465 108.288 194.17 85.7915 194.17Z" fill="black"/>
<mask id="mask4_586_32452" style="mask-type:luminance" maskUnits="userSpaceOnUse" x="46" y="195" width="80" height="80">
<path d="M85.7917 274.631C107.703 274.631 125.466 256.868 125.466 234.956C125.466 213.044 107.703 195.281 85.7917 195.281C63.8799 195.281 46.117 213.044 46.117 234.956C46.117 256.868 63.8799 274.631 85.7917 274.631Z" fill="white"/>
</mask>
<g mask="url(#mask4_586_32452)">
<path d="M67.3844 251.936H103.762C107.485 251.936 110.51 254.961 110.51 258.684V284.147H60.636V258.684C60.636 254.961 63.6616 251.936 67.3844 251.936Z" fill="#002850" stroke="black" stroke-width="0.431561" stroke-miterlimit="10"/>
<path d="M79.7819 243.679C77.1818 242.408 69.6593 244.317 66.882 246.202C63.8564 248.264 61.3037 250.953 59.4009 254.073L53.1194 264.196C51.8075 266.293 51.0629 268.71 50.9448 271.175C50.8443 273.645 51.3584 276.109 52.4812 278.319C53.7694 280.854 55.7785 282.952 58.2663 284.323C60.7482 285.711 63.5905 286.302 66.4152 286.042" fill="#002850"/>
<path d="M79.7819 243.679C77.1818 242.408 69.6593 244.317 66.882 246.202C63.8564 248.264 61.3037 250.953 59.4009 254.073L53.1194 264.196C51.8075 266.293 51.0629 268.71 50.9448 271.175C50.8443 273.645 51.3584 276.109 52.4812 278.319C53.7694 280.854 55.7785 282.952 58.2663 284.323C60.7482 285.711 63.5905 286.302 66.4152 286.042" stroke="black" stroke-width="0.708323" stroke-miterlimit="10"/>
<path d="M105.156 286.097C107.981 286.357 110.823 285.766 113.305 284.378C115.793 283.007 117.802 280.909 119.09 278.374C120.213 276.164 120.727 273.7 120.627 271.23C120.508 268.766 119.764 266.343 118.452 264.251L112.17 254.128C110.268 251.008 107.715 248.32 104.689 246.257C101.912 244.372 94.3955 242.458 91.7895 243.734" fill="#002850"/>
<path d="M105.156 286.097C107.981 286.357 110.823 285.766 113.305 284.378C115.793 283.007 117.802 280.909 119.09 278.374C120.213 276.164 120.727 273.7 120.627 271.23C120.508 268.766 119.764 266.343 118.452 264.251L112.17 254.128C110.268 251.008 107.715 248.32 104.689 246.257C101.912 244.372 94.3955 242.458 91.7895 243.734" stroke="black" stroke-width="0.708323" stroke-miterlimit="10"/>
<path d="M87.8893 262.898C95.3825 262.898 101.457 256.075 101.457 247.658C101.457 239.241 95.3825 232.418 87.8893 232.418C80.3961 232.418 74.3217 239.241 74.3217 247.658C74.3217 256.075 80.3961 262.898 87.8893 262.898Z" fill="white" stroke="black" stroke-width="0.708323" stroke-miterlimit="10"/>
<path d="M78.8069 240.582H97.0487V249.706C97.0487 254.741 92.9595 258.83 87.9248 258.83C82.8902 258.83 78.801 254.741 78.801 249.706V240.582H78.8069Z" fill="#E28A46" stroke="black" stroke-width="0.708323" stroke-miterlimit="10"/>
<path d="M71.5206 239.574C69.4405 236.094 69.0683 232.412 70.2619 228.258C69.8542 219.66 71.3019 216.333 76.0234 211.417C78.4108 208.952 80.7154 207.647 82.7422 207.664C83.0436 207.664 83.3391 207.688 83.6286 207.753C89.792 209.082 99.3708 212.338 99.4654 212.374C99.5777 212.409 99.6663 212.486 99.7313 212.598L104.199 223.412C111.568 227.36 112.312 235.449 106.101 242.446C103.354 245.401 98.3367 247.321 94.3125 247.374C94.3125 247.374 89.6383 247.493 85.3009 247.386C79.6931 247.25 74.4043 244.384 71.5265 239.568L71.5206 239.574Z" fill="#E28A46"/>
<path d="M100.819 213.81C99.3414 217.397 92.3803 215.11 92.3803 215.11C92.3508 220.759 83.611 220.996 83.611 220.996C83.611 220.996 82.1101 229.564 74.7471 228.666C71.042 235.84 75.0544 238.399 81.1646 246.152C78.8895 248.35 62.1486 244.881 59.2531 229.984C55.5362 201.744 88.8407 202.967 88.8407 202.967C88.8407 202.967 104.861 205.348 100.801 213.834" fill="black"/>
<path d="M96.8301 231.701L100.08 230.206L97.2555 226.613" stroke="black" stroke-width="0.708323" stroke-linecap="round" stroke-linejoin="round"/>
<path d="M93.0481 236.389C95.725 239.225 97.9291 238.569 97.9291 238.569" stroke="black" stroke-width="0.708323" stroke-linecap="round" stroke-linejoin="round"/>
<path d="M102.16 228.611C102.125 230.455 102.81 232.234 104.087 233.563C104.837 234.314 105.747 234.905 106.752 235.277C107.762 235.649 108.838 235.803 109.895 235.732C110.114 234.852 110.238 233.953 110.279 233.043C110.244 231.885 110.356 231.921 109.86 230.059C108.578 226.644 106.935 225.066 104.293 223.742C102.958 225.019 102.19 226.768 102.148 228.611H102.16Z" fill="#E25333"/>
<path d="M91.3995 226.213C91.4113 226.03 91.4704 225.858 91.6063 225.728C91.7245 225.616 91.9017 225.539 92.0849 225.539C92.2149 225.539 92.3627 225.58 92.4631 225.663C92.5872 225.734 92.6699 225.846 92.7172 225.97C92.7645 226.095 92.7763 226.23 92.7586 226.36C92.7409 226.49 92.6699 226.615 92.5695 226.715C92.4749 226.798 92.3627 226.869 92.2268 226.892C92.0908 226.922 91.9608 226.898 91.8308 226.845C91.7067 226.792 91.6004 226.709 91.5176 226.597C91.4526 226.485 91.3876 226.343 91.4113 226.213H91.3936H91.3995Z" fill="black"/>
<path d="M91.3995 226.213C91.4113 226.03 91.4704 225.858 91.6063 225.728C91.7245 225.616 91.9017 225.539 92.0849 225.539C92.2149 225.539 92.3627 225.58 92.4631 225.663C92.5872 225.734 92.6699 225.846 92.7172 225.97C92.7645 226.095 92.7763 226.23 92.7586 226.36C92.7409 226.49 92.6699 226.615 92.5695 226.715C92.4749 226.798 92.3627 226.869 92.2268 226.892C92.0908 226.922 91.9608 226.898 91.8308 226.845C91.7067 226.792 91.6004 226.709 91.5176 226.597C91.4526 226.485 91.3876 226.343 91.4113 226.213H91.3936H91.3995Z" stroke="black" stroke-width="0.394034" stroke-linecap="round" stroke-linejoin="round"/>
<path d="M99.176 223.471C99.2055 223.376 99.2705 223.3 99.3296 223.246C99.3887 223.193 99.4655 223.134 99.5542 223.099C99.6251 223.075 99.7314 223.046 99.8083 223.057C99.9383 223.057 100.086 223.099 100.186 223.181C100.311 223.252 100.393 223.365 100.441 223.489C100.488 223.613 100.5 223.749 100.482 223.879C100.464 224.009 100.393 224.133 100.293 224.233C100.21 224.322 100.086 224.387 99.9501 224.411C99.8142 224.44 99.6842 224.417 99.5542 224.363C99.4242 224.31 99.3237 224.227 99.241 224.115C99.176 224.003 99.111 223.861 99.1346 223.731C99.1169 223.642 99.1642 223.554 99.176 223.471Z" fill="black"/>
<path d="M99.176 223.471C99.2055 223.376 99.2705 223.3 99.3296 223.246C99.3887 223.193 99.4655 223.134 99.5542 223.099C99.6251 223.075 99.7314 223.046 99.8083 223.057C99.9383 223.057 100.086 223.099 100.186 223.181C100.311 223.252 100.393 223.365 100.441 223.489C100.488 223.613 100.5 223.749 100.482 223.879C100.464 224.009 100.393 224.133 100.293 224.233C100.21 224.322 100.086 224.387 99.9501 224.411C99.8142 224.44 99.6842 224.417 99.5542 224.363C99.4242 224.31 99.3237 224.227 99.241 224.115C99.176 224.003 99.111 223.861 99.1346 223.731C99.1169 223.642 99.1642 223.554 99.176 223.471Z" stroke="black" stroke-width="0.394034" stroke-linecap="round" stroke-linejoin="round"/>
<path d="M76.2776 243.337C70.9474 238.692 68.5719 234.112 70.2619 228.215C69.8542 219.617 71.302 216.29 76.0235 211.374C78.4108 208.909 80.7154 207.604 82.7423 207.621C83.0436 207.621 83.3391 207.645 83.6287 207.71C89.792 209.039 99.3709 212.295 99.4654 212.331C99.5777 212.366 99.6663 212.443 99.7313 212.555L104.199 223.369C111.568 227.317 112.312 235.407 106.102 242.403C103.354 245.358 98.3368 247.278 94.3126 247.331C94.3126 247.331 89.0474 247.231 84.7455 246.888C81.6195 246.64 78.6531 245.393 76.2835 243.331L76.2776 243.337Z" stroke="black" stroke-width="0.708323" stroke-miterlimit="10"/>
<path d="M76.8037 238.984H76.845L70.5812 236.532C70.008 236.307 69.488 235.976 69.0507 235.551C68.6135 235.125 68.2589 234.617 68.0107 234.068C67.7684 233.512 67.6325 232.909 67.6266 232.301C67.6148 231.692 67.7212 231.083 67.9457 230.51C68.1703 229.937 68.5012 229.417 68.9267 228.98C69.3521 228.531 69.8603 228.188 70.4099 227.94C70.9653 227.697 71.5681 227.561 72.1767 227.556C72.7736 227.544 73.3822 227.65 73.9554 227.875L80.2074 230.333L76.8096 238.978V238.99L76.8037 238.984Z" fill="#E28A46"/>
<path d="M92.5044 232.682C92.339 230.856 91.4526 229.148 90.058 227.966C88.6398 226.778 86.8316 226.211 84.9879 226.359C84.0779 226.436 83.1678 226.69 82.3524 227.133C81.531 227.57 80.8101 228.161 80.2132 228.882C79.6341 229.591 79.1909 230.424 78.9309 231.317C78.6591 232.209 78.5764 233.149 78.6886 234.065C78.9014 235.814 79.7641 237.415 81.1232 238.562C82.4824 239.69 84.2079 240.275 85.9688 240.198C86.8966 240.145 87.8007 239.903 88.628 239.495C89.4553 239.093 90.1939 238.52 90.8085 237.817C91.4171 237.114 91.8781 236.298 92.1676 235.412C92.4513 234.537 92.5517 233.604 92.4749 232.676" fill="#E25333"/>
<path d="M91.2044 225.341C91.4289 225.099 91.8367 224.975 92.079 224.975C92.3212 224.975 92.5576 225.046 92.7704 225.187C92.9831 225.329 93.1367 225.524 93.2372 225.749C93.3376 225.973 93.3495 226.227 93.3081 226.47C93.2667 226.712 93.1367 226.936 92.9713 227.102C92.7999 227.273 92.5753 227.397 92.339 227.439C92.0967 227.48 91.8485 227.468 91.618 227.368C91.3758 227.267 91.1926 227.114 91.0567 226.901C90.9148 226.706 90.8439 226.452 90.8439 226.21C90.8439 225.885 90.968 225.577 91.2103 225.335L91.2044 225.341Z" fill="black"/>
<path d="M98.9338 222.857C99.1583 222.614 99.5661 222.49 99.8083 222.49C100.051 222.49 100.287 222.561 100.5 222.703C100.712 222.845 100.866 223.04 100.967 223.264C101.067 223.489 101.079 223.743 101.037 223.985C100.996 224.228 100.866 224.452 100.701 224.618C100.529 224.789 100.305 224.913 100.068 224.954C99.8261 224.996 99.5779 224.984 99.3474 224.883C99.1051 224.783 98.9219 224.629 98.786 224.417C98.6442 224.222 98.5733 223.968 98.5733 223.725C98.5733 223.4 98.6974 223.093 98.9397 222.851L98.9338 222.857Z" fill="black"/>
</g>
<path d="M344.687 336.398C342.855 336.398 340.793 336.156 338.73 335.701C335.776 335.051 333.081 334.023 331.149 332.811C329.075 331.511 328.082 330.111 328.354 328.87L329.713 322.706C329.743 322.582 329.813 322.476 329.926 322.405C330.003 322.358 330.091 322.328 330.186 322.328C330.221 322.328 330.257 322.328 330.286 322.34L352.02 327.138C352.144 327.168 352.251 327.239 352.322 327.351C352.393 327.457 352.416 327.587 352.387 327.711L351.028 333.875C350.673 335.482 348.363 336.398 344.693 336.398H344.687Z" fill="#4890FF"/>
<path d="M330.186 322.809L351.92 327.607C351.92 327.607 351.028 331.637 350.561 333.77C350.254 335.159 347.931 335.921 344.693 335.921C342.95 335.921 340.941 335.703 338.843 335.236C332.839 333.912 328.36 331.105 328.833 328.972L330.192 322.809M330.186 321.852C330.003 321.852 329.825 321.905 329.672 321.999C329.459 322.135 329.305 322.354 329.252 322.602L327.893 328.765C327.196 331.915 332.768 334.876 338.636 336.17C340.734 336.631 342.826 336.879 344.693 336.879C348.611 336.879 351.087 335.821 351.495 333.977L352.854 327.814C352.907 327.566 352.86 327.306 352.724 327.093C352.588 326.88 352.369 326.727 352.121 326.674L330.387 321.875C330.316 321.857 330.251 321.852 330.18 321.852H330.186Z" fill="black"/>
<path d="M341.904 321.344C347.908 322.668 352.387 325.475 351.914 327.608C351.441 329.741 346.194 330.397 340.196 329.073C334.198 327.75 329.713 324.943 330.186 322.81C330.659 320.676 335.906 320.02 341.904 321.344Z" fill="#FFE563" stroke="black" stroke-width="0.759923" stroke-linecap="round" stroke-linejoin="round"/>
<path d="M341.868 321.336C348.038 322.701 352.659 325.531 352.192 327.671C351.719 329.804 346.336 330.43 340.161 329.065C333.991 327.7 329.37 324.87 329.837 322.73C330.31 320.597 335.693 319.971 341.868 321.336Z" fill="#7DB0FF" stroke="black" stroke-width="0.759923" stroke-linecap="round" stroke-linejoin="round"/>
<path d="M349.131 328.754C347.299 328.754 345.237 328.511 343.175 328.056C340.22 327.406 337.525 326.378 335.593 325.167C333.519 323.867 332.526 322.466 332.798 321.225L334.157 315.062C334.204 314.837 334.405 314.684 334.624 314.684C334.659 314.684 334.695 314.684 334.73 314.695L356.464 319.494C356.589 319.523 356.695 319.594 356.766 319.706C356.837 319.813 356.86 319.943 356.831 320.067L355.472 326.23C355.117 327.838 352.807 328.754 349.137 328.754H349.131Z" fill="#7DB0FF"/>
<path d="M334.63 315.162L356.364 319.961C356.364 319.961 355.472 323.991 355.005 326.124C354.698 327.513 352.375 328.275 349.137 328.275C347.394 328.275 345.385 328.056 343.287 327.59C337.283 326.266 332.804 323.459 333.277 321.326L334.636 315.162M334.63 314.205C334.192 314.205 333.797 314.512 333.696 314.956L332.337 321.119C331.64 324.269 337.212 327.229 343.08 328.523C345.178 328.984 347.27 329.232 349.137 329.232C353.055 329.232 355.531 328.175 355.938 326.331L357.298 320.168C357.351 319.919 357.304 319.659 357.168 319.447C357.032 319.234 356.813 319.08 356.565 319.027L334.831 314.229C334.76 314.211 334.689 314.205 334.624 314.205H334.63Z" fill="black"/>
<path d="M346.348 313.693C352.517 315.058 357.138 317.889 356.671 320.028C356.204 322.167 350.815 322.788 344.64 321.423C338.471 320.058 333.85 317.227 334.317 315.088C334.789 312.955 340.173 312.328 346.348 313.693Z" fill="#A1C6FF"/>
<path d="M346.348 313.693C352.517 315.058 357.138 317.889 356.671 320.028C356.204 322.167 350.815 322.788 344.64 321.423C338.471 320.058 333.85 317.227 334.317 315.088C334.789 312.955 340.173 312.328 346.348 313.693Z" stroke="black" stroke-width="0.759923" stroke-miterlimit="10"/>
<path d="M345.219 320.009C343.387 320.009 341.325 319.767 339.263 319.312C336.308 318.662 333.613 317.634 331.681 316.422C329.607 315.122 328.614 313.722 328.886 312.481L330.245 306.318C330.275 306.194 330.346 306.087 330.458 306.016C330.535 305.969 330.623 305.939 330.718 305.939C330.753 305.939 330.789 305.939 330.818 305.951L352.553 310.75C352.677 310.779 352.783 310.85 352.854 310.962C352.925 311.069 352.949 311.199 352.919 311.323L351.56 317.486C351.205 319.093 348.895 320.009 345.225 320.009H345.219Z" fill="#4890FF"/>
<path d="M330.712 306.42L352.446 311.219C352.446 311.219 351.554 315.249 351.087 317.382C350.78 318.771 348.458 319.533 345.219 319.533C343.476 319.533 341.467 319.314 339.369 318.847C333.365 317.524 328.886 314.717 329.359 312.584L330.718 306.42M330.712 305.463C330.275 305.463 329.879 305.77 329.778 306.213L328.419 312.377C327.722 315.526 333.294 318.487 339.162 319.781C341.26 320.242 343.352 320.49 345.219 320.49C349.137 320.49 351.613 319.432 352.021 317.589L353.38 311.425C353.433 311.177 353.386 310.917 353.25 310.704C353.114 310.492 352.895 310.338 352.647 310.285L330.913 305.487C330.842 305.469 330.771 305.463 330.706 305.463H330.712Z" fill="black"/>
<path d="M342.43 304.955C348.434 306.279 352.913 309.086 352.44 311.219C351.968 313.352 346.72 314.008 340.722 312.685C334.724 311.361 330.239 308.554 330.712 306.421C331.185 304.288 336.432 303.632 342.43 304.955Z" fill="#FFE563" stroke="black" stroke-width="0.759923" stroke-linecap="round" stroke-linejoin="round"/>
<path d="M342.401 304.945C348.57 306.31 353.191 309.141 352.724 311.28C352.257 313.419 346.868 314.04 340.693 312.675C334.518 311.31 329.902 308.479 330.369 306.34C330.842 304.207 336.225 303.58 342.401 304.945Z" fill="#7DB0FF" stroke="black" stroke-width="0.759923" stroke-linecap="round" stroke-linejoin="round"/>
<path d="M322.421 332.675C320.093 332.675 316.766 329.058 314.331 323.876C313.043 321.14 312.21 318.38 311.985 316.105C311.743 313.67 312.251 312.028 313.403 311.484L319.112 308.795C319.177 308.766 319.248 308.748 319.313 308.748C319.366 308.748 319.425 308.76 319.472 308.778C319.59 308.819 319.691 308.908 319.744 309.026L329.217 329.164C329.27 329.277 329.276 329.413 329.234 329.531C329.193 329.649 329.104 329.749 328.986 329.803L323.278 332.491C323.012 332.615 322.722 332.68 322.415 332.68L322.421 332.675Z" fill="#4890FF"/>
<path d="M319.319 309.223L328.791 329.362C328.791 329.362 325.056 331.117 323.083 332.05C322.882 332.145 322.657 332.192 322.421 332.192C320.353 332.192 317.109 328.658 314.763 323.665C312.145 318.105 311.631 312.839 313.604 311.912L319.313 309.223M319.319 308.266C319.177 308.266 319.041 308.295 318.911 308.354L313.203 311.043C312.245 311.492 311.176 312.745 311.512 316.143C311.743 318.471 312.588 321.284 313.9 324.067C316.849 330.337 320.305 333.144 322.427 333.144C322.805 333.144 323.166 333.067 323.496 332.913L329.205 330.224C329.435 330.118 329.613 329.923 329.695 329.681C329.778 329.438 329.766 329.178 329.66 328.948L320.187 308.809C320.081 308.579 319.886 308.402 319.644 308.319C319.537 308.283 319.431 308.26 319.319 308.26V308.266Z" fill="black"/>
<path d="M327.633 317.612C330.251 323.172 330.765 328.437 328.791 329.365C326.812 330.293 323.089 326.54 320.471 320.98C317.853 315.419 317.339 310.154 319.313 309.226C321.293 308.293 325.015 312.051 327.633 317.612Z" fill="#FFE563" stroke="black" stroke-width="0.759923" stroke-linecap="round" stroke-linejoin="round"/>
<path d="M327.621 317.585C330.31 323.305 330.889 328.694 328.909 329.628C326.93 330.561 323.148 326.673 320.459 320.959C317.77 315.239 317.191 309.85 319.171 308.916C321.151 307.982 324.932 311.865 327.621 317.585Z" fill="#7DB0FF" stroke="black" stroke-width="0.759923" stroke-linecap="round" stroke-linejoin="round"/>
<path d="M354.656 312.347C352.824 312.347 350.762 312.105 348.699 311.65C345.745 311 343.05 309.972 341.118 308.76C339.044 307.46 338.051 306.06 338.323 304.819L339.682 298.656C339.729 298.431 339.93 298.277 340.149 298.277C340.184 298.277 340.22 298.277 340.255 298.289L361.989 303.087C362.113 303.117 362.22 303.188 362.291 303.3C362.362 303.407 362.385 303.537 362.356 303.661L360.997 309.824C360.642 311.431 358.332 312.347 354.662 312.347H354.656Z" fill="#7DB0FF"/>
<path d="M340.155 298.764L361.889 303.562C361.889 303.562 360.997 307.592 360.53 309.726C360.223 311.114 357.9 311.877 354.662 311.877C352.919 311.877 350.91 311.658 348.812 311.191C342.808 309.867 338.329 307.061 338.802 304.927L340.161 298.764M340.155 297.801C339.972 297.801 339.794 297.854 339.641 297.949C339.428 298.084 339.274 298.303 339.221 298.551L337.862 304.715C337.165 307.864 342.737 310.825 348.605 312.119C350.703 312.58 352.795 312.828 354.662 312.828C358.58 312.828 361.056 311.77 361.463 309.927L362.823 303.763C362.876 303.515 362.828 303.255 362.693 303.042C362.557 302.83 362.338 302.676 362.09 302.623L340.356 297.824C340.285 297.807 340.22 297.801 340.149 297.801H340.155Z" fill="black"/>
<path d="M351.873 297.297C358.042 298.662 362.663 301.492 362.196 303.632C361.723 305.765 356.34 306.391 350.165 305.026C343.996 303.661 339.375 300.831 339.841 298.691C340.314 296.558 345.697 295.932 351.873 297.297Z" fill="#A1C6FF"/>
<path d="M351.873 297.297C358.042 298.662 362.663 301.492 362.196 303.632C361.723 305.765 356.34 306.391 350.165 305.026C343.996 303.661 339.375 300.831 339.841 298.691C340.314 296.558 345.697 295.932 351.873 297.297Z" fill="#A1C6FF" stroke="black" stroke-width="0.759923" stroke-miterlimit="10"/>
<path d="M248.349 196.159C247.817 197.129 246.488 199.445 247.102 205.242C247.504 209.018 249.679 213.166 249.679 213.166L263.82 190.812L259.701 182.355L248.349 196.159Z" fill="#CBFFB8"/>
<path d="M249.135 195.208C248.272 196.26 246.47 198.186 247.108 205.242C247.51 209.018 249.685 213.166 249.685 213.166L263.825 190.812L259.707 182.355L249.135 195.208Z" stroke="black" stroke-width="0.811522" stroke-miterlimit="10"/>
<path d="M291.605 173.676L283.125 193.921C283.125 193.921 280.602 196.669 275.431 196.208C273.133 195.995 266.615 194.412 261.952 193.797H261.94C260.971 193.655 260.091 193.572 259.335 193.543C259.086 193.531 258.856 193.531 258.62 193.531C258.259 193.531 257.922 193.543 257.585 193.561H257.432C257.178 193.578 256.924 193.602 256.664 193.631C256.539 193.643 256.427 193.649 256.327 193.673C256.09 193.691 255.854 193.726 255.629 193.767C255.57 193.779 255.505 193.791 255.458 193.797C255.358 193.815 255.251 193.826 255.151 193.85C254.897 193.903 254.648 193.951 254.406 194.016C253.845 194.146 253.325 194.299 252.834 194.477C252.681 194.53 252.527 194.577 252.373 194.642C251.168 195.091 250.199 195.635 249.46 196.113C248.911 196.48 248.479 196.817 248.184 197.082C248.131 197.136 248.083 197.177 248.042 197.207C247.983 197.266 247.93 197.319 247.888 197.36L247.876 197.372C247.806 197.425 247.752 197.472 247.723 197.514C247.711 197.514 247.711 197.526 247.711 197.526C247.711 197.526 247.711 197.537 247.699 197.537C247.687 197.549 247.681 197.555 247.67 197.567L247.752 197.396L247.764 197.384L247.776 197.372L247.794 197.331L247.811 197.301L248.426 196.137L248.438 196.119L248.479 196.06L248.538 195.936L248.55 195.918L250.737 191.8H250.748L251.966 189.513L258.436 177.375L259.476 175.413L260.026 174.379C260.026 174.379 263.347 171.631 268.577 172.317C274.279 173.061 279.296 174.432 281.766 174.881C286.393 175.709 291.339 173.788 291.599 173.694L291.605 173.676Z" fill="#CBFFB8"/>
<path d="M287.037 177.396C287.037 177.396 281.205 191.602 280.756 192.601C277.966 195.124 271.632 192.205 263.642 191.129H263.631C260.115 190.651 256.274 190.527 252.279 191.395H252.267C251.765 191.508 251.257 191.632 250.754 191.785L251.972 189.498C252.704 189.286 253.461 189.12 254.241 188.996H254.253C257.024 188.559 260.026 188.671 262.957 189.014C271.141 189.953 278.806 192.672 279.532 190.137L283.693 179.512C272.353 179.305 266.538 175.493 258.442 177.355L259.482 175.393C262.212 174.962 265.09 174.843 267.956 175.222C282.534 178.749 287.043 177.396 287.043 177.396H287.037Z" fill="#3C7878" stroke="black" stroke-width="0.811522" stroke-miterlimit="10"/>
<path d="M291.605 173.678L283.125 193.923C283.125 193.923 280.602 196.671 275.431 196.21C273.133 195.997 266.615 194.414 261.952 193.799H261.941C260.972 193.657 260.091 193.574 259.335 193.545C259.086 193.533 258.856 193.533 258.62 193.533C258.259 193.533 257.922 193.545 257.586 193.563H257.432C257.178 193.58 256.924 193.604 256.664 193.633C256.54 193.645 256.427 193.651 256.327 193.675C256.091 193.693 255.854 193.728 255.63 193.769C255.571 193.781 255.505 193.793 255.458 193.799C255.358 193.817 255.251 193.828 255.151 193.852C254.897 193.905 254.649 193.953 254.406 194.018C253.845 194.148 253.325 194.301 252.835 194.479C252.681 194.532 252.527 194.579 252.374 194.644C251.168 195.093 250.199 195.637 249.46 196.115C248.911 196.494 248.479 196.83 248.184 197.084C248.131 197.138 248.083 197.179 248.042 197.209C247.983 197.268 247.93 197.321 247.888 197.362L247.877 197.374C247.835 197.386 247.794 197.35 247.818 197.303L248.432 196.139L248.485 196.056L248.544 195.932L248.556 195.914L250.754 191.796L251.972 189.509L258.442 177.371L259.482 175.409L260.032 174.375C260.032 174.375 263.353 171.627 268.583 172.313C274.285 173.058 279.302 174.428 281.772 174.878C286.399 175.705 291.345 173.784 291.605 173.69V173.678Z" stroke="black" stroke-width="0.811522" stroke-miterlimit="10"/>
</svg>
