<svg width="760" height="408" viewBox="0 0 760 408" fill="none" xmlns="http://www.w3.org/2000/svg">
<path d="M125.34 334.874L125.614 335.114C130.385 339.278 131.358 339.782 131.529 339.828C132.067 339.896 133.211 339.748 133.211 339.748C134.001 339.576 141.14 335.24 141.769 334.164C142.341 333.18 142.456 332.288 142.09 331.647L139.138 324.462L139.344 324.199C141.907 320.915 143.611 317.38 144.412 313.696L144.469 313.444L147.25 311.888C148.817 311.007 149.767 308.501 149.332 306.408L148.199 301.007C147.764 298.913 145.877 297.003 144.092 296.82L140.911 296.511L140.762 296.305C139.79 294.966 138.577 293.65 137.158 292.403C136.083 291.454 135.042 290.653 133.966 289.955L133.76 289.829C133.76 289.829 130.397 275.939 129.699 275.974C129.664 275.974 129.596 275.985 129.516 276.008C129.024 276.111 124.55 277.232 119.321 284.578L119.127 284.852L118.795 284.818C114.585 284.383 110.283 284.623 106.015 285.516C85.3522 289.852 75.055 302.174 78.4759 318.478C79.8603 325.08 84.3339 330.72 91.0614 334.359L91.3588 334.519L91.5419 342.207C91.4618 343.02 91.9309 343.786 92.8462 344.45C93.853 345.182 103.361 346.2 104.528 345.502C104.608 345.434 105.26 344.702 108.029 338.821L108.189 338.489H108.555C114.138 338.443 119.882 337.242 125.019 335.034L125.351 334.885L125.34 334.874Z" fill="#A1C6FF" stroke="black" stroke-width="0.938176" stroke-miterlimit="10"/>
<path d="M132.662 300.202C132.159 300.202 131.724 299.848 131.621 299.356C131.564 299.081 131.621 298.795 131.77 298.555C131.93 298.315 132.17 298.154 132.445 298.097C132.513 298.086 132.593 298.074 132.662 298.074C133.166 298.074 133.6 298.429 133.703 298.921C133.829 299.493 133.452 300.065 132.879 300.191C132.811 300.202 132.731 300.214 132.662 300.214V300.202Z" fill="#A1C6FF"/>
<path d="M132.674 296.917C132.525 296.917 132.365 296.928 132.216 296.963C131.026 297.214 130.259 298.381 130.511 299.583C130.728 300.624 131.644 301.345 132.674 301.345C132.822 301.345 132.982 301.333 133.131 301.299C134.321 301.047 135.088 299.88 134.836 298.679C134.619 297.638 133.703 296.917 132.674 296.917Z" fill="black"/>
<path d="M76.1763 296.038C75.7987 297.846 77.2747 299.516 78.9222 298.154C85.1577 292.983 70.49 294.425 84.4026 300.58" fill="#A1C6FF"/>
<path d="M76.1763 296.038C75.7987 297.846 77.2747 299.516 78.9222 298.154C85.1577 292.983 70.49 294.425 84.4026 300.58" stroke="black" stroke-width="0.938176" stroke-miterlimit="10"/>
<path d="M98.9331 291.846C98.5898 291.537 98.2695 291.194 97.972 290.828C97.2398 289.901 96.7135 288.803 96.4503 287.556C95.5464 283.231 98.3152 278.986 102.64 278.082C106.953 277.178 111.198 279.947 112.102 284.272C112.365 285.508 112.319 286.732 112.01 287.876C111.919 288.334 111.759 288.78 111.564 289.192" fill="#A1C6FF"/>
<path d="M98.9331 291.846C98.5898 291.537 98.2695 291.194 97.972 290.828C97.2398 289.901 96.7135 288.803 96.4503 287.556C95.5464 283.231 98.3152 278.986 102.64 278.082C106.953 277.178 111.198 279.947 112.102 284.272C112.365 285.508 112.319 286.732 112.01 287.876C111.919 288.334 111.759 288.78 111.564 289.192" stroke="black" stroke-width="0.938176" stroke-miterlimit="10"/>
<path d="M97.9719 290.818C97.0566 291.207 96.1413 291.653 95.2718 292.122C94.9514 292.294 94.837 292.694 95.0086 293.015C95.1459 293.278 95.4434 293.404 95.7294 293.346C95.7866 293.335 95.8553 293.312 95.901 293.278C96.885 292.74 97.8918 292.259 98.933 291.848C102.915 290.177 107.251 289.262 111.576 289.193C112.697 289.17 113.807 289.193 114.928 289.285C115.283 289.319 115.603 289.044 115.637 288.69C115.66 288.324 115.397 288.015 115.031 287.98C114.036 287.9 113.029 287.855 112.022 287.866" fill="#A1C6FF"/>
<path d="M97.9719 290.818C97.0566 291.207 96.1413 291.653 95.2718 292.122C94.9514 292.294 94.837 292.694 95.0086 293.015C95.1459 293.278 95.4434 293.404 95.7294 293.346C95.7866 293.335 95.8553 293.312 95.901 293.278C96.885 292.74 97.8918 292.259 98.933 291.848C102.915 290.177 107.251 289.262 111.576 289.193C112.697 289.17 113.807 289.193 114.928 289.285C115.283 289.319 115.603 289.044 115.637 288.69C115.66 288.324 115.397 288.015 115.031 287.98C114.036 287.9 113.029 287.855 112.022 287.866" stroke="black" stroke-width="0.938176" stroke-miterlimit="10"/>
<path d="M487.045 388.556C444.094 388.556 409.153 353.614 409.153 310.664C409.153 267.713 444.094 232.771 487.045 232.771C529.996 232.771 564.937 267.713 564.937 310.664C564.937 353.614 529.996 388.556 487.045 388.556Z" fill="#0064FF"/>
<path d="M487.045 233.841C529.469 233.841 563.862 268.234 563.862 310.658C563.862 353.083 529.469 387.475 487.045 387.475C444.62 387.475 410.228 353.083 410.228 310.658C410.228 268.234 444.62 233.841 487.045 233.841ZM487.045 231.69C443.499 231.69 408.065 267.113 408.065 310.67C408.065 354.227 443.488 389.649 487.045 389.649C530.602 389.649 566.024 354.227 566.024 310.67C566.024 267.113 530.602 231.69 487.045 231.69Z" fill="black"/>
<mask id="mask0_599_14464" style="mask-type:luminance" maskUnits="userSpaceOnUse" x="410" y="233" width="154" height="155">
<path d="M487.045 387.484C529.47 387.484 563.862 353.092 563.862 310.667C563.862 268.243 529.47 233.851 487.045 233.851C444.62 233.851 410.228 268.243 410.228 310.667C410.228 353.092 444.62 387.484 487.045 387.484Z" fill="white"/>
</mask>
<g mask="url(#mask0_599_14464)">
<path d="M558.153 438.807L558.004 407.916C558.153 372.425 549.274 374.278 540.316 373.809C490.146 371.178 517.273 371.899 514.767 389.93L502.033 439.448L558.164 438.819L558.153 438.807Z" fill="white" stroke="black" stroke-width="0.708323" stroke-miterlimit="10"/>
<path d="M418.146 438.795L418.294 406.794C418.146 370.033 427.024 371.955 435.983 371.463C486.153 368.74 459.025 369.484 461.531 388.156L474.265 439.447L418.134 438.795H418.146Z" fill="white" stroke="black" stroke-width="0.708323" stroke-miterlimit="10"/>
<path d="M540.785 438.808L547.112 373.684L488.143 350.39V438.808H540.785Z" fill="#002850" stroke="black" stroke-width="0.708323" stroke-miterlimit="10"/>
<path d="M435.513 438.808L429.186 371.247L488.143 350.39V438.808H435.513Z" fill="#002850" stroke="black" stroke-width="0.708323" stroke-miterlimit="10"/>
<path d="M514.252 360.302L512.811 363.975L509.733 371.858L509.699 371.938L494.104 411.845L491.301 419.008C491.301 419.008 491.301 419.031 491.29 419.042L488.132 427.108L488.075 427.268L482.217 413.47H482.205L480.169 408.665L471.336 387.864L461.462 364.627L459.7 360.474L473.338 352.682V352.454L473.361 352.271H501.541L501.518 353.026L514.241 360.291L514.252 360.302Z" fill="white" stroke="black" stroke-width="0.708323" stroke-miterlimit="10"/>
<path d="M502.022 336.171L501.564 352.28L501.541 353.035L501.53 353.401L501.415 356.754L501.381 358.115L501.324 360.163L501.107 367.68L498.807 369.225C495.638 371.33 492.045 372.428 488.43 372.428C488.35 372.428 488.247 372.428 488.166 372.417C487.835 372.417 487.514 372.405 487.183 372.371H487.171C486.473 372.337 485.798 372.245 485.1 372.119L484.791 372.062C484.471 372.005 484.185 371.925 483.876 371.856C483.441 371.73 482.984 371.593 482.549 371.444C478.899 370.163 475.707 367.715 473.43 364.397L473.007 363.767L473.087 360.815L473.224 355.667L473.373 352.726V352.498L473.396 352.315L473.647 347.647L474.071 339.317L502.033 336.205L502.022 336.171Z" fill="#FFCD9F" stroke="black" stroke-width="0.708323" stroke-linecap="round" stroke-linejoin="round"/>
<path d="M522.216 310.017C522.193 317.042 520.808 322.728 518.337 327.408C515.34 333.083 510.763 337.281 505.122 340.542C504.081 341.149 502.983 341.721 501.862 342.236C493.418 346.137 483.086 347.476 473.773 345.279C465.65 343.357 458.316 338.746 453.659 330.817C452.561 328.964 451.886 327.042 451.508 325.119C449.941 317.03 453.82 308.747 456.28 304.514C457.344 302.694 458.133 301.63 458.133 301.63L457.504 294.319L456.096 277.924V277.901C456.096 277.901 480.409 267.776 492.171 266.769C503.933 265.762 520.122 284.789 521.953 304.056C522.067 305.189 522.136 306.298 522.181 307.362C522.216 308.266 522.239 309.147 522.239 310.017H522.216Z" fill="#FFCD9F"/>
<path d="M494.642 311.914C496.633 309.924 500.031 308.825 502.125 308.825C504.219 308.825 506.278 309.443 508.006 310.61C509.733 311.766 511.095 313.425 511.896 315.358C512.697 317.292 512.903 319.431 512.491 321.468C512.079 323.527 511.072 325.415 509.607 326.88C508.109 328.344 506.232 329.351 504.196 329.763C502.136 330.175 500.02 329.969 498.086 329.168C496.153 328.367 494.505 327.005 493.338 325.278C492.182 323.527 491.553 321.491 491.553 319.397C491.553 316.582 492.663 313.905 494.642 311.914Z" fill="#FFA195"/>
<path d="M479.917 281.336C473.19 294.208 457.664 294.311 457.664 294.311C432.859 294.7 422.836 241.967 470.398 246.314C499.711 229.152 519.916 250.01 519.252 263.064C524.481 262.389 545.35 263.556 542.879 292.617C541.231 311.782 520.877 312.09 513.383 307.834C505.877 303.578 504.928 280.73 504.928 280.73C492.571 286.451 479.94 281.348 479.94 281.348L479.917 281.336Z" fill="black"/>
<path d="M502.926 303.224C499.63 298.373 496.038 296.954 490.855 297.263" stroke="black" stroke-width="0.708323" stroke-linecap="round" stroke-linejoin="round"/>
<path d="M490.42 306.782C490.832 306.348 491.576 306.107 492.022 306.107C492.468 306.107 492.903 306.233 493.281 306.496C493.658 306.76 493.956 307.114 494.127 307.526C494.31 307.938 494.333 308.407 494.253 308.842C494.173 309.277 493.944 309.689 493.635 309.997C493.326 310.306 492.914 310.535 492.48 310.615C492.045 310.695 491.576 310.672 491.164 310.489C490.729 310.306 490.386 310.02 490.134 309.643C489.871 309.277 489.745 308.819 489.745 308.384C489.745 307.789 489.974 307.229 490.42 306.782Z" fill="black"/>
<path d="M465.249 304.792C465.661 304.357 466.405 304.117 466.851 304.117C467.297 304.117 467.732 304.243 468.11 304.506C468.487 304.769 468.785 305.124 468.956 305.536C469.139 305.948 469.162 306.417 469.082 306.852C469.002 307.286 468.773 307.698 468.464 308.007C468.155 308.316 467.744 308.545 467.309 308.625C466.874 308.705 466.405 308.682 465.993 308.499C465.558 308.316 465.215 308.03 464.963 307.653C464.7 307.286 464.574 306.829 464.574 306.394C464.574 305.799 464.803 305.238 465.249 304.792Z" fill="black"/>
<path d="M474.322 320.503C472 317.459 473.956 311.762 473.956 311.762" stroke="black" stroke-width="0.708323" stroke-miterlimit="10"/>
<path d="M485.249 326.896C482.182 329.184 476.508 327.182 476.508 327.182" stroke="black" stroke-width="0.708323" stroke-miterlimit="10"/>
<path d="M486.542 323.23C486.542 323.23 489.105 324.947 489.757 327.429" stroke="black" stroke-width="0.708323" stroke-miterlimit="10"/>
<path d="M494.608 376.596L493.544 383.037L492.068 391.893H482.64C482.64 391.893 480.077 377.214 479.723 374.651C479.563 373.518 480.089 372.42 480.787 372.42H492.697C493.99 372.42 494.951 374.491 494.608 376.596Z" fill="#0064FF" stroke="black" stroke-width="0.708323" stroke-miterlimit="10"/>
<path d="M487.148 372.36V372.371L487.102 372.429L480.42 378.973L471.347 387.874L461.485 364.637L459.712 360.484L473.361 352.692L477.903 359.18L487.148 372.36Z" fill="white" stroke="black" stroke-width="0.708323" stroke-miterlimit="10"/>
<path d="M514.573 360.484L513.051 364.054L509.733 371.868L509.699 371.948L502.937 387.874L494.173 379.259L488.143 373.344L487.194 372.429L487.148 372.371V372.36H487.159L488.143 370.953L496.759 358.63L500.923 352.692L501.53 353.036V353.047L514.253 360.301L514.573 360.484Z" fill="white" stroke="black" stroke-width="0.708323" stroke-miterlimit="10"/>
<path d="M464.059 316.835C463.647 318.894 462.652 320.782 461.176 322.246C459.677 323.711 457.789 324.718 455.764 325.13C454.323 325.427 452.881 325.404 451.497 325.107C449.929 317.018 453.808 308.734 456.268 304.501C457.446 304.798 458.567 305.29 459.574 305.977C461.302 307.132 462.675 308.791 463.464 310.714C464.265 312.647 464.471 314.787 464.059 316.835Z" fill="#FFA195"/>
<path d="M522.216 310.017C522.193 317.042 520.808 322.728 518.337 327.408C515.34 333.083 510.763 337.281 505.122 340.542C504.081 341.149 502.983 341.721 501.862 342.236C493.418 346.137 483.086 347.476 473.773 345.279C465.65 343.357 458.316 338.746 453.659 330.817C452.561 328.964 451.886 327.042 451.508 325.119C449.941 317.03 453.82 308.747 456.28 304.514C457.344 302.694 458.133 301.63 458.133 301.63L457.504 294.319L456.096 277.924V277.901C456.096 277.901 480.409 267.776 492.171 266.769C503.933 265.762 520.122 284.789 521.953 304.056C522.067 305.189 522.136 306.298 522.181 307.362C522.216 308.266 522.239 309.147 522.239 310.017H522.216Z" stroke="black" stroke-width="0.708323" stroke-linecap="round" stroke-linejoin="round"/>
<path d="M514.779 310.775L518.875 308.406C520.763 307.319 523.005 307.045 525.088 307.605C527.204 308.177 528.978 309.539 530.065 311.427C531.152 313.315 531.46 315.557 530.888 317.639C530.316 319.722 528.955 321.529 527.067 322.616L517.651 327.776L514.768 310.786L514.779 310.775Z" fill="#FFCD9F"/>
<path d="M514.779 310.775L518.875 308.406C520.763 307.319 523.005 307.045 525.087 307.605C527.204 308.177 528.977 309.539 530.064 311.427C531.151 313.315 531.46 315.557 530.888 317.639C530.316 319.722 528.955 321.529 527.067 322.616L517.651 327.776" stroke="black" stroke-width="0.708323" stroke-linecap="round" stroke-linejoin="round"/>
</g>
<path d="M464.997 304.572C465.432 304.103 466.222 303.862 466.691 303.862C467.16 303.862 467.618 304 468.029 304.274C468.441 304.549 468.739 304.926 468.933 305.361C469.128 305.796 469.151 306.288 469.071 306.757C468.99 307.226 468.739 307.661 468.418 307.981C468.087 308.313 467.652 308.553 467.194 308.633C466.725 308.713 466.245 308.691 465.798 308.496C465.329 308.302 464.975 308.004 464.711 307.592C464.437 307.215 464.3 306.723 464.3 306.254C464.3 305.624 464.54 305.029 465.009 304.56L464.997 304.572Z" fill="black"/>
<path d="M490.317 306.785C490.752 306.315 491.541 306.075 492.01 306.075C492.479 306.075 492.937 306.213 493.349 306.487C493.761 306.762 494.058 307.139 494.253 307.574C494.447 308.009 494.47 308.501 494.39 308.97C494.31 309.439 494.058 309.874 493.738 310.194C493.406 310.526 492.971 310.766 492.514 310.846C492.045 310.926 491.564 310.903 491.118 310.709C490.649 310.514 490.294 310.217 490.031 309.805C489.756 309.428 489.619 308.936 489.619 308.466C489.619 307.837 489.859 307.242 490.328 306.773L490.317 306.785Z" fill="black"/>
<path d="M256.216 388.733C213.265 388.733 178.324 353.791 178.324 310.841C178.324 267.89 213.265 232.948 256.216 232.948C299.167 232.948 334.109 267.89 334.109 310.841C334.109 353.791 299.167 388.733 256.216 388.733Z" fill="#0064FF"/>
<path d="M256.216 234.012C298.64 234.012 333.033 268.405 333.033 310.829C333.033 353.254 298.64 387.646 256.216 387.646C213.792 387.646 179.399 353.254 179.399 310.829C179.399 268.405 213.792 234.012 256.216 234.012ZM256.216 231.861C212.671 231.861 177.237 267.284 177.237 310.841C177.237 354.398 212.659 389.82 256.216 389.82C299.773 389.82 335.195 354.398 335.195 310.841C335.195 267.284 299.773 231.861 256.216 231.861Z" fill="black"/>
<path d="M256.216 387.655C298.641 387.655 333.033 353.263 333.033 310.838C333.033 268.414 298.641 234.021 256.216 234.021C213.792 234.021 179.399 268.414 179.399 310.838C179.399 353.263 213.792 387.655 256.216 387.655Z" fill="#0064FF"/>
<mask id="mask1_599_14464" style="mask-type:luminance" maskUnits="userSpaceOnUse" x="179" y="234" width="155" height="154">
<path d="M256.216 387.651C298.641 387.651 333.033 353.259 333.033 310.834C333.033 268.41 298.641 234.018 256.216 234.018C213.792 234.018 179.399 268.41 179.399 310.834C179.399 353.259 213.792 387.651 256.216 387.651Z" fill="white"/>
</mask>
<g mask="url(#mask1_599_14464)">
<path d="M213.952 282.202C213.952 282.202 171.299 393.64 256.411 383.48C312.977 376.73 320.127 352.44 307.954 289.399C295.78 226.357 227.67 226.906 213.952 282.202Z" fill="black" stroke="black" stroke-width="0.609814" stroke-miterlimit="10"/>
<path d="M236.102 306.855L226.16 298.48C225.267 297.69 224.203 297.141 223.094 296.764C221.984 296.398 220.759 296.237 219.604 296.352C218.391 296.489 217.247 296.752 216.206 297.324C215.13 297.839 214.272 298.629 213.471 299.521C212.682 300.414 212.133 301.478 211.755 302.587C211.446 303.674 211.286 304.898 211.401 306.043C211.538 307.255 211.858 308.365 212.43 309.418C212.945 310.493 213.735 311.351 214.627 312.152L228.048 323.296L239.558 309.567L236.114 306.855H236.102Z" fill="#FDD3BB"/>
<path d="M324.521 417.588L324.372 394.397C324.281 378.917 314.75 365.061 300.322 359.444L283.183 352.762C281.685 351.721 279.865 351.114 277.898 351.114H251.777C249.809 351.114 247.99 351.721 246.491 352.762L229.352 359.444C214.925 365.061 205.394 378.917 205.302 394.397L205.165 417.588H324.521Z" fill="white" stroke="black" stroke-width="0.717705" stroke-miterlimit="10" stroke-linecap="round"/>
<path d="M278.527 307.184H243.723V351.645H278.527V307.184Z" fill="#FDD3BB" stroke="black" stroke-width="0.717705" stroke-miterlimit="10"/>
<path d="M285.334 299.629C286.353 302.866 286.845 306.333 286.753 309.914C286.696 311.962 286.444 313.964 286.021 315.898C285.803 316.939 285.529 317.992 285.174 318.987C280.907 332.087 268.413 341.378 253.939 340.989C236.285 340.508 222.373 325.829 222.853 308.175C222.945 304.823 223.551 301.596 224.592 298.587C224.592 298.587 224.604 298.53 224.615 298.507C224.673 298.324 224.741 298.141 224.821 297.97C223.803 294.732 223.311 291.265 223.403 287.684C223.494 284.331 224.1 281.105 225.142 278.096C225.142 278.096 225.153 278.039 225.165 278.016C229.615 265.213 241.949 256.197 256.216 256.586C256.948 256.609 257.669 256.655 258.367 256.724C261.01 268.268 271.181 277.009 283.55 277.341C284.122 277.352 284.705 277.364 285.266 277.318C286.684 281.071 287.394 285.155 287.279 289.4C287.222 291.448 286.97 293.45 286.547 295.384C286.33 296.425 286.055 297.478 285.7 298.473C285.586 298.85 285.449 299.228 285.311 299.594L285.334 299.629Z" fill="#FDD3BB" stroke="black" stroke-width="0.717705" stroke-miterlimit="10"/>
<path d="M239.5 313.816C239.5 319.239 235.118 323.621 229.695 323.621C228.837 323.621 228.002 323.518 227.212 323.312C224.844 318.69 223.563 313.438 223.723 307.866C223.734 307.237 223.78 306.608 223.826 305.979C225.462 304.743 227.487 304.011 229.684 304.011C235.107 304.011 239.489 308.404 239.489 313.816H239.5Z" fill="#FFB2AB"/>
<path d="M235.611 303.013C235.691 303.344 235.874 303.642 236.114 303.859C236.366 304.088 236.675 304.237 237.006 304.283C237.338 304.328 237.681 304.283 237.99 304.145C238.299 303.996 238.551 303.768 238.723 303.482C238.894 303.196 238.986 302.864 238.963 302.521C238.951 302.189 238.837 301.857 238.631 301.582C238.437 301.308 238.151 301.102 237.842 300.987C237.521 300.873 237.178 300.85 236.858 300.93C236.423 301.045 236.045 301.319 235.805 301.708C235.576 302.097 235.496 302.555 235.611 303.001" fill="black"/>
<path d="M261.479 303.013C261.559 303.344 261.742 303.642 261.983 303.859C262.234 304.088 262.543 304.237 262.875 304.283C263.207 304.328 263.55 304.283 263.859 304.145C264.168 303.996 264.42 303.768 264.591 303.482C264.763 303.196 264.854 302.864 264.832 302.521C264.82 302.189 264.706 301.857 264.5 301.582C264.305 301.308 264.019 301.102 263.71 300.987C263.39 300.873 263.047 300.85 262.726 300.93C262.292 301.045 261.914 301.319 261.674 301.708C261.445 302.097 261.365 302.555 261.479 303.001" fill="black"/>
<path d="M293.149 281.501C293.149 287.37 289.43 292.37 284.236 294.281L277.76 279.922C277.085 278.412 275.049 278.183 274.03 279.499L262.017 295.116H229.97C225.107 295.116 221.16 291.18 221.16 286.306V276.547C221.16 263.401 231.812 252.749 244.958 252.749H264.397C280.277 252.749 293.137 265.62 293.137 281.49L293.149 281.501Z" fill="black"/>
<path d="M241.377 320.379H262.371C262.371 320.379 263.172 332.186 254.271 332.621C244.397 333.102 242.235 327.084 241.377 320.379Z" fill="white" stroke="black" stroke-width="0.717705" stroke-miterlimit="10"/>
<path d="M276.239 301.354L286.181 292.979C287.073 292.19 288.138 291.64 289.247 291.263C290.357 290.897 291.581 290.736 292.737 290.851C293.95 290.988 295.094 291.251 296.135 291.823C297.211 292.338 298.069 293.128 298.87 294.02C299.659 294.913 300.208 295.977 300.586 297.086C300.895 298.173 301.055 299.398 300.94 300.542C300.803 301.754 300.483 302.864 299.911 303.917C299.396 304.992 298.606 305.85 297.714 306.651L284.293 317.795L272.783 304.066L276.227 301.354H276.239Z" fill="#FDD3BB"/>
<path d="M274.648 321.437C280.07 321.437 284.465 317.042 284.465 311.62C284.465 306.199 280.07 301.804 274.648 301.804C269.226 301.804 264.831 306.199 264.831 311.62C264.831 317.042 269.226 321.437 274.648 321.437Z" fill="#FFB2AB"/>
<path d="M246.56 316.051L240.896 313.442L245.816 307.184" stroke="black" stroke-width="0.717705" stroke-miterlimit="10"/>
<path d="M244.958 354.902C242.418 354.902 240.359 352.842 240.359 350.314C240.359 347.785 242.407 345.703 244.958 345.703C246.48 345.703 247.83 346.447 248.677 347.591C249.5 346.447 250.862 345.703 252.384 345.703C253.791 345.703 255.072 346.344 255.93 347.351C256.766 346.344 258.036 345.703 259.443 345.703C260.965 345.703 262.315 346.447 263.161 347.591C263.985 346.447 265.347 345.703 266.868 345.703C268.276 345.703 269.557 346.344 270.415 347.351C271.25 346.344 272.52 345.703 273.928 345.703C275.449 345.703 276.799 346.447 277.646 347.591C278.47 346.447 279.831 345.703 281.353 345.703C283.893 345.703 285.964 347.763 285.964 350.314C285.964 352.865 283.904 354.902 281.353 354.902" fill="white"/>
<path d="M244.958 354.902C242.418 354.902 240.359 352.842 240.359 350.314C240.359 347.785 242.407 345.703 244.958 345.703C246.48 345.703 247.83 346.447 248.677 347.591C249.5 346.447 250.862 345.703 252.384 345.703C253.791 345.703 255.072 346.344 255.93 347.351C256.766 346.344 258.036 345.703 259.443 345.703C260.965 345.703 262.315 346.447 263.161 347.591C263.985 346.447 265.347 345.703 266.868 345.703C268.276 345.703 269.557 346.344 270.415 347.351C271.25 346.344 272.52 345.703 273.928 345.703C275.449 345.703 276.799 346.447 277.646 347.591C278.47 346.447 279.831 345.703 281.353 345.703C283.893 345.703 285.964 347.763 285.964 350.314C285.964 352.865 283.904 354.902 281.353 354.902" stroke="black" stroke-width="0.717705" stroke-miterlimit="10"/>
<path d="M235.645 300.901C236.08 300.432 236.869 300.191 237.338 300.191C237.807 300.191 238.265 300.329 238.677 300.603C239.089 300.878 239.386 301.255 239.581 301.69C239.775 302.125 239.798 302.617 239.718 303.086C239.638 303.555 239.386 303.99 239.066 304.31C238.734 304.642 238.299 304.882 237.842 304.962C237.373 305.042 236.892 305.02 236.446 304.825C235.977 304.631 235.622 304.333 235.359 303.921C235.084 303.544 234.947 303.052 234.947 302.583C234.947 301.953 235.187 301.358 235.656 300.889L235.645 300.901Z" fill="black"/>
<path d="M261.01 300.901C261.445 300.432 262.234 300.191 262.703 300.191C263.173 300.191 263.63 300.329 264.042 300.603C264.454 300.878 264.751 301.255 264.946 301.69C265.14 302.125 265.163 302.617 265.083 303.086C265.003 303.555 264.751 303.99 264.431 304.31C264.099 304.642 263.665 304.882 263.207 304.962C262.738 305.042 262.257 305.02 261.811 304.825C261.342 304.631 260.987 304.333 260.724 303.921C260.45 303.544 260.312 303.052 260.312 302.583C260.312 301.953 260.553 301.358 261.022 300.889L261.01 300.901Z" fill="black"/>
</g>
<path d="M372.277 255.048C329.326 255.048 294.385 220.107 294.385 177.156C294.385 134.205 329.326 99.2637 372.277 99.2637C415.228 99.2637 450.17 134.205 450.17 177.156C450.17 220.107 415.228 255.048 372.277 255.048Z" fill="#0064FF"/>
<path d="M372.266 100.328C414.69 100.328 449.083 134.72 449.083 177.145C449.083 219.569 414.69 253.962 372.266 253.962C329.841 253.962 295.449 219.569 295.449 177.145C295.449 134.72 329.841 100.328 372.266 100.328ZM372.266 98.1768C328.72 98.1768 293.286 133.599 293.286 177.156C293.286 220.713 328.709 256.135 372.266 256.135C415.823 256.135 451.245 220.713 451.245 177.156C451.245 133.599 415.823 98.1768 372.266 98.1768Z" fill="black"/>
<path d="M372.266 253.967C414.69 253.967 449.082 219.575 449.082 177.15C449.082 134.725 414.69 100.333 372.266 100.333C329.841 100.333 295.449 134.725 295.449 177.15C295.449 219.575 329.841 253.967 372.266 253.967Z" fill="#0064FF"/>
<mask id="mask2_599_14464" style="mask-type:luminance" maskUnits="userSpaceOnUse" x="295" y="100" width="155" height="154">
<path d="M372.266 253.961C414.69 253.961 449.082 219.569 449.082 177.144C449.082 134.719 414.69 100.327 372.266 100.327C329.841 100.327 295.449 134.719 295.449 177.144C295.449 219.569 329.841 253.961 372.266 253.961Z" fill="white"/>
</mask>
<g mask="url(#mask2_599_14464)">
<path d="M411.692 132.923C411.692 132.923 431.829 165.073 418.076 187.796C407.07 205.964 384.096 208.047 379.496 207.692C337.06 204.351 316.935 171.366 327.885 137.408C339.532 101.265 390.434 98.954 411.704 132.935L411.692 132.923Z" fill="black" stroke="black" stroke-width="0.450325" stroke-miterlimit="10" stroke-linecap="round"/>
<path d="M403.145 178.933L398.134 192.491C397.665 193.772 398.706 195.1 400.182 195.1H410.479C411.967 195.1 413.008 193.75 412.504 192.468L407.207 178.91C406.521 177.148 403.786 177.171 403.134 178.945L403.145 178.933Z" fill="#0064FF" stroke="black" stroke-width="0.684869" stroke-miterlimit="10" stroke-linecap="round"/>
<path d="M460.501 292.364L460.352 267.457C460.249 250.832 450.009 235.947 434.518 229.918L411.864 221.085V292.364H460.489H460.501Z" fill="white" stroke="black" stroke-width="0.717705" stroke-miterlimit="10" stroke-linecap="round"/>
<path d="M431.314 292.366L437.984 231.384L389.679 212.552V292.366H431.314Z" fill="white" stroke="black" stroke-width="0.717705" stroke-miterlimit="10" stroke-linecap="round"/>
<path d="M285.552 292.364L285.7 267.457C285.803 250.832 296.043 235.947 311.535 229.918L334.189 221.085V292.364H285.563H285.552Z" fill="white" stroke="black" stroke-width="0.717705" stroke-miterlimit="10" stroke-linecap="round"/>
<path d="M314.738 292.366L308.068 231.384L356.373 212.552V292.366H314.738Z" fill="white" stroke="black" stroke-width="0.717705" stroke-miterlimit="10" stroke-linecap="round"/>
<path d="M396.143 291.421H348.33V227.27C348.33 215.508 357.883 205.954 369.645 205.954H374.84C386.601 205.954 396.155 215.508 396.155 227.27V291.421H396.143Z" fill="#2E3192" stroke="black" stroke-width="0.717705" stroke-miterlimit="10" stroke-linecap="round"/>
<path d="M339.52 162.061C339.52 167.896 341.008 173.376 343.616 178.147C344.783 180.287 346.19 182.289 347.792 184.108C353.936 191.122 362.952 195.561 373.009 195.561C390.125 195.561 404.232 182.747 406.257 166.168C406.269 166.1 406.269 166.054 406.269 166.008C406.429 164.727 406.509 163.4 406.509 162.061C406.509 143.846 391.967 129.007 373.821 128.572C375.126 131.616 375.835 134.968 375.835 138.492C375.835 140.7 375.56 142.84 375.023 144.876C372.197 155.848 362.243 163.949 350.401 163.949C349.852 163.949 349.291 163.937 348.753 163.88C345.47 163.674 342.346 162.85 339.52 161.5C339.509 161.683 339.509 161.866 339.509 162.061H339.52Z" fill="white" stroke="black" stroke-width="0.520688" stroke-miterlimit="10" stroke-linecap="round"/>
<path d="M373.02 240.85C363.833 240.85 356.373 233.39 356.373 224.203V173.621H389.679V224.203C389.679 233.39 382.219 240.85 373.032 240.85H373.02Z" fill="#FFCD9F" stroke="black" stroke-width="0.717705" stroke-miterlimit="10" stroke-linecap="round"/>
<path d="M347.003 166.373C346.03 169.473 345.561 172.78 345.653 176.212C345.71 178.169 345.95 180.091 346.351 181.944C346.557 182.951 346.82 183.946 347.163 184.908C351.248 197.436 363.204 206.326 377.036 205.948C393.924 205.49 407.241 191.441 406.784 174.565C406.692 171.361 406.12 168.272 405.125 165.4C405.125 165.4 405.113 165.354 405.102 165.32C405.045 165.148 404.976 164.965 404.907 164.805C405.88 161.705 406.349 158.398 406.257 154.966C406.166 151.762 405.594 148.673 404.598 145.801C404.598 145.801 404.587 145.755 404.576 145.721C400.319 133.479 388.512 124.852 374.862 125.218C374.165 125.241 373.478 125.287 372.803 125.356C370.275 136.396 360.549 144.76 348.708 145.08C348.159 145.092 347.598 145.103 347.06 145.057C345.71 148.65 345.024 152.552 345.127 156.613C345.184 158.57 345.424 160.492 345.824 162.345C346.03 163.341 346.294 164.348 346.637 165.309C346.751 165.675 346.877 166.029 347.014 166.384L347.003 166.373Z" fill="#FFCD9F" stroke="black" stroke-width="0.717705" stroke-miterlimit="10" stroke-linecap="round"/>
<path d="M353.296 166.404L343.788 158.395C342.93 157.64 341.911 157.113 340.847 156.759C339.783 156.404 338.605 156.255 337.507 156.358C336.351 156.495 335.253 156.736 334.246 157.285C333.216 157.788 332.392 158.532 331.637 159.379C330.882 160.237 330.356 161.255 330.001 162.319C329.704 163.349 329.555 164.527 329.658 165.626C329.795 166.781 330.093 167.857 330.642 168.852C331.145 169.882 331.889 170.706 332.735 171.461L345.573 182.124L356.579 168.989L353.284 166.392L353.296 166.404Z" fill="#FFCD9F"/>
<path d="M390.194 208.049L407.516 230.245L402.642 238.071L410.216 246.274L395.056 291.422H385.308C385.308 291.422 393.775 237.03 390.182 208.049H390.194Z" fill="#0064FF" stroke="black" stroke-width="0.717705" stroke-miterlimit="10" stroke-linecap="round"/>
<path d="M355.916 208.049L338.593 230.245L343.467 238.071L335.893 246.274L351.053 291.422H360.801C360.801 291.422 352.334 237.03 355.927 208.049H355.916Z" fill="#0064FF" stroke="black" stroke-width="0.717705" stroke-miterlimit="10" stroke-linecap="round"/>
<path d="M373.958 186.934C373.958 186.934 380.217 190.446 385.034 187.448" stroke="black" stroke-width="0.717705" stroke-miterlimit="10" stroke-linecap="round"/>
<path d="M382.574 180.167L387.997 177.673L383.283 171.678" stroke="black" stroke-width="0.717705" stroke-miterlimit="10" stroke-linecap="round"/>
<path d="M345.825 162.35C345.825 162.35 373.776 140.005 369.485 125.6C369.485 125.6 331.351 123.701 345.825 162.35Z" fill="black" stroke="black" stroke-width="0.520688" stroke-miterlimit="10" stroke-linecap="round"/>
<path d="M343.525 178.492L338.513 192.05C338.044 193.331 339.086 194.658 340.561 194.658H350.859C352.346 194.658 353.387 193.308 352.884 192.027L347.586 178.469C346.9 176.707 344.165 176.73 343.513 178.503L343.525 178.492Z" fill="#0064FF" stroke="black" stroke-width="0.684869" stroke-miterlimit="10" stroke-linecap="round"/>
<path d="M368.238 163.886C368.673 163.417 369.462 163.177 369.931 163.177C370.4 163.177 370.858 163.314 371.27 163.589C371.682 163.863 371.979 164.241 372.174 164.676C372.368 165.11 372.391 165.602 372.311 166.071C372.231 166.54 371.979 166.975 371.659 167.296C371.327 167.627 370.892 167.868 370.435 167.948C369.966 168.028 369.485 168.005 369.039 167.81C368.57 167.616 368.215 167.319 367.952 166.907C367.677 166.529 367.54 166.037 367.54 165.568C367.54 164.939 367.78 164.344 368.25 163.875L368.238 163.886Z" fill="black"/>
<path d="M390.754 163.886C391.189 163.417 391.979 163.177 392.448 163.177C392.917 163.177 393.375 163.314 393.786 163.589C394.198 163.863 394.496 164.241 394.69 164.676C394.885 165.11 394.908 165.602 394.828 166.071C394.747 166.54 394.496 166.975 394.175 167.296C393.844 167.627 393.409 167.868 392.951 167.948C392.482 168.028 392.002 168.005 391.555 167.81C391.086 167.616 390.732 167.319 390.468 166.907C390.194 166.529 390.057 166.037 390.057 165.568C390.057 164.939 390.297 164.344 390.766 163.875L390.754 163.886Z" fill="black"/>
<path d="M405.868 174.557C405.994 178.871 405.205 182.99 403.706 186.742C402.814 187.017 401.853 187.177 400.857 187.177C395.674 187.177 391.464 182.967 391.464 177.784C391.464 172.601 395.674 168.391 400.857 168.391C402.482 168.391 403.992 168.791 405.308 169.523C405.64 171.148 405.811 172.841 405.868 174.546V174.557Z" fill="#FFA195"/>
<path d="M358.993 184.295C364.175 184.295 368.375 180.095 368.375 174.913C368.375 169.732 364.175 165.531 358.993 165.531C353.812 165.531 349.611 169.732 349.611 174.913C349.611 180.095 353.812 184.295 358.993 184.295Z" fill="#FFA195"/>
<path d="M356.785 126.764C356.785 126.764 402.207 148.88 409.484 184.108C409.484 184.108 431.806 131.009 375.664 118.664C362.678 115.815 356.785 126.753 356.785 126.753V126.764Z" fill="black"/>
</g>
<path d="M608.872 255.048C565.921 255.048 530.979 220.107 530.979 177.156C530.979 134.205 565.921 99.2637 608.872 99.2637C651.822 99.2637 686.776 134.205 686.776 177.156C686.776 220.107 651.834 255.048 608.872 255.048Z" fill="#0064FF"/>
<path d="M608.872 100.328C651.296 100.328 685.689 134.72 685.689 177.145C685.689 219.569 651.296 253.962 608.872 253.962C566.447 253.962 532.055 219.569 532.055 177.145C532.055 134.72 566.447 100.328 608.872 100.328ZM608.872 98.1768C565.326 98.1768 529.892 133.599 529.892 177.156C529.892 220.713 565.315 256.135 608.872 256.135C652.429 256.135 687.851 220.713 687.851 177.156C687.851 133.599 652.429 98.1768 608.872 98.1768Z" fill="black"/>
<path d="M608.872 253.967C651.297 253.967 685.689 219.575 685.689 177.15C685.689 134.725 651.297 100.333 608.872 100.333C566.447 100.333 532.055 134.725 532.055 177.15C532.055 219.575 566.447 253.967 608.872 253.967Z" fill="#0064FF"/>
<mask id="mask3_599_14464" style="mask-type:luminance" maskUnits="userSpaceOnUse" x="532" y="100" width="154" height="154">
<path d="M608.872 253.961C651.297 253.961 685.689 219.569 685.689 177.144C685.689 134.719 651.297 100.327 608.872 100.327C566.447 100.327 532.055 134.719 532.055 177.144C532.055 219.569 566.447 253.961 608.872 253.961Z" fill="white"/>
</mask>
<g mask="url(#mask3_599_14464)">
<path d="M627.086 180.857H591.332V240.936H627.086V180.857Z" fill="#F2AF7D" stroke="black" stroke-width="0.708323" stroke-miterlimit="10"/>
<path d="M631.011 224.417H587.397V265.274H631.011V224.417Z" fill="white" stroke="black" stroke-width="0.717705" stroke-miterlimit="10" stroke-linecap="round"/>
<path d="M593.724 208.228C635.496 209.887 633.173 178.584 634.489 170.907C637.155 154.74 634.935 138.081 629.066 133.448C624.924 130.141 618.105 128.517 608.78 128.574C593.232 128.665 575.498 140.026 575.326 140.095L574.857 133.757L575.658 163.699C574.216 165.792 568.118 179.705 575.074 193.412C582.042 207.118 593.724 208.228 593.724 208.228Z" fill="#F2AF7D" stroke="black" stroke-width="0.708323" stroke-miterlimit="10"/>
<path d="M576.493 173.198C574.697 172.923 573.552 173.083 572.82 173.644C572.523 176.23 572.42 178.792 572.591 181.39C572.729 184.193 573.266 186.984 574.262 189.616C576.401 189.868 578.587 189.261 580.303 187.934C582.03 186.595 583.129 184.662 583.449 182.511C583.77 180.371 583.163 178.197 581.87 176.435C580.566 174.708 578.632 173.541 576.493 173.186V173.198Z" fill="#EE887B"/>
<path d="M607.625 180.362C608.128 178.806 609.066 177.41 610.37 176.403C611.64 175.396 613.196 174.767 614.844 174.63C616.492 174.493 618.116 174.859 619.558 175.625C620.999 176.426 622.144 177.639 622.91 179.069C623.677 180.534 623.951 182.181 623.757 183.817C623.562 185.453 622.922 186.998 621.846 188.222C620.771 189.481 619.375 190.385 617.819 190.842C616.228 191.3 614.558 191.266 613.002 190.762C610.908 190.099 609.158 188.6 608.162 186.643C607.144 184.687 606.95 182.433 607.647 180.339H607.613V180.373L607.625 180.362Z" fill="#EE887B"/>
<path d="M589.284 192.04C595.497 194.122 601.55 188.539 601.55 188.539" stroke="black" stroke-width="0.708323" stroke-linecap="round" stroke-linejoin="round"/>
<path d="M593.689 169.375L589.513 178.723C589.399 178.928 589.364 179.123 589.353 179.329C589.342 179.535 589.41 179.741 589.502 179.947C589.593 180.118 589.765 180.301 589.925 180.404C590.097 180.519 590.291 180.587 590.531 180.599L597.305 180.382" stroke="black" stroke-width="0.708323" stroke-linecap="round" stroke-linejoin="round"/>
<path d="M583.026 166.774C582.671 167.106 582.191 167.289 581.71 167.266C581.23 167.243 580.761 167.026 580.429 166.671C580.097 166.316 579.914 165.836 579.937 165.355C579.96 164.875 580.177 164.406 580.532 164.074C580.887 163.742 581.367 163.559 581.848 163.582C582.328 163.605 582.797 163.822 583.129 164.177C583.461 164.532 583.644 165.012 583.621 165.493C583.598 165.973 583.381 166.442 583.026 166.774Z" fill="black"/>
<path d="M607.121 167.689C606.767 168.021 606.286 168.204 605.806 168.181C605.325 168.158 604.856 167.941 604.524 167.586C604.192 167.232 604.009 166.751 604.032 166.27C604.055 165.79 604.272 165.321 604.627 164.989C604.982 164.657 605.462 164.474 605.943 164.497C606.423 164.52 606.893 164.737 607.224 165.092C607.556 165.447 607.739 165.927 607.716 166.408C607.693 166.888 607.476 167.357 607.121 167.689Z" fill="black"/>
<path d="M597.831 177.384C597.831 177.384 601.721 179.306 602.35 186.102" stroke="black" stroke-width="0.708323" stroke-linecap="round" stroke-linejoin="round"/>
<path d="M600.154 149.202C600.154 149.202 595.623 152.417 587.477 149.03" stroke="black" stroke-width="0.708323" stroke-linecap="round" stroke-linejoin="round"/>
<path d="M597.991 146.088C596.733 146.797 595.314 147.186 593.884 147.198C592.442 147.209 591.023 146.82 589.753 146.122" stroke="black" stroke-width="0.708323" stroke-linecap="round" stroke-linejoin="round"/>
<path d="M644.008 173.247C644.008 173.247 653.882 172.767 653.298 143.488C653.058 131.532 642.052 85.641 586.046 115.606C558.725 123.42 575.314 150.467 575.314 150.467C578.644 136.807 587.579 133.466 595.657 135.456C609.764 126.99 631.411 132.264 634.157 148.717C635.484 156.714 634.946 165.147 633.127 169.62C631.628 173.316 638.436 174.162 638.436 174.162L644.019 173.224L644.008 173.247Z" fill="#939399" stroke="black" stroke-width="0.708323" stroke-miterlimit="10"/>
<path d="M632.144 161.45L638.677 160.077C640.851 159.551 643.139 159.929 645.038 161.096C646.96 162.274 648.322 164.139 648.837 166.302C649.363 168.475 649.008 170.775 647.841 172.674C646.674 174.574 644.798 175.958 642.635 176.473L631.858 178.83" fill="#F2AF7D"/>
<path d="M632.144 161.45L638.677 160.077C640.851 159.551 643.139 159.929 645.038 161.096C646.96 162.274 648.322 164.139 648.837 166.302C649.363 168.475 649.008 170.775 647.841 172.674C646.674 174.574 644.798 175.958 642.635 176.473L631.858 178.83" stroke="black" stroke-width="0.708323" stroke-miterlimit="10"/>
<path d="M579.227 176.323C585.131 176.552 590.12 171.953 590.348 166.015C590.577 160.077 585.978 155.123 580.04 154.894C574.102 154.665 569.148 159.265 568.919 165.203C568.69 171.141 573.289 176.095 579.227 176.323Z" stroke="black" stroke-width="0.708323" stroke-linecap="round" stroke-linejoin="round"/>
<path d="M604.868 175.211C610.772 175.44 615.76 170.841 615.989 164.903C616.218 158.965 611.618 154.01 605.68 153.782C599.742 153.553 594.788 158.152 594.559 164.09C594.33 170.028 598.93 174.982 604.868 175.211Z" stroke="black" stroke-width="0.708323" stroke-linecap="round" stroke-linejoin="round"/>
<path d="M590.349 166.047C590.909 165.727 591.493 165.51 592.145 165.43C592.763 165.349 593.415 165.372 594.021 165.498" stroke="black" stroke-width="0.708323" stroke-linecap="round" stroke-linejoin="round"/>
<path d="M616.526 164.158L634.226 161.104" stroke="black" stroke-width="0.708323" stroke-linecap="round" stroke-linejoin="round"/>
<path d="M537.249 293.343L537.398 269.511C537.249 232.578 546.174 234.512 555.167 234.02C605.566 231.285 578.324 232.029 580.829 250.793L593.632 293.046L537.238 293.343H537.249Z" fill="white" stroke="black" stroke-width="0.717705" stroke-miterlimit="10"/>
<path d="M680.506 293.352L680.357 269.76C680.506 233.205 671.582 235.105 662.589 234.624C612.19 231.912 639.432 232.656 636.926 251.225L624.352 293.238L680.517 293.352H680.506Z" fill="white" stroke="black" stroke-width="0.717705" stroke-miterlimit="10"/>
<path d="M639.294 223.903L606.034 256.534L580.509 223.777L546.357 235.219V293.054H604.066L670.06 293.684V235.31L639.294 223.903Z" fill="black" stroke="black" stroke-width="0.717705" stroke-miterlimit="10"/>
<path d="M609.055 223.772L591.207 212.708L578.816 223.898L595.326 242.032L609.055 223.772Z" fill="white" stroke="black" stroke-width="0.717705" stroke-miterlimit="10" stroke-linecap="round"/>
<path d="M609.055 223.772L626.904 212.708L639.295 223.898L621.377 240.922L609.055 223.772Z" fill="white" stroke="black" stroke-width="0.717705" stroke-miterlimit="10" stroke-linecap="round"/>
<path d="M604.41 164.648C604.845 164.179 605.634 163.938 606.103 163.938C606.572 163.938 607.03 164.076 607.442 164.35C607.854 164.625 608.151 165.003 608.346 165.437C608.54 165.872 608.563 166.364 608.483 166.833C608.403 167.302 608.151 167.737 607.831 168.057C607.499 168.389 607.064 168.629 606.607 168.709C606.138 168.79 605.657 168.767 605.211 168.572C604.742 168.378 604.387 168.08 604.124 167.668C603.849 167.291 603.712 166.799 603.712 166.33C603.712 165.7 603.952 165.105 604.422 164.636L604.41 164.648Z" fill="black"/>
<path d="M580.074 164.021C580.509 163.552 581.299 163.312 581.768 163.312C582.237 163.312 582.694 163.449 583.106 163.723C583.518 163.998 583.816 164.376 584.01 164.81C584.205 165.245 584.228 165.737 584.147 166.206C584.067 166.675 583.816 167.11 583.495 167.43C583.164 167.762 582.729 168.002 582.271 168.083C581.802 168.163 581.321 168.14 580.875 167.945C580.406 167.751 580.051 167.453 579.788 167.041C579.514 166.664 579.376 166.172 579.376 165.703C579.376 165.073 579.617 164.479 580.086 164.009L580.074 164.021Z" fill="black"/>
</g>
<path d="M151.128 255.048C108.178 255.048 73.2358 220.107 73.2358 177.156C73.2358 134.205 108.178 99.2637 151.128 99.2637C194.079 99.2637 229.021 134.205 229.021 177.156C229.021 220.107 194.079 255.048 151.128 255.048Z" fill="#0064FF"/>
<path d="M151.128 100.328C193.553 100.328 227.945 134.72 227.945 177.145C227.945 219.569 193.553 253.962 151.128 253.962C108.704 253.962 74.3113 219.569 74.3113 177.145C74.3113 134.72 108.704 100.328 151.128 100.328ZM151.128 98.1768C107.583 98.1768 72.1489 133.599 72.1489 177.156C72.1489 220.713 107.571 256.135 151.128 256.135C194.685 256.135 230.108 220.713 230.108 177.156C230.108 133.599 194.685 98.1768 151.128 98.1768Z" fill="black"/>
<mask id="mask4_599_14464" style="mask-type:luminance" maskUnits="userSpaceOnUse" x="74" y="100" width="154" height="154">
<path d="M151.128 253.963C193.553 253.963 227.945 219.571 227.945 177.146C227.945 134.721 193.553 100.329 151.128 100.329C108.703 100.329 74.3114 134.721 74.3114 177.146C74.3114 219.571 108.703 253.963 151.128 253.963Z" fill="white"/>
</mask>
<g mask="url(#mask4_599_14464)">
<path d="M115.489 210.024H185.921C193.129 210.024 198.987 215.882 198.987 223.09V272.391H102.423V223.09C102.423 215.882 108.281 210.024 115.489 210.024Z" fill="#002850" stroke="black" stroke-width="0.431561" stroke-miterlimit="10"/>
<path d="M139.492 194.035C134.458 191.576 119.893 195.271 114.516 198.921C108.658 202.914 103.715 208.12 100.031 214.161L87.8693 233.76C85.3293 237.821 83.8877 242.501 83.6589 247.272C83.4644 252.054 84.4598 256.825 86.6336 261.104C89.1278 266.013 93.0178 270.074 97.8346 272.729C102.64 275.417 108.143 276.562 113.612 276.058" fill="#002850"/>
<path d="M139.492 194.035C134.458 191.576 119.893 195.271 114.516 198.921C108.658 202.914 103.715 208.12 100.031 214.161L87.8693 233.76C85.3293 237.821 83.8877 242.501 83.6589 247.272C83.4644 252.054 84.4598 256.825 86.6336 261.104C89.1278 266.013 93.0178 270.074 97.8346 272.729C102.64 275.417 108.143 276.562 113.612 276.058" stroke="black" stroke-width="0.708323" stroke-miterlimit="10"/>
<path d="M188.621 276.165C194.09 276.669 199.594 275.525 204.399 272.836C209.216 270.182 213.106 266.12 215.6 261.212C217.774 256.933 218.769 252.162 218.575 247.379C218.346 242.608 216.904 237.917 214.364 233.867L202.202 214.268C198.518 208.227 193.576 203.021 187.718 199.028C182.34 195.378 167.787 191.671 162.741 194.143" fill="#002850"/>
<path d="M188.621 276.165C194.09 276.669 199.594 275.525 204.399 272.836C209.216 270.182 213.106 266.12 215.6 261.212C217.774 256.933 218.769 252.162 218.575 247.379C218.346 242.608 216.904 237.917 214.364 233.867L202.202 214.268C198.518 208.227 193.576 203.021 187.718 199.028C182.34 195.378 167.787 191.671 162.741 194.143" stroke="black" stroke-width="0.708323" stroke-miterlimit="10"/>
<path d="M155.19 231.248C169.698 231.248 181.459 218.037 181.459 201.741C181.459 185.444 169.698 172.233 155.19 172.233C140.682 172.233 128.921 185.444 128.921 201.741C128.921 218.037 140.682 231.248 155.19 231.248Z" fill="white" stroke="black" stroke-width="0.708323" stroke-miterlimit="10"/>
<path d="M137.605 188.039H172.924V205.704C172.924 215.452 165.007 223.37 155.259 223.37C145.511 223.37 137.593 215.452 137.593 205.704V188.039H137.605Z" fill="#E28A46" stroke="black" stroke-width="0.708323" stroke-miterlimit="10"/>
<path d="M123.497 186.088C119.47 179.349 118.749 172.221 121.06 164.178C120.271 147.531 123.074 141.089 132.216 131.57C136.838 126.799 141.3 124.271 145.224 124.305C145.808 124.305 146.38 124.351 146.94 124.477C158.874 127.051 177.42 133.355 177.603 133.424C177.821 133.492 177.992 133.641 178.118 133.859L186.768 154.796C201.035 162.439 202.477 178.102 190.452 191.649C185.132 197.369 175.418 201.088 167.626 201.191C167.626 201.191 158.576 201.419 150.178 201.213C139.321 200.95 129.081 195.401 123.509 186.077L123.497 186.088Z" fill="#E28A46"/>
<path d="M180.223 136.206C177.363 143.151 163.885 138.723 163.885 138.723C163.828 149.661 146.906 150.119 146.906 150.119C146.906 150.119 144 166.709 129.744 164.97C122.571 178.859 130.339 183.813 142.17 198.824C137.765 203.081 105.352 196.364 99.7453 167.521C92.5487 112.843 157.032 115.211 157.032 115.211C157.032 115.211 188.049 119.822 180.189 136.252" fill="black"/>
<path d="M172.501 170.846L178.793 167.951L173.324 160.995" stroke="black" stroke-width="0.708323" stroke-linecap="round" stroke-linejoin="round"/>
<path d="M165.178 179.922C170.361 185.414 174.629 184.144 174.629 184.144" stroke="black" stroke-width="0.708323" stroke-linecap="round" stroke-linejoin="round"/>
<path d="M182.821 164.864C182.752 168.434 184.079 171.878 186.55 174.452C188.004 175.905 189.765 177.049 191.71 177.77C193.667 178.491 195.749 178.788 197.797 178.651C198.221 176.946 198.461 175.207 198.541 173.445C198.472 171.203 198.69 171.271 197.729 167.667C195.246 161.054 192.065 157.999 186.951 155.437C184.365 157.908 182.878 161.294 182.798 164.864H182.821Z" fill="#E25333"/>
<path d="M161.986 160.22C162.009 159.866 162.123 159.534 162.386 159.282C162.615 159.065 162.959 158.916 163.313 158.916C163.565 158.916 163.851 158.996 164.045 159.156C164.286 159.294 164.446 159.511 164.537 159.751C164.629 159.991 164.652 160.255 164.618 160.506C164.583 160.758 164.446 160.998 164.251 161.193C164.068 161.353 163.851 161.49 163.588 161.536C163.325 161.593 163.073 161.548 162.821 161.445C162.581 161.342 162.375 161.181 162.215 160.964C162.089 160.747 161.963 160.472 162.009 160.22H161.975H161.986Z" fill="black"/>
<path d="M161.986 160.22C162.009 159.866 162.123 159.534 162.386 159.282C162.615 159.065 162.959 158.916 163.313 158.916C163.565 158.916 163.851 158.996 164.045 159.156C164.286 159.294 164.446 159.511 164.537 159.751C164.629 159.991 164.652 160.255 164.618 160.506C164.583 160.758 164.446 160.998 164.251 161.193C164.068 161.353 163.851 161.49 163.588 161.536C163.325 161.593 163.073 161.548 162.821 161.445C162.581 161.342 162.375 161.181 162.215 160.964C162.089 160.747 161.963 160.472 162.009 160.22H161.975H161.986Z" stroke="black" stroke-width="0.394034" stroke-linecap="round" stroke-linejoin="round"/>
<path d="M177.043 154.912C177.1 154.729 177.226 154.58 177.34 154.477C177.455 154.374 177.603 154.259 177.775 154.191C177.912 154.145 178.118 154.088 178.267 154.111C178.519 154.111 178.805 154.191 178.999 154.351C179.239 154.488 179.4 154.706 179.491 154.946C179.583 155.186 179.606 155.449 179.571 155.701C179.537 155.953 179.4 156.193 179.205 156.388C179.045 156.559 178.805 156.685 178.542 156.731C178.278 156.788 178.027 156.742 177.775 156.639C177.523 156.536 177.329 156.376 177.169 156.159C177.043 155.941 176.917 155.667 176.963 155.415C176.928 155.243 177.02 155.072 177.043 154.912Z" fill="black"/>
<path d="M177.043 154.912C177.1 154.729 177.226 154.58 177.34 154.477C177.455 154.374 177.603 154.259 177.775 154.191C177.912 154.145 178.118 154.088 178.267 154.111C178.519 154.111 178.805 154.191 178.999 154.351C179.239 154.488 179.4 154.706 179.491 154.946C179.583 155.186 179.606 155.449 179.571 155.701C179.537 155.953 179.4 156.193 179.205 156.388C179.045 156.559 178.805 156.685 178.542 156.731C178.278 156.788 178.027 156.742 177.775 156.639C177.523 156.536 177.329 156.376 177.169 156.159C177.043 155.941 176.917 155.667 176.963 155.415C176.928 155.243 177.02 155.072 177.043 154.912Z" stroke="black" stroke-width="0.394034" stroke-linecap="round" stroke-linejoin="round"/>
<path d="M132.708 193.373C122.387 184.38 117.788 175.513 121.06 164.095C120.271 147.448 123.074 141.006 132.216 131.487C136.838 126.716 141.3 124.188 145.224 124.222C145.808 124.222 146.38 124.268 146.941 124.394C158.874 126.968 177.42 133.272 177.603 133.341C177.821 133.409 177.992 133.558 178.118 133.776L186.768 154.713C201.035 162.356 202.477 178.019 190.452 191.566C185.132 197.286 175.418 201.005 167.626 201.108C167.626 201.108 157.432 200.913 149.103 200.249C143.05 199.769 137.307 197.355 132.719 193.362L132.708 193.373Z" stroke="black" stroke-width="0.708323" stroke-miterlimit="10"/>
<path d="M133.726 184.948H133.806L121.678 180.199C120.569 179.765 119.562 179.124 118.715 178.3C117.868 177.476 117.182 176.492 116.701 175.428C116.232 174.353 115.969 173.186 115.958 172.007C115.935 170.829 116.141 169.651 116.576 168.541C117.01 167.431 117.651 166.424 118.475 165.577C119.299 164.708 120.283 164.044 121.347 163.564C122.422 163.095 123.589 162.832 124.768 162.82C125.923 162.797 127.102 163.003 128.211 163.438L140.316 168.197L133.738 184.936V184.959L133.726 184.948Z" fill="#E28A46"/>
<path d="M164.126 172.745C163.805 169.209 162.089 165.903 159.389 163.615C156.643 161.315 153.142 160.217 149.572 160.503C147.81 160.651 146.048 161.143 144.469 162.001C142.879 162.848 141.483 163.992 140.328 165.388C139.206 166.761 138.348 168.374 137.845 170.102C137.319 171.829 137.158 173.649 137.376 175.422C137.788 178.809 139.458 181.909 142.09 184.129C144.721 186.314 148.062 187.447 151.471 187.298C153.268 187.195 155.018 186.726 156.62 185.937C158.222 185.159 159.652 184.049 160.842 182.687C162.02 181.326 162.913 179.747 163.473 178.031C164.023 176.337 164.217 174.53 164.068 172.733" fill="#E25333"/>
<path d="M161.608 158.532C162.043 158.063 162.833 157.822 163.302 157.822C163.771 157.822 164.229 157.96 164.64 158.234C165.052 158.509 165.35 158.886 165.544 159.321C165.739 159.756 165.762 160.248 165.682 160.717C165.601 161.186 165.35 161.621 165.029 161.941C164.698 162.273 164.263 162.513 163.805 162.593C163.336 162.673 162.856 162.65 162.409 162.456C161.94 162.261 161.586 161.964 161.322 161.552C161.048 161.175 160.911 160.683 160.911 160.213C160.911 159.584 161.151 158.989 161.62 158.52L161.608 158.532Z" fill="black"/>
<path d="M176.574 153.721C177.008 153.252 177.798 153.012 178.267 153.012C178.736 153.012 179.194 153.149 179.606 153.424C180.017 153.698 180.315 154.076 180.509 154.511C180.704 154.945 180.727 155.437 180.647 155.906C180.567 156.375 180.315 156.81 179.995 157.131C179.663 157.462 179.228 157.703 178.77 157.783C178.301 157.863 177.821 157.84 177.375 157.645C176.905 157.451 176.551 157.153 176.288 156.742C176.013 156.364 175.876 155.872 175.876 155.403C175.876 154.774 176.116 154.179 176.585 153.71L176.574 153.721Z" fill="black"/>
</g>
<path d="M652.394 373.555C648.847 373.555 644.854 373.086 640.861 372.205C635.14 370.947 629.923 368.956 626.182 366.61C622.166 364.093 620.244 361.382 620.77 358.979L623.402 347.046C623.459 346.805 623.596 346.6 623.814 346.462C623.962 346.371 624.134 346.313 624.317 346.313C624.386 346.313 624.454 346.313 624.511 346.336L666.593 355.627C666.833 355.684 667.039 355.821 667.176 356.039C667.313 356.245 667.359 356.496 667.302 356.736L664.67 368.67C663.984 371.782 659.51 373.555 652.405 373.555H652.394Z" fill="#4890FF"/>
<path d="M624.317 347.246L666.398 356.536C666.398 356.536 664.671 364.339 663.767 368.47C663.172 371.158 658.676 372.634 652.406 372.634C649.031 372.634 645.14 372.211 641.079 371.307C629.454 368.744 620.782 363.31 621.697 359.179L624.329 347.246M624.317 345.393C623.963 345.393 623.619 345.496 623.322 345.679C622.91 345.942 622.613 346.365 622.51 346.846L619.878 358.779C618.528 364.877 629.317 370.609 640.678 373.115C644.74 374.007 648.79 374.488 652.406 374.488C659.991 374.488 664.785 372.44 665.575 368.87L668.206 356.937C668.309 356.456 668.218 355.953 667.954 355.541C667.691 355.129 667.268 354.832 666.787 354.729L624.706 345.438C624.569 345.404 624.443 345.393 624.306 345.393H624.317Z" fill="black"/>
<path d="M647.005 344.407C658.63 346.97 667.302 352.405 666.387 356.535C665.472 360.665 655.312 361.935 643.699 359.372C632.086 356.81 623.402 351.375 624.317 347.245C625.233 343.114 635.393 341.844 647.005 344.407Z" fill="#FFE563" stroke="black" stroke-width="0.759923" stroke-linecap="round" stroke-linejoin="round"/>
<path d="M646.937 344.392C658.881 347.035 667.829 352.516 666.925 356.657C666.009 360.788 655.586 362 643.63 359.357C631.685 356.715 622.738 351.234 623.642 347.092C624.558 342.962 634.981 341.749 646.937 344.392Z" fill="#7DB0FF" stroke="black" stroke-width="0.759923" stroke-linecap="round" stroke-linejoin="round"/>
<path d="M660.999 358.752C657.452 358.752 653.459 358.283 649.466 357.402C643.745 356.144 638.528 354.153 634.787 351.808C630.771 349.291 628.849 346.579 629.375 344.176L632.006 332.243C632.098 331.808 632.487 331.511 632.91 331.511C632.979 331.511 633.048 331.511 633.116 331.534L675.197 340.824C675.438 340.881 675.643 341.018 675.781 341.236C675.918 341.442 675.964 341.694 675.907 341.934L673.275 353.867C672.589 356.979 668.115 358.752 661.01 358.752H660.999Z" fill="#7DB0FF"/>
<path d="M632.922 332.437L675.003 341.728C675.003 341.728 673.275 349.531 672.371 353.661C671.776 356.35 667.28 357.826 661.01 357.826C657.635 357.826 653.745 357.402 649.683 356.499C638.059 353.936 629.386 348.501 630.302 344.371L632.933 332.437M632.922 330.584C632.075 330.584 631.308 331.179 631.114 332.037L628.482 343.97C627.132 350.069 637.921 355.801 649.283 358.306C653.344 359.199 657.395 359.679 661.01 359.679C668.596 359.679 673.389 357.631 674.179 354.062L676.81 342.128C676.913 341.648 676.822 341.144 676.559 340.732C676.296 340.321 675.872 340.023 675.392 339.92L633.311 330.63C633.173 330.595 633.036 330.584 632.91 330.584H632.922Z" fill="black"/>
<path d="M655.61 329.593C667.555 332.236 676.502 337.717 675.598 341.858C674.694 346 664.259 347.202 652.303 344.559C640.359 341.916 631.411 336.435 632.315 332.294C633.231 328.163 643.654 326.95 655.61 329.593Z" fill="#A1C6FF"/>
<path d="M655.61 329.593C667.555 332.236 676.502 337.717 675.598 341.858C674.694 346 664.259 347.202 652.303 344.559C640.359 341.916 631.411 336.435 632.315 332.294C633.231 328.163 643.654 326.95 655.61 329.593Z" stroke="black" stroke-width="0.759923" stroke-miterlimit="10"/>
<path d="M653.425 341.822C649.878 341.822 645.885 341.353 641.892 340.472C636.171 339.213 630.954 337.222 627.213 334.877C623.197 332.36 621.275 329.648 621.801 327.246L624.432 315.312C624.49 315.072 624.627 314.866 624.844 314.729C624.993 314.637 625.165 314.58 625.348 314.58C625.416 314.58 625.485 314.58 625.542 314.603L667.623 323.893C667.864 323.95 668.069 324.088 668.207 324.305C668.344 324.511 668.39 324.763 668.333 325.003L665.701 336.936C665.015 340.048 660.541 341.822 653.436 341.822H653.425Z" fill="#4890FF"/>
<path d="M625.336 315.513L667.418 324.803C667.418 324.803 665.69 332.606 664.786 336.736C664.191 339.425 659.695 340.901 653.425 340.901C650.05 340.901 646.16 340.478 642.098 339.574C630.474 337.011 621.801 331.576 622.716 327.446L625.348 315.513M625.336 313.659C624.49 313.659 623.723 314.254 623.529 315.112L620.897 327.046C619.547 333.144 630.336 338.876 641.698 341.381C645.759 342.274 649.809 342.754 653.425 342.754C661.01 342.754 665.804 340.706 666.594 337.137L669.225 325.203C669.328 324.723 669.237 324.22 668.974 323.808C668.71 323.396 668.287 323.098 667.806 322.995L625.725 313.705C625.588 313.671 625.451 313.659 625.325 313.659H625.336Z" fill="black"/>
<path d="M648.024 312.678C659.649 315.24 668.321 320.675 667.406 324.805C666.491 328.936 656.331 330.206 644.718 327.643C633.105 325.08 624.421 319.645 625.336 315.515C626.252 311.385 636.411 310.115 648.024 312.678Z" fill="#FFE563" stroke="black" stroke-width="0.759923" stroke-linecap="round" stroke-linejoin="round"/>
<path d="M647.967 312.657C659.912 315.3 668.859 320.78 667.955 324.922C667.051 329.064 656.617 330.265 644.661 327.622C632.705 324.979 623.769 319.499 624.673 315.357C625.588 311.227 636.011 310.014 647.967 312.657Z" fill="#7DB0FF" stroke="black" stroke-width="0.759923" stroke-linecap="round" stroke-linejoin="round"/>
<path d="M609.283 366.345C604.775 366.345 598.334 359.343 593.62 349.309C591.126 344.012 589.513 338.669 589.078 334.264C588.609 329.55 589.593 326.369 591.824 325.317L602.876 320.111C603.002 320.054 603.139 320.02 603.265 320.02C603.368 320.02 603.482 320.042 603.574 320.077C603.803 320.157 603.997 320.328 604.1 320.557L622.441 359.549C622.544 359.767 622.555 360.03 622.475 360.259C622.395 360.487 622.223 360.682 621.994 360.785L610.942 365.991C610.427 366.231 609.867 366.357 609.272 366.357L609.283 366.345Z" fill="#4890FF"/>
<path d="M603.277 320.937L621.617 359.929C621.617 359.929 614.386 363.327 610.565 365.135C610.176 365.318 609.741 365.41 609.283 365.41C605.279 365.41 598.997 358.568 594.455 348.9C589.387 338.133 588.391 327.939 592.213 326.143L603.265 320.937M603.277 319.084C603.002 319.084 602.739 319.141 602.487 319.255L591.435 324.461C589.581 325.331 587.51 327.756 588.163 334.335C588.609 338.843 590.245 344.289 592.785 349.678C598.494 361.817 605.187 367.252 609.295 367.252C610.027 367.252 610.725 367.103 611.366 366.805L622.418 361.6C622.864 361.394 623.207 361.016 623.367 360.547C623.528 360.078 623.505 359.574 623.299 359.128L604.958 320.136C604.752 319.69 604.375 319.347 603.906 319.187C603.7 319.118 603.494 319.072 603.277 319.072V319.084Z" fill="black"/>
<path d="M619.375 337.179C624.443 347.945 625.439 358.139 621.617 359.935C617.784 361.732 610.576 354.467 605.508 343.7C600.439 332.934 599.444 322.74 603.265 320.944C607.098 319.136 614.306 326.412 619.375 337.179Z" fill="#FFE563" stroke="black" stroke-width="0.759923" stroke-linecap="round" stroke-linejoin="round"/>
<path d="M619.352 337.126C624.558 348.201 625.679 358.636 621.846 360.443C618.013 362.251 610.691 354.723 605.485 343.659C600.279 332.584 599.158 322.149 602.991 320.342C606.824 318.534 614.146 326.051 619.352 337.126Z" fill="#7DB0FF" stroke="black" stroke-width="0.759923" stroke-linecap="round" stroke-linejoin="round"/>
<path d="M671.696 326.989C668.149 326.989 664.156 326.52 660.163 325.639C654.442 324.38 649.225 322.389 645.484 320.044C641.468 317.527 639.546 314.815 640.072 312.413L642.703 300.479C642.795 300.045 643.184 299.747 643.607 299.747C643.676 299.747 643.745 299.747 643.813 299.77L685.894 309.06C686.135 309.118 686.34 309.255 686.478 309.472C686.615 309.678 686.661 309.93 686.604 310.17L683.972 322.103C683.286 325.215 678.812 326.989 671.707 326.989H671.696Z" fill="#7DB0FF"/>
<path d="M643.619 300.691L685.7 309.981C685.7 309.981 683.972 317.784 683.068 321.915C682.473 324.603 677.977 326.079 671.707 326.079C668.332 326.079 664.442 325.656 660.38 324.752C648.756 322.189 640.083 316.755 640.999 312.624L643.63 300.691M643.619 298.826C643.264 298.826 642.921 298.929 642.623 299.112C642.212 299.375 641.914 299.799 641.811 300.279L639.18 312.213C637.83 318.311 648.619 324.043 659.98 326.548C664.042 327.441 668.092 327.921 671.707 327.921C679.293 327.921 684.087 325.873 684.876 322.304L687.508 310.37C687.611 309.89 687.519 309.386 687.256 308.975C686.993 308.563 686.57 308.265 686.089 308.162L644.008 298.872C643.871 298.838 643.745 298.826 643.607 298.826H643.619Z" fill="black"/>
<path d="M666.307 297.848C678.251 300.491 687.198 305.972 686.295 310.113C685.379 314.244 674.956 315.456 663 312.814C651.055 310.171 642.108 304.69 643.012 300.548C643.927 296.418 654.35 295.205 666.307 297.848Z" fill="#A1C6FF"/>
<path d="M666.307 297.848C678.251 300.491 687.198 305.972 686.295 310.113C685.379 314.244 674.956 315.456 663 312.814C651.055 310.171 642.108 304.69 643.012 300.548C643.927 296.418 654.35 295.205 666.307 297.848Z" fill="#A1C6FF" stroke="black" stroke-width="0.759923" stroke-miterlimit="10"/>
<path d="M465.868 102.03C464.838 103.906 462.264 108.391 463.454 119.615C464.232 126.926 468.442 134.958 468.442 134.958L495.821 91.6752L487.846 75.3027L465.868 102.03Z" fill="#CBFFB8"/>
<path d="M467.389 100.188C465.719 102.224 462.229 105.954 463.465 119.615C464.243 126.926 468.453 134.958 468.453 134.958L495.832 91.6752L487.858 75.3027L467.389 100.188Z" stroke="black" stroke-width="0.811522" stroke-miterlimit="10"/>
<path d="M549.618 58.4965L533.2 97.6944C533.2 97.6944 528.314 103.015 518.303 102.122C513.853 101.71 501.233 98.644 492.206 97.4541H492.183C490.306 97.1795 488.602 97.0193 487.137 96.9621C486.657 96.9392 486.21 96.9392 485.753 96.9392C485.055 96.9392 484.403 96.9621 483.751 96.9964H483.453C482.961 97.0308 482.469 97.0765 481.966 97.1337C481.725 97.1566 481.508 97.1681 481.314 97.2138C480.856 97.2482 480.398 97.3168 479.963 97.3969C479.849 97.4198 479.723 97.4426 479.632 97.4541C479.437 97.4884 479.231 97.5113 479.037 97.5571C478.545 97.66 478.064 97.7516 477.595 97.8774C476.508 98.1291 475.501 98.4266 474.552 98.7698C474.254 98.8728 473.957 98.9643 473.659 99.0902C471.325 99.9597 469.449 101.012 468.019 101.939C466.955 102.648 466.119 103.301 465.547 103.815C465.444 103.918 465.353 103.999 465.273 104.056C465.158 104.17 465.055 104.273 464.975 104.353L464.952 104.376C464.815 104.479 464.712 104.571 464.655 104.651C464.632 104.651 464.632 104.674 464.632 104.674C464.632 104.674 464.632 104.696 464.609 104.696C464.586 104.719 464.575 104.731 464.552 104.754L464.712 104.422L464.735 104.399L464.758 104.376L464.792 104.296L464.827 104.239L466.016 101.985L466.039 101.951L466.119 101.836L466.234 101.596L466.257 101.562L470.49 93.5869H470.513L472.87 89.1591L485.398 65.6587L487.412 61.8602L488.476 59.858C488.476 59.858 494.906 54.5378 505.031 55.865C516.072 57.3066 525.786 59.9609 530.568 60.8305C539.527 62.4323 549.103 58.7138 549.607 58.5308L549.618 58.4965Z" fill="#CBFFB8"/>
<path d="M540.774 65.7016C540.774 65.7016 529.481 93.2065 528.612 95.1401C523.212 100.026 510.947 94.3735 495.478 92.2912H495.455C488.647 91.3645 481.211 91.1242 473.476 92.8061H473.453C472.481 93.0235 471.497 93.2637 470.524 93.5612L472.881 89.1334C474.3 88.7215 475.765 88.4012 477.275 88.1609H477.298C482.664 87.3143 488.476 87.5316 494.151 88.1952C509.997 90.0144 524.836 95.2774 526.244 90.3691L534.298 69.7976C512.342 69.3972 501.084 62.0175 485.41 65.6215L487.423 61.823C492.709 60.9878 498.281 60.759 503.83 61.4912C532.056 68.3217 540.785 65.7016 540.785 65.7016H540.774Z" fill="#3C7878" stroke="black" stroke-width="0.811522" stroke-miterlimit="10"/>
<path d="M549.618 58.5011L533.2 97.699C533.2 97.699 528.315 103.019 518.303 102.127C513.853 101.715 501.233 98.6486 492.206 97.4587H492.183C490.307 97.1841 488.602 97.0239 487.137 96.9667C486.657 96.9438 486.211 96.9438 485.753 96.9438C485.055 96.9438 484.403 96.9667 483.751 97.001H483.453C482.961 97.0354 482.469 97.0811 481.966 97.1383C481.726 97.1612 481.508 97.1727 481.314 97.2184C480.856 97.2527 480.398 97.3214 479.964 97.4015C479.849 97.4244 479.723 97.4472 479.632 97.4587C479.437 97.493 479.231 97.5159 479.037 97.5617C478.545 97.6646 478.064 97.7562 477.595 97.882C476.508 98.1337 475.501 98.4312 474.552 98.7744C474.254 98.8774 473.957 98.9689 473.659 99.0948C471.325 99.9643 469.449 101.017 468.019 101.944C466.955 102.676 466.12 103.328 465.548 103.82C465.445 103.923 465.353 104.003 465.273 104.06C465.159 104.175 465.056 104.278 464.975 104.358L464.953 104.381C464.872 104.404 464.792 104.335 464.838 104.243L466.028 101.989L466.131 101.829L466.245 101.589L466.268 101.555L470.525 93.5801L472.881 89.1523L485.41 65.6519L487.423 61.8534L488.487 59.8511C488.487 59.8511 494.917 54.5309 505.043 55.8581C516.084 57.2997 525.797 59.9541 530.58 60.8236C539.538 62.4254 549.115 58.707 549.618 58.5239V58.5011Z" stroke="black" stroke-width="0.811522" stroke-miterlimit="10"/>
</svg>
