<svg width="300" height="300" viewBox="0 0 300 300" fill="none" xmlns="http://www.w3.org/2000/svg">
<path d="M0 7.99999C0 3.58171 3.58172 0 8 0H292C296.418 0 300 3.58172 300 8V292C300 296.418 296.418 300 292 300H7.99999C3.58171 300 0 296.418 0 292V7.99999Z" fill="#F7EBFF"/>
<path d="M113.204 190.413C113.424 202.342 129.078 206.242 134.956 196.056C139.277 188.28 141.381 180.186 143.257 171.709C144.993 163.607 146.404 155.537 146.95 147.24C147.448 133.959 129.494 130.156 124.472 142.297C121.932 149.016 119.752 155.866 117.942 162.817C117.301 165.219 116.702 167.63 116.144 170.046C115.586 172.463 115.06 174.883 114.566 177.305C114.402 178.152 114.257 178.999 114.117 179.845C113.93 180.952 113.775 182.059 113.628 183.151C113.278 185.554 113.136 187.985 113.204 190.413Z" fill="#1B4545"/>
<path d="M113.204 190.413C113.424 202.342 129.078 206.242 134.956 196.056C139.277 188.28 141.381 180.186 143.257 171.709C144.993 163.607 146.404 155.537 146.95 147.24C147.448 133.959 129.494 130.156 124.472 142.297C121.932 149.016 119.752 155.866 117.942 162.817C117.301 165.219 116.702 167.63 116.144 170.046C115.586 172.463 115.06 174.883 114.566 177.305C114.402 178.152 114.257 178.999 114.117 179.845C113.93 180.952 113.775 182.059 113.628 183.151C113.278 185.554 113.136 187.985 113.204 190.413Z" stroke="black" stroke-width="0.278356" stroke-miterlimit="10"/>
<path d="M152.812 130.202C152.809 130.221 152.809 130.242 152.809 130.259C153.112 130.227 153.419 130.192 153.724 130.163C154.036 130.133 154.35 130.103 154.662 130.074C154.078 130.104 153.521 130.144 152.991 130.187C152.931 130.195 152.872 130.195 152.812 130.202Z" fill="#F2CAA0"/>
<path d="M156.225 129.955L156.246 122.112C154.569 122.072 152.918 121.698 151.392 121.005C149.866 120.313 148.493 119.317 147.363 118.08C142.418 111.986 145.907 105.066 145.934 104.99L154.515 90.075C154.566 89.9867 154.647 89.9211 154.744 89.8869C154.826 89.857 162.907 87.1771 168.104 86.0872C168.349 86.0359 168.597 86.0117 168.845 86.0117C170.557 86.0117 172.497 87.1187 174.482 89.2116C178.43 93.376 182.222 101.38 181.825 108.622C181.664 111.646 180.593 114.553 178.757 116.966C176.918 119.377 174.399 121.183 171.522 122.148L171.206 129.74L174.573 130.606L173.76 133.556C173.76 133.556 171.44 138.177 162.433 137.86C152.301 137.501 152.811 130.202 152.811 130.202L156.225 129.954V129.955Z" fill="#F2CAA0"/>
<path d="M137.383 173.097C137.383 173.097 135.474 172.731 131.895 172.747L137.383 173.097Z" fill="#CC513B"/>
<path d="M137.383 173.097C137.383 173.097 135.474 172.731 131.895 172.747" stroke="black" stroke-width="0.278356" stroke-miterlimit="10"/>
<path d="M137.383 173.092C138.323 175.222 139.121 177.412 139.771 179.647C140.032 180.542 140.293 181.495 140.521 182.496C141.646 187.317 142.21 193.106 140.211 197.568C138.873 200.557 136.387 202.952 132.156 204.058L117.594 205.101L99.1259 207.634C99.1259 207.634 86.4798 185.299 92.106 182.814C98.7836 179.866 109.865 176.333 115.032 175.046L118.744 175.289" fill="#1B4545"/>
<path d="M137.383 173.092C138.323 175.222 139.121 177.412 139.771 179.647C140.032 180.542 140.293 181.495 140.521 182.496C141.646 187.317 142.21 193.106 140.211 197.568C138.873 200.557 136.387 202.952 132.156 204.058L117.594 205.101L99.1259 207.634C99.1259 207.634 86.4798 185.299 92.106 182.814C98.7836 179.866 109.865 176.333 115.032 175.046L118.744 175.289" stroke="black" stroke-width="0.278356" stroke-linecap="round" stroke-linejoin="round"/>
<path d="M154.661 130.076C155.163 130.052 155.688 130.031 156.223 130.012V129.955C155.702 129.991 155.182 130.031 154.661 130.076Z" fill="white"/>
<path d="M132.221 136.53C132.221 136.53 133.03 183.028 135.347 206.661H187.041C190.994 183.065 192.572 159.436 197.278 137.44C190.215 133.874 182.45 131.706 174.77 130.613C174.325 132.059 173.943 134.061 172.569 134.954C168.753 137.443 161.302 140.09 154.334 134.769C154.021 134.451 153.752 134.095 153.53 133.708C152.937 132.66 152.686 131.457 152.807 130.26C143.854 131.249 136.389 133.578 132.222 136.53H132.221Z" fill="white"/>
<path d="M85.1792 194.121L74.0566 202.646C73.5716 202.997 76.0751 203.548 77.125 202.827L87.0223 196.952C89.0094 195.713 87.1221 192.807 85.1778 194.121" fill="#F5A082"/>
<path d="M81.5439 193.477L70.8563 202.036C69.7879 202.875 71.9833 203.377 73.1117 202.666L83.4654 196.253C85.414 194.96 83.4483 192.109 81.5424 193.475" fill="#F5A082"/>
<path d="M79.405 192.208L67.9058 201.54C67.4907 202.174 69.395 202.443 70.4578 202.013L81.3722 194.953C83.2894 193.627 81.2837 190.82 79.4036 192.208H79.405Z" fill="#F5A082"/>
<path d="M68.2839 199.92C67.3952 200.836 69.5806 201.091 70.5678 200.283L79.2567 193.248C80.8787 191.796 78.4222 189.927 76.8359 191.426L68.2839 199.921V199.92Z" fill="#F5A082"/>
<path d="M81.9526 196.562C81.2407 198.561 83.5331 201.201 87.0724 202.458C90.6116 203.715 94.0581 203.113 94.7699 201.114C95.4817 199.116 93.1893 196.476 89.6501 195.219C86.1109 193.962 82.6644 194.564 81.9526 196.562Z" fill="#F5A082"/>
<path d="M97.7577 197.976C95.1686 198.089 92.4525 199.015 90.0188 199.322C87.3341 199.569 84.3084 200.445 81.6793 201.139C80.3141 201.498 81.5253 202.863 83.1415 203.161C86.608 203.8 89.2684 203.658 92.7163 202.824C94.7178 202.225 96.6521 201.421 98.4881 200.427C98.7477 200.281 98.9488 200.052 99.0615 199.777C99.1728 199.502 99.1885 199.196 99.1029 198.912C99.0187 198.627 98.839 198.379 98.5951 198.21C98.3511 198.04 98.0573 197.958 97.7591 197.978" fill="#F5A082"/>
<path d="M162.473 206.658H189.493C189.819 204.687 190.126 202.714 190.414 200.738C193.554 179.061 194.304 157.191 198.625 137.038C191.377 133.382 183.453 131.566 174.777 130.605C171.956 137.202 162.597 162.176 162.441 200.983C162.426 202.84 162.441 204.737 162.474 206.659" fill="#1B4545"/>
<path d="M162.473 206.658H189.493C189.819 204.687 190.126 202.714 190.414 200.738C193.554 179.061 194.304 157.191 198.625 137.038C191.377 133.382 183.453 131.566 174.777 130.605C171.956 137.202 162.597 162.176 162.441 200.983C162.426 202.838 162.441 204.736 162.474 206.658H162.473Z" stroke="black" stroke-width="0.278356" stroke-linecap="round" stroke-linejoin="round"/>
<path d="M128.361 137.194C128.361 137.194 130.258 183.057 134.21 206.661H147.573C147.212 191.835 149.074 149.613 152.813 130.203L147.028 131.186C138.735 132.463 131.966 134.65 128.362 137.194" fill="#1B4545"/>
<path d="M128.361 137.194C128.361 137.194 130.258 183.057 134.21 206.661H147.573C147.212 191.835 149.074 149.613 152.813 130.203L147.028 131.186C138.733 132.463 131.964 134.65 128.361 137.194Z" stroke="black" stroke-width="0.278356" stroke-linecap="round" stroke-linejoin="round"/>
<path d="M155.363 185.789L143.292 186.138L127.266 187.101L117.235 202.17C116.494 203.133 117.563 203.122 118.446 203.957L119.892 203.038L119.389 202.481L125.581 195.31L125.518 195.701C125.449 196.141 125.504 196.593 125.678 197.003C125.854 197.413 126.14 197.767 126.507 198.02L128.413 199.342C128.377 199.859 128.513 200.374 128.797 200.807C129.082 201.24 129.5 201.568 129.989 201.74L132.093 202.481L132.038 202.707C131.978 202.953 131.968 203.206 132.009 203.454C132.051 203.702 132.142 203.94 132.277 204.151C132.413 204.363 132.59 204.545 132.798 204.688C133.006 204.83 133.24 204.929 133.487 204.977C133.734 205.025 133.989 205.024 134.235 204.973C134.48 204.921 134.714 204.819 134.921 204.675C135.128 204.531 135.302 204.346 135.434 204.132C135.567 203.918 135.655 203.681 135.694 203.431L136.347 199.181L140.587 198.633C140.587 198.633 149.423 197.153 153.762 195.49C157.699 193.981 155.359 185.792 155.359 185.792L155.363 185.789Z" fill="#F2CAA0"/>
<path d="M155.363 185.789L143.292 186.138L127.267 187.101L124.209 191.082C123.469 192.045 116.67 202.595 117.553 203.43C117.553 203.43 117.651 204.511 119.658 202.481C121.665 200.451 125.583 195.309 125.583 195.309L125.52 195.699C125.45 196.14 125.506 196.591 125.68 197.002C125.854 197.412 126.142 197.765 126.508 198.019L128.414 199.341C128.379 199.858 128.514 200.372 128.798 200.805C129.083 201.239 129.503 201.566 129.991 201.739L132.095 202.48L132.039 202.706C131.979 202.951 131.971 203.205 132.011 203.453C132.052 203.7 132.143 203.938 132.279 204.151C132.414 204.363 132.591 204.545 132.799 204.688C133.008 204.829 133.242 204.927 133.488 204.977C133.735 205.025 133.991 205.024 134.236 204.973C134.481 204.921 134.715 204.819 134.922 204.675C135.129 204.531 135.303 204.346 135.436 204.132C135.568 203.918 135.657 203.681 135.695 203.431L136.347 199.181L140.587 198.633C140.587 198.633 149.423 197.153 153.762 195.49C157.699 193.981 155.359 185.792 155.359 185.792L155.363 185.789Z" stroke="black" stroke-width="0.278356" stroke-miterlimit="10"/>
<path d="M125.579 195.306L126.572 192.154" stroke="black" stroke-width="0.278356" stroke-linecap="round" stroke-linejoin="round"/>
<path d="M128.417 199.34L129.326 195.586" stroke="black" stroke-width="0.278356" stroke-linecap="round" stroke-linejoin="round"/>
<path d="M132.095 202.481L132.573 197.947" stroke="black" stroke-width="0.278356" stroke-linecap="round" stroke-linejoin="round"/>
<path d="M136.3 199.598L136.431 198.318" stroke="black" stroke-width="0.278356" stroke-linecap="round" stroke-linejoin="round"/>
<path d="M182.013 148.931C182.526 155.361 183.76 161.962 184.793 168.273C185.231 170.865 185.626 173.396 186.071 175.868C186.398 177.739 186.754 179.574 187.187 181.378C187.259 181.685 187.359 181.986 187.483 182.277C187.647 182.656 187.773 182.656 188.138 182.492C187.149 185.375 187.346 188.534 188.687 191.272C190.028 194.011 192.403 196.105 195.289 197.096C195.987 197.339 196.706 197.507 197.438 197.601C200.082 197.973 202.776 197.413 205.052 196.017C207.329 194.62 209.048 192.476 209.913 189.953C211.399 186.73 211.881 184.444 212.313 181.272C212.613 178.759 212.689 176.225 212.536 173.699C212.303 170.178 211.801 166.68 211.034 163.237C209.425 155.985 206.967 148.948 203.711 142.272C202.853 140.553 201.606 139.055 200.068 137.9C193.041 132.718 182.078 137.517 181.946 147.491C181.941 147.973 181.964 148.454 182.011 148.933" fill="#1B4545"/>
<path d="M182.013 148.931C182.526 155.361 183.76 161.962 184.793 168.273C185.231 170.865 185.626 173.396 186.071 175.868C186.398 177.739 186.754 179.574 187.187 181.378C187.259 181.685 187.359 181.986 187.483 182.277C187.647 182.656 187.773 182.656 188.138 182.492C187.149 185.375 187.346 188.534 188.687 191.272C190.028 194.011 192.403 196.105 195.289 197.096C195.987 197.339 196.706 197.507 197.438 197.601C200.082 197.973 202.776 197.413 205.052 196.017C207.329 194.62 209.048 192.476 209.913 189.953C211.399 186.73 211.881 184.444 212.313 181.272C212.613 178.759 212.689 176.225 212.536 173.699C212.303 170.178 211.801 166.68 211.034 163.237C209.425 155.985 206.967 148.948 203.711 142.272C202.853 140.553 201.606 139.055 200.068 137.9C193.041 132.718 182.078 137.517 181.946 147.491C181.941 147.973 181.964 148.454 182.011 148.933" stroke="black" stroke-width="0.278356"/>
<path d="M182.013 148.934C182.526 155.364 183.76 161.964 184.793 168.276C185.231 170.867 185.626 173.399 186.071 175.871C186.398 177.741 186.754 179.576 187.187 181.38C187.259 181.688 187.359 181.988 187.483 182.279C187.647 182.658 187.773 182.658 188.138 182.494C187.149 185.378 187.346 188.536 188.687 191.275C190.028 194.013 192.403 196.107 195.289 197.099C195.987 197.341 196.706 197.509 197.438 197.603C200.082 197.975 202.776 197.415 205.052 196.019C207.329 194.623 209.048 192.48 209.913 189.955C211.399 186.733 211.881 184.446 212.313 181.275C212.613 178.762 212.689 176.227 212.536 173.701C212.303 170.18 211.801 166.683 211.034 163.239C209.425 155.988 206.967 148.951 203.711 142.275C202.853 140.555 201.606 139.058 200.068 137.902C192.686 132.459 180.963 138.028 182.011 148.935L182.013 148.934Z" stroke="black" stroke-width="0.278356" stroke-linecap="round" stroke-linejoin="round"/>
<path d="M201.953 174.49C197.478 174.846 191.939 175.314 186.074 175.87C171.979 177.214 155.98 179.086 148.167 181.216C142.227 182.834 146.22 206.705 152.686 206.659C159.131 206.615 169.414 205.723 177.977 204.849C180.452 204.596 182.779 204.351 184.832 204.129C186.788 203.914 188.496 203.72 189.835 203.565C191.833 203.334 193.016 203.186 193.016 203.186C200.613 202.666 207.877 199.274 211.297 192.925C213.051 189.658 213.051 184.914 212.993 181.201L212.569 173.703H212.539" fill="#1B4545"/>
<path d="M201.953 174.49C197.478 174.846 191.939 175.314 186.074 175.87C171.979 177.214 155.98 179.086 148.167 181.216C142.227 182.834 146.22 206.705 152.686 206.659C159.131 206.615 169.414 205.723 177.977 204.849C180.452 204.596 182.779 204.351 184.832 204.129C186.788 203.914 188.496 203.72 189.835 203.565C191.833 203.334 193.016 203.186 193.016 203.186C200.613 202.666 207.877 199.274 211.297 192.925C213.051 189.658 213.051 184.914 212.993 181.201L212.569 173.703H212.539" stroke="black" stroke-width="0.278356" stroke-linecap="round" stroke-linejoin="round"/>
<path d="M175.209 130.814C175.19 130.911 175.163 131.007 175.129 131.099H175.138C175.169 131.007 175.193 130.911 175.209 130.814Z" fill="#2B1011"/>
<path d="M159.495 86.2994C159.537 86.2994 159.576 86.2866 159.608 86.2609C159.641 86.2367 159.664 86.2011 159.675 86.1612C159.685 86.1213 159.683 86.08 159.666 86.0415C159.651 86.0031 159.624 85.9717 159.588 85.9518C159.515 85.9119 152.41 81.937 145.975 84.396C145.929 84.4131 145.892 84.4487 145.87 84.4943C145.85 84.5399 145.849 84.5912 145.866 84.6368C145.885 84.6824 145.919 84.7194 145.965 84.7408C146.01 84.7607 146.062 84.7622 146.107 84.7451C152.377 82.3487 159.333 86.2353 159.402 86.2752C159.43 86.2909 159.461 86.3008 159.494 86.3008" fill="#8F5B31"/>
<path d="M82.4258 201.126C82.4358 201.126 82.4444 201.126 82.4543 201.125C82.5827 201.106 85.6184 200.644 87.7196 199.643C91.0677 198.046 92.4771 198.383 92.4899 198.386C92.5113 198.396 92.5356 198.4 92.5598 198.402C92.5841 198.402 92.6083 198.398 92.6297 198.388C92.6511 198.379 92.6725 198.365 92.6882 198.348C92.7054 198.331 92.7182 198.311 92.7268 198.288C92.7453 198.242 92.7453 198.19 92.7268 198.144C92.7082 198.098 92.6711 198.061 92.6255 198.041C92.614 198.034 91.1433 197.597 87.5584 199.308C85.5085 200.285 82.4287 200.754 82.3973 200.76C82.3502 200.767 82.3088 200.79 82.2789 200.827C82.2489 200.864 82.2347 200.909 82.2389 200.958C82.2432 201.005 82.2632 201.049 82.2988 201.08C82.3331 201.112 82.3787 201.13 82.4258 201.129" fill="#542717"/>
<path d="M82.6021 199.58C82.6378 199.58 82.6721 199.568 82.702 199.55L85.3325 197.884C85.8732 197.54 86.4852 197.32 87.1214 197.242C87.7576 197.163 88.4053 197.226 89.013 197.428C89.0586 197.441 89.1085 197.437 89.1513 197.414C89.1941 197.391 89.2269 197.353 89.2412 197.307C89.2569 197.262 89.2526 197.212 89.2327 197.169C89.2113 197.125 89.1742 197.092 89.1285 197.075C88.468 196.857 87.7662 196.787 87.0757 196.874C86.3853 196.96 85.722 197.198 85.1342 197.572L82.5023 199.238C82.4681 199.259 82.4424 199.292 82.4281 199.329C82.4138 199.367 82.4124 199.407 82.4238 199.446C82.4352 199.484 82.4581 199.518 82.4909 199.543C82.5237 199.567 82.5622 199.58 82.6021 199.58Z" fill="#542717"/>
<path d="M75.4885 201.738C75.5327 201.738 75.5755 201.722 75.6098 201.694L84.3929 194.328C84.4114 194.312 84.4271 194.294 84.4385 194.273C84.45 194.251 84.4571 194.227 84.4585 194.203C84.4599 194.179 84.4585 194.154 84.45 194.13C84.4414 194.106 84.4314 194.086 84.4157 194.066C84.4 194.046 84.3815 194.032 84.3601 194.02C84.3387 194.009 84.3144 194.002 84.2902 194C84.2659 193.999 84.2417 194 84.2174 194.009C84.1946 194.016 84.1732 194.028 84.1532 194.043L75.3701 201.409C75.3416 201.433 75.3202 201.467 75.3102 201.503C75.3002 201.54 75.3016 201.579 75.3159 201.614C75.3287 201.65 75.353 201.681 75.3844 201.702C75.4157 201.724 75.4528 201.735 75.4914 201.735" fill="#542717"/>
<path d="M71.9035 201.382C71.9492 201.382 71.9934 201.365 72.0277 201.333L81.2544 193.059C81.273 193.043 81.2887 193.023 81.3001 193C81.3115 192.979 81.3172 192.955 81.3186 192.929C81.32 192.905 81.3172 192.879 81.3086 192.856C81.3001 192.834 81.2872 192.812 81.2715 192.794C81.2559 192.775 81.2345 192.761 81.2131 192.75C81.1902 192.74 81.166 192.732 81.1417 192.732C81.1175 192.732 81.0918 192.735 81.069 192.744C81.0462 192.752 81.0248 192.765 81.0062 192.782L71.7794 201.057C71.7509 201.083 71.7324 201.115 71.7238 201.151C71.7153 201.187 71.7181 201.225 71.7309 201.261C71.7452 201.296 71.768 201.326 71.7994 201.348C71.8308 201.369 71.8665 201.38 71.905 201.38" fill="#542717"/>
<path d="M68.8559 200.953C68.903 200.953 68.9486 200.936 68.9828 200.903L78.5805 191.964C78.6162 191.93 78.6376 191.884 78.639 191.834C78.6404 191.785 78.6233 191.738 78.5891 191.701C78.5548 191.665 78.5092 191.644 78.4593 191.641C78.4093 191.639 78.3623 191.656 78.3252 191.691L68.7261 200.629C68.699 200.655 68.6804 200.688 68.6719 200.725C68.6633 200.76 68.6662 200.799 68.6804 200.834C68.6947 200.869 68.7175 200.898 68.7489 200.92C68.7803 200.941 68.8159 200.953 68.853 200.953H68.8559Z" fill="#542717"/>
<path d="M144.782 111.948C144.991 113.893 145.7 116.034 147.363 118.083C148.493 119.32 149.865 120.315 151.392 121.008C152.918 121.7 154.568 122.075 156.246 122.115L156.225 130.015C155.065 130.05 153.978 130.109 152.991 130.19C152.931 130.199 152.872 130.199 152.812 130.206C152.68 131.421 152.931 132.646 153.533 133.712C153.754 134.1 154.021 134.453 154.336 134.771C161.304 140.095 168.752 137.445 172.571 134.959C173.949 134.064 174.33 132.055 174.777 130.609C173.568 130.415 172.374 130.127 171.209 129.744L171.524 122.152C174.401 121.187 176.921 119.381 178.759 116.97C180.595 114.557 181.667 111.65 181.828 108.626C182.224 101.384 178.433 93.3814 174.484 89.2155C172.5 87.1226 170.56 86.0156 168.848 86.0156C168.6 86.0156 168.352 86.0398 168.106 86.0911C162.909 87.1796 154.829 89.8595 154.747 89.8908C154.65 89.9236 154.568 89.9906 154.517 90.0789L147.654 102.008L145.937 104.993C145.918 105.044 144.374 108.111 144.785 111.95L144.782 111.948Z" stroke="black" stroke-width="0.278356" stroke-miterlimit="10"/>
<path d="M144.783 111.947C145.637 111.626 146.417 111.128 147.075 110.471C148.286 109.261 148.968 107.619 148.968 105.906C148.968 104.487 148.502 103.121 147.65 102.004L145.932 104.989C145.914 105.04 144.37 108.107 144.781 111.946L144.783 111.947Z" fill="#EDA094"/>
<path d="M154.336 134.77C154.025 134.45 153.756 134.094 153.533 133.708C152.931 132.644 152.68 131.419 152.813 130.203C152.873 130.196 155.065 130.048 156.225 130.011L156.248 122.111C154.572 122.074 152.92 121.696 151.393 121.004C149.867 120.312 148.496 119.316 147.365 118.079C142.421 111.983 145.908 105.063 145.937 104.989L154.515 90.0722C154.566 89.9839 154.647 89.9169 154.746 89.887C154.827 89.8571 162.908 87.1772 168.105 86.0859C168.35 86.0346 168.599 86.0104 168.848 86.0118C170.559 86.0118 172.499 87.1174 174.483 89.2117C178.43 93.3775 182.222 101.38 181.828 108.619C181.666 111.645 180.596 114.553 178.758 116.965C176.921 119.377 174.402 121.182 171.525 122.147L171.209 129.739C172.375 130.122 173.567 130.411 174.778 130.604C174.332 132.051 173.95 134.057 172.573 134.953C168.754 137.442 161.306 140.089 154.338 134.77H154.336Z" stroke="black" stroke-width="0.278356" stroke-linecap="round" stroke-linejoin="round"/>
<path d="M152.09 112.022C154.213 117.876 158.962 115.756 161.116 111.369L152.09 112.022Z" fill="white"/>
<path d="M152.09 112.022C154.213 117.876 158.962 115.756 161.116 111.369L152.09 112.022Z" stroke="black" stroke-width="0.278356" stroke-linecap="round" stroke-linejoin="round"/>
<path d="M160.685 102.321C160.69 102.499 160.749 102.67 160.853 102.813C160.956 102.957 161.1 103.068 161.267 103.131C161.434 103.194 161.615 103.205 161.787 103.165C161.96 103.125 162.118 103.034 162.24 102.905C162.361 102.775 162.442 102.613 162.471 102.437C162.499 102.262 162.476 102.083 162.402 101.92C162.329 101.758 162.21 101.622 162.058 101.528C161.907 101.434 161.732 101.387 161.555 101.393C161.436 101.397 161.321 101.424 161.214 101.473C161.107 101.521 161.01 101.591 160.929 101.677C160.847 101.762 160.784 101.863 160.743 101.974C160.702 102.084 160.682 102.202 160.686 102.321H160.685Z" fill="black"/>
<path d="M150.962 100.94C150.968 101.118 151.026 101.289 151.129 101.435C151.233 101.578 151.376 101.69 151.542 101.752C151.709 101.815 151.89 101.826 152.063 101.786C152.237 101.747 152.394 101.655 152.515 101.526C152.637 101.396 152.718 101.234 152.746 101.058C152.775 100.883 152.752 100.704 152.678 100.541C152.605 100.379 152.485 100.242 152.334 100.149C152.183 100.055 152.007 100.008 151.831 100.014C151.712 100.018 151.597 100.045 151.49 100.094C151.383 100.142 151.286 100.212 151.204 100.298C151.123 100.383 151.06 100.484 151.019 100.595C150.978 100.705 150.958 100.823 150.962 100.942V100.94Z" fill="black"/>
<path d="M155.521 101.811L151.862 107.149L155.834 107.998" stroke="black" stroke-width="0.278356" stroke-linecap="round" stroke-linejoin="round"/>
<path d="M167.018 80.057C167.018 80.057 155.461 77.4042 145.603 87.9498C145.603 87.9498 141.015 95.4481 145.365 99.1566L163.984 99.6025C165.901 97.7119 168.212 96.2644 170.75 95.3626C175.145 93.7555 180.506 80.8876 167.015 80.057H167.016H167.018Z" fill="black"/>
<path d="M152.954 83.4019C152.954 83.4019 138.772 82.2251 138.783 96.0405L143.036 97.0221C143.036 97.0221 140.539 90.4001 152.956 83.4033L152.954 83.4019Z" fill="black"/>
<path d="M55.3473 212.169H263.812C263.929 212.169 264.045 212.143 264.153 212.09C264.262 212.039 264.36 211.964 264.442 211.87C264.524 211.775 264.59 211.663 264.635 211.539C264.68 211.415 264.703 211.283 264.703 211.149V206.523C264.703 206.389 264.68 206.256 264.635 206.132C264.59 206.008 264.524 205.896 264.442 205.802C264.359 205.706 264.262 205.632 264.153 205.581C264.045 205.53 263.929 205.504 263.812 205.504H55.3485C55.2314 205.504 55.1156 205.53 55.0072 205.581C54.8989 205.632 54.8005 205.708 54.7183 205.802C54.6361 205.896 54.57 206.008 54.5252 206.132C54.4804 206.256 54.4567 206.389 54.4567 206.523V211.149C54.4567 211.283 54.4791 211.415 54.5252 211.539C54.57 211.663 54.6361 211.775 54.7183 211.87C54.8005 211.965 54.8989 212.039 55.0072 212.09C55.1156 212.142 55.2314 212.169 55.3485 212.169" fill="#808080"/>
<path d="M55.3473 212.169H263.812C263.929 212.169 264.045 212.143 264.153 212.09C264.262 212.039 264.36 211.964 264.442 211.87C264.524 211.775 264.59 211.663 264.635 211.539C264.68 211.415 264.703 211.283 264.703 211.149V206.523C264.703 206.389 264.68 206.256 264.635 206.132C264.59 206.008 264.524 205.896 264.442 205.802C264.359 205.706 264.262 205.632 264.153 205.581C264.045 205.53 263.929 205.504 263.812 205.504H55.3485C55.2314 205.504 55.1156 205.53 55.0072 205.581C54.8989 205.632 54.8005 205.708 54.7183 205.802C54.6361 205.896 54.57 206.008 54.5252 206.132C54.4804 206.256 54.4567 206.389 54.4567 206.523V211.149C54.4567 211.283 54.4791 211.415 54.5252 211.539C54.57 211.663 54.6361 211.775 54.7183 211.87C54.8005 211.965 54.8989 212.039 55.0072 212.09C55.1156 212.142 55.2314 212.169 55.3485 212.169" stroke="black" stroke-width="0.278356"/>
<path d="M184.037 197.578H228.155C229.224 197.578 230.249 198.003 231.005 198.758C231.761 199.513 232.187 200.537 232.187 201.604C232.187 202.671 231.761 203.696 231.005 204.451C230.249 205.206 229.225 205.631 228.155 205.631H184.037V197.58V197.578Z" fill="black"/>
<path d="M184.348 198.354H205.169C206.032 198.354 206.86 198.695 207.469 199.305C208.079 199.915 208.422 200.741 208.422 201.602C208.422 202.462 208.079 203.29 207.469 203.898C206.858 204.508 206.031 204.85 205.169 204.85H184.348V198.354Z" fill="white" stroke="black" stroke-width="0.278356" stroke-linecap="round" stroke-linejoin="round"/>
<path d="M177.264 189.533H221.381C222.449 189.533 223.475 189.958 224.231 190.713C224.987 191.468 225.412 192.491 225.412 193.559C225.412 194.628 224.987 195.651 224.231 196.406C223.475 197.161 222.449 197.586 221.381 197.586H177.264V189.535V189.533Z" fill="#79B9D9" stroke="black" stroke-width="0.278356" stroke-linecap="round" stroke-linejoin="round"/>
<path d="M177.265 190.312H198.087C198.95 190.312 199.777 190.654 200.386 191.264C200.997 191.874 201.339 192.7 201.339 193.561C201.339 194.421 200.997 195.249 200.386 195.857C199.776 196.466 198.948 196.809 198.087 196.809H177.265V190.312Z" fill="white" stroke="black" stroke-width="0.278356" stroke-linecap="round" stroke-linejoin="round"/>
<path d="M187.554 181.49H231.67C232.739 181.49 233.765 181.915 234.521 182.67C235.277 183.425 235.702 184.449 235.702 185.516C235.702 186.584 235.277 187.608 234.521 188.363C233.765 189.118 232.74 189.543 231.67 189.543H187.554V181.492V181.49Z" fill="#2962F5" stroke="black" stroke-width="0.278356"/>
<path d="M187.553 182.266H208.375C209.238 182.266 210.065 182.608 210.675 183.217C211.285 183.827 211.628 184.653 211.628 185.514C211.628 186.374 211.285 187.202 210.675 187.811C210.064 188.42 209.237 188.762 208.375 188.762H187.553V182.266Z" fill="white" stroke="black" stroke-width="0.278356"/>
<path d="M149.054 204.125H116.172V206.034H150.966C150.966 205.528 150.765 205.043 150.405 204.685C150.047 204.327 149.561 204.125 149.054 204.125Z" fill="black"/>
<path d="M55.0932 169.693H102.351C103.025 169.693 103.685 169.881 104.257 170.238C104.829 170.592 105.29 171.101 105.588 171.705L122.531 206.035H69.6566L53.2116 172.717C53.0533 172.397 52.9805 172.043 52.9977 171.687C53.0148 171.33 53.1232 170.986 53.3115 170.682C53.4998 170.38 53.7623 170.131 54.0747 169.957C54.3857 169.785 54.7366 169.693 55.0932 169.693Z" fill="black"/>
<path d="M255.261 174.131L256.484 174.768L246.15 194.58L244.927 193.943L255.261 174.131Z" fill="#D1BEA3"/>
<path d="M255.331 174.074L256.553 174.711L246.22 194.523L244.997 193.888L255.331 174.076V174.074Z" stroke="black" stroke-width="0.278356" stroke-miterlimit="10"/>
<path d="M241.374 185.5H255.24L254.6 183.098H242.015L241.374 185.5Z" fill="#87B8C4" stroke="black" stroke-width="0.278356"/>
<path d="M241.304 185.158L241.65 190.42L242.293 200.233L242.638 205.502H253.838L254.183 200.233L254.826 190.42L255.172 185.158H241.304Z" fill="white" stroke="black" stroke-width="0.278356"/>
<path d="M240.1 186.718H256.598L255.836 184.658H240.863L240.101 186.718H240.1Z" fill="#A1D4E0"/>
<path d="M240.028 186.775H256.526L255.764 184.715H240.791L240.029 186.775H240.028Z" stroke="black" stroke-width="0.278356" stroke-miterlimit="10"/>
<path d="M241.725 190.523L242.368 200.337H254.257L254.9 190.523H241.724H241.725Z" fill="#2962F5"/>
<path d="M241.718 190.361L242.362 200.175H254.139L254.783 190.361H241.718Z" stroke="black" stroke-width="0.278356" stroke-miterlimit="10"/>
<path d="M153.614 91.1218C150.246 83.9527 170.828 84.6907 170.828 84.6907C170.828 84.6907 193.509 80.314 190.725 101.81C190.725 101.81 190.008 112.879 180.967 116.711C180.845 120.734 173.338 124.809 171.309 121.944C169.281 119.079 176.154 110.767 173.074 104.708C171.225 104.92 170.252 104.243 169.797 103.189C168.724 100.706 168.667 96.1268 168.667 96.1268C168.667 96.1268 156.967 94.1479 153.622 91.1218H153.616H153.614Z" fill="black"/>
<path d="M171.582 114.689L168.038 105.506L174.69 102.948C175.91 102.479 177.265 102.512 178.46 103.042C179.654 103.572 180.59 104.552 181.059 105.771C181.529 106.989 181.496 108.342 180.965 109.536C180.435 110.728 179.453 111.663 178.233 112.132L171.582 114.691V114.689Z" fill="#F2CAA0"/>
<path d="M167.344 116.009C165.764 116.009 164.248 115.382 163.133 114.267C162.016 113.151 161.388 111.638 161.388 110.059C161.388 108.481 162.016 106.969 163.133 105.854C164.25 104.738 165.764 104.111 167.345 104.111C168.926 104.111 170.441 104.738 171.558 105.854C172.675 106.969 173.302 108.482 173.302 110.059C173.302 111.637 172.675 113.151 171.558 114.267C170.441 115.382 168.926 116.009 167.347 116.009" fill="#EDA094"/>
<path d="M109.398 168.592H81.7482V174.37H109.398V168.592Z" fill="#FCF4A6" stroke="black" stroke-width="0.193009"/>
<path d="M86.4475 168.592H84.835V174.37H86.4475V168.592Z" fill="#FFD861" stroke="black" stroke-width="0.193009"/>
<path d="M91.6122 168.592H89.9998V174.37H91.6122V168.592Z" fill="#FFD861" stroke="black" stroke-width="0.193009"/>
<path d="M96.781 168.592H95.1685V174.37H96.781V168.592Z" fill="#FFD861" stroke="black" stroke-width="0.193009"/>
<path d="M101.946 168.592H100.333V174.37H101.946V168.592Z" fill="#FFD861" stroke="black" stroke-width="0.193009"/>
<path d="M107.111 168.592H105.498V174.37H107.111V168.592Z" fill="#FFD861" stroke="black" stroke-width="0.193009"/>
<path d="M111.174 174.371H83.5236V180.149H111.174V174.371Z" fill="#FCF4A6" stroke="black" stroke-width="0.193009"/>
<path d="M88.2267 174.371H86.6143V180.149H88.2267V174.371Z" fill="#FFD861" stroke="black" stroke-width="0.193009"/>
<path d="M93.3916 174.371H91.7792V180.149H93.3916V174.371Z" fill="#FFD861" stroke="black" stroke-width="0.193009"/>
<path d="M98.5564 174.371H96.944V180.149H98.5564V174.371Z" fill="#FFD861" stroke="black" stroke-width="0.193009"/>
<path d="M103.721 174.371H102.109V180.149H103.721V174.371Z" fill="#FFD861" stroke="black" stroke-width="0.193009"/>
<path d="M108.886 174.371H107.273V180.149H108.886V174.371Z" fill="#FFD861" stroke="black" stroke-width="0.193009"/>
<path d="M109.799 180.148H82.1483V185.926H109.799V180.148Z" fill="#FCF4A6" stroke="black" stroke-width="0.193009"/>
<path d="M86.8484 180.15H85.236V185.928H86.8484V180.15Z" fill="#FFD861" stroke="black" stroke-width="0.193009"/>
<path d="M92.0132 180.15H90.4008V185.928H92.0132V180.15Z" fill="#FFD861" stroke="black" stroke-width="0.193009"/>
<path d="M97.182 180.15H95.5695V185.928H97.182V180.15Z" fill="#FFD861" stroke="black" stroke-width="0.193009"/>
<path d="M102.347 180.15H100.734V185.928H102.347V180.15Z" fill="#FFD861" stroke="black" stroke-width="0.193009"/>
<path d="M107.512 180.15H105.899V185.928H107.512V180.15Z" fill="#FFD861" stroke="black" stroke-width="0.193009"/>
<path d="M111.9 185.922H84.2497V191.7H111.9V185.922Z" fill="#FCF4A6" stroke="black" stroke-width="0.193009"/>
<path d="M88.9501 185.92H87.3376V191.698H88.9501V185.92Z" fill="#FFD861" stroke="black" stroke-width="0.193009"/>
<path d="M94.1149 185.92H92.5025V191.698H94.1149V185.92Z" fill="#FFD861" stroke="black" stroke-width="0.193009"/>
<path d="M99.2797 185.92H97.6673V191.698H99.2797V185.92Z" fill="#FFD861" stroke="black" stroke-width="0.193009"/>
<path d="M104.445 185.92H102.832V191.698H104.445V185.92Z" fill="#FFD861" stroke="black" stroke-width="0.193009"/>
<path d="M109.611 185.92H107.999V191.698H109.611V185.92Z" fill="#FFD861" stroke="black" stroke-width="0.193009"/>
<path d="M108.491 191.643H80.8409V197.421H108.491V191.643Z" fill="#FCF4A6" stroke="black" stroke-width="0.193009"/>
<path d="M85.542 191.643H83.9295V197.421H85.542V191.643Z" fill="#FFD861" stroke="black" stroke-width="0.193009"/>
<path d="M90.7108 191.643H89.0984V197.421H90.7108V191.643Z" fill="#FFD861" stroke="black" stroke-width="0.193009"/>
<path d="M95.8736 191.643H94.2612V197.421H95.8736V191.643Z" fill="#FFD861" stroke="black" stroke-width="0.193009"/>
<path d="M101.038 191.643H99.426V197.421H101.038V191.643Z" fill="#FFD861" stroke="black" stroke-width="0.193009"/>
<path d="M106.203 191.643H104.591V197.421H106.203V191.643Z" fill="#FFD861" stroke="black" stroke-width="0.193009"/>
<path d="M107.14 162.814H79.4894V168.592H107.14V162.814Z" fill="#FCF4A6" stroke="black" stroke-width="0.193009"/>
<path d="M84.189 162.814H82.5766V168.592H84.189V162.814Z" fill="#FFD861" stroke="black" stroke-width="0.193009"/>
<path d="M89.3578 162.814H87.7454V168.592H89.3578V162.814Z" fill="#FFD861" stroke="black" stroke-width="0.193009"/>
<path d="M94.5226 162.814H92.9102V168.592H94.5226V162.814Z" fill="#FFD861" stroke="black" stroke-width="0.193009"/>
<path d="M99.6854 162.814H98.0729V168.592H99.6854V162.814Z" fill="#FFD861" stroke="black" stroke-width="0.193009"/>
<path d="M104.85 162.814H103.238V168.592H104.85V162.814Z" fill="#FFD861" stroke="black" stroke-width="0.193009"/>
<path d="M81.749 168.594H107.14" stroke="black" stroke-width="0.193009" stroke-miterlimit="10"/>
<path d="M84.3754 162.896H99.2603" stroke="black" stroke-width="0.193009" stroke-miterlimit="10"/>
<path d="M83.5246 174.371H109.399" stroke="black" stroke-width="0.193009" stroke-miterlimit="10"/>
<path d="M109.799 180.146H83.5246" stroke="black" stroke-width="0.193009" stroke-miterlimit="10"/>
<path d="M109.799 185.924H84.2496" stroke="black" stroke-width="0.193009" stroke-miterlimit="10"/>
<path d="M84.2496 191.699H108.49" stroke="black" stroke-width="0.193009" stroke-miterlimit="10"/>
<path d="M66.2098 147.412L45.7042 162.874C53.1895 175.878 63.2157 187.456 75.0716 196.785L95.5772 181.324C83.7213 171.994 73.6925 160.417 66.2098 147.412Z" fill="#C2FCA5" stroke="black" stroke-width="0.193009"/>
<path d="M89.5832 176.198C86.8547 173.655 84.1932 171.048 81.6042 168.379" stroke="black" stroke-width="0.193009"/>
<path d="M74.0037 193.656C64.1788 185.525 55.4781 175.506 48.8432 164.68L48.4139 163.98C48.1885 163.612 48.2798 163.137 48.6259 162.877L64.922 150.589C65.3244 150.286 65.904 150.393 66.1669 150.817L66.7035 151.681C73.1989 162.123 81.6125 171.874 91.035 179.881L91.8989 180.614C92.3094 180.962 92.2906 181.593 91.8613 181.917L75.643 194.147C75.3264 194.385 74.8811 194.377 74.5752 194.122L74.0064 193.653L74.0037 193.656Z" stroke="black" stroke-width="0.193009"/>
<path d="M75.148 192.313C65.4224 184.266 56.9309 174.488 50.3658 163.775L65.1863 152.6C71.8212 163.265 80.2537 173.037 89.872 181.211L75.148 192.313Z" fill="#2E7C7E" stroke="black" stroke-width="0.193009"/>
<path d="M72.4907 177.647C75.8893 175.432 77.0386 171.174 75.0577 168.136C73.0769 165.097 68.7159 164.43 65.3173 166.645C61.9186 168.861 60.7693 173.119 62.7502 176.157C64.7311 179.195 69.092 179.863 72.4907 177.647Z" fill="#C2FCA5" stroke="black" stroke-width="0.193009"/>
<path d="M71.8401 176.651C74.6218 174.838 75.5623 171.352 73.9407 168.865C72.3191 166.378 68.7495 165.832 65.9678 167.645C63.1861 169.458 62.2456 172.944 63.8672 175.431C65.4888 177.918 69.0584 178.464 71.8401 176.651Z" stroke="black" stroke-width="0.193009"/>
<path d="M62.9838 164.992C61.3929 166.161 59.2385 165.968 58.1707 164.56C57.1029 163.152 57.5268 161.059 59.1204 159.89C60.7114 158.72 62.8658 158.914 63.9336 160.322C65.0014 161.73 64.5775 163.822 62.9838 164.992Z" fill="#C2FCA5" stroke="black" stroke-width="0.193009"/>
<path d="M62.4275 164.255C61.2953 165.086 59.766 164.949 59.0067 163.946C58.2474 162.946 58.5506 161.459 59.6801 160.628C60.8123 159.796 62.3443 159.933 63.1009 160.936C63.8601 161.937 63.557 163.423 62.4275 164.255Z" fill="#3C7878" stroke="black" stroke-width="0.193009"/>
<path d="M79.6027 184.914C78.0117 186.083 75.8573 185.89 74.7895 184.482C73.7217 183.074 74.1456 180.981 75.7392 179.812C77.3302 178.642 79.4846 178.835 80.5524 180.244C81.6202 181.652 81.1963 183.744 79.6027 184.914Z" fill="#C2FCA5" stroke="black" stroke-width="0.193009"/>
<path d="M79.0451 184.176C77.9129 185.008 76.381 184.871 75.6244 183.868C74.8678 182.865 75.1683 181.381 76.2978 180.55C77.4273 179.718 78.9593 179.855 79.7185 180.858C80.4778 181.859 80.1746 183.345 79.0451 184.176Z" fill="#3C7878" stroke="black" stroke-width="0.193009"/>
<path d="M65.8389 174.151C65.482 173.679 65.1976 173.18 64.9911 172.655C64.7818 172.129 64.6771 171.662 64.6718 171.254L66.0186 170.989C66.032 171.364 66.1152 171.767 66.2681 172.199C66.4211 172.63 66.633 173.022 66.9013 173.376C67.1052 173.647 67.2984 173.846 67.4781 173.972C67.6579 174.098 67.8216 174.167 67.9718 174.181C68.122 174.194 68.2562 174.157 68.3742 174.068C68.5272 173.956 68.5996 173.805 68.5969 173.615C68.5916 173.424 68.5406 173.207 68.444 172.96C68.3474 172.714 68.2294 172.448 68.0979 172.169C67.9664 171.89 67.8457 171.6 67.733 171.3C67.6203 171.002 67.5479 170.704 67.5157 170.409C67.4808 170.114 67.5184 169.833 67.6257 169.567C67.733 169.299 67.9342 169.057 68.2347 168.837C68.5594 168.599 68.9269 168.47 69.332 168.451C69.7372 168.432 70.1584 168.55 70.5984 168.8C71.0384 169.049 71.4677 169.454 71.8916 170.012C72.1733 170.385 72.4067 170.782 72.5945 171.209C72.7823 171.635 72.8977 172.043 72.9379 172.435L71.6179 172.735C71.5642 172.362 71.4677 172.008 71.3281 171.673C71.1886 171.337 71.0196 171.04 70.8237 170.782C70.6198 170.511 70.4267 170.315 70.2469 170.195C70.0672 170.074 69.8981 170.01 69.7425 170.007C69.5869 170.004 69.4501 170.045 69.3294 170.133C69.1764 170.246 69.1013 170.399 69.104 170.589C69.104 170.78 69.1577 170.997 69.2596 171.238C69.3616 171.477 69.4796 171.743 69.6164 172.027C69.7533 172.311 69.874 172.604 69.9813 172.901C70.0886 173.199 70.1611 173.491 70.1959 173.781C70.2335 174.071 70.1986 174.35 70.0967 174.623C69.9947 174.897 69.7962 175.141 69.5038 175.356C69.1818 175.592 68.8196 175.715 68.4145 175.729C68.0094 175.742 67.5855 175.624 67.1401 175.372C66.6947 175.12 66.2628 174.715 65.8415 174.159L65.8389 174.151ZM64.7228 174.487L72.3825 168.854L73.0291 169.707L65.3693 175.34L64.7228 174.487Z" fill="#3C7878"/>
<path d="M83.216 192.385H56.7455V198.16H83.216V192.385Z" fill="#FFD861" stroke="black" stroke-width="0.193009"/>
<path d="M61.2481 192.383H59.7045V198.158H61.2481V192.383Z" fill="#FCF4A6" stroke="black" stroke-width="0.193009"/>
<path d="M66.1914 192.383H64.6478V198.158H66.1914V192.383Z" fill="#FCF4A6" stroke="black" stroke-width="0.193009"/>
<path d="M71.1365 192.383H69.5929V198.158H71.1365V192.383Z" fill="#FCF4A6" stroke="black" stroke-width="0.193009"/>
<path d="M76.0836 192.383H74.5399V198.158H76.0836V192.383Z" fill="#FCF4A6" stroke="black" stroke-width="0.193009"/>
<path d="M81.0267 192.383H79.483V198.158H81.0267V192.383Z" fill="#FCF4A6" stroke="black" stroke-width="0.193009"/>
<path d="M86.5657 175.111H60.0952V180.887H86.5657V175.111Z" fill="#FFD861" stroke="black" stroke-width="0.193009"/>
<path d="M64.5946 175.111H63.051V180.887H64.5946V175.111Z" fill="#FCF4A6" stroke="black" stroke-width="0.193009"/>
<path d="M69.5397 175.111H67.9961V180.887H69.5397V175.111Z" fill="#FCF4A6" stroke="black" stroke-width="0.193009"/>
<path d="M74.4828 175.111H72.9392V180.887H74.4828V175.111Z" fill="#FCF4A6" stroke="black" stroke-width="0.193009"/>
<path d="M79.4319 175.111H77.8883V180.887H79.4319V175.111Z" fill="#FCF4A6" stroke="black" stroke-width="0.193009"/>
<path d="M84.375 175.111H82.8314V180.887H84.375V175.111Z" fill="#FCF4A6" stroke="black" stroke-width="0.193009"/>
<path d="M82.6108 180.883H56.1403V186.658H82.6108V180.883Z" fill="#F7D151" stroke="black" stroke-width="0.193009"/>
<path d="M60.6428 180.883H59.0992V186.658H60.6428V180.883Z" fill="#FCF4A6" stroke="black" stroke-width="0.193009"/>
<path d="M65.588 180.883H64.0444V186.658H65.588V180.883Z" fill="#FCF4A6" stroke="black" stroke-width="0.193009"/>
<path d="M70.5311 180.883H68.9875V186.658H70.5311V180.883Z" fill="#FCF4A6" stroke="black" stroke-width="0.193009"/>
<path d="M75.4782 180.883H73.9346V186.658H75.4782V180.883Z" fill="#FCF4A6" stroke="black" stroke-width="0.193009"/>
<path d="M80.4233 180.883H78.8797V186.658H80.4233V180.883Z" fill="#FCF4A6" stroke="black" stroke-width="0.193009"/>
<path d="M81.0531 186.611H54.5826V192.387H81.0531V186.611Z" fill="#FFD861" stroke="black" stroke-width="0.193009"/>
<path d="M59.0814 186.611H57.5377V192.387H59.0814V186.611Z" fill="#FCF4A6" stroke="black" stroke-width="0.193009"/>
<path d="M64.0263 186.611H62.4827V192.387H64.0263V186.611Z" fill="#FCF4A6" stroke="black" stroke-width="0.193009"/>
<path d="M68.9734 186.611H67.4298V192.387H68.9734V186.611Z" fill="#FCF4A6" stroke="black" stroke-width="0.193009"/>
<path d="M73.9185 186.611H72.3749V192.387H73.9185V186.611Z" fill="#FCF4A6" stroke="black" stroke-width="0.193009"/>
<path d="M78.8617 186.611H77.318V192.387H78.8617V186.611Z" fill="#FCF4A6" stroke="black" stroke-width="0.193009"/>
<path d="M56.7449 192.387H81.0527" stroke="black" stroke-width="0.193009" stroke-miterlimit="10"/>
<path d="M59.8705 180.883H82.6117" stroke="black" stroke-width="0.193009" stroke-miterlimit="10"/>
<path d="M262.834 176.73H240.379V204.286H262.834V176.73Z" fill="#FFD861" stroke="black" stroke-width="0.193009"/>
<path d="M260.984 172.51H238.529V176.729H260.984V172.51Z" fill="#F7D151" stroke="black" stroke-width="0.193009"/>
<path d="M263.354 168.375H240.899V172.594H263.354V168.375Z" fill="#FFD861" stroke="black" stroke-width="0.193009"/>
<path d="M260.98 172.51H240.899" stroke="black" stroke-width="0.193009" stroke-miterlimit="10"/>
<path d="M240.379 176.73H260.983" stroke="black" stroke-width="0.193009" stroke-miterlimit="10"/>
<path d="M240.379 185.133H262.766" stroke="black" stroke-width="0.193009" stroke-miterlimit="10"/>
<path d="M262.832 180.752H259.391" stroke="black" stroke-width="0.193009" stroke-miterlimit="10"/>
<path d="M257.168 180.752H242.51" stroke="black" stroke-width="0.193009" stroke-miterlimit="10"/>
<path d="M269.753 173.572L284 186.382C277.025 195.028 268.236 202.436 258.257 208.077L244.011 195.268C253.989 189.624 262.776 182.218 269.753 173.572Z" fill="#C2FCA5" stroke="black" stroke-width="0.193009"/>
<path d="M252.468 189.856C258.986 185.17 264.819 179.68 269.747 173.572" stroke="black" stroke-width="0.193009"/>
<path d="M276.216 194.812C270.861 199.897 264.816 204.369 258.257 208.079L244.011 195.269" stroke="black" stroke-width="0.193009"/>
<path d="M278.465 192.596C280.415 190.608 282.262 188.532 283.998 186.382L279.817 182.623" stroke="black" stroke-width="0.193009"/>
<path d="M259.375 205.935C267.68 200.974 275.304 194.565 281.423 187.405L281.82 186.942C282.027 186.7 282.002 186.352 281.762 186.138L270.44 175.958C270.161 175.706 269.707 175.734 269.463 176.013L268.968 176.584C262.994 183.484 255.614 189.726 247.631 194.634L246.9 195.084C246.553 195.299 246.508 195.751 246.806 196.019L258.074 206.151C258.295 206.35 258.635 206.381 258.895 206.226L259.375 205.939V205.935Z" stroke="black" stroke-width="0.193009"/>
<path d="M258.625 204.875C266.846 199.965 274.286 193.71 280.341 186.624L270.043 177.365C263.941 184.411 256.546 190.667 248.396 195.677L258.625 204.875Z" fill="#2E7C7E" stroke="black" stroke-width="0.193009"/>
<path d="M269.449 194.612C271.404 192.734 271.144 189.592 268.868 187.595C266.591 185.597 263.161 185.5 261.206 187.378C259.251 189.255 259.511 192.397 261.787 194.394C264.063 196.392 267.494 196.489 269.449 194.612Z" fill="#C2FCA5" stroke="black" stroke-width="0.193009"/>
<path d="M268.7 193.955C270.3 192.418 270.087 189.847 268.224 188.212C266.361 186.577 263.553 186.497 261.953 188.034C260.353 189.571 260.566 192.142 262.429 193.777C264.292 195.412 267.099 195.492 268.7 193.955Z" stroke="black" stroke-width="0.193009"/>
<path d="M274.278 186.513C275.23 185.598 275.104 184.068 273.995 183.095C272.887 182.122 271.216 182.075 270.263 182.99C269.311 183.905 269.437 185.435 270.546 186.408C271.654 187.381 273.325 187.428 274.278 186.513Z" fill="#C2FCA5" stroke="black" stroke-width="0.193009"/>
<path d="M271.047 185.929C271.836 186.622 273.023 186.655 273.7 186.004C274.377 185.355 274.287 184.267 273.499 183.575C272.71 182.883 271.523 182.849 270.846 183.5C270.169 184.149 270.259 185.237 271.047 185.929Z" fill="#3C7878" stroke="black" stroke-width="0.193009"/>
<path d="M255.916 199.209C257.023 200.183 258.695 200.23 259.646 199.315C260.597 198.401 260.471 196.87 259.363 195.898C258.255 194.927 256.584 194.878 255.633 195.792C254.681 196.707 254.808 198.237 255.916 199.209Z" fill="#C2FCA5" stroke="black" stroke-width="0.193009"/>
<path d="M256.412 198.732C257.2 199.424 258.387 199.458 259.064 198.807C259.741 198.156 259.651 197.07 258.863 196.378C258.074 195.686 256.887 195.652 256.21 196.303C255.533 196.952 255.623 198.04 256.412 198.732Z" fill="#3C7878" stroke="black" stroke-width="0.193009"/>
<path d="M266.377 193.458C266.012 193.599 265.676 193.648 265.365 193.603C265.057 193.56 264.789 193.44 264.566 193.243C264.363 193.064 264.234 192.873 264.18 192.669C264.127 192.466 264.129 192.262 264.185 192.059C264.24 191.856 264.324 191.654 264.433 191.449C264.545 191.245 264.665 191.048 264.795 190.855C264.928 190.662 265.044 190.485 265.145 190.322C265.245 190.159 265.305 190.009 265.325 189.872C265.344 189.736 265.301 189.62 265.194 189.527C265.11 189.455 265.01 189.413 264.89 189.402C264.77 189.392 264.635 189.421 264.485 189.492C264.335 189.563 264.168 189.687 263.985 189.862C263.812 190.029 263.653 190.228 263.514 190.454C263.375 190.682 263.268 190.926 263.19 191.188L262.207 190.859C262.276 190.584 262.402 190.302 262.586 190.013C262.77 189.724 262.989 189.461 263.24 189.219C263.617 188.857 263.985 188.605 264.345 188.465C264.705 188.324 265.042 188.276 265.35 188.325C265.659 188.373 265.929 188.497 266.154 188.695C266.362 188.878 266.495 189.069 266.55 189.27C266.606 189.47 266.608 189.673 266.555 189.881C266.501 190.09 266.417 190.297 266.302 190.499C266.186 190.704 266.066 190.898 265.94 191.087C265.813 191.276 265.7 191.455 265.599 191.622C265.5 191.79 265.44 191.943 265.419 192.077C265.397 192.213 265.44 192.327 265.545 192.419C265.629 192.492 265.727 192.531 265.843 192.535C265.959 192.539 266.092 192.504 266.242 192.429C266.392 192.354 266.559 192.23 266.741 192.053C266.981 191.823 267.18 191.561 267.337 191.266C267.495 190.971 267.598 190.692 267.643 190.424L268.65 190.731C268.607 191.022 268.481 191.347 268.273 191.705C268.065 192.063 267.799 192.395 267.48 192.702C267.103 193.064 266.732 193.316 266.368 193.458H266.377ZM267.737 193.593L262.4 188.91L262.976 188.357L268.314 193.041L267.737 193.593Z" fill="#3C7878" stroke="black" stroke-width="0.193009"/>
<path d="M242.802 172.289L226.425 183.628C232.403 193.164 240.411 201.654 249.879 208.496L266.256 197.157C256.787 190.316 248.778 181.826 242.802 172.289Z" fill="#C2FCA5" stroke="black" stroke-width="0.193009"/>
<path d="M249.021 206.201C241.175 200.239 234.226 192.892 228.927 184.952L228.584 184.439C228.404 184.169 228.477 183.821 228.753 183.63L241.768 174.619C242.089 174.397 242.552 174.475 242.762 174.786L243.191 175.42C248.378 183.078 255.098 190.228 262.623 196.1L263.313 196.637C263.641 196.893 263.626 197.355 263.283 197.593L250.33 206.561C250.078 206.736 249.722 206.73 249.478 206.543L249.023 206.199L249.021 206.201Z" stroke="black" stroke-width="0.193009"/>
<path d="M249.937 205.215C242.17 199.314 235.388 192.143 230.145 184.287L241.982 176.092C247.28 183.913 254.015 191.079 261.697 197.073L249.937 205.215Z" fill="#2E7C7E" stroke="black" stroke-width="0.193009"/>
<path d="M247.82 194.467C250.534 192.842 251.452 189.719 249.87 187.491C248.288 185.263 244.805 184.774 242.091 186.399C239.376 188.023 238.458 191.146 240.04 193.374C241.622 195.602 245.105 196.091 247.82 194.467Z" fill="#C2FCA5" stroke="black" stroke-width="0.193009"/>
<path d="M247.301 193.736C249.522 192.407 250.274 189.851 248.978 188.027C247.683 186.203 244.833 185.802 242.611 187.132C240.389 188.461 239.638 191.018 240.933 192.841C242.228 194.665 245.079 195.066 247.301 193.736Z" stroke="black" stroke-width="0.193009"/>
<path d="M240.226 185.179C238.955 186.037 237.234 185.895 236.382 184.863C235.529 183.83 235.867 182.296 237.14 181.438C238.411 180.58 240.131 180.722 240.984 181.755C241.837 182.787 241.498 184.322 240.226 185.179Z" fill="#C2FCA5" stroke="black" stroke-width="0.193009"/>
<path d="M239.782 184.64C238.877 185.25 237.656 185.149 237.05 184.414C236.443 183.68 236.685 182.59 237.588 181.981C238.492 181.371 239.715 181.471 240.32 182.207C240.926 182.941 240.684 184.03 239.782 184.64Z" fill="#3C7878" stroke="black" stroke-width="0.193009"/>
<path d="M253.5 199.793C252.229 200.65 250.509 200.509 249.656 199.476C248.803 198.443 249.142 196.909 250.415 196.051C251.685 195.194 253.406 195.335 254.259 196.368C255.111 197.401 254.773 198.935 253.5 199.793Z" fill="#C2FCA5" stroke="black" stroke-width="0.193009"/>
<path d="M253.049 199.249C252.145 199.859 250.922 199.759 250.317 199.023C249.713 198.287 249.953 197.2 250.855 196.59C251.757 195.981 252.981 196.081 253.587 196.816C254.194 197.55 253.951 198.64 253.049 199.249Z" fill="#3C7878" stroke="black" stroke-width="0.193009"/>
<path d="M242.504 191.896C242.219 191.55 241.992 191.184 241.827 190.799C241.66 190.413 241.577 190.071 241.572 189.772L242.648 189.577C242.659 189.853 242.725 190.148 242.847 190.464C242.969 190.781 243.139 191.068 243.353 191.328C243.516 191.527 243.67 191.672 243.814 191.765C243.957 191.857 244.088 191.908 244.208 191.918C244.328 191.928 244.435 191.9 244.529 191.835C244.651 191.753 244.709 191.643 244.707 191.503C244.703 191.363 244.662 191.204 244.585 191.023C244.508 190.842 244.414 190.647 244.309 190.443C244.204 190.238 244.107 190.026 244.017 189.805C243.927 189.587 243.869 189.369 243.844 189.152C243.816 188.936 243.846 188.729 243.931 188.535C244.017 188.338 244.178 188.161 244.418 188C244.677 187.824 244.971 187.73 245.294 187.716C245.618 187.702 245.954 187.789 246.306 187.972C246.657 188.155 247 188.452 247.338 188.861C247.563 189.135 247.75 189.426 247.9 189.738C248.05 190.051 248.142 190.35 248.174 190.637L247.12 190.858C247.077 190.584 247 190.325 246.888 190.079C246.777 189.833 246.642 189.615 246.486 189.426C246.323 189.227 246.168 189.083 246.025 188.995C245.881 188.906 245.746 188.859 245.622 188.857C245.498 188.855 245.388 188.885 245.292 188.95C245.17 189.032 245.11 189.144 245.112 189.284C245.112 189.424 245.155 189.583 245.236 189.76C245.318 189.935 245.412 190.13 245.521 190.338C245.631 190.547 245.727 190.761 245.813 190.98C245.898 191.198 245.956 191.412 245.984 191.625C246.014 191.837 245.986 192.042 245.905 192.243C245.823 192.443 245.665 192.622 245.431 192.78C245.174 192.953 244.885 193.043 244.561 193.053C244.238 193.063 243.899 192.976 243.544 192.791C243.188 192.607 242.843 192.309 242.506 191.902L242.504 191.896ZM241.613 192.142L247.73 188.011L248.247 188.637L242.129 192.768L241.613 192.142Z" fill="#3C7878"/>
<path d="M280.655 192.801H258.572V197.038H280.655V192.801Z" fill="#FCF4A6" stroke="black" stroke-width="0.193009"/>
<path d="M262.327 192.799H261.039V197.036H262.327V192.799Z" fill="#FFD861" stroke="black" stroke-width="0.193009"/>
<path d="M266.453 192.799H265.165V197.036H266.453V192.799Z" fill="#FFD861" stroke="black" stroke-width="0.193009"/>
<path d="M270.577 192.799H269.289V197.036H270.577V192.799Z" fill="#FFD861" stroke="black" stroke-width="0.193009"/>
<path d="M274.7 192.799H273.412V197.036H274.7V192.799Z" fill="#FFD861" stroke="black" stroke-width="0.193009"/>
<path d="M278.827 192.799H277.539V197.036H278.827V192.799Z" fill="#FFD861" stroke="black" stroke-width="0.193009"/>
<path d="M282.076 197.037H259.993V201.274H282.076V197.037Z" fill="#FCF4A6" stroke="black" stroke-width="0.193009"/>
<path d="M263.748 197.037H262.46V201.274H263.748V197.037Z" fill="#FFD861" stroke="black" stroke-width="0.193009"/>
<path d="M267.874 197.037H266.586V201.274H267.874V197.037Z" fill="#FFD861" stroke="black" stroke-width="0.193009"/>
<path d="M271.997 197.037H270.71V201.274H271.997V197.037Z" fill="#FFD861" stroke="black" stroke-width="0.193009"/>
<path d="M276.121 197.037H274.833V201.274H276.121V197.037Z" fill="#FFD861" stroke="black" stroke-width="0.193009"/>
<path d="M280.247 197.037H278.96V201.274H280.247V197.037Z" fill="#FFD861" stroke="black" stroke-width="0.193009"/>
<path d="M280.976 201.275H258.893V205.513H280.976V201.275Z" fill="#FCF4A6" stroke="black" stroke-width="0.193009"/>
<path d="M262.648 201.275H261.36V205.513H262.648V201.275Z" fill="#FFD861" stroke="black" stroke-width="0.193009"/>
<path d="M266.771 201.275H265.484V205.513H266.771V201.275Z" fill="#FFD861" stroke="black" stroke-width="0.193009"/>
<path d="M270.898 201.275H269.61V205.513H270.898V201.275Z" fill="#FFD861" stroke="black" stroke-width="0.193009"/>
<path d="M275.021 201.275H273.733V205.513H275.021V201.275Z" fill="#FFD861" stroke="black" stroke-width="0.193009"/>
<path d="M279.145 201.275H277.857V205.513H279.145V201.275Z" fill="#FFD861" stroke="black" stroke-width="0.193009"/>
<path d="M282.653 205.514H260.57V209.751H282.653V205.514Z" fill="#FCF4A6" stroke="black" stroke-width="0.193009"/>
<path d="M264.325 205.516H263.037V209.753H264.325V205.516Z" fill="#FFD861" stroke="black" stroke-width="0.193009"/>
<path d="M268.448 205.516H267.16V209.753H268.448V205.516Z" fill="#FFD861" stroke="black" stroke-width="0.193009"/>
<path d="M272.574 205.516H271.287V209.753H272.574V205.516Z" fill="#FFD861" stroke="black" stroke-width="0.193009"/>
<path d="M276.698 205.516H275.41V209.753H276.698V205.516Z" fill="#FFD861" stroke="black" stroke-width="0.193009"/>
<path d="M280.822 205.516H279.534V209.753H280.822V205.516Z" fill="#FFD861" stroke="black" stroke-width="0.193009"/>
<path d="M279.933 209.705H257.85V213.942H279.933V209.705Z" fill="#FCF4A6" stroke="black" stroke-width="0.193009"/>
<path d="M261.605 209.707H260.317V213.944H261.605V209.707Z" fill="#FFD861" stroke="black" stroke-width="0.193009"/>
<path d="M265.728 209.707H264.441V213.944H265.728V209.707Z" fill="#FFD861" stroke="black" stroke-width="0.193009"/>
<path d="M269.855 209.707H268.567V213.944H269.855V209.707Z" fill="#FFD861" stroke="black" stroke-width="0.193009"/>
<path d="M273.978 209.707H272.69V213.944H273.978V209.707Z" fill="#FFD861" stroke="black" stroke-width="0.193009"/>
<path d="M278.105 209.707H276.817V213.944H278.105V209.707Z" fill="#FFD861" stroke="black" stroke-width="0.193009"/>
<path d="M278.85 188.566H256.768V192.804H278.85V188.566Z" fill="#FCF4A6" stroke="black" stroke-width="0.193009"/>
<path d="M260.522 188.566H259.234V192.804H260.522V188.566Z" fill="#FFD861" stroke="black" stroke-width="0.193009"/>
<path d="M264.648 188.566H263.361V192.804H264.648V188.566Z" fill="#FFD861" stroke="black" stroke-width="0.193009"/>
<path d="M268.772 188.566H267.484V192.804H268.772V188.566Z" fill="#FFD861" stroke="black" stroke-width="0.193009"/>
<path d="M272.896 188.566H271.608V192.804H272.896V188.566Z" fill="#FFD861" stroke="black" stroke-width="0.193009"/>
<path d="M277.022 188.566H275.734V192.804H277.022V188.566Z" fill="#FFD861" stroke="black" stroke-width="0.193009"/>
<path d="M258.572 192.801H278.853" stroke="black" stroke-width="0.193009" stroke-miterlimit="10"/>
<path d="M260.672 188.627H272.56" stroke="black" stroke-width="0.193009" stroke-miterlimit="10"/>
<path d="M259.993 197.039H280.657" stroke="black" stroke-width="0.193009" stroke-miterlimit="10"/>
<path d="M280.977 201.275H259.993" stroke="black" stroke-width="0.193009" stroke-miterlimit="10"/>
<path d="M280.977 205.512H260.57" stroke="black" stroke-width="0.193009" stroke-miterlimit="10"/>
<path d="M260.57 209.746H279.932" stroke="black" stroke-width="0.193009" stroke-miterlimit="10"/>
<path d="M249.172 141.723L252.142 139.434L268.658 155.621L265.689 157.911C261.127 161.428 253.732 160.657 249.17 156.186C244.608 151.716 244.611 145.241 249.17 141.723H249.172Z" fill="#FCF4A6" stroke="black" stroke-width="0.193009"/>
<mask id="mask0_579_16724" style="mask-type:luminance" maskUnits="userSpaceOnUse" x="245" y="139" width="24" height="22">
<path d="M249.269 141.714L252.224 139.434L268.659 155.556L265.704 157.837C261.164 161.34 253.806 160.572 249.267 156.118C244.728 151.667 244.73 145.217 249.267 141.714H249.269Z" fill="white" stroke="white" stroke-width="0.193009"/>
</mask>
<g mask="url(#mask0_579_16724)">
<path d="M242.305 148.51L251.877 141.129L252.71 141.945L243.139 149.326L242.305 148.51ZM243.46 153.596L253.032 146.216L252.198 145.4L242.627 152.78L243.46 153.596ZM243.782 157.863L253.353 150.483L252.52 149.666L242.948 157.047L243.782 157.863ZM256.531 162.452L266.102 155.072L265.269 154.255L255.697 161.636L256.531 162.452ZM251.695 161.668L261.266 154.287L260.433 153.471L250.861 160.851L251.695 161.668ZM246.859 160.881L256.43 153.5L255.597 152.684L246.025 160.064L246.859 160.881Z" fill="#F7D151" stroke="black" stroke-width="0.193009"/>
</g>
<path d="M251.308 154.541C255.87 159.01 263.264 159.783 267.826 156.266C272.388 152.749 272.388 146.273 267.826 141.804C263.264 137.334 255.87 136.561 251.308 140.078C246.746 143.596 246.746 150.071 251.308 154.541Z" fill="#FFD861" stroke="black" stroke-width="0.193009"/>
<path d="M249.223 142.334C246.907 145.952 247.601 150.907 251.306 154.54C255.868 159.009 263.262 159.782 267.824 156.265" stroke="black" stroke-width="0.193009" stroke-miterlimit="10"/>
<path d="M253.853 152.578C257.39 156.046 262.972 156.764 266.319 154.183C269.666 151.602 269.512 146.698 265.974 143.23C262.437 139.762 256.855 139.044 253.508 141.625C250.161 144.206 250.315 149.11 253.853 152.578Z" fill="#FCF4A6" stroke="black" stroke-width="0.193009"/>
<path d="M268.356 151.421C269.286 148.86 268.476 145.685 265.971 143.23C262.434 139.762 256.852 139.044 253.505 141.625" stroke="black" stroke-width="0.193009" stroke-miterlimit="10"/>
<path d="M263.191 150.971C262.644 151.392 262.053 151.732 261.414 151.992C260.778 152.252 260.2 152.395 259.683 152.423L259.143 150.953C259.619 150.918 260.118 150.804 260.641 150.609C261.166 150.416 261.633 150.161 262.042 149.846C262.355 149.604 262.578 149.382 262.711 149.175C262.844 148.97 262.908 148.784 262.901 148.618C262.895 148.453 262.829 148.308 262.698 148.18C262.533 148.018 262.332 147.946 262.092 147.959C261.852 147.975 261.582 148.044 261.282 148.166C260.982 148.288 260.665 148.431 260.328 148.591C259.992 148.752 259.645 148.902 259.28 149.043C258.918 149.183 258.552 149.281 258.181 149.334C257.81 149.387 257.448 149.364 257.095 149.26C256.739 149.157 256.401 148.949 256.077 148.63C255.723 148.284 255.505 147.889 255.423 147.442C255.34 146.995 255.423 146.523 255.678 146.024C255.931 145.526 256.379 145.026 257.024 144.531C257.455 144.198 257.926 143.919 258.44 143.687C258.955 143.455 259.456 143.305 259.945 143.238L260.523 144.678C260.058 144.759 259.623 144.885 259.218 145.058C258.813 145.231 258.462 145.434 258.162 145.664C257.849 145.904 257.628 146.128 257.502 146.335C257.375 146.541 257.32 146.73 257.337 146.901C257.356 147.072 257.429 147.222 257.558 147.35C257.723 147.511 257.928 147.586 258.17 147.572C258.415 147.56 258.68 147.491 258.972 147.363C259.261 147.237 259.578 147.092 259.921 146.925C260.264 146.759 260.615 146.608 260.977 146.472C261.339 146.336 261.699 146.242 262.062 146.185C262.424 146.128 262.784 146.148 263.146 146.246C263.508 146.342 263.846 146.547 264.164 146.86C264.511 147.2 264.723 147.593 264.798 148.04C264.875 148.487 264.787 148.961 264.534 149.464C264.281 149.968 263.831 150.469 263.186 150.967L263.191 150.971ZM263.782 152.183L255.486 144.051L256.471 143.289L264.768 151.421L263.782 152.183Z" fill="#E28A46"/>
<path d="M251.58 144.107C250.639 145.901 250.892 147.93 251.597 149.521" stroke="black" stroke-width="0.193009" stroke-miterlimit="10"/>
<path d="M270.694 209.52H248.611V213.944H270.694V209.52Z" fill="#FFD861" stroke="black" stroke-width="0.193009"/>
<path d="M252.366 209.518H251.078V213.942H252.366V209.518Z" fill="#FCF4A6" stroke="black" stroke-width="0.193009"/>
<path d="M256.492 209.518H255.205V213.942H256.492V209.518Z" fill="#FCF4A6" stroke="black" stroke-width="0.193009"/>
<path d="M260.616 209.518H259.328V213.942H260.616V209.518Z" fill="#FCF4A6" stroke="black" stroke-width="0.193009"/>
<path d="M264.739 209.518H263.452V213.942H264.739V209.518Z" fill="#FCF4A6" stroke="black" stroke-width="0.193009"/>
<path d="M268.866 209.518H267.578V213.942H268.866V209.518Z" fill="#FCF4A6" stroke="black" stroke-width="0.193009"/>
<path d="M273.485 196.289H251.402V200.713H273.485V196.289Z" fill="#FFD861" stroke="black" stroke-width="0.193009"/>
<path d="M255.157 196.291H253.869V200.715H255.157V196.291Z" fill="#FCF4A6" stroke="black" stroke-width="0.193009"/>
<path d="M259.283 196.291H257.995V200.715H259.283V196.291Z" fill="#FCF4A6" stroke="black" stroke-width="0.193009"/>
<path d="M263.407 196.291H262.119V200.715H263.407V196.291Z" fill="#FCF4A6" stroke="black" stroke-width="0.193009"/>
<path d="M267.53 196.291H266.242V200.715H267.53V196.291Z" fill="#FCF4A6" stroke="black" stroke-width="0.193009"/>
<path d="M271.654 196.291H270.366V200.715H271.654V196.291Z" fill="#FCF4A6" stroke="black" stroke-width="0.193009"/>
<path d="M270.188 200.713H248.106V205.137H270.188V200.713Z" fill="#F7D151" stroke="black" stroke-width="0.193009"/>
<path d="M251.86 200.713H250.572V205.137H251.86V200.713Z" fill="#FCF4A6" stroke="black" stroke-width="0.193009"/>
<path d="M255.987 200.713H254.699V205.137H255.987V200.713Z" fill="#FCF4A6" stroke="black" stroke-width="0.193009"/>
<path d="M260.11 200.713H258.822V205.137H260.11V200.713Z" fill="#FCF4A6" stroke="black" stroke-width="0.193009"/>
<path d="M264.234 200.713H262.946V205.137H264.234V200.713Z" fill="#FCF4A6" stroke="black" stroke-width="0.193009"/>
<path d="M268.36 200.713H267.072V205.137H268.36V200.713Z" fill="#FCF4A6" stroke="black" stroke-width="0.193009"/>
<path d="M268.887 205.096H246.804V209.52H268.887V205.096Z" fill="#FFD861" stroke="black" stroke-width="0.193009"/>
<path d="M250.558 205.096H249.271V209.52H250.558V205.096Z" fill="#FCF4A6" stroke="black" stroke-width="0.193009"/>
<path d="M254.685 205.096H253.397V209.52H254.685V205.096Z" fill="#FCF4A6" stroke="black" stroke-width="0.193009"/>
<path d="M258.808 205.096H257.521V209.52H258.808V205.096Z" fill="#FCF4A6" stroke="black" stroke-width="0.193009"/>
<path d="M262.932 205.096H261.644V209.52H262.932V205.096Z" fill="#FCF4A6" stroke="black" stroke-width="0.193009"/>
<path d="M267.061 205.096H265.773V209.52H267.061V205.096Z" fill="#FCF4A6" stroke="black" stroke-width="0.193009"/>
<path d="M248.611 209.521H268.89" stroke="black" stroke-width="0.193009" stroke-miterlimit="10"/>
<path d="M251.215 200.713H270.188" stroke="black" stroke-width="0.193009" stroke-miterlimit="10"/>
<path d="M249.719 194.122L245.879 192.678L237.113 212.317L240.953 213.761C245.446 215.451 251.05 212.424 253.471 207C255.892 201.577 254.21 195.809 249.717 194.12L249.719 194.122Z" fill="#FCF4A6" stroke="black" stroke-width="0.193009"/>
<mask id="mask1_579_16724" style="mask-type:luminance" maskUnits="userSpaceOnUse" x="236" y="192" width="19" height="23">
<path d="M249.646 194.112L245.829 192.674L237.113 212.237L240.931 213.675C245.398 215.359 250.969 212.343 253.376 206.941C255.784 201.538 254.111 195.793 249.644 194.11L249.646 194.112Z" fill="white" stroke="white" stroke-width="0.193009"/>
</mask>
<g mask="url(#mask1_579_16724)">
<path d="M256.425 198.98L246.997 195.433L247.439 194.441L256.867 197.988L256.425 198.98ZM257.724 201.893L248.296 198.346L247.854 199.338L257.282 202.884L257.724 201.893ZM258.579 205.796L249.151 202.249L248.709 203.24L258.137 206.787L258.579 205.796ZM249.759 213.916L240.331 210.369L239.89 211.361L249.318 214.907L249.759 213.916ZM253.352 211.685L243.925 208.138L243.483 209.13L252.911 212.677L253.352 211.685ZM256.946 209.454L247.518 205.908L247.076 206.899L256.504 210.446L256.946 209.454Z" fill="#F7D151" stroke="black" stroke-width="0.193009"/>
</g>
<path d="M250.422 205.86C252.843 200.436 250.847 194.551 245.964 192.714C241.081 190.878 235.161 193.785 232.74 199.209C230.32 204.633 232.316 210.518 237.199 212.355C242.081 214.191 248.002 211.284 250.422 205.86Z" fill="#FFD861" stroke="black" stroke-width="0.193009"/>
<path d="M247.697 204.835C249.574 200.628 248.192 196.125 244.609 194.777C241.026 193.429 236.599 195.747 234.721 199.955C232.844 204.162 234.226 208.665 237.809 210.013C241.392 211.36 245.819 209.042 247.697 204.835Z" fill="#FCF4A6" stroke="black" stroke-width="0.193009"/>
<path d="M239.316 206.118C238.731 205.897 238.204 205.608 237.733 205.246C237.263 204.886 236.921 204.519 236.704 204.143L237.85 203.079C238.056 203.419 238.343 203.74 238.712 204.046C239.08 204.353 239.483 204.587 239.922 204.753C240.257 204.879 240.544 204.945 240.78 204.953C241.015 204.961 241.208 204.924 241.358 204.847C241.508 204.768 241.615 204.652 241.684 204.499C241.772 204.302 241.763 204.119 241.662 203.946C241.562 203.773 241.399 203.602 241.178 203.433C240.957 203.264 240.711 203.088 240.441 202.909C240.171 202.73 239.905 202.536 239.644 202.327C239.382 202.119 239.16 201.889 238.975 201.635C238.791 201.381 238.682 201.1 238.645 200.787C238.609 200.474 238.678 200.126 238.849 199.742C239.035 199.323 239.318 198.981 239.697 198.719C240.075 198.458 240.537 198.308 241.086 198.273C241.634 198.238 242.254 198.35 242.944 198.609C243.404 198.782 243.833 199.009 244.234 199.29C244.632 199.571 244.954 199.88 245.194 200.215L244.088 201.294C243.844 200.982 243.569 200.714 243.263 200.488C242.957 200.262 242.644 200.089 242.322 199.969C241.988 199.843 241.703 199.778 241.467 199.776C241.232 199.774 241.039 199.817 240.889 199.908C240.739 199.998 240.63 200.12 240.561 200.274C240.473 200.47 240.48 200.657 240.58 200.832C240.681 201.009 240.842 201.178 241.062 201.338C241.283 201.499 241.532 201.67 241.81 201.851C242.087 202.032 242.352 202.229 242.609 202.439C242.864 202.65 243.085 202.878 243.269 203.122C243.454 203.368 243.567 203.647 243.61 203.962C243.653 204.277 243.591 204.623 243.422 205C243.237 205.414 242.954 205.748 242.575 206.006C242.196 206.263 241.729 206.411 241.176 206.448C240.623 206.486 240 206.374 239.31 206.114L239.316 206.118ZM238.425 207.107L242.828 197.242L243.884 197.64L239.481 207.505L238.425 207.107Z" fill="#E28A46" stroke="black" stroke-width="0.193009"/>
<path d="M195.95 152.739L194.231 151.039L178.995 164.03L180.713 165.729C184.116 169.093 190.285 168.912 194.493 165.324C198.701 161.736 199.352 156.102 195.95 152.739Z" fill="#FCF4A6" stroke="black" stroke-width="0.193009"/>
<mask id="mask2_579_16724" style="mask-type:luminance" maskUnits="userSpaceOnUse" x="178" y="150" width="21" height="19">
<path d="M194.202 150.977L195.91 152.66C199.341 156.043 198.669 161.692 194.456 165.274C190.246 168.855 184.059 169.048 180.634 165.672L178.927 163.987L178.852 163.913L178.932 163.845L194.072 150.972L194.139 150.914L194.202 150.977Z" fill="white" stroke="white" stroke-width="0.193009"/>
</mask>
<g mask="url(#mask2_579_16724)">
<path d="M200.151 159.756L193.012 152.698L193.781 152.043L200.921 159.101L200.151 159.756ZM200.226 162.793L193.087 155.735L192.318 156.39L199.457 163.448L200.226 162.793ZM199.53 166.487L192.391 159.429L191.621 160.085L198.761 167.143L199.53 166.487ZM188.566 169.635L181.426 162.577L180.657 163.232L187.797 170.29L188.566 169.635ZM192.628 169.271L185.489 162.213L184.72 162.868L191.859 169.926L192.628 169.271ZM196.691 168.907L189.551 161.849L188.782 162.504L195.922 169.562L196.691 168.907Z" fill="#F7D151" stroke="black" stroke-width="0.193009"/>
</g>
<path d="M193 163.799C197.207 160.212 197.86 154.578 194.458 151.214C191.055 147.851 184.887 148.032 180.679 151.619C176.472 155.206 175.819 160.84 179.221 164.203C182.623 167.567 188.792 167.386 193 163.799Z" fill="#FFD861" stroke="black" stroke-width="0.193009"/>
<path d="M191.1 161.92C194.364 159.138 194.986 154.881 192.49 152.413C189.994 149.945 185.324 150.201 182.06 152.983C178.796 155.766 178.174 160.022 180.67 162.49C183.166 164.958 187.836 164.703 191.1 161.92Z" fill="#FCF4A6" stroke="black" stroke-width="0.193009"/>
<path d="M183.498 159.832C183.091 159.429 182.759 158.99 182.506 158.514C182.251 158.038 182.107 157.603 182.075 157.212L183.47 156.761C183.509 157.121 183.624 157.497 183.815 157.889C184.006 158.282 184.252 158.628 184.559 158.931C184.792 159.161 185.006 159.325 185.206 159.421C185.403 159.515 185.581 159.559 185.737 159.551C185.893 159.543 186.033 159.486 186.153 159.384C186.305 159.254 186.371 159.098 186.354 158.915C186.337 158.734 186.268 158.53 186.148 158.308C186.028 158.085 185.889 157.847 185.733 157.595C185.576 157.346 185.428 157.084 185.289 156.812C185.152 156.541 185.056 156.266 185 155.986C184.944 155.707 184.964 155.432 185.058 155.16C185.152 154.887 185.347 154.625 185.645 154.369C185.971 154.092 186.346 153.915 186.77 153.84C187.194 153.765 187.644 153.817 188.124 153.994C188.602 154.171 189.082 154.497 189.562 154.973C189.883 155.29 190.155 155.64 190.382 156.024C190.61 156.407 190.757 156.783 190.826 157.153L189.461 157.633C189.38 157.283 189.253 156.956 189.084 156.653C188.915 156.35 188.718 156.089 188.495 155.868C188.261 155.638 188.047 155.477 187.848 155.386C187.65 155.296 187.468 155.258 187.306 155.278C187.143 155.298 187.001 155.357 186.881 155.459C186.729 155.589 186.661 155.746 186.676 155.931C186.691 156.116 186.759 156.317 186.883 156.533C187.006 156.75 187.149 156.986 187.312 157.241C187.473 157.497 187.62 157.759 187.753 158.03C187.886 158.302 187.98 158.573 188.04 158.845C188.098 159.118 188.083 159.391 187.993 159.669C187.905 159.946 187.715 160.21 187.421 160.46C187.1 160.733 186.729 160.904 186.305 160.975C185.881 161.046 185.428 160.993 184.944 160.814C184.46 160.635 183.978 160.308 183.498 159.834V159.832ZM182.349 160.316L190.003 153.791L190.738 154.519L183.084 161.044L182.349 160.316Z" fill="#E28A46"/>
</svg>
