<svg width="760" height="408" viewBox="0 0 760 408" fill="none" xmlns="http://www.w3.org/2000/svg">
<path d="M277.734 315.431C278.326 347.552 320.478 358.055 336.303 330.626C347.938 309.688 353.603 287.895 358.654 265.069C363.329 243.253 367.128 221.525 368.599 199.183C369.94 163.422 321.596 153.183 308.075 185.875C301.234 203.967 295.365 222.411 290.49 241.128C288.766 247.596 287.152 254.086 285.651 260.593C284.149 267.099 282.731 273.617 281.402 280.138C280.961 282.417 280.569 284.699 280.192 286.978C279.689 289.959 279.271 292.939 278.875 295.878C277.934 302.35 277.55 308.894 277.734 315.431Z" fill="#1B4545"/>
<path d="M277.734 315.431C278.326 347.552 320.478 358.055 336.303 330.626C347.938 309.688 353.603 287.895 358.654 265.069C363.329 243.253 367.128 221.525 368.599 199.183C369.94 163.422 321.596 153.183 308.075 185.875C301.234 203.967 295.365 222.411 290.49 241.128C288.766 247.596 287.152 254.086 285.651 260.593C284.149 267.099 282.731 273.617 281.402 280.138C280.961 282.417 280.569 284.699 280.192 286.978C279.689 289.959 279.271 292.939 278.875 295.878C277.934 302.35 277.55 308.894 277.734 315.431Z" stroke="black" stroke-width="0.847544" stroke-miterlimit="10"/>
<path d="M384.384 153.31C384.376 153.36 384.376 153.418 384.376 153.464C385.19 153.375 386.016 153.283 386.838 153.203C387.679 153.122 388.525 153.042 389.366 152.965C387.791 153.045 386.293 153.153 384.864 153.268C384.703 153.291 384.545 153.291 384.384 153.31Z" fill="#F2CAA0"/>
<path d="M393.573 152.643L393.631 131.525C389.114 131.417 384.669 130.408 380.559 128.544C376.449 126.68 372.754 123.998 369.712 120.668C356.395 104.257 365.79 85.6247 365.863 85.4213L388.968 45.2602C389.106 45.0223 389.325 44.8459 389.586 44.7538C389.805 44.6732 411.565 37.4573 425.558 34.5227C426.219 34.3846 426.887 34.3193 427.555 34.3193C432.165 34.3193 437.388 37.3001 442.731 42.9354C453.364 54.1486 463.573 75.7004 462.505 95.1998C462.071 103.344 459.187 111.17 454.243 117.668C449.292 124.159 442.509 129.024 434.761 131.621L433.912 152.064L442.977 154.396L440.788 162.337C440.788 162.337 434.542 174.782 410.29 173.926C383.006 172.96 384.381 153.307 384.381 153.307L393.573 152.639V152.643Z" fill="#F2CAA0"/>
<path d="M342.838 268.805C342.838 268.805 337.699 267.819 328.062 267.862L342.838 268.805Z" fill="#CC513B"/>
<path d="M342.838 268.805C342.838 268.805 337.699 267.819 328.062 267.862" stroke="black" stroke-width="0.847544" stroke-miterlimit="10"/>
<path d="M342.837 268.793C345.369 274.528 347.52 280.424 349.267 286.443C349.97 288.852 350.673 291.419 351.288 294.116C354.318 307.097 355.836 322.684 350.454 334.699C346.851 342.747 340.156 349.196 328.764 352.173L289.554 354.981L239.827 361.802C239.827 361.802 205.776 301.662 220.925 294.971C238.905 287.034 268.743 277.52 282.655 274.056L292.65 274.708" fill="#1B4545"/>
<path d="M342.837 268.793C345.369 274.528 347.52 280.424 349.267 286.443C349.97 288.852 350.673 291.419 351.288 294.116C354.318 307.097 355.836 322.684 350.454 334.699C346.851 342.747 340.156 349.196 328.764 352.173L289.554 354.981L239.827 361.802C239.827 361.802 205.776 301.662 220.925 294.971C238.905 287.034 268.743 277.52 282.655 274.056L292.65 274.708" stroke="black" stroke-width="0.847544" stroke-linecap="round" stroke-linejoin="round"/>
<path d="M389.362 152.97C390.714 152.904 392.127 152.847 393.568 152.797V152.644C392.166 152.739 390.764 152.847 389.362 152.97Z" fill="white"/>
<path d="M328.94 170.345C328.94 170.345 331.117 295.547 337.355 359.182H476.549C487.193 295.647 491.441 232.023 504.113 172.796C485.095 163.194 464.188 157.356 443.508 154.413C442.309 158.307 441.28 163.697 437.581 166.102C427.306 172.804 407.244 179.932 388.48 165.603C387.639 164.748 386.913 163.789 386.318 162.746C384.72 159.926 384.044 156.684 384.37 153.462C360.264 156.124 340.163 162.396 328.943 170.345H328.94Z" fill="white"/>
<path d="M202.274 325.414L172.325 348.37C171.019 349.313 177.76 350.798 180.587 348.857L207.236 333.036C212.587 329.703 207.505 321.877 202.27 325.414" fill="#F5A082"/>
<path d="M192.485 323.68L163.707 346.728C160.83 348.988 166.742 350.338 169.78 348.424L197.659 331.157C202.906 327.674 197.613 319.998 192.481 323.677" fill="#F5A082"/>
<path d="M186.726 320.262L155.763 345.39C154.645 347.097 159.773 347.822 162.634 346.663L192.023 327.655C197.185 324.083 191.785 316.526 186.722 320.262H186.726Z" fill="#F5A082"/>
<path d="M156.781 341.031C154.388 343.498 160.273 344.184 162.931 342.009L186.327 323.066C190.694 319.157 184.08 314.124 179.808 318.16L156.781 341.035V341.031Z" fill="#F5A082"/>
<path d="M193.585 331.99C191.669 337.372 197.841 344.48 207.371 347.864C216.901 351.247 226.181 349.628 228.098 344.246C230.014 338.864 223.842 331.756 214.312 328.372C204.782 324.989 195.502 326.607 193.585 331.99Z" fill="#F5A082"/>
<path d="M236.143 335.799C229.171 336.102 221.858 338.596 215.305 339.424C208.076 340.088 199.929 342.447 192.85 344.315C189.174 345.282 192.435 348.957 196.787 349.759C206.121 351.481 213.284 351.098 222.568 348.854C227.957 347.238 233.166 345.075 238.109 342.397C238.808 342.006 239.35 341.388 239.653 340.648C239.953 339.908 239.995 339.083 239.765 338.319C239.538 337.552 239.054 336.885 238.397 336.428C237.741 335.972 236.949 335.749 236.146 335.803" fill="#F5A082"/>
<path d="M410.396 359.176H483.15C484.03 353.87 484.856 348.557 485.632 343.236C494.086 284.868 496.106 225.979 507.741 171.716C488.224 161.872 466.887 156.981 443.525 154.396C435.932 172.157 410.73 239.402 410.311 343.896C410.269 348.895 410.311 354.004 410.4 359.179" fill="#1B4545"/>
<path d="M410.396 359.176H483.15C484.03 353.87 484.856 348.557 485.632 343.236C494.086 284.868 496.106 225.979 507.741 171.716C488.224 161.872 466.887 156.981 443.525 154.396C435.932 172.157 410.73 239.402 410.311 343.896C410.269 348.891 410.311 354.001 410.4 359.176H410.396Z" stroke="black" stroke-width="0.847544" stroke-linecap="round" stroke-linejoin="round"/>
<path d="M318.546 172.133C318.546 172.133 323.654 295.624 334.294 359.182H370.277C369.306 319.259 374.318 205.573 384.386 153.309L368.81 155.956C346.478 159.393 328.252 165.281 318.549 172.133" fill="#1B4545"/>
<path d="M318.546 172.133C318.546 172.133 323.654 295.624 334.294 359.182H370.277C369.306 319.259 374.318 205.573 384.386 153.309L368.81 155.956C346.474 159.393 328.248 165.281 318.546 172.133Z" stroke="black" stroke-width="0.847544" stroke-linecap="round" stroke-linejoin="round"/>
<path d="M391.252 302.982L358.748 303.922L315.597 306.516L288.587 347.091C286.593 349.684 289.47 349.654 291.848 351.902L295.743 349.427L294.387 347.927L311.061 328.62L310.892 329.671C310.704 330.856 310.854 332.072 311.322 333.177C311.795 334.282 312.567 335.233 313.554 335.916L318.686 339.476C318.59 340.869 318.954 342.254 319.719 343.42C320.487 344.586 321.612 345.468 322.93 345.932L328.596 347.927L328.446 348.537C328.284 349.197 328.258 349.88 328.369 350.547C328.48 351.215 328.726 351.856 329.091 352.423C329.456 352.995 329.932 353.486 330.493 353.87C331.054 354.253 331.684 354.518 332.348 354.648C333.013 354.779 333.7 354.775 334.361 354.637C335.022 354.499 335.652 354.222 336.209 353.835C336.766 353.448 337.234 352.949 337.591 352.373C337.949 351.798 338.187 351.157 338.29 350.486L340.05 339.043L351.465 337.566C351.465 337.566 375.257 333.58 386.942 329.103C397.543 325.041 391.24 302.99 391.24 302.99L391.252 302.982Z" fill="#F2CAA0"/>
<path d="M391.252 302.982L358.748 303.922L315.601 306.516L307.366 317.234C305.372 319.827 287.066 348.234 289.443 350.482C289.443 350.482 289.708 353.394 295.113 347.927C300.517 342.461 311.065 328.616 311.065 328.616L310.896 329.667C310.708 330.852 310.857 332.068 311.326 333.173C311.795 334.278 312.571 335.23 313.558 335.912L318.689 339.472C318.593 340.865 318.958 342.25 319.723 343.416C320.491 344.582 321.62 345.464 322.934 345.929L328.599 347.923L328.45 348.533C328.288 349.193 328.265 349.876 328.373 350.544C328.484 351.211 328.73 351.852 329.095 352.423C329.46 352.995 329.936 353.486 330.497 353.87C331.058 354.249 331.688 354.514 332.352 354.648C333.017 354.779 333.704 354.775 334.365 354.637C335.026 354.499 335.655 354.222 336.212 353.835C336.769 353.448 337.238 352.949 337.595 352.373C337.952 351.798 338.191 351.157 338.294 350.486L340.05 339.043L351.465 337.566C351.465 337.566 375.257 333.58 386.942 329.103C397.543 325.041 391.24 302.99 391.24 302.99L391.252 302.982Z" stroke="black" stroke-width="0.847544" stroke-miterlimit="10"/>
<path d="M311.056 328.609L313.729 320.123" stroke="black" stroke-width="0.847544" stroke-linecap="round" stroke-linejoin="round"/>
<path d="M318.696 339.468L321.143 329.359" stroke="black" stroke-width="0.847544" stroke-linecap="round" stroke-linejoin="round"/>
<path d="M328.601 347.925L329.888 335.718" stroke="black" stroke-width="0.847544" stroke-linecap="round" stroke-linejoin="round"/>
<path d="M339.922 340.166L340.275 336.721" stroke="black" stroke-width="0.847544" stroke-linecap="round" stroke-linejoin="round"/>
<path d="M463.009 203.74C464.392 221.053 467.715 238.826 470.496 255.82C471.675 262.798 472.739 269.615 473.937 276.271C474.817 281.308 475.777 286.249 476.941 291.105C477.137 291.934 477.406 292.744 477.74 293.526C478.182 294.547 478.52 294.547 479.503 294.105C476.841 301.87 477.371 310.375 480.982 317.748C484.592 325.121 490.988 330.76 498.758 333.43C500.637 334.082 502.573 334.535 504.543 334.788C511.664 335.79 518.916 334.282 525.047 330.522C531.177 326.763 535.806 320.989 538.133 314.196C542.136 305.518 543.434 299.361 544.598 290.822C545.405 284.055 545.608 277.23 545.197 270.428C544.571 260.949 543.219 251.531 541.153 242.259C536.82 222.733 530.202 203.786 521.436 185.809C519.124 181.179 515.767 177.147 511.626 174.036C492.705 160.084 463.186 173.004 462.829 199.861C462.817 201.158 462.879 202.455 463.005 203.744" fill="#1B4545"/>
<path d="M463.009 203.74C464.392 221.053 467.715 238.826 470.496 255.82C471.675 262.798 472.739 269.615 473.937 276.271C474.817 281.308 475.777 286.249 476.941 291.105C477.137 291.934 477.406 292.744 477.74 293.526C478.182 294.547 478.52 294.547 479.503 294.105C476.841 301.87 477.371 310.375 480.982 317.748C484.592 325.121 490.988 330.76 498.758 333.43C500.637 334.082 502.573 334.535 504.543 334.788C511.664 335.79 518.916 334.282 525.047 330.522C531.177 326.763 535.806 320.989 538.133 314.196C542.136 305.518 543.434 299.361 544.598 290.822C545.405 284.055 545.608 277.23 545.197 270.428C544.571 260.949 543.219 251.531 541.153 242.259C536.82 222.733 530.202 203.786 521.436 185.809C519.124 181.179 515.767 177.147 511.626 174.036C492.705 160.084 463.186 173.004 462.829 199.861C462.817 201.158 462.879 202.455 463.005 203.744" stroke="black" stroke-width="0.847544"/>
<path d="M463.009 203.746C464.392 221.059 467.715 238.832 470.496 255.827C471.675 262.805 472.739 269.622 473.937 276.277C474.817 281.314 475.777 286.255 476.941 291.112C477.137 291.941 477.406 292.75 477.74 293.533C478.182 294.553 478.52 294.553 479.503 294.112C476.841 301.876 477.371 310.381 480.982 317.754C484.592 325.128 490.988 330.767 498.758 333.437C500.637 334.089 502.573 334.542 504.543 334.795C511.664 335.796 518.916 334.288 525.047 330.529C531.177 326.77 535.806 321 538.133 314.202C542.136 305.525 543.434 299.368 544.598 290.828C545.405 284.061 545.608 277.237 545.197 270.435C544.571 260.956 543.219 251.538 541.153 242.266C536.82 222.739 530.202 203.792 521.436 185.816C519.124 181.186 515.767 177.154 511.626 174.043C491.748 159.385 460.182 174.38 463.005 203.75L463.009 203.746Z" stroke="black" stroke-width="0.847544" stroke-linecap="round" stroke-linejoin="round"/>
<path d="M516.701 272.556C504.652 273.515 489.737 274.777 473.946 276.273C435.992 279.891 392.914 284.932 371.876 290.667C355.882 295.025 366.633 359.3 384.045 359.177C401.399 359.058 429.086 356.657 452.144 354.302C458.808 353.623 465.073 352.963 470.6 352.364C475.866 351.785 480.468 351.263 484.071 350.845C489.452 350.224 492.637 349.825 492.637 349.825C513.094 348.425 532.653 339.291 541.86 322.196C546.585 313.4 546.585 300.626 546.427 290.628L545.286 270.438H545.206" fill="#1B4545"/>
<path d="M516.701 272.556C504.652 273.515 489.737 274.777 473.946 276.273C435.992 279.891 392.914 284.932 371.876 290.667C355.882 295.025 366.633 359.3 384.045 359.177C401.399 359.058 429.086 356.657 452.144 354.302C458.808 353.623 465.073 352.963 470.6 352.364C475.866 351.785 480.468 351.263 484.071 350.845C489.452 350.224 492.637 349.825 492.637 349.825C513.094 348.425 532.653 339.291 541.86 322.196C546.585 313.4 546.585 300.626 546.427 290.628L545.286 270.438H545.206" stroke="black" stroke-width="0.847544" stroke-linecap="round" stroke-linejoin="round"/>
<path d="M444.689 154.954C444.64 155.215 444.567 155.472 444.474 155.721H444.497C444.582 155.472 444.647 155.215 444.689 154.954Z" fill="#2B1011"/>
<path d="M402.379 35.093C402.49 35.093 402.597 35.0584 402.682 34.9894C402.77 34.9242 402.832 34.8283 402.862 34.7208C402.889 34.6134 402.886 34.5022 402.839 34.3986C402.797 34.295 402.724 34.2106 402.628 34.1569C402.432 34.0495 383.3 23.3465 365.973 29.9678C365.85 30.0138 365.75 30.1097 365.692 30.2325C365.638 30.3552 365.635 30.4934 365.681 30.6161C365.731 30.7389 365.823 30.8386 365.946 30.8962C366.069 30.9499 366.207 30.9537 366.33 30.9077C383.211 24.4552 401.941 34.9203 402.129 35.0277C402.202 35.0699 402.286 35.0968 402.375 35.0968" fill="#8F5B31"/>
<path d="M194.86 344.279C194.887 344.279 194.91 344.279 194.937 344.275C195.282 344.225 203.456 342.982 209.114 340.286C218.129 335.985 221.924 336.894 221.959 336.902C222.016 336.929 222.082 336.94 222.147 336.944C222.212 336.944 222.277 336.933 222.335 336.906C222.393 336.883 222.45 336.844 222.493 336.798C222.539 336.752 222.573 336.699 222.596 336.637C222.646 336.515 222.646 336.373 222.596 336.25C222.546 336.127 222.446 336.027 222.324 335.974C222.293 335.954 218.333 334.777 208.68 339.384C203.16 342.016 194.867 343.278 194.783 343.293C194.656 343.312 194.545 343.374 194.464 343.473C194.383 343.573 194.345 343.696 194.357 343.826C194.368 343.953 194.422 344.072 194.518 344.156C194.61 344.241 194.733 344.291 194.86 344.287" fill="#542717"/>
<path d="M195.335 340.117C195.431 340.117 195.523 340.086 195.604 340.037L202.686 335.552C204.142 334.624 205.79 334.033 207.503 333.822C209.216 333.611 210.96 333.78 212.597 334.324C212.719 334.359 212.854 334.347 212.969 334.286C213.084 334.225 213.173 334.121 213.211 333.998C213.253 333.876 213.242 333.741 213.188 333.626C213.13 333.507 213.031 333.419 212.908 333.373C211.129 332.786 209.239 332.598 207.38 332.832C205.521 333.062 203.735 333.703 202.153 334.712L195.066 339.196C194.974 339.254 194.904 339.342 194.866 339.442C194.828 339.546 194.824 339.653 194.854 339.757C194.885 339.86 194.947 339.952 195.035 340.017C195.123 340.083 195.227 340.117 195.335 340.117Z" fill="#542717"/>
<path d="M176.18 345.926C176.299 345.926 176.414 345.883 176.507 345.807L200.156 325.973C200.206 325.931 200.248 325.881 200.279 325.824C200.31 325.766 200.329 325.701 200.333 325.636C200.337 325.571 200.333 325.505 200.31 325.44C200.287 325.375 200.26 325.321 200.218 325.268C200.175 325.214 200.126 325.176 200.068 325.145C200.01 325.114 199.945 325.095 199.88 325.091C199.814 325.087 199.749 325.091 199.684 325.114C199.622 325.133 199.565 325.164 199.511 325.206L175.861 345.039C175.784 345.105 175.727 345.197 175.7 345.293C175.673 345.392 175.677 345.496 175.715 345.592C175.75 345.688 175.815 345.772 175.9 345.83C175.984 345.887 176.084 345.918 176.188 345.918" fill="#542717"/>
<path d="M166.527 344.966C166.65 344.966 166.769 344.92 166.861 344.836L191.706 322.555C191.756 322.513 191.798 322.459 191.829 322.398C191.859 322.34 191.875 322.275 191.879 322.206C191.882 322.141 191.875 322.072 191.852 322.011C191.829 321.949 191.794 321.892 191.752 321.842C191.71 321.792 191.652 321.753 191.594 321.723C191.533 321.696 191.468 321.677 191.402 321.677C191.337 321.677 191.268 321.684 191.206 321.707C191.145 321.73 191.087 321.765 191.037 321.811L166.193 344.092C166.116 344.161 166.066 344.249 166.043 344.345C166.02 344.441 166.028 344.544 166.063 344.64C166.101 344.736 166.162 344.817 166.247 344.874C166.331 344.932 166.427 344.962 166.531 344.962" fill="#542717"/>
<path d="M158.321 343.812C158.448 343.812 158.571 343.766 158.663 343.678L184.506 319.609C184.602 319.517 184.66 319.394 184.663 319.26C184.667 319.126 184.621 318.999 184.529 318.9C184.437 318.804 184.314 318.746 184.179 318.739C184.045 318.735 183.918 318.781 183.818 318.873L157.972 342.941C157.899 343.01 157.849 343.098 157.826 343.198C157.803 343.294 157.81 343.398 157.849 343.494C157.887 343.586 157.948 343.666 158.033 343.724C158.117 343.781 158.214 343.812 158.313 343.812H158.321Z" fill="#542717"/>
<path d="M362.763 104.154C363.323 109.39 365.232 115.156 369.711 120.672C372.753 124.002 376.448 126.684 380.558 128.548C384.668 130.412 389.113 131.421 393.63 131.529L393.572 152.8C390.449 152.896 387.522 153.054 384.864 153.272C384.703 153.295 384.546 153.295 384.384 153.315C384.027 156.587 384.703 159.886 386.324 162.755C386.919 163.799 387.638 164.75 388.486 165.606C407.25 179.942 427.305 172.806 437.587 166.112C441.298 163.703 442.323 158.294 443.526 154.4C440.272 153.878 437.057 153.104 433.919 152.072L434.768 131.628C442.515 129.031 449.299 124.167 454.25 117.676C459.193 111.178 462.078 103.352 462.512 95.2076C463.58 75.7082 453.37 54.1603 442.738 42.9433C437.395 37.3079 432.171 34.3271 427.562 34.3271C426.894 34.3271 426.225 34.3924 425.565 34.5305C411.571 37.4613 389.816 44.6772 389.593 44.7616C389.332 44.8498 389.113 45.0301 388.974 45.268L370.495 77.3885L365.87 85.4253C365.82 85.5634 361.664 93.8228 362.77 104.157L362.763 104.154Z" stroke="black" stroke-width="0.847544" stroke-miterlimit="10"/>
<path d="M362.763 104.151C365.064 103.288 367.165 101.945 368.936 100.176C372.197 96.9195 374.033 92.4964 374.033 87.8853C374.033 84.0644 372.777 80.3855 370.484 77.3779L365.859 85.4148C365.809 85.5529 361.653 93.8122 362.759 104.147L362.763 104.151Z" fill="#EDA094"/>
<path d="M388.488 165.606C387.65 164.746 386.924 163.787 386.325 162.748C384.704 159.882 384.028 156.583 384.385 153.311C384.547 153.292 390.45 152.893 393.573 152.793L393.635 131.521C389.121 131.421 384.673 130.405 380.563 128.54C376.453 126.676 372.762 123.994 369.716 120.665C356.403 104.25 365.794 85.6171 365.871 85.4177L388.968 45.2527C389.106 45.0148 389.325 44.8345 389.59 44.754C389.809 44.6734 411.569 37.4575 425.562 34.519C426.222 34.3809 426.891 34.3157 427.563 34.3195C432.168 34.3195 437.392 37.2964 442.735 42.9356C453.364 54.1526 463.573 75.7006 462.513 95.1923C462.075 103.34 459.194 111.17 454.247 117.665C449.3 124.159 442.516 129.02 434.769 131.617L433.92 152.06C437.058 153.092 440.269 153.871 443.53 154.389C442.328 158.286 441.299 163.688 437.592 166.101C427.31 172.802 407.255 179.93 388.491 165.606H388.488Z" stroke="black" stroke-width="0.847544" stroke-linecap="round" stroke-linejoin="round"/>
<path d="M382.44 104.354C388.156 120.117 400.943 114.408 406.743 102.597L382.44 104.354Z" fill="white"/>
<path d="M382.44 104.354C388.156 120.117 400.943 114.408 406.743 102.597L382.44 104.354Z" stroke="black" stroke-width="0.847544" stroke-linecap="round" stroke-linejoin="round"/>
<path d="M405.581 78.231C405.597 78.7106 405.754 79.1709 406.034 79.5584C406.311 79.9458 406.699 80.245 407.148 80.4138C407.598 80.5826 408.086 80.6133 408.55 80.5059C409.015 80.3985 409.441 80.153 409.768 79.8039C410.094 79.4548 410.313 79.0175 410.39 78.5456C410.467 78.0737 410.406 77.5904 410.206 77.1531C410.01 76.7157 409.687 76.3513 409.28 76.0981C408.873 75.8449 408.401 75.7183 407.924 75.7337C407.605 75.7452 407.294 75.8181 407.006 75.9485C406.718 76.0789 406.457 76.2669 406.238 76.4971C406.019 76.7272 405.85 76.9996 405.739 77.2988C405.627 77.5942 405.573 77.9126 405.585 78.231H405.581Z" fill="black"/>
<path d="M379.401 74.5163C379.417 74.9958 379.574 75.4561 379.851 75.8474C380.131 76.2349 380.515 76.5341 380.965 76.7029C381.414 76.8717 381.902 76.9024 382.367 76.795C382.835 76.6875 383.258 76.442 383.584 76.0929C383.911 75.7438 384.13 75.3065 384.206 74.8347C384.283 74.3628 384.222 73.8794 384.022 73.4421C383.826 73.0048 383.503 72.6365 383.096 72.3872C382.689 72.134 382.217 72.0074 381.74 72.0227C381.422 72.0342 381.11 72.1071 380.822 72.2376C380.534 72.368 380.273 72.556 380.054 72.7861C379.835 73.0163 379.666 73.2887 379.555 73.5879C379.443 73.8833 379.39 74.2017 379.401 74.5201V74.5163Z" fill="black"/>
<path d="M391.678 76.8555L381.826 91.2297L392.519 93.5161" stroke="black" stroke-width="0.847544" stroke-linecap="round" stroke-linejoin="round"/>
<path d="M422.634 18.2875C422.634 18.2875 391.517 11.1445 364.971 39.5401C364.971 39.5401 352.618 59.73 364.33 69.7156L414.464 70.9164C419.626 65.8257 425.849 61.9281 432.682 59.4998C444.517 55.1726 458.951 20.5241 422.626 18.2875H422.63H422.634Z" fill="black"/>
<path d="M384.767 27.2976C384.767 27.2976 346.579 24.1289 346.609 61.3285L358.06 63.9717C358.06 63.9717 351.338 46.141 384.771 27.3014L384.767 27.2976Z" fill="black"/>
<path d="M121.948 374.011H683.264C683.579 374.011 683.891 373.942 684.183 373.8C684.475 373.662 684.74 373.459 684.961 373.206C685.183 372.952 685.36 372.649 685.481 372.316C685.602 371.982 685.662 371.625 685.662 371.264V358.808C685.662 358.448 685.602 358.091 685.481 357.757C685.36 357.423 685.183 357.12 684.961 356.867C684.736 356.61 684.475 356.411 684.183 356.273C683.891 356.134 683.579 356.065 683.264 356.065H121.951C121.636 356.065 121.324 356.134 121.032 356.273C120.74 356.411 120.475 356.614 120.254 356.867C120.033 357.12 119.855 357.423 119.734 357.757C119.613 358.091 119.55 358.448 119.55 358.808V371.264C119.55 371.625 119.61 371.982 119.734 372.316C119.855 372.649 120.033 372.952 120.254 373.206C120.475 373.463 120.74 373.662 121.032 373.8C121.324 373.938 121.636 374.011 121.951 374.011" fill="#808080"/>
<path d="M121.948 374.011H683.264C683.579 374.011 683.891 373.942 684.183 373.8C684.475 373.662 684.74 373.459 684.961 373.206C685.183 372.952 685.36 372.649 685.481 372.316C685.602 371.982 685.662 371.625 685.662 371.264V358.808C685.662 358.448 685.602 358.091 685.481 357.757C685.36 357.423 685.183 357.12 684.961 356.867C684.736 356.61 684.475 356.411 684.183 356.273C683.891 356.134 683.579 356.065 683.264 356.065H121.951C121.636 356.065 121.324 356.134 121.032 356.273C120.74 356.411 120.475 356.614 120.254 356.867C120.033 357.12 119.855 357.423 119.734 357.757C119.613 358.091 119.55 358.448 119.55 358.808V371.264C119.55 371.625 119.61 371.982 119.734 372.316C119.855 372.649 120.033 372.952 120.254 373.206C120.475 373.463 120.74 373.662 121.032 373.8C121.324 373.938 121.636 374.011 121.951 374.011" stroke="black" stroke-width="0.847544"/>
<path d="M468.46 334.728H587.254C590.131 334.728 592.893 335.871 594.929 337.904C596.964 339.937 598.109 342.695 598.109 345.569C598.109 348.442 596.964 351.2 594.929 353.233C592.893 355.267 590.135 356.41 587.254 356.41H468.46V334.731V334.728Z" fill="black"/>
<path d="M469.296 336.814H525.361C527.685 336.814 529.913 337.735 531.553 339.377C533.197 341.019 534.119 343.244 534.119 345.561C534.119 347.878 533.197 350.107 531.553 351.745C529.909 353.387 527.681 354.308 525.361 354.308H469.296V336.814Z" fill="white" stroke="black" stroke-width="0.847544" stroke-linecap="round" stroke-linejoin="round"/>
<path d="M450.223 313.064H569.013C571.89 313.064 574.652 314.208 576.687 316.241C578.723 318.274 579.868 321.028 579.868 323.906C579.868 326.783 578.723 329.537 576.687 331.57C574.652 333.603 571.89 334.747 569.013 334.747H450.223V313.068V313.064Z" fill="#79B9D9" stroke="black" stroke-width="0.847544" stroke-linecap="round" stroke-linejoin="round"/>
<path d="M450.226 315.155H506.291C508.614 315.155 510.842 316.076 512.482 317.718C514.126 319.36 515.048 321.585 515.048 323.902C515.048 326.219 514.126 328.448 512.482 330.086C510.838 331.724 508.611 332.648 506.291 332.648H450.226V315.155Z" fill="white" stroke="black" stroke-width="0.847544" stroke-linecap="round" stroke-linejoin="round"/>
<path d="M477.93 291.405H596.719C599.596 291.405 602.358 292.548 604.394 294.582C606.43 296.615 607.574 299.373 607.574 302.246C607.574 305.12 606.43 307.878 604.394 309.911C602.358 311.944 599.6 313.087 596.719 313.087H477.93V291.409V291.405Z" fill="#2962F5" stroke="black" stroke-width="0.847544"/>
<path d="M477.929 293.498H533.993C536.317 293.498 538.545 294.419 540.185 296.061C541.829 297.703 542.751 299.928 542.751 302.245C542.751 304.562 541.829 306.79 540.185 308.429C538.541 310.07 536.313 310.991 533.993 310.991H477.929V293.498Z" fill="white" stroke="black" stroke-width="0.847544"/>
<path d="M374.266 352.354H285.724V357.494H379.413C379.413 356.132 378.871 354.824 377.903 353.861C376.939 352.898 375.629 352.354 374.266 352.354Z" fill="black"/>
<path d="M121.263 259.642H248.511C250.324 259.642 252.103 260.148 253.643 261.107C255.183 262.062 256.424 263.432 257.227 265.058L302.847 357.495H160.477L116.197 267.782C115.771 266.923 115.575 265.967 115.621 265.008C115.667 264.049 115.959 263.121 116.466 262.304C116.973 261.491 117.68 260.819 118.521 260.351C119.358 259.887 120.303 259.642 121.263 259.642Z" fill="black"/>
<path d="M660.24 271.596L663.532 273.31L635.707 326.657L632.415 324.942L660.24 271.596Z" fill="#D1BEA3"/>
<path d="M660.428 271.441L663.719 273.156L635.894 326.502L632.603 324.791L660.428 271.445V271.441Z" stroke="black" stroke-width="0.847544" stroke-miterlimit="10"/>
<path d="M622.848 302.204H660.183L658.459 295.736H624.573L622.848 302.204Z" fill="#87B8C4" stroke="black" stroke-width="0.847544"/>
<path d="M622.66 301.284L623.589 315.451L625.322 341.875L626.251 356.061H656.408L657.337 341.875L659.069 315.451L659.999 301.284H622.66Z" fill="white" stroke="black" stroke-width="0.847544"/>
<path d="M619.417 305.489H663.839L661.788 299.941H621.472L619.421 305.489H619.417Z" fill="#A1D4E0"/>
<path d="M619.222 305.641H663.645L661.593 300.094H621.277L619.226 305.641H619.222Z" stroke="black" stroke-width="0.847544" stroke-miterlimit="10"/>
<path d="M623.792 315.731L625.525 342.155H657.536L659.269 315.731H623.789H623.792Z" fill="#2962F5"/>
<path d="M623.774 315.293L625.507 341.717H657.219L658.951 315.293H623.774Z" stroke="black" stroke-width="0.847544" stroke-miterlimit="10"/>
<path d="M386.544 48.0778C377.475 28.7741 432.894 30.7612 432.894 30.7612C432.894 30.7612 493.964 18.9764 486.47 76.857C486.47 76.857 484.538 106.66 460.193 116.98C459.866 127.813 439.651 138.785 434.189 131.07C428.727 123.356 447.233 100.975 438.94 84.6598C433.962 85.2314 431.342 83.4092 430.117 80.5704C427.229 73.8839 427.075 61.5544 427.075 61.5544C427.075 61.5544 395.57 56.2259 386.563 48.0778H386.548H386.544Z" fill="black"/>
<path d="M434.922 111.538L425.381 86.81L443.292 79.924C446.576 78.6619 450.225 78.7501 453.444 80.1772C456.659 81.6043 459.179 84.2436 460.443 87.5235C461.706 90.8035 461.618 94.4478 460.189 97.6626C458.76 100.873 456.117 103.39 452.833 104.652L434.922 111.542V111.538Z" fill="#F2CAA0"/>
<path d="M423.511 115.092C419.259 115.092 415.176 113.404 412.173 110.4C409.165 107.396 407.475 103.322 407.475 99.0718C407.475 94.8213 409.165 90.7511 412.173 87.7473C415.18 84.7436 419.259 83.0557 423.515 83.0557C427.771 83.0557 431.85 84.7436 434.858 87.7473C437.866 90.7511 439.556 94.8251 439.556 99.0718C439.556 103.318 437.866 107.396 434.858 110.4C431.85 113.404 427.771 115.092 423.519 115.092" fill="#EDA094"/>
<path d="M205.992 287.96H121.802V305.553H205.992V287.96Z" fill="#FCF4A6" stroke="black" stroke-width="0.587677"/>
<path d="M136.111 287.962H131.201V305.555H136.111V287.962Z" fill="#FFD861" stroke="black" stroke-width="0.587677"/>
<path d="M151.836 287.962H146.927V305.555H151.836V287.962Z" fill="#FFD861" stroke="black" stroke-width="0.587677"/>
<path d="M167.574 287.962H162.665V305.555H167.574V287.962Z" fill="#FFD861" stroke="black" stroke-width="0.587677"/>
<path d="M183.3 287.962H178.391V305.555H183.3V287.962Z" fill="#FFD861" stroke="black" stroke-width="0.587677"/>
<path d="M199.026 287.962H194.116V305.555H199.026V287.962Z" fill="#FFD861" stroke="black" stroke-width="0.587677"/>
<path d="M211.398 305.55H127.208V323.143H211.398V305.55Z" fill="#FCF4A6" stroke="black" stroke-width="0.587677"/>
<path d="M141.528 305.55H136.618V323.143H141.528V305.55Z" fill="#FFD861" stroke="black" stroke-width="0.587677"/>
<path d="M157.254 305.55H152.345V323.143H157.254V305.55Z" fill="#FFD861" stroke="black" stroke-width="0.587677"/>
<path d="M172.98 305.55H168.071V323.143H172.98V305.55Z" fill="#FFD861" stroke="black" stroke-width="0.587677"/>
<path d="M188.706 305.55H183.797V323.143H188.706V305.55Z" fill="#FFD861" stroke="black" stroke-width="0.587677"/>
<path d="M204.432 305.55H199.522V323.143H204.432V305.55Z" fill="#FFD861" stroke="black" stroke-width="0.587677"/>
<path d="M207.211 323.137H123.02V340.73H207.211V323.137Z" fill="#FCF4A6" stroke="black" stroke-width="0.587677"/>
<path d="M137.331 323.137H132.422V340.73H137.331V323.137Z" fill="#FFD861" stroke="black" stroke-width="0.587677"/>
<path d="M153.057 323.137H148.148V340.73H153.057V323.137Z" fill="#FFD861" stroke="black" stroke-width="0.587677"/>
<path d="M168.795 323.137H163.886V340.73H168.795V323.137Z" fill="#FFD861" stroke="black" stroke-width="0.587677"/>
<path d="M184.521 323.137H179.612V340.73H184.521V323.137Z" fill="#FFD861" stroke="black" stroke-width="0.587677"/>
<path d="M200.247 323.137H195.337V340.73H200.247V323.137Z" fill="#FFD861" stroke="black" stroke-width="0.587677"/>
<path d="M213.609 340.729H129.419V358.321H213.609V340.729Z" fill="#FCF4A6" stroke="black" stroke-width="0.587677"/>
<path d="M143.731 340.729H138.821V358.321H143.731V340.729Z" fill="#FFD861" stroke="black" stroke-width="0.587677"/>
<path d="M159.457 340.729H154.547V358.321H159.457V340.729Z" fill="#FFD861" stroke="black" stroke-width="0.587677"/>
<path d="M175.183 340.729H170.273V358.321H175.183V340.729Z" fill="#FFD861" stroke="black" stroke-width="0.587677"/>
<path d="M190.908 340.729H185.999V358.321H190.908V340.729Z" fill="#FFD861" stroke="black" stroke-width="0.587677"/>
<path d="M206.64 340.729H201.731V358.321H206.64V340.729Z" fill="#FFD861" stroke="black" stroke-width="0.587677"/>
<path d="M203.23 358.143H119.04V375.735H203.23V358.143Z" fill="#FCF4A6" stroke="black" stroke-width="0.587677"/>
<path d="M133.354 358.145H128.444V375.737H133.354V358.145Z" fill="#FFD861" stroke="black" stroke-width="0.587677"/>
<path d="M149.092 358.145H144.182V375.737H149.092V358.145Z" fill="#FFD861" stroke="black" stroke-width="0.587677"/>
<path d="M164.812 358.145H159.902V375.737H164.812V358.145Z" fill="#FFD861" stroke="black" stroke-width="0.587677"/>
<path d="M180.538 358.145H175.628V375.737H180.538V358.145Z" fill="#FFD861" stroke="black" stroke-width="0.587677"/>
<path d="M196.263 358.145H191.354V375.737H196.263V358.145Z" fill="#FFD861" stroke="black" stroke-width="0.587677"/>
<path d="M199.115 270.366H114.925V287.959H199.115V270.366Z" fill="#FCF4A6" stroke="black" stroke-width="0.587677"/>
<path d="M129.234 270.364H124.325V287.957H129.234V270.364Z" fill="#FFD861" stroke="black" stroke-width="0.587677"/>
<path d="M144.972 270.364H140.062V287.957H144.972V270.364Z" fill="#FFD861" stroke="black" stroke-width="0.587677"/>
<path d="M160.698 270.364H155.788V287.957H160.698V270.364Z" fill="#FFD861" stroke="black" stroke-width="0.587677"/>
<path d="M176.418 270.364H171.508V287.957H176.418V270.364Z" fill="#FFD861" stroke="black" stroke-width="0.587677"/>
<path d="M192.144 270.364H187.234V287.957H192.144V270.364Z" fill="#FFD861" stroke="black" stroke-width="0.587677"/>
<path d="M121.805 287.958H199.117" stroke="black" stroke-width="0.587677" stroke-miterlimit="10"/>
<path d="M129.802 270.61H175.123" stroke="black" stroke-width="0.587677" stroke-miterlimit="10"/>
<path d="M127.211 305.55H205.993" stroke="black" stroke-width="0.587677" stroke-miterlimit="10"/>
<path d="M207.211 323.137H127.211" stroke="black" stroke-width="0.587677" stroke-miterlimit="10"/>
<path d="M207.212 340.729H129.418" stroke="black" stroke-width="0.587677" stroke-miterlimit="10"/>
<path d="M129.418 358.312H203.226" stroke="black" stroke-width="0.587677" stroke-miterlimit="10"/>
<path d="M74.4905 223.475L12.0544 270.552C34.8461 310.149 65.3739 345.4 101.473 373.807L163.909 326.729C127.81 298.322 97.274 263.071 74.4905 223.475Z" fill="#C2FCA5" stroke="black" stroke-width="0.587677"/>
<path d="M145.658 311.122C137.35 303.379 129.247 295.44 121.364 287.313" stroke="black" stroke-width="0.587677"/>
<path d="M98.2216 364.275C68.3065 339.519 41.8142 309.013 21.6122 276.049L20.3051 273.917C19.6189 272.798 19.8967 271.353 20.9505 270.56L70.5693 233.145C71.7947 232.222 73.5592 232.549 74.3598 233.839L75.9936 236.469C95.7709 268.265 121.389 297.954 150.079 322.335L152.709 324.564C153.959 325.626 153.902 327.546 152.595 328.534L103.213 365.77C102.249 366.497 100.893 366.472 99.9616 365.696L98.2297 364.267L98.2216 364.275Z" stroke="black" stroke-width="0.587677"/>
<path d="M101.706 360.19C72.093 335.688 46.238 305.917 26.2483 273.296L71.3741 239.27C91.5762 271.744 117.252 301.498 146.538 326.385L101.706 360.19Z" fill="#2E7C7E" stroke="black" stroke-width="0.587677"/>
<path d="M93.6145 315.535C103.963 308.79 107.462 295.823 101.431 286.573C95.3994 277.322 82.121 275.291 71.7728 282.036C61.4246 288.78 57.9251 301.747 63.9565 310.998C69.988 320.248 83.2663 322.279 93.6145 315.535Z" fill="#C2FCA5" stroke="black" stroke-width="0.587677"/>
<path d="M91.6338 312.504C100.104 306.983 102.967 296.369 98.0297 288.797C93.0922 281.224 82.2234 279.56 73.7535 285.081C65.2837 290.601 62.4202 301.215 67.3577 308.788C72.2952 316.361 83.1639 318.024 91.6338 312.504Z" stroke="black" stroke-width="0.587677"/>
<path d="M64.668 277.004C59.8238 280.565 53.264 279.977 50.0127 275.689C46.7614 271.401 48.0521 265.031 52.9045 261.47C57.7488 257.909 64.3085 258.497 67.5598 262.785C70.8111 267.073 69.5204 273.443 64.668 277.004Z" fill="#C2FCA5" stroke="black" stroke-width="0.587677"/>
<path d="M62.9739 274.758C59.5265 277.29 54.8702 276.874 52.5583 273.819C50.2465 270.772 51.1696 266.248 54.6088 263.716C58.0561 261.184 62.7206 261.6 65.0243 264.655C67.3362 267.701 66.413 272.226 62.9739 274.758Z" fill="#3C7878" stroke="black" stroke-width="0.587677"/>
<path d="M115.269 337.665C110.425 341.227 103.865 340.638 100.614 336.351C97.3628 332.063 98.6535 325.692 103.506 322.131C108.35 318.57 114.91 319.158 118.161 323.446C121.412 327.734 120.122 334.104 115.269 337.665Z" fill="#C2FCA5" stroke="black" stroke-width="0.587677"/>
<path d="M113.572 335.411C110.124 337.943 105.46 337.526 103.156 334.471C100.852 331.417 101.767 326.9 105.207 324.368C108.646 321.836 113.31 322.253 115.622 325.307C117.934 328.354 117.011 332.879 113.572 335.411Z" fill="#3C7878" stroke="black" stroke-width="0.587677"/>
<path d="M73.361 304.889C72.2746 303.452 71.4086 301.933 70.7796 300.332C70.1424 298.731 69.8238 297.31 69.8075 296.068L73.9084 295.26C73.9492 296.403 74.2025 297.628 74.6681 298.943C75.1337 300.258 75.7791 301.451 76.596 302.529C77.2168 303.354 77.805 303.958 78.3523 304.342C78.8997 304.726 79.398 304.938 79.8554 304.979C80.3129 305.02 80.7214 304.906 81.0808 304.636C81.5464 304.293 81.767 303.836 81.7588 303.256C81.7425 302.676 81.5873 302.014 81.2932 301.263C80.9991 300.512 80.6397 299.703 80.2394 298.854C79.8391 298.004 79.4715 297.122 79.1284 296.207C78.7853 295.301 78.5647 294.394 78.4667 293.496C78.3605 292.597 78.4749 291.74 78.8016 290.931C79.1284 290.114 79.7411 289.379 80.656 288.709C81.6445 287.982 82.7636 287.59 83.9971 287.533C85.2307 287.476 86.5132 287.835 87.8529 288.595C89.1927 289.355 90.4997 290.588 91.7904 292.287C92.6482 293.422 93.3589 294.631 93.9307 295.93C94.5025 297.228 94.8538 298.47 94.9764 299.662L90.9572 300.577C90.7938 299.442 90.4997 298.363 90.0749 297.342C89.6501 296.322 89.1355 295.415 88.5391 294.631C87.9183 293.806 87.3301 293.21 86.7828 292.842C86.2355 292.475 85.7208 292.279 85.247 292.27C84.7732 292.262 84.3566 292.385 83.989 292.654C83.5234 292.997 83.2946 293.463 83.3028 294.043C83.3028 294.623 83.4662 295.284 83.7766 296.019C84.087 296.746 84.4464 297.555 84.8631 298.421C85.2797 299.286 85.6473 300.177 85.9741 301.083C86.3008 301.99 86.5214 302.88 86.6276 303.762C86.7419 304.644 86.6357 305.494 86.3253 306.327C86.0149 307.16 85.4104 307.903 84.52 308.557C83.5397 309.275 82.4369 309.651 81.2033 309.692C79.9698 309.733 78.6791 309.373 77.323 308.606C75.967 307.838 74.6518 306.605 73.3692 304.914L73.361 304.889ZM69.9627 305.91L93.2854 288.758L95.2541 291.356L71.9315 308.508L69.9627 305.91Z" fill="#3C7878"/>
<path d="M126.271 360.403H45.6735V377.988H126.271V360.403Z" fill="#FFD861" stroke="black" stroke-width="0.587677"/>
<path d="M59.3831 360.401H54.683V377.986H59.3831V360.401Z" fill="#FCF4A6" stroke="black" stroke-width="0.587677"/>
<path d="M74.4344 360.401H69.7343V377.986H74.4344V360.401Z" fill="#FCF4A6" stroke="black" stroke-width="0.587677"/>
<path d="M89.4914 360.401H84.7913V377.986H89.4914V360.401Z" fill="#FCF4A6" stroke="black" stroke-width="0.587677"/>
<path d="M104.554 360.401H99.8543V377.986H104.554V360.401Z" fill="#FCF4A6" stroke="black" stroke-width="0.587677"/>
<path d="M119.605 360.401H114.905V377.986H119.605V360.401Z" fill="#FCF4A6" stroke="black" stroke-width="0.587677"/>
<path d="M136.47 307.804H55.8724V325.389H136.47V307.804Z" fill="#FFD861" stroke="black" stroke-width="0.587677"/>
<path d="M69.5724 307.804H64.8723V325.389H69.5724V307.804Z" fill="#FCF4A6" stroke="black" stroke-width="0.587677"/>
<path d="M84.6294 307.804H79.9293V325.389H84.6294V307.804Z" fill="#FCF4A6" stroke="black" stroke-width="0.587677"/>
<path d="M99.6802 307.804H94.9801V325.389H99.6802V307.804Z" fill="#FCF4A6" stroke="black" stroke-width="0.587677"/>
<path d="M114.749 307.804H110.049V325.389H114.749V307.804Z" fill="#FCF4A6" stroke="black" stroke-width="0.587677"/>
<path d="M129.8 307.804H125.1V325.389H129.8V307.804Z" fill="#FCF4A6" stroke="black" stroke-width="0.587677"/>
<path d="M124.428 325.382H43.8305V342.967H124.428V325.382Z" fill="#F7D151" stroke="black" stroke-width="0.587677"/>
<path d="M57.5399 325.382H52.8398V342.967H57.5399V325.382Z" fill="#FCF4A6" stroke="black" stroke-width="0.587677"/>
<path d="M72.5973 325.382H67.8972V342.967H72.5973V325.382Z" fill="#FCF4A6" stroke="black" stroke-width="0.587677"/>
<path d="M87.6481 325.382H82.948V342.967H87.6481V325.382Z" fill="#FCF4A6" stroke="black" stroke-width="0.587677"/>
<path d="M102.711 325.382H98.011V342.967H102.711V325.382Z" fill="#FCF4A6" stroke="black" stroke-width="0.587677"/>
<path d="M117.768 325.382H113.068V342.967H117.768V325.382Z" fill="#FCF4A6" stroke="black" stroke-width="0.587677"/>
<path d="M119.685 342.817H39.0875V360.402H119.685V342.817Z" fill="#FFD861" stroke="black" stroke-width="0.587677"/>
<path d="M52.7855 342.817H48.0854V360.402H52.7855V342.817Z" fill="#FCF4A6" stroke="black" stroke-width="0.587677"/>
<path d="M67.8421 342.817H63.142V360.402H67.8421V342.817Z" fill="#FCF4A6" stroke="black" stroke-width="0.587677"/>
<path d="M82.9051 342.817H78.205V360.402H82.9051V342.817Z" fill="#FCF4A6" stroke="black" stroke-width="0.587677"/>
<path d="M97.9621 342.817H93.262V360.402H97.9621V342.817Z" fill="#FCF4A6" stroke="black" stroke-width="0.587677"/>
<path d="M113.013 342.817H108.313V360.402H113.013V342.817Z" fill="#FCF4A6" stroke="black" stroke-width="0.587677"/>
<path d="M45.6714 360.403H119.685" stroke="black" stroke-width="0.587677" stroke-miterlimit="10"/>
<path d="M55.1885 325.382H124.431" stroke="black" stroke-width="0.587677" stroke-miterlimit="10"/>
<path d="M680.632 278.59H620.167V352.786H680.632V278.59Z" fill="#FFD861" stroke="black" stroke-width="0.587677"/>
<path d="M675.65 267.23H615.186V278.592H675.65V267.23Z" fill="#F7D151" stroke="black" stroke-width="0.587677"/>
<path d="M682.032 256.093H621.567V267.454H682.032V256.093Z" fill="#FFD861" stroke="black" stroke-width="0.587677"/>
<path d="M675.639 267.23H621.567" stroke="black" stroke-width="0.587677" stroke-miterlimit="10"/>
<path d="M620.167 278.59H675.647" stroke="black" stroke-width="0.587677" stroke-miterlimit="10"/>
<path d="M620.167 301.221H680.447" stroke="black" stroke-width="0.587677" stroke-miterlimit="10"/>
<path d="M680.625 289.418H671.359" stroke="black" stroke-width="0.587677" stroke-miterlimit="10"/>
<path d="M665.375 289.418H625.906" stroke="black" stroke-width="0.587677" stroke-miterlimit="10"/>
<path d="M699.261 270.095L737.623 304.587C718.843 327.866 695.177 347.813 668.308 363.004L629.946 328.512C656.815 313.316 680.476 293.374 699.261 270.095Z" fill="#C2FCA5" stroke="black" stroke-width="0.587677"/>
<path d="M652.719 313.941C670.27 301.324 685.974 286.541 699.244 270.095" stroke="black" stroke-width="0.587677"/>
<path d="M716.662 327.282C702.244 340.974 685.968 353.014 668.308 363.003L629.946 328.511" stroke="black" stroke-width="0.587677"/>
<path d="M722.72 321.318C727.97 315.963 732.943 310.375 737.617 304.586L726.36 294.464" stroke="black" stroke-width="0.587677"/>
<path d="M671.316 357.237C693.679 343.879 714.207 326.622 730.684 307.342L731.752 306.098C732.311 305.446 732.242 304.509 731.596 303.931L701.11 276.521C700.36 275.843 699.137 275.917 698.479 276.669L697.146 278.205C681.061 296.786 661.191 313.593 639.693 326.808L637.726 328.021C636.791 328.598 636.67 329.816 637.472 330.537L667.814 357.82C668.408 358.355 669.326 358.44 670.024 358.021L671.316 357.248V357.237Z" stroke="black" stroke-width="0.587677"/>
<path d="M669.297 354.384C691.435 341.163 711.467 324.32 727.771 305.241L700.043 280.31C683.611 299.282 663.701 316.126 641.754 329.616L669.297 354.384Z" fill="#2E7C7E" stroke="black" stroke-width="0.587677"/>
<path d="M698.442 326.74C703.707 321.685 703.006 313.226 696.877 307.847C690.748 302.468 681.511 302.206 676.247 307.262C670.982 312.317 671.683 320.777 677.812 326.155C683.941 331.534 693.178 331.796 698.442 326.74Z" fill="#C2FCA5" stroke="black" stroke-width="0.587677"/>
<path d="M696.425 324.976C700.734 320.838 700.16 313.914 695.144 309.512C690.127 305.109 682.567 304.895 678.258 309.033C673.949 313.171 674.523 320.094 679.54 324.497C684.556 328.9 692.116 329.114 696.425 324.976Z" stroke="black" stroke-width="0.587677"/>
<path d="M711.444 304.942C714.009 302.479 713.669 298.359 710.684 295.739C707.699 293.119 703.2 292.993 700.635 295.456C698.07 297.919 698.411 302.04 701.396 304.659C704.381 307.279 708.879 307.405 711.444 304.942Z" fill="#C2FCA5" stroke="black" stroke-width="0.587677"/>
<path d="M702.746 303.368C704.869 305.232 708.065 305.322 709.888 303.57C711.712 301.822 711.469 298.894 709.346 297.029C707.223 295.165 704.027 295.075 702.204 296.828C700.38 298.576 700.623 301.504 702.746 303.368Z" fill="#3C7878" stroke="black" stroke-width="0.587677"/>
<path d="M662.002 339.12C664.985 341.742 669.485 341.869 672.047 339.406C674.608 336.943 674.268 332.822 671.285 330.205C668.302 327.589 663.802 327.456 661.24 329.919C658.679 332.382 659.019 336.503 662.002 339.12Z" fill="#C2FCA5" stroke="black" stroke-width="0.587677"/>
<path d="M663.338 337.834C665.461 339.698 668.657 339.788 670.481 338.035C672.304 336.283 672.061 333.359 669.938 331.495C667.815 329.631 664.619 329.541 662.796 331.294C660.972 333.042 661.215 335.97 663.338 337.834Z" fill="#3C7878" stroke="black" stroke-width="0.587677"/>
<path d="M690.17 323.64C689.189 324.022 688.283 324.154 687.447 324.032C686.616 323.916 685.895 323.593 685.295 323.063C684.747 322.581 684.4 322.067 684.256 321.516C684.112 320.971 684.118 320.42 684.268 319.874C684.418 319.329 684.643 318.783 684.937 318.232C685.237 317.682 685.56 317.152 685.912 316.633C686.27 316.114 686.581 315.637 686.852 315.197C687.124 314.758 687.285 314.355 687.337 313.984C687.389 313.619 687.274 313.306 686.985 313.058C686.76 312.862 686.489 312.75 686.166 312.719C685.843 312.692 685.479 312.772 685.075 312.962C684.672 313.153 684.221 313.487 683.731 313.958C683.264 314.408 682.837 314.943 682.462 315.552C682.087 316.167 681.798 316.823 681.591 317.528L678.942 316.643C679.127 315.902 679.467 315.144 679.964 314.366C680.46 313.587 681.048 312.877 681.723 312.226C682.739 311.251 683.731 310.573 684.7 310.197C685.67 309.816 686.575 309.689 687.406 309.821C688.237 309.948 688.964 310.282 689.57 310.817C690.129 311.31 690.487 311.823 690.637 312.364C690.787 312.904 690.793 313.45 690.649 314.011C690.504 314.572 690.279 315.129 689.968 315.674C689.656 316.225 689.333 316.749 688.993 317.258C688.652 317.766 688.347 318.248 688.076 318.699C687.81 319.149 687.649 319.562 687.591 319.922C687.533 320.288 687.649 320.595 687.931 320.844C688.156 321.04 688.422 321.146 688.733 321.156C689.045 321.167 689.402 321.071 689.806 320.87C690.21 320.669 690.66 320.335 691.151 319.858C691.797 319.239 692.333 318.534 692.755 317.74C693.182 316.945 693.458 316.193 693.58 315.473L696.291 316.299C696.176 317.083 695.835 317.957 695.276 318.921C694.716 319.885 694.001 320.78 693.141 321.606C692.126 322.581 691.128 323.259 690.147 323.64H690.17ZM693.833 324.006L679.462 311.394L681.014 309.906L695.386 322.517L693.833 324.006Z" fill="#3C7878" stroke="black" stroke-width="0.587677"/>
<path d="M626.692 266.644L582.596 297.174C598.693 322.852 620.253 345.713 645.749 364.134L689.845 333.604C664.35 315.182 642.783 292.322 626.692 266.644Z" fill="#C2FCA5" stroke="black" stroke-width="0.587677"/>
<path d="M643.438 357.951C622.31 341.897 603.6 322.114 589.331 300.736L588.408 299.354C587.924 298.628 588.12 297.691 588.864 297.177L623.908 272.913C624.774 272.314 626.02 272.526 626.585 273.363L627.739 275.069C641.707 295.689 659.8 314.942 680.063 330.753L681.921 332.199C682.803 332.887 682.763 334.132 681.84 334.773L646.963 358.92C646.282 359.392 645.325 359.376 644.667 358.873L643.444 357.946L643.438 357.951Z" stroke="black" stroke-width="0.587677"/>
<path d="M645.905 355.301C624.991 339.411 606.73 320.105 592.612 298.95L624.483 276.884C638.751 297.943 656.885 317.239 677.568 333.378L645.905 355.301Z" fill="#2E7C7E" stroke="black" stroke-width="0.587677"/>
<path d="M640.203 326.358C647.511 321.984 649.983 313.575 645.723 307.576C641.463 301.577 632.085 300.26 624.777 304.634C617.468 309.008 614.996 317.417 619.256 323.416C623.516 329.415 632.894 330.732 640.203 326.358Z" fill="#C2FCA5" stroke="black" stroke-width="0.587677"/>
<path d="M638.806 324.393C644.788 320.813 646.81 313.929 643.323 309.019C639.836 304.108 632.16 303.029 626.178 306.609C620.196 310.189 618.173 317.072 621.66 321.983C625.148 326.894 632.824 327.973 638.806 324.393Z" stroke="black" stroke-width="0.587677"/>
<path d="M619.755 301.354C616.334 303.664 611.701 303.282 609.405 300.501C607.108 297.721 608.02 293.589 611.447 291.28C614.868 288.971 619.501 289.352 621.798 292.133C624.094 294.913 623.182 299.045 619.755 301.354Z" fill="#C2FCA5" stroke="black" stroke-width="0.587677"/>
<path d="M618.56 299.897C616.125 301.538 612.836 301.268 611.203 299.288C609.571 297.312 610.223 294.379 612.652 292.737C615.086 291.095 618.381 291.365 620.008 293.346C621.64 295.321 620.988 298.255 618.56 299.897Z" fill="#3C7878" stroke="black" stroke-width="0.587677"/>
<path d="M655.498 340.697C652.076 343.006 647.444 342.625 645.147 339.844C642.851 337.063 643.763 332.932 647.19 330.623C650.611 328.313 655.244 328.695 657.54 331.475C659.836 334.256 658.925 338.388 655.498 340.697Z" fill="#C2FCA5" stroke="black" stroke-width="0.587677"/>
<path d="M654.284 339.236C651.85 340.878 648.555 340.608 646.928 338.627C645.301 336.647 645.947 333.718 648.376 332.077C650.805 330.435 654.1 330.705 655.733 332.686C657.365 334.661 656.713 337.595 654.284 339.236Z" fill="#3C7878" stroke="black" stroke-width="0.587677"/>
<path d="M625.891 319.44C625.123 318.508 624.512 317.523 624.068 316.484C623.618 315.446 623.393 314.525 623.381 313.72L626.277 313.195C626.306 313.937 626.485 314.731 626.814 315.584C627.143 316.437 627.598 317.21 628.175 317.909C628.614 318.444 629.029 318.836 629.416 319.085C629.802 319.334 630.154 319.472 630.477 319.498C630.801 319.525 631.089 319.451 631.343 319.276C631.672 319.053 631.828 318.757 631.822 318.381C631.81 318.005 631.701 317.576 631.493 317.088C631.285 316.601 631.031 316.077 630.749 315.526C630.466 314.975 630.206 314.403 629.964 313.81C629.722 313.222 629.566 312.634 629.497 312.051C629.422 311.468 629.502 310.912 629.733 310.388C629.964 309.858 630.397 309.382 631.043 308.947C631.741 308.476 632.531 308.222 633.403 308.184C634.274 308.147 635.18 308.38 636.126 308.873C637.072 309.366 637.995 310.165 638.907 311.267C639.513 312.003 640.015 312.787 640.418 313.629C640.822 314.472 641.07 315.277 641.157 316.05L638.318 316.643C638.203 315.907 637.995 315.208 637.695 314.546C637.395 313.884 637.032 313.296 636.611 312.787C636.172 312.252 635.757 311.866 635.37 311.627C634.983 311.389 634.62 311.262 634.285 311.257C633.951 311.251 633.656 311.331 633.397 311.505C633.068 311.728 632.906 312.03 632.912 312.406C632.912 312.782 633.028 313.211 633.247 313.688C633.466 314.159 633.72 314.684 634.014 315.245C634.308 315.806 634.568 316.384 634.799 316.972C635.03 317.56 635.185 318.137 635.26 318.709C635.341 319.281 635.266 319.832 635.047 320.372C634.828 320.912 634.401 321.394 633.772 321.818C633.08 322.284 632.301 322.528 631.429 322.554C630.558 322.581 629.647 322.348 628.689 321.85C627.731 321.352 626.802 320.552 625.896 319.456L625.891 319.44ZM623.491 320.102L639.963 308.979L641.353 310.663L624.881 321.786L623.491 320.102Z" fill="#3C7878"/>
<path d="M728.616 321.872H669.155V333.281H728.616V321.872Z" fill="#FCF4A6" stroke="black" stroke-width="0.587677"/>
<path d="M679.265 321.87H675.797V333.279H679.265V321.87Z" fill="#FFD861" stroke="black" stroke-width="0.587677"/>
<path d="M690.376 321.87H686.908V333.279H690.376V321.87Z" fill="#FFD861" stroke="black" stroke-width="0.587677"/>
<path d="M701.479 321.87H698.011V333.279H701.479V321.87Z" fill="#FFD861" stroke="black" stroke-width="0.587677"/>
<path d="M712.582 321.87H709.114V333.279H712.582V321.87Z" fill="#FFD861" stroke="black" stroke-width="0.587677"/>
<path d="M723.693 321.87H720.225V333.279H723.693V321.87Z" fill="#FFD861" stroke="black" stroke-width="0.587677"/>
<path d="M732.442 333.279H672.981V344.688H732.442V333.279Z" fill="#FCF4A6" stroke="black" stroke-width="0.587677"/>
<path d="M683.091 333.279H679.623V344.688H683.091V333.279Z" fill="#FFD861" stroke="black" stroke-width="0.587677"/>
<path d="M694.202 333.279H690.734V344.688H694.202V333.279Z" fill="#FFD861" stroke="black" stroke-width="0.587677"/>
<path d="M705.305 333.279H701.837V344.688H705.305V333.279Z" fill="#FFD861" stroke="black" stroke-width="0.587677"/>
<path d="M716.408 333.279H712.94V344.688H716.408V333.279Z" fill="#FFD861" stroke="black" stroke-width="0.587677"/>
<path d="M727.519 333.279H724.051V344.688H727.519V333.279Z" fill="#FFD861" stroke="black" stroke-width="0.587677"/>
<path d="M729.481 344.685H670.02V356.094H729.481V344.685Z" fill="#FCF4A6" stroke="black" stroke-width="0.587677"/>
<path d="M680.13 344.685H676.662V356.094H680.13V344.685Z" fill="#FFD861" stroke="black" stroke-width="0.587677"/>
<path d="M691.233 344.685H687.765V356.094H691.233V344.685Z" fill="#FFD861" stroke="black" stroke-width="0.587677"/>
<path d="M702.343 344.685H698.876V356.094H702.343V344.685Z" fill="#FFD861" stroke="black" stroke-width="0.587677"/>
<path d="M713.447 344.685H709.979V356.094H713.447V344.685Z" fill="#FFD861" stroke="black" stroke-width="0.587677"/>
<path d="M724.55 344.685H721.082V356.094H724.55V344.685Z" fill="#FFD861" stroke="black" stroke-width="0.587677"/>
<path d="M733.995 356.094H674.535V367.503H733.995V356.094Z" fill="#FCF4A6" stroke="black" stroke-width="0.587677"/>
<path d="M684.644 356.094H681.177V367.503H684.644V356.094Z" fill="#FFD861" stroke="black" stroke-width="0.587677"/>
<path d="M695.747 356.094H692.28V367.503H695.747V356.094Z" fill="#FFD861" stroke="black" stroke-width="0.587677"/>
<path d="M706.858 356.094H703.391V367.503H706.858V356.094Z" fill="#FFD861" stroke="black" stroke-width="0.587677"/>
<path d="M717.961 356.094H714.494V367.503H717.961V356.094Z" fill="#FFD861" stroke="black" stroke-width="0.587677"/>
<path d="M729.064 356.094H725.597V367.503H729.064V356.094Z" fill="#FFD861" stroke="black" stroke-width="0.587677"/>
<path d="M726.672 367.387H667.212V378.796H726.672V367.387Z" fill="#FCF4A6" stroke="black" stroke-width="0.587677"/>
<path d="M677.321 367.386H673.854V378.795H677.321V367.386Z" fill="#FFD861" stroke="black" stroke-width="0.587677"/>
<path d="M688.424 367.386H684.957V378.795H688.424V367.386Z" fill="#FFD861" stroke="black" stroke-width="0.587677"/>
<path d="M699.535 367.386H696.068V378.795H699.535V367.386Z" fill="#FFD861" stroke="black" stroke-width="0.587677"/>
<path d="M710.638 367.386H707.171V378.795H710.638V367.386Z" fill="#FFD861" stroke="black" stroke-width="0.587677"/>
<path d="M721.749 367.386H718.281V378.795H721.749V367.386Z" fill="#FFD861" stroke="black" stroke-width="0.587677"/>
<path d="M723.757 310.467H664.296V321.876H723.757V310.467Z" fill="#FCF4A6" stroke="black" stroke-width="0.587677"/>
<path d="M674.406 310.465H670.938V321.874H674.406V310.465Z" fill="#FFD861" stroke="black" stroke-width="0.587677"/>
<path d="M685.517 310.465H682.049V321.874H685.517V310.465Z" fill="#FFD861" stroke="black" stroke-width="0.587677"/>
<path d="M696.62 310.465H693.152V321.874H696.62V310.465Z" fill="#FFD861" stroke="black" stroke-width="0.587677"/>
<path d="M707.723 310.465H704.255V321.874H707.723V310.465Z" fill="#FFD861" stroke="black" stroke-width="0.587677"/>
<path d="M718.834 310.465H715.366V321.874H718.834V310.465Z" fill="#FFD861" stroke="black" stroke-width="0.587677"/>
<path d="M669.155 321.872H723.764" stroke="black" stroke-width="0.587677" stroke-miterlimit="10"/>
<path d="M674.81 310.627H706.82" stroke="black" stroke-width="0.587677" stroke-miterlimit="10"/>
<path d="M672.981 333.279H728.623" stroke="black" stroke-width="0.587677" stroke-miterlimit="10"/>
<path d="M729.482 344.685H672.981" stroke="black" stroke-width="0.587677" stroke-miterlimit="10"/>
<path d="M729.484 356.094H674.535" stroke="black" stroke-width="0.587677" stroke-miterlimit="10"/>
<path d="M674.535 367.501H726.668" stroke="black" stroke-width="0.587677" stroke-miterlimit="10"/>
<path d="M643.845 184.333L651.842 178.168L696.313 221.754L688.317 227.92C676.034 237.39 656.123 235.314 643.84 223.275C631.556 211.24 631.562 193.804 643.84 184.333H643.845Z" fill="#FCF4A6" stroke="black" stroke-width="0.587677"/>
<mask id="mask0_599_10588" style="mask-type:luminance" maskUnits="userSpaceOnUse" x="634" y="177" width="63" height="57">
<path d="M644.106 184.307L652.063 178.166L696.315 221.578L688.358 227.718C676.135 237.151 656.323 235.083 644.1 223.092C631.878 211.106 631.883 193.739 644.1 184.307H644.106Z" fill="white" stroke="white" stroke-width="0.587677"/>
</mask>
<g mask="url(#mask0_599_10588)">
<path d="M625.355 202.606L651.128 182.732L653.372 184.931L627.599 204.804L625.355 202.606ZM628.465 216.303L654.237 196.43L651.993 194.232L626.221 214.105L628.465 216.303ZM629.33 227.791L655.103 207.918L652.858 205.72L627.086 225.593L629.33 227.791ZM663.659 240.149L689.431 220.275L687.187 218.077L661.415 237.95L663.659 240.149ZM650.637 238.035L676.41 218.162L674.165 215.964L648.393 235.837L650.637 238.035ZM637.615 235.917L663.388 216.043L661.143 213.845L635.371 233.718L637.615 235.917Z" fill="#F7D151" stroke="black" stroke-width="0.587677"/>
</g>
<path d="M649.596 218.849C661.88 230.883 681.79 232.965 694.073 223.494C706.357 214.024 706.357 196.587 694.073 184.553C681.79 172.519 661.88 170.437 649.596 179.908C637.313 189.378 637.313 206.815 649.596 218.849Z" fill="#FFD861" stroke="black" stroke-width="0.587677"/>
<path d="M643.983 185.981C637.746 195.722 639.615 209.064 649.591 218.847C661.874 230.881 681.785 232.963 694.068 223.493" stroke="black" stroke-width="0.587677" stroke-miterlimit="10"/>
<path d="M656.448 213.562C665.974 222.9 681.003 224.833 690.015 217.884C699.027 210.935 698.612 197.73 689.086 188.392C679.561 179.054 664.531 177.121 655.519 184.07C646.507 191.019 646.923 204.224 656.448 213.562Z" fill="#FCF4A6" stroke="black" stroke-width="0.587677"/>
<path d="M695.5 210.448C698.004 203.551 695.823 195.002 689.079 188.392C679.553 179.054 664.524 177.121 655.512 184.07" stroke="black" stroke-width="0.587677" stroke-miterlimit="10"/>
<path d="M681.591 209.239C680.12 210.373 678.528 211.289 676.809 211.988C675.095 212.687 673.537 213.074 672.147 213.148L670.693 209.192C671.974 209.096 673.318 208.789 674.726 208.265C676.139 207.746 677.397 207.057 678.499 206.21C679.341 205.558 679.941 204.96 680.299 204.403C680.657 203.853 680.83 203.349 680.813 202.904C680.795 202.459 680.616 202.068 680.264 201.723C679.82 201.289 679.278 201.093 678.632 201.13C677.986 201.172 677.259 201.358 676.451 201.686C675.643 202.015 674.789 202.401 673.883 202.83C672.978 203.265 672.043 203.667 671.062 204.048C670.087 204.425 669.1 204.689 668.102 204.832C667.104 204.975 666.129 204.912 665.177 204.631C664.219 204.356 663.308 203.794 662.437 202.936C661.485 202.004 660.896 200.939 660.677 199.737C660.452 198.535 660.677 197.263 661.364 195.918C662.044 194.578 663.25 193.233 664.987 191.898C666.146 191.003 667.416 190.251 668.8 189.626C670.185 189.001 671.535 188.598 672.851 188.418L674.408 192.295C673.156 192.512 671.985 192.851 670.895 193.317C669.804 193.784 668.858 194.329 668.05 194.949C667.208 195.595 666.614 196.199 666.273 196.755C665.933 197.311 665.783 197.82 665.829 198.28C665.881 198.741 666.077 199.144 666.423 199.488C666.868 199.922 667.422 200.124 668.073 200.087C668.731 200.055 669.447 199.869 670.231 199.525C671.01 199.186 671.864 198.794 672.787 198.344C673.71 197.899 674.657 197.491 675.632 197.126C676.607 196.76 677.576 196.506 678.551 196.352C679.526 196.199 680.495 196.252 681.47 196.517C682.445 196.776 683.357 197.327 684.211 198.169C685.146 199.086 685.717 200.145 685.919 201.347C686.126 202.55 685.89 203.826 685.209 205.182C684.528 206.538 683.317 207.889 681.58 209.229L681.591 209.239ZM683.184 212.502L660.844 190.606L663.498 188.556L685.838 210.452L683.184 212.502Z" fill="#E28A46"/>
<path d="M650.328 190.754C647.795 195.584 648.476 201.045 650.374 205.33" stroke="black" stroke-width="0.587677" stroke-miterlimit="10"/>
<path d="M701.796 366.885H642.335V378.797H701.796V366.885Z" fill="#FFD861" stroke="black" stroke-width="0.587677"/>
<path d="M652.445 366.883H648.977V378.795H652.445V366.883Z" fill="#FCF4A6" stroke="black" stroke-width="0.587677"/>
<path d="M663.555 366.883H660.088V378.795H663.555V366.883Z" fill="#FCF4A6" stroke="black" stroke-width="0.587677"/>
<path d="M674.658 366.883H671.191V378.795H674.658V366.883Z" fill="#FCF4A6" stroke="black" stroke-width="0.587677"/>
<path d="M685.761 366.883H682.294V378.795H685.761V366.883Z" fill="#FCF4A6" stroke="black" stroke-width="0.587677"/>
<path d="M696.872 366.883H693.404V378.795H696.872V366.883Z" fill="#FCF4A6" stroke="black" stroke-width="0.587677"/>
<path d="M709.31 331.251H649.849V343.163H709.31V331.251Z" fill="#FFD861" stroke="black" stroke-width="0.587677"/>
<path d="M659.959 331.251H656.491V343.163H659.959V331.251Z" fill="#FCF4A6" stroke="black" stroke-width="0.587677"/>
<path d="M671.07 331.251H667.602V343.163H671.07V331.251Z" fill="#FCF4A6" stroke="black" stroke-width="0.587677"/>
<path d="M682.173 331.251H678.705V343.163H682.173V331.251Z" fill="#FCF4A6" stroke="black" stroke-width="0.587677"/>
<path d="M693.276 331.251H689.808V343.163H693.276V331.251Z" fill="#FCF4A6" stroke="black" stroke-width="0.587677"/>
<path d="M704.379 331.251H700.911V343.163H704.379V331.251Z" fill="#FCF4A6" stroke="black" stroke-width="0.587677"/>
<path d="M700.434 343.164H640.973V355.076H700.434V343.164Z" fill="#F7D151" stroke="black" stroke-width="0.587677"/>
<path d="M651.082 343.162H647.615V355.074H651.082V343.162Z" fill="#FCF4A6" stroke="black" stroke-width="0.587677"/>
<path d="M662.193 343.162H658.726V355.074H662.193V343.162Z" fill="#FCF4A6" stroke="black" stroke-width="0.587677"/>
<path d="M673.296 343.162H669.829V355.074H673.296V343.162Z" fill="#FCF4A6" stroke="black" stroke-width="0.587677"/>
<path d="M684.399 343.162H680.932V355.074H684.399V343.162Z" fill="#FCF4A6" stroke="black" stroke-width="0.587677"/>
<path d="M695.51 343.162H692.043V355.074H695.51V343.162Z" fill="#FCF4A6" stroke="black" stroke-width="0.587677"/>
<path d="M696.929 354.969H637.468V366.881H696.929V354.969Z" fill="#FFD861" stroke="black" stroke-width="0.587677"/>
<path d="M647.578 354.969H644.11V366.881H647.578V354.969Z" fill="#FCF4A6" stroke="black" stroke-width="0.587677"/>
<path d="M658.688 354.969H655.221V366.881H658.688V354.969Z" fill="#FCF4A6" stroke="black" stroke-width="0.587677"/>
<path d="M669.792 354.969H666.324V366.881H669.792V354.969Z" fill="#FCF4A6" stroke="black" stroke-width="0.587677"/>
<path d="M680.895 354.969H677.427V366.881H680.895V354.969Z" fill="#FCF4A6" stroke="black" stroke-width="0.587677"/>
<path d="M692.013 354.969H688.546V366.881H692.013V354.969Z" fill="#FCF4A6" stroke="black" stroke-width="0.587677"/>
<path d="M642.335 366.885H696.938" stroke="black" stroke-width="0.587677" stroke-miterlimit="10"/>
<path d="M649.344 343.164H700.433" stroke="black" stroke-width="0.587677" stroke-miterlimit="10"/>
<path d="M645.317 325.418L634.978 321.53L611.375 374.412L621.714 378.3C633.813 382.85 648.9 374.698 655.419 360.095C661.939 345.492 657.41 329.963 645.311 325.413L645.317 325.418Z" fill="#FCF4A6" stroke="black" stroke-width="0.587677"/>
<mask id="mask1_599_10588" style="mask-type:luminance" maskUnits="userSpaceOnUse" x="610" y="321" width="49" height="59">
<path d="M645.121 325.405L634.842 321.532L611.375 374.209L621.654 378.082C633.683 382.614 648.683 374.494 655.165 359.948C661.647 345.401 657.144 329.932 645.115 325.4L645.121 325.405Z" fill="white" stroke="white" stroke-width="0.587677"/>
</mask>
<g mask="url(#mask1_599_10588)">
<path d="M663.374 338.508L637.988 328.958L639.177 326.288L664.563 335.838L663.374 338.508ZM666.871 346.352L641.485 336.802L640.296 339.472L665.682 349.021L666.871 346.352ZM669.173 356.861L643.787 347.311L642.598 349.98L667.984 359.53L669.173 356.861ZM645.425 378.725L620.039 369.175L618.851 371.845L644.237 381.395L645.425 378.725ZM655.101 372.719L629.715 363.169L628.526 365.838L653.912 375.388L655.101 372.719ZM664.776 366.712L639.39 357.162L638.202 359.832L663.588 369.382L664.776 366.712Z" fill="#F7D151" stroke="black" stroke-width="0.587677"/>
</g>
<path d="M647.211 357.022C653.729 342.418 648.354 326.571 635.207 321.626C622.059 316.68 606.118 324.51 599.6 339.113C593.082 353.717 598.457 369.565 611.605 374.51C624.752 379.455 640.694 371.626 647.211 357.022Z" fill="#FFD861" stroke="black" stroke-width="0.587677"/>
<path d="M639.871 354.264C644.927 342.936 641.205 330.811 631.557 327.182C621.91 323.553 609.99 329.795 604.934 341.123C599.879 352.451 603.601 364.577 613.248 368.205C622.896 371.834 634.816 365.593 639.871 354.264Z" fill="#FCF4A6" stroke="black" stroke-width="0.587677"/>
<path d="M617.306 357.71C615.731 357.117 614.312 356.338 613.042 355.364C611.779 354.394 610.856 353.404 610.273 352.392L613.36 349.527C613.913 350.443 614.687 351.307 615.679 352.133C616.671 352.959 617.756 353.589 618.939 354.034C619.839 354.373 620.612 354.553 621.247 354.575C621.881 354.596 622.4 354.495 622.804 354.289C623.208 354.077 623.497 353.764 623.681 353.351C623.918 352.821 623.895 352.329 623.624 351.863C623.352 351.397 622.914 350.936 622.32 350.48C621.725 350.025 621.062 349.553 620.335 349.071C619.608 348.589 618.893 348.065 618.189 347.503C617.485 346.942 616.885 346.322 616.389 345.639C615.892 344.956 615.598 344.198 615.5 343.356C615.402 342.514 615.587 341.576 616.048 340.544C616.55 339.415 617.312 338.494 618.333 337.789C619.348 337.085 620.595 336.682 622.072 336.587C623.549 336.492 625.216 336.794 627.074 337.493C628.314 337.959 629.468 338.568 630.547 339.325C631.62 340.083 632.486 340.914 633.132 341.815L630.155 344.723C629.497 343.881 628.758 343.16 627.933 342.551C627.108 341.942 626.266 341.476 625.401 341.153C624.501 340.814 623.733 340.639 623.099 340.634C622.464 340.628 621.945 340.745 621.541 340.989C621.137 341.232 620.843 341.561 620.658 341.974C620.422 342.503 620.439 343.007 620.71 343.478C620.981 343.955 621.414 344.41 622.008 344.839C622.602 345.274 623.272 345.734 624.022 346.222C624.766 346.709 625.481 347.239 626.174 347.805C626.86 348.372 627.455 348.987 627.951 349.643C628.447 350.305 628.753 351.058 628.868 351.905C628.983 352.753 628.816 353.685 628.36 354.702C627.864 355.814 627.103 356.714 626.081 357.408C625.06 358.102 623.802 358.499 622.314 358.6C620.825 358.701 619.146 358.399 617.289 357.7L617.306 357.71ZM614.906 360.374L626.762 333.812L629.607 334.881L617.75 361.444L614.906 360.374Z" fill="#E28A46" stroke="black" stroke-width="0.587677"/>
<path d="M500.537 213.999L495.91 209.423L454.883 244.402L459.51 248.979C468.672 258.036 485.283 257.549 496.614 247.887C507.945 238.226 509.699 223.057 500.537 213.999Z" fill="#FCF4A6" stroke="black" stroke-width="0.587677"/>
<mask id="mask2_599_10588" style="mask-type:luminance" maskUnits="userSpaceOnUse" x="454" y="208" width="53" height="48">
<path d="M495.855 209.212L500.451 213.747C509.709 222.875 507.892 238.108 496.537 247.763C485.19 257.411 468.51 257.935 459.275 248.829L454.677 244.294L454.448 244.068L454.693 243.86L495.457 209.197L495.662 209.022L495.855 209.212Z" fill="white" stroke="white" stroke-width="0.587677"/>
</mask>
<g mask="url(#mask2_599_10588)">
<path d="M511.85 232.884L492.626 213.879L494.698 212.115L513.922 231.12L511.85 232.884ZM512.052 241.062L492.828 222.057L490.757 223.821L509.981 242.825L512.052 241.062ZM510.177 251.009L490.953 232.004L488.882 233.768L508.106 252.773L510.177 251.009ZM480.655 259.484L461.431 240.479L459.359 242.243L478.583 261.247L480.655 259.484ZM491.594 258.504L472.37 239.499L470.298 241.263L489.522 260.267L491.594 258.504ZM502.533 257.524L483.309 238.519L481.237 240.283L500.461 259.288L502.533 257.524Z" fill="#F7D151" stroke="black" stroke-width="0.587677"/>
</g>
<path d="M492.593 243.772C503.922 234.114 505.68 218.943 496.519 209.886C487.358 200.83 470.748 201.317 459.419 210.975C448.09 220.633 446.332 235.805 455.493 244.861C464.654 253.918 481.264 253.43 492.593 243.772Z" fill="#FFD861" stroke="black" stroke-width="0.587677"/>
<path d="M487.478 238.722C496.266 231.229 497.942 219.768 491.221 213.123C484.499 206.478 471.925 207.165 463.137 214.657C454.348 222.15 452.672 233.611 459.394 240.256C466.115 246.901 478.689 246.214 487.478 238.722Z" fill="#FCF4A6" stroke="black" stroke-width="0.587677"/>
<path d="M467.009 233.096C465.912 232.01 465.018 230.829 464.337 229.547C463.651 228.266 463.264 227.095 463.178 226.041L466.934 224.828C467.038 225.797 467.349 226.809 467.863 227.863C468.376 228.922 469.04 229.855 469.865 230.67C470.493 231.29 471.07 231.73 471.607 231.989C472.138 232.243 472.617 232.36 473.038 232.339C473.459 232.318 473.834 232.164 474.157 231.889C474.567 231.539 474.746 231.121 474.699 230.628C474.653 230.141 474.469 229.59 474.146 228.991C473.822 228.393 473.447 227.752 473.026 227.074C472.605 226.401 472.207 225.697 471.832 224.966C471.463 224.235 471.203 223.493 471.053 222.741C470.903 221.989 470.955 221.248 471.209 220.517C471.463 219.78 471.988 219.076 472.79 218.387C473.667 217.64 474.676 217.164 475.819 216.962C476.961 216.761 478.173 216.899 479.465 217.376C480.752 217.852 482.044 218.732 483.336 220.013C484.202 220.866 484.935 221.809 485.546 222.842C486.158 223.875 486.556 224.886 486.74 225.882L483.065 227.175C482.846 226.232 482.506 225.352 482.05 224.537C481.594 223.721 481.063 223.017 480.463 222.423C479.834 221.804 479.257 221.369 478.721 221.126C478.19 220.882 477.7 220.781 477.261 220.834C476.823 220.887 476.442 221.046 476.119 221.322C475.709 221.671 475.525 222.095 475.565 222.593C475.605 223.091 475.79 223.631 476.125 224.214C476.453 224.796 476.84 225.432 477.278 226.12C477.711 226.809 478.109 227.513 478.467 228.244C478.825 228.975 479.079 229.706 479.24 230.437C479.396 231.174 479.355 231.91 479.113 232.657C478.877 233.403 478.363 234.113 477.573 234.786C476.707 235.522 475.709 235.983 474.567 236.174C473.424 236.364 472.207 236.221 470.903 235.739C469.599 235.257 468.301 234.378 467.009 233.102V233.096ZM463.916 234.399L484.525 216.83L486.504 218.79L465.895 236.359L463.916 234.399Z" fill="#E28A46"/>
</svg>
