<svg width="408" height="408" viewBox="0 0 408 408" fill="none" xmlns="http://www.w3.org/2000/svg">
<path d="M0 8C0 3.58172 3.58172 0 8 0H400C404.418 0 408 3.58172 408 8V400C408 404.418 404.418 408 400 408H8C3.58172 408 0 404.418 0 400V8Z" fill="#E4F7E8"/>
<path d="M31.8618 298.157C29.1004 296.829 29.0607 294.302 29.9899 292.175C30.1555 291.796 30.577 291.609 30.9784 291.7L35.2446 292.664C35.8886 292.81 36.1616 293.57 35.7601 294.1L32.9014 297.873C32.656 298.197 32.2246 298.331 31.8618 298.157Z" fill="#002850" stroke="black" stroke-width="0.515226" stroke-linecap="round"/>
<path d="M102.72 251.315C105.698 252.944 105.592 256.196 104.665 258.164C104.503 258.508 104.116 258.67 103.745 258.598L98.9757 257.67C98.3323 257.545 98.0345 256.803 98.4101 256.261L101.631 251.611C101.877 251.255 102.343 251.109 102.72 251.315Z" fill="#002850" stroke="black" stroke-width="0.515226" stroke-linecap="round"/>
<path d="M27.4477 297.925C24.3841 296.46 24.3134 293.209 25.1334 291.195C25.2768 290.843 25.6542 290.661 26.0293 290.713L30.8445 291.381C31.4942 291.471 31.8319 292.196 31.486 292.757L28.5198 297.571C28.2925 297.94 27.8351 298.11 27.4477 297.925Z" fill="#002850" stroke="black" stroke-width="0.515226" stroke-linecap="round"/>
<path d="M100.861 251.088C104.09 252.589 104.111 255.507 103.017 257.936C102.848 258.313 102.428 258.5 102.026 258.409L96.9521 257.264C96.3074 257.119 96.0344 256.358 96.437 255.828L99.8198 251.373C100.065 251.05 100.497 250.919 100.861 251.088Z" fill="#002850" stroke="black" stroke-width="0.515226" stroke-linecap="round"/>
<path d="M102.399 253.984C104.534 254.73 105.328 257.322 103.985 259.165L67.4115 309.343C66.5178 310.57 64.9272 311.071 63.5065 310.575L28.4207 298.314C26.2856 297.568 25.4929 294.977 26.836 293.134L63.4097 242.955C64.3034 241.729 65.8928 241.228 67.3133 241.724L102.399 253.984Z" fill="#002850" stroke="black" stroke-width="0.515226"/>
<path d="M101.491 250.775C103.626 251.521 104.42 254.113 103.076 255.956L66.5031 306.134C65.6094 307.361 64.0188 307.862 62.5981 307.366L27.5123 295.105C25.3772 294.359 24.5845 291.768 25.9276 289.925L62.5013 239.746C63.395 238.52 64.9844 238.019 66.405 238.515L101.491 250.775Z" fill="#0064FF" stroke="black" stroke-width="0.515226"/>
<path d="M99.2288 252.44C100.797 252.988 101.373 254.897 100.376 256.243L65.7801 302.95C64.8828 304.161 63.3028 304.652 61.8914 304.159L29.9609 293.002C28.3922 292.454 27.8168 290.544 28.8141 289.198L63.4101 242.492C64.3075 241.281 65.8875 240.789 67.2988 241.283L99.2288 252.44Z" fill="white" stroke="black" stroke-width="0.515226"/>
<path d="M63.9033 253.769C64.1612 253.422 64.6245 253.298 65.0164 253.471L65.7059 253.777C66.236 254.012 66.4085 254.677 66.0614 255.147L54.91 270.275L52.2909 269.404L63.9033 253.769Z" fill="#7DB0FF"/>
<path d="M63.9054 259.186C64.1631 258.839 64.6268 258.715 65.0188 258.888L65.7102 259.194C66.2395 259.429 66.4124 260.092 66.0668 260.563L58.1355 271.372L55.5164 270.501L63.9054 259.186Z" fill="#002850"/>
<path d="M82.9216 258.846C83.1794 258.498 83.6428 258.375 84.0347 258.548L84.7241 258.853C85.2542 259.088 85.4267 259.753 85.0796 260.224L73.066 276.521L70.4469 275.65L82.9216 258.846Z" fill="#7DB0FF"/>
<path d="M83.2111 263.872C83.4688 263.525 83.9324 263.401 84.3245 263.574L85.0152 263.88C85.5448 264.114 85.7176 264.779 85.3716 265.249L76.2853 277.617L73.6662 276.746L83.2111 263.872Z" fill="#002850"/>
<path d="M70.376 260.32C70.6337 259.973 71.0974 259.849 71.4895 260.022L72.1805 260.328C72.7099 260.563 72.8828 261.227 72.537 261.697L64.0027 273.322L61.3835 272.45L70.376 260.32Z" fill="#7DB0FF"/>
<path d="M70.7137 265.352C70.9718 265.006 71.4346 264.883 71.8259 265.056L72.5182 265.362C73.0478 265.597 73.2206 266.261 72.8746 266.732L67.2243 274.423L64.6052 273.551L70.7137 265.352Z" fill="#002850"/>
<path d="M64.4029 248.085L49.3359 268.128L79.9174 278.712" stroke="#BEC5CC" stroke-width="0.515226" stroke-linecap="round"/>
<mask id="mask0_579_16721" style="mask-type:alpha" maskUnits="userSpaceOnUse" x="38" y="275" width="18" height="16">
<ellipse cx="8.5969" cy="7.71517" rx="8.5969" ry="7.71517" transform="matrix(0.995609 0.0936117 -0.105842 0.994383 39.5951 274.807)" fill="#0064FF"/>
</mask>
<g mask="url(#mask0_579_16721)">
<path d="M47.228 283.273L48.5536 270.818L61.8969 277.306L57.4109 290.972L47.228 283.273Z" fill="#002850"/>
<path d="M39.7412 290.318L47.2273 283.274L55.6478 289.6L51.4285 292.323L39.7412 290.318Z" fill="#3F5880"/>
<path d="M36.5495 279.148L47.2254 283.272L40.4644 290.888L36.5495 279.148Z" fill="#7DB0FF"/>
<path d="M49.2812 274.511L47.2258 283.274L38.1482 281.012L39.356 275.993L49.2812 274.511Z" fill="#9669D2"/>
<ellipse cx="3.68439" cy="3.3065" rx="3.68439" ry="3.3065" transform="matrix(0.995609 0.0936117 -0.105842 0.994383 44.028 279.652)" fill="white"/>
</g>
<path d="M52.3404 263.163C52.8907 263.157 53.3317 262.76 53.3254 262.277C53.319 261.794 52.8678 261.408 52.3174 261.414C51.7671 261.421 51.3261 261.817 51.3324 262.3C51.3388 262.783 51.7901 263.17 52.3404 263.163Z" fill="#002850"/>
<path d="M50.213 266.087C50.7633 266.081 51.2043 265.684 51.198 265.201C51.1917 264.718 50.7404 264.332 50.19 264.338C49.6397 264.344 49.1987 264.741 49.2051 265.224C49.2114 265.707 49.6627 266.093 50.213 266.087Z" fill="#3F5880"/>
<path d="M48.0911 269.015C48.6415 269.008 49.0825 268.612 49.0761 268.129C49.0698 267.646 48.6185 267.259 48.0682 267.266C47.5178 267.272 47.0768 267.669 47.0832 268.152C47.0895 268.635 47.5408 269.021 48.0911 269.015Z" fill="#7DB0FF"/>
<path d="M65.0469 284.443L70.4697 286.412" stroke="black" stroke-width="0.515226" stroke-linecap="round"/>
<path d="M62.0866 288.752L67.5094 290.72" stroke="black" stroke-width="0.515226" stroke-linecap="round"/>
<path d="M59.1276 293.055L64.5504 295.023" stroke="black" stroke-width="0.515226" stroke-linecap="round"/>
<path d="M210.336 194.817L266.064 160.504C266.635 160.153 267.391 160.308 267.757 160.832L295.69 200.907C296.181 201.612 295.976 202.567 295.214 203.036L240.179 236.922C239.417 237.391 238.403 237.186 237.912 236.482L209.979 196.407C209.614 195.882 209.765 195.169 210.336 194.817Z" fill="white" stroke="black" stroke-width="0.522222"/>
<path d="M209.468 195.352L266.932 159.97C267.023 159.914 267.136 159.943 267.187 160.017L275.431 171.844L217.654 207.418L209.41 195.591C209.359 195.517 209.377 195.408 209.468 195.352Z" fill="#0064FF" stroke="black" stroke-width="0.522222"/>
<path d="M222.734 200.574L223.403 201.533L219.718 203.803L219.049 202.843L222.734 200.574Z" fill="white" stroke="black" stroke-width="0.522222"/>
<path d="M230.628 195.712L231.297 196.672L227.611 198.941L226.942 197.981L230.628 195.712Z" fill="white" stroke="black" stroke-width="0.522222"/>
<path d="M238.372 190.945L239.041 191.904L235.356 194.174L234.687 193.214L238.372 190.945Z" fill="white" stroke="black" stroke-width="0.522222"/>
<path d="M246.265 186.087L246.934 187.047L243.249 189.316L242.58 188.356L246.265 186.087Z" fill="white" stroke="black" stroke-width="0.522222"/>
<path d="M254.592 180.96L255.261 181.92L251.576 184.189L250.907 183.23L254.592 180.96Z" fill="white" stroke="black" stroke-width="0.522222"/>
<path d="M262.486 176.099L263.154 177.059L259.469 179.328L258.8 178.368L262.486 176.099Z" fill="white" stroke="black" stroke-width="0.522222"/>
<path d="M270.52 171.152L271.189 172.111L267.503 174.381L266.834 173.421L270.52 171.152Z" fill="white" stroke="black" stroke-width="0.522222"/>
<path d="M260.303 159.244L261.83 158.304C261.851 158.291 261.871 158.301 261.876 158.309L266.315 164.677C266.32 164.685 266.322 164.705 266.301 164.719L264.774 165.659C264.753 165.672 264.733 165.663 264.727 165.654L260.289 159.287C260.283 159.278 260.281 159.257 260.303 159.244Z" fill="#7BB1FF" stroke="black" stroke-width="0.522222"/>
<path d="M226.535 180.035L228.062 179.095C228.084 179.082 228.103 179.092 228.109 179.1L232.547 185.468C232.553 185.477 232.554 185.496 232.533 185.51L231.006 186.45C230.985 186.463 230.965 186.454 230.959 186.445L226.521 180.078C226.515 180.069 226.513 180.048 226.535 180.035Z" fill="#7BB1FF" stroke="black" stroke-width="0.522222"/>
<path d="M235.177 174.715L236.704 173.774C236.725 173.761 236.744 173.772 236.75 173.78L241.189 180.148C241.194 180.156 241.196 180.176 241.175 180.189L239.648 181.129C239.627 181.142 239.607 181.133 239.601 181.125L235.163 174.757C235.157 174.749 235.155 174.728 235.177 174.715Z" fill="#7BB1FF" stroke="black" stroke-width="0.522222"/>
<path d="M243.819 169.392L245.345 168.452C245.367 168.439 245.386 168.449 245.392 168.458L249.83 174.825C249.836 174.834 249.838 174.854 249.817 174.867L248.29 175.807C248.268 175.82 248.249 175.811 248.243 175.803L243.805 169.435C243.799 169.427 243.797 169.406 243.819 169.392Z" fill="#7BB1FF" stroke="black" stroke-width="0.522222"/>
<path d="M252.464 164.068L253.991 163.128C254.013 163.115 254.032 163.125 254.038 163.134L258.476 169.501C258.482 169.51 258.483 169.529 258.462 169.543L256.935 170.483C256.914 170.496 256.895 170.487 256.888 170.479L252.45 164.111C252.444 164.103 252.443 164.081 252.464 164.068Z" fill="#7BB1FF" stroke="black" stroke-width="0.522222"/>
<path d="M217.872 185.369L219.398 184.429C219.42 184.416 219.439 184.426 219.445 184.434L223.883 190.802C223.889 190.81 223.891 190.83 223.87 190.844L222.343 191.784C222.321 191.797 222.302 191.788 222.296 191.779L217.858 185.412C217.852 185.403 217.85 185.382 217.872 185.369Z" fill="#7BB1FF" stroke="black" stroke-width="0.522222"/>
<path d="M209.848 190.308L211.375 189.368C211.397 189.355 211.416 189.365 211.422 189.374L215.86 195.741C215.866 195.75 215.868 195.77 215.846 195.783L214.319 196.723C214.298 196.736 214.279 196.727 214.273 196.719L209.834 190.351C209.828 190.343 209.827 190.322 209.848 190.308Z" fill="#7BB1FF" stroke="black" stroke-width="0.522222"/>
<path d="M242.902 195.395L246.578 200.669L240.963 204.126L237.288 198.853L242.902 195.395Z" fill="#7BB1FF" stroke="black" stroke-width="0.522222"/>
<path d="M250.868 190.489L254.543 195.762L248.928 199.22L245.253 193.946L250.868 190.489Z" fill="#7BB1FF" stroke="black" stroke-width="0.522222"/>
<path d="M259.061 185.446L262.737 190.719L257.122 194.177L253.446 188.903L259.061 185.446Z" fill="#7BB1FF" stroke="black" stroke-width="0.522222"/>
<path d="M267.023 180.544L270.698 185.817L265.084 189.274L261.408 184.001L267.023 180.544Z" fill="#7BB1FF" stroke="black" stroke-width="0.522222"/>
<path d="M274.934 175.671L278.61 180.944L272.995 184.401L269.319 179.128L274.934 175.671Z" fill="#7BB1FF" stroke="black" stroke-width="0.522222"/>
<path d="M232.011 212.21L235.686 217.483L230.071 220.94L226.396 215.667L232.011 212.21Z" fill="#7BB1FF" stroke="black" stroke-width="0.522222"/>
<path d="M239.98 207.302L243.655 212.575L238.04 216.032L234.365 210.759L239.98 207.302Z" fill="#7BB1FF" stroke="black" stroke-width="0.522222"/>
<path d="M247.833 202.466L251.508 207.739L245.894 211.196L242.218 205.923L247.833 202.466Z" fill="#7BB1FF" stroke="black" stroke-width="0.522222"/>
<path d="M255.798 197.56L259.474 202.833L253.859 206.29L250.183 201.017L255.798 197.56Z" fill="#7BB1FF" stroke="black" stroke-width="0.522222"/>
<path d="M263.988 192.519L267.663 197.792L262.049 201.249L258.373 195.976L263.988 192.519Z" fill="#7BB1FF" stroke="black" stroke-width="0.522222"/>
<path d="M271.953 187.616L275.629 192.889L270.014 196.346L266.339 191.073L271.953 187.616Z" fill="#7BB1FF" stroke="black" stroke-width="0.522222"/>
<path d="M279.864 182.743L283.54 188.016L277.925 191.473L274.25 186.2L279.864 182.743Z" fill="#7BB1FF" stroke="black" stroke-width="0.522222"/>
<path d="M236.872 219.186L240.548 224.46L234.933 227.917L231.258 222.644L236.872 219.186Z" fill="#7BB1FF" stroke="black" stroke-width="0.522222"/>
<path d="M244.845 214.28L248.52 219.553L242.906 223.011L239.23 217.737L244.845 214.28Z" fill="#7BB1FF" stroke="black" stroke-width="0.522222"/>
<path d="M252.698 209.446L256.374 214.719L250.759 218.177L247.083 212.903L252.698 209.446Z" fill="#7BB1FF" stroke="black" stroke-width="0.522222"/>
<path d="M260.664 204.54L264.339 209.813L258.724 213.27L255.049 207.997L260.664 204.54Z" fill="#7BB1FF" stroke="black" stroke-width="0.522222"/>
<path d="M268.853 199.499L272.529 204.772L266.914 208.229L263.238 202.956L268.853 199.499Z" fill="#7BB1FF" stroke="black" stroke-width="0.522222"/>
<path d="M276.819 194.593L280.494 199.866L274.879 203.323L271.204 198.05L276.819 194.593Z" fill="#7BB1FF" stroke="black" stroke-width="0.522222"/>
<path d="M284.726 189.724L288.402 194.997L282.787 198.454L279.111 193.181L284.726 189.724Z" fill="#7BB1FF" stroke="black" stroke-width="0.522222"/>
<path d="M241.803 226.259L245.478 231.532L239.863 234.989L236.188 229.716L241.803 226.259Z" fill="#7BB1FF" stroke="black" stroke-width="0.522222"/>
<path d="M249.772 221.352L253.447 226.626L247.832 230.083L244.157 224.81L249.772 221.352Z" fill="#7BB1FF" stroke="black" stroke-width="0.522222"/>
<path d="M257.625 216.515L261.3 221.788L255.686 225.245L252.01 219.972L257.625 216.515Z" fill="#7BB1FF" stroke="black" stroke-width="0.522222"/>
<path d="M308.321 252.046L317.088 284.767C317.597 286.665 319.548 287.792 321.445 287.283L372.577 273.582C374.475 273.074 375.601 271.123 375.093 269.225L366.325 236.504L308.321 252.046Z" fill="#F7F7F7" stroke="#000926" stroke-width="0.474351"/>
<path d="M308.389 252.026L322.786 277.951C323.579 279.377 325.24 280.082 326.817 279.66L377.722 266.02C379.958 265.421 381.035 262.879 379.912 260.855L366.379 236.488L308.389 252.026Z" fill="white" stroke="#000926" stroke-width="0.474351"/>
<path d="M366.786 241.058C366.555 240.742 366.153 240.601 365.775 240.702L313.722 254.65C313.077 254.822 312.808 255.589 313.202 256.127L313.975 257.181C314.206 257.497 314.607 257.638 314.985 257.537L367.039 243.589C367.683 243.416 367.953 242.65 367.559 242.112L366.786 241.058Z" fill="#0064FF"/>
<path d="M355.02 262.059C354.978 262.446 354.702 262.768 354.325 262.869L323.503 271.128C322.861 271.3 322.246 270.773 322.318 270.112V270.112C322.361 269.725 322.637 269.403 323.013 269.302L353.836 261.043C354.478 260.871 355.093 261.398 355.02 262.059V262.059Z" fill="#BEC5CC"/>
<path d="M356.984 265.639C356.942 266.027 356.666 266.348 356.289 266.449L325.467 274.708C324.824 274.88 324.21 274.353 324.282 273.692V273.692C324.324 273.305 324.601 272.983 324.977 272.882L355.8 264.623C356.442 264.451 357.056 264.978 356.984 265.639V265.639Z" fill="#BEC5CC"/>
<path fill-rule="evenodd" clip-rule="evenodd" d="M375.811 251.004C370.768 251.004 366.68 255.092 366.68 260.135C366.68 265.178 370.768 269.266 375.811 269.266C380.854 269.266 384.942 265.178 384.942 260.135C384.942 255.092 380.854 251.004 375.811 251.004Z" fill="#11AB54"/>
<path fill-rule="evenodd" clip-rule="evenodd" d="M380.592 257.356L374.257 264.726L371.034 261.008L372.288 259.92L374.251 262.185L379.333 256.274L380.592 257.356Z" fill="white"/>
<mask id="path-72-inside-1_579_16721" fill="white">
<path d="M126.169 178.947C125.484 175.422 122.06 173.057 118.521 173.664L117.643 173.814L117.643 173.812L150.408 168.194C153.948 167.587 157.372 169.953 158.056 173.479L126.169 178.947Z"/>
</mask>
<path d="M126.169 178.947C125.484 175.422 122.06 173.057 118.521 173.664L117.643 173.814L117.643 173.812L150.408 168.194C153.948 167.587 157.372 169.953 158.056 173.479L126.169 178.947Z" fill="#D9DBDE"/>
<path d="M126.169 178.947L125.655 179.035L125.754 179.547L126.269 179.459L126.169 178.947ZM118.521 173.664L118.422 173.151L118.421 173.151L118.521 173.664ZM117.643 173.814L117.128 173.903L117.228 174.415L117.743 174.327L117.643 173.814ZM117.643 173.812L117.543 173.3L117.029 173.388L117.128 173.901L117.643 173.812ZM150.408 168.194L150.308 167.681L150.308 167.681L150.408 168.194ZM158.056 173.479L158.156 173.991L158.671 173.903L158.571 173.39L158.056 173.479ZM126.169 178.947L126.684 178.858C125.943 175.051 122.245 172.496 118.422 173.151L118.521 173.664L118.62 174.176C121.875 173.618 125.024 175.794 125.655 179.035L126.169 178.947ZM118.521 173.664L118.421 173.151L117.544 173.302L117.643 173.814L117.743 174.327L118.621 174.176L118.521 173.664ZM117.643 173.814L118.158 173.726L118.158 173.724L117.643 173.812L117.128 173.901L117.128 173.903L117.643 173.814ZM117.643 173.812L117.742 174.325L150.507 168.706L150.408 168.194L150.308 167.681L117.543 173.3L117.643 173.812ZM150.408 168.194L150.507 168.706C153.763 168.148 156.912 170.324 157.542 173.567L158.056 173.479L158.571 173.39C157.832 169.581 154.132 167.025 150.308 167.681L150.408 168.194ZM158.056 173.479L157.957 172.966L126.07 178.434L126.169 178.947L126.269 179.459L158.156 173.991L158.056 173.479Z" fill="#000926" mask="url(#path-72-inside-1_579_16721)"/>
<path d="M148.975 168.703C148.337 169.125 147.808 169.667 147.384 170.328C146.491 171.72 146.08 173.615 146.053 175.965C146.022 178.661 145.921 205.377 145.874 218.036C145.86 221.749 143.201 224.865 139.525 225.496L110.75 230.43L113.569 180.766C113.771 177.215 116.381 174.303 119.904 173.698L148.975 168.703Z" fill="#F7F7F7" stroke="#000926" stroke-width="0.522222"/>
<path d="M117.027 183.209L116.769 187.614C116.747 187.987 117.085 188.288 117.456 188.224L140.654 184.246C140.914 184.202 141.107 183.987 141.122 183.726L141.38 179.321C141.402 178.947 141.063 178.646 140.693 178.71L117.495 182.688C117.235 182.733 117.042 182.947 117.027 183.209Z" fill="#000926"/>
<path d="M116.909 202.619L125.09 201.216" stroke="#000926" stroke-width="0.522222" stroke-linecap="round"/>
<path d="M137.608 199.07L140.622 198.553" stroke="#EB144B" stroke-width="0.522222" stroke-linecap="round"/>
<path d="M130.12 214.002L139.757 212.349" stroke="#EB144B" stroke-width="0.522222" stroke-linecap="round"/>
<path d="M117.293 195.996L128.729 194.035" stroke="#000926" stroke-width="0.522222" stroke-linecap="round"/>
<path d="M137.756 192.488L140.77 191.971" stroke="#EB144B" stroke-width="0.522222" stroke-linecap="round"/>
<path d="M116.504 209.045L127.94 207.084" stroke="#000926" stroke-width="0.522222" stroke-linecap="round"/>
<path d="M137.445 205.455L140.459 204.938" stroke="#EB144B" stroke-width="0.522222" stroke-linecap="round"/>
<mask id="path-83-inside-2_579_16721" fill="white">
<path d="M140.992 218.914L133.704 220.164C134.388 223.689 137.812 226.054 141.351 225.448L109.466 230.916C105.926 231.523 102.502 229.157 101.818 225.631L140.992 218.913L140.992 218.914Z"/>
</mask>
<path d="M140.992 218.914L133.704 220.164C134.388 223.689 137.812 226.054 141.351 225.448L109.466 230.916C105.926 231.523 102.502 229.157 101.818 225.631L140.992 218.913L140.992 218.914Z" fill="#D9DBDE"/>
<path d="M140.992 218.914L141.092 219.427L141.606 219.339L141.507 218.826L140.992 218.914ZM133.704 220.164L133.605 219.651L133.09 219.74L133.189 220.252L133.704 220.164ZM141.351 225.448L141.45 225.961L141.251 224.935L141.351 225.448ZM109.466 230.916L109.566 231.428L109.566 231.428L109.466 230.916ZM101.818 225.631L101.718 225.118L101.203 225.206L101.303 225.719L101.818 225.631ZM140.992 218.913L141.507 218.825L141.407 218.312L140.892 218.401L140.992 218.913ZM140.992 218.914L140.893 218.402L133.605 219.651L133.704 220.164L133.804 220.677L141.092 219.427L140.992 218.914ZM133.704 220.164L133.189 220.252C133.929 224.06 137.627 226.615 141.45 225.961L141.351 225.448L141.251 224.935C137.996 225.492 134.848 223.317 134.219 220.076L133.704 220.164ZM141.351 225.448L141.251 224.935L109.367 230.403L109.466 230.916L109.566 231.428L141.45 225.961L141.351 225.448ZM109.466 230.916L109.367 230.403C106.111 230.961 102.962 228.785 102.332 225.543L101.818 225.631L101.303 225.719C102.042 229.528 105.742 232.084 109.566 231.428L109.466 230.916ZM101.818 225.631L101.917 226.144L141.092 219.426L140.992 218.913L140.892 218.401L101.718 225.118L101.818 225.631ZM140.992 218.913L140.477 219.002L140.477 219.002L140.992 218.914L141.507 218.826L141.507 218.825L140.992 218.913Z" fill="#000926" mask="url(#path-83-inside-2_579_16721)"/>
<g clip-path="url(#clip0_579_16721)">
<path d="M222.04 243.637C240.613 246.66 252.901 264.138 249.485 282.676C246.069 301.214 228.243 313.79 209.67 310.766C191.096 307.743 178.808 290.265 182.224 271.727C185.64 253.189 203.466 240.613 222.04 243.637Z" fill="#0064FF" stroke="black" stroke-width="0.518677"/>
<path d="M217.868 242.957C236.442 245.98 248.73 263.458 245.314 281.996C241.898 300.534 224.071 313.11 205.498 310.087C186.925 307.063 174.637 289.585 178.053 271.048C181.469 252.51 199.295 239.934 217.868 242.957Z" fill="#002850" stroke="black" stroke-width="0.518677"/>
<path d="M198.793 258.188C209.119 250.903 223.261 253.204 230.38 263.329C237.498 273.454 234.897 287.569 224.571 294.854C214.244 302.14 200.102 299.837 192.984 289.712C185.865 279.587 188.466 265.474 198.793 258.188Z" fill="white" stroke="black" stroke-width="0.518677"/>
<path d="M205.315 267.461C210.419 263.86 217.41 264.998 220.928 270.002C224.446 275.007 223.161 281.983 218.057 285.584C212.953 289.185 205.962 288.047 202.444 283.042C198.926 278.038 200.211 271.062 205.315 267.461Z" fill="#002850" stroke="black" stroke-width="0.518677"/>
<path d="M210.606 276.86L217.024 271.775L217.673 272.699L210.732 277.039C210.613 277.114 210.495 276.947 210.606 276.86Z" fill="white"/>
<path d="M210.616 277.232C210.543 277.22 210.476 277.18 210.429 277.114C210.34 276.987 210.367 276.818 210.49 276.72L216.908 271.635C216.948 271.604 216.998 271.59 217.046 271.597C217.095 271.6 217.139 271.629 217.167 271.67L217.816 272.593C217.844 272.633 217.854 272.683 217.844 272.731C217.834 272.78 217.804 272.822 217.762 272.848L210.821 277.189C210.756 277.229 210.684 277.242 210.616 277.231L210.616 277.232ZM216.979 272.032L211.666 276.242L217.413 272.649L216.979 272.032Z" fill="black"/>
<path d="M219.672 269.633L220.582 270.928L217.814 272.882C217.545 273.071 217.176 273.011 216.991 272.748L216.752 272.407C216.566 272.144 216.634 271.776 216.903 271.586L219.671 269.633L219.672 269.633Z" fill="white"/>
<path d="M217.335 273.162C217.133 273.129 216.957 273.019 216.84 272.853L216.6 272.512C216.359 272.169 216.447 271.688 216.798 271.441L219.566 269.488C219.648 269.43 219.76 269.449 219.817 269.529L220.727 270.824C220.754 270.863 220.765 270.91 220.756 270.957C220.748 271.004 220.721 271.046 220.681 271.074L217.912 273.027C217.743 273.147 217.538 273.195 217.335 273.162ZM219.622 269.883L217.002 271.732C216.815 271.864 216.768 272.12 216.896 272.303L217.136 272.644C217.261 272.822 217.527 272.865 217.708 272.737L220.329 270.888L219.622 269.883Z" fill="black"/>
<path d="M218.961 271.534L218.55 270.95C218.233 270.498 218.349 269.868 218.81 269.543L249.667 247.773C250.128 247.448 250.76 247.551 251.077 248.003L251.488 248.587C251.806 249.038 251.69 249.669 251.229 249.994L220.371 271.764C219.91 272.089 219.279 271.986 218.961 271.534Z" fill="white"/>
<path d="M219.574 272.115C219.274 272.066 218.994 271.903 218.808 271.637L218.397 271.053C218.023 270.522 218.16 269.778 218.702 269.396L249.56 247.626C249.823 247.441 250.14 247.367 250.453 247.418C250.766 247.469 251.039 247.639 251.22 247.896L251.63 248.48C252.004 249.012 251.867 249.755 251.325 250.137L220.467 271.907C220.196 272.098 219.875 272.164 219.574 272.115ZM250.388 247.771C250.169 247.736 249.947 247.787 249.764 247.917L218.907 269.687C218.528 269.954 218.432 270.473 218.693 270.844L219.104 271.428C219.365 271.799 219.885 271.884 220.264 271.617L251.121 249.847C251.5 249.58 251.596 249.061 251.335 248.689L250.924 248.105C250.797 247.925 250.607 247.807 250.389 247.771L250.388 247.771Z" fill="black"/>
<path d="M240.514 254.225L240.429 250.257C240.396 248.693 241.156 247.201 242.452 246.287L248.257 242.191C248.469 242.042 248.757 242.183 248.763 242.438L248.888 248.317L240.514 254.225Z" fill="#2962F5"/>
<path d="M240.485 254.401C240.468 254.398 240.452 254.393 240.436 254.385C240.377 254.356 240.339 254.298 240.338 254.232L240.254 250.264C240.219 248.635 241.004 247.094 242.354 246.142L248.159 242.046C248.312 241.938 248.509 241.922 248.674 242.002C248.838 242.083 248.943 242.246 248.947 242.431L249.072 248.31C249.073 248.37 249.044 248.427 248.994 248.462L240.621 254.37C240.581 254.398 240.532 254.409 240.486 254.402L240.485 254.401ZM248.468 242.311C248.44 242.306 248.402 242.309 248.363 242.336L242.558 246.432C241.308 247.314 240.581 248.741 240.613 250.249L240.69 253.886L248.709 248.228L248.586 242.446C248.585 242.369 248.532 242.335 248.509 242.324C248.501 242.32 248.486 242.314 248.468 242.311L248.468 242.311Z" fill="black"/>
<path d="M242.081 256.444L245.782 257.86C247.241 258.419 248.899 258.204 250.195 257.29L256.001 253.194C256.212 253.045 256.177 252.726 255.939 252.635L250.455 250.536L242.081 256.444Z" fill="#2962F5"/>
<path d="M246.669 258.286C246.347 258.234 246.028 258.148 245.718 258.03L242.017 256.613C241.956 256.59 241.913 256.535 241.906 256.469C241.899 256.404 241.928 256.339 241.983 256.301L250.356 250.393C250.406 250.358 250.47 250.35 250.526 250.371L256.01 252.47C256.181 252.536 256.3 252.69 256.321 252.872C256.341 253.055 256.259 253.235 256.106 253.342L250.301 257.438C249.226 258.196 247.923 258.49 246.669 258.286L246.669 258.286ZM242.461 256.398L245.853 257.696C247.261 258.234 248.846 258.029 250.097 257.147L255.902 253.052C255.965 253.007 255.966 252.944 255.963 252.919C255.96 252.893 255.946 252.832 255.875 252.804L250.481 250.74L242.462 256.398L242.461 256.398Z" fill="black"/>
<path d="M253.736 254.193C253.725 254.191 253.714 254.188 253.704 254.184L249.23 252.565C249.137 252.531 249.091 252.429 249.127 252.336C249.163 252.243 249.267 252.195 249.359 252.228L253.832 253.848C253.925 253.881 253.971 253.984 253.936 254.077C253.904 254.159 253.819 254.206 253.735 254.192L253.736 254.193Z" fill="black"/>
<path d="M251.504 255.765C251.493 255.764 251.482 255.761 251.472 255.757L246.998 254.138C246.905 254.104 246.859 254.001 246.895 253.909C246.93 253.815 247.035 253.768 247.127 253.801L251.6 255.42C251.693 255.454 251.739 255.556 251.704 255.649C251.672 255.731 251.587 255.778 251.503 255.765L251.504 255.765Z" fill="black"/>
<path d="M240.208 257.087C240.162 257.08 240.121 257.056 240.092 257.015L239.312 255.906C239.256 255.825 239.276 255.713 239.358 255.656C239.44 255.598 239.552 255.616 239.608 255.696L240.388 256.806C240.445 256.886 240.424 256.998 240.342 257.056C240.301 257.085 240.253 257.095 240.208 257.087Z" fill="black"/>
<path d="M241.516 256.168C241.471 256.16 241.429 256.136 241.4 256.095L240.62 254.986C240.564 254.906 240.585 254.793 240.666 254.736C240.748 254.678 240.86 254.696 240.916 254.777L241.697 255.886C241.753 255.966 241.732 256.078 241.651 256.136C241.61 256.165 241.561 256.175 241.516 256.168Z" fill="black"/>
<path d="M242.832 255.244C242.787 255.236 242.745 255.212 242.717 255.171L241.937 254.062C241.881 253.982 241.901 253.87 241.983 253.812C242.065 253.754 242.177 253.773 242.233 253.853L243.013 254.962C243.069 255.043 243.049 255.155 242.967 255.212C242.926 255.241 242.878 255.251 242.832 255.244Z" fill="black"/>
</g>
<defs>
<clipPath id="clip0_579_16721">
<rect width="73.9783" height="74.4378" fill="white" transform="matrix(0.987009 0.160665 -0.181221 0.983442 185.054 231.625)"/>
</clipPath>
</defs>
</svg>
