<svg width="300" height="300" viewBox="0 0 300 300" fill="none" xmlns="http://www.w3.org/2000/svg">
<path d="M0 7.99999C0 3.58171 3.58172 0 8 0H292C296.418 0 300 3.58172 300 8V292C300 296.418 296.418 300 292 300H7.99999C3.58171 300 0 296.418 0 292V7.99999Z" fill="#F5F5F5"/>
<path d="M56.5242 202.163L56.625 202.251C58.3763 203.78 58.7332 203.964 58.7962 203.981C58.9936 204.006 59.4136 203.952 59.4136 203.952C59.7033 203.889 62.3239 202.297 62.5549 201.902C62.7649 201.541 62.8069 201.214 62.6725 200.978L61.589 198.341L61.6646 198.245C62.6053 197.039 63.231 195.742 63.525 194.389L63.546 194.297L64.5665 193.726C65.1419 193.402 65.4905 192.483 65.3309 191.714L64.9151 189.732C64.7555 188.963 64.0626 188.262 63.4074 188.195L62.2399 188.081L62.1853 188.006C61.8284 187.514 61.3832 187.031 60.8624 186.574C60.4677 186.225 60.0855 185.931 59.6907 185.675L59.6152 185.629C59.6152 185.629 58.3805 180.53 58.1243 180.543C58.1117 180.543 58.0865 180.547 58.0571 180.556C57.8765 180.593 56.2344 181.005 54.3152 183.701L54.2438 183.802L54.122 183.789C52.5765 183.63 50.9975 183.718 49.431 184.045C41.8464 185.637 38.0667 190.16 39.3224 196.145C39.8306 198.568 41.4727 200.638 43.9421 201.974L44.0512 202.033L44.1184 204.855C44.089 205.153 44.2612 205.434 44.5972 205.678C44.9668 205.947 48.4567 206.32 48.885 206.064C48.9144 206.039 49.1538 205.77 50.1701 203.612L50.2289 203.49H50.3633C52.4128 203.473 54.521 203.032 56.4066 202.222L56.5284 202.167L56.5242 202.163Z" fill="#A1C6FF" stroke="black" stroke-width="0.935446" stroke-miterlimit="10"/>
<path d="M59.2121 189.437C59.0273 189.437 58.8677 189.307 58.8299 189.127C58.8089 189.026 58.8299 188.921 58.8845 188.833C58.9433 188.744 59.0315 188.686 59.1323 188.665C59.1575 188.66 59.1869 188.656 59.2121 188.656C59.3969 188.656 59.5564 188.786 59.5942 188.967C59.6404 189.177 59.5019 189.387 59.2919 189.433C59.2667 189.437 59.2373 189.442 59.2121 189.442V189.437Z" fill="#A1C6FF"/>
<path d="M59.2163 188.23C59.1617 188.23 59.1029 188.235 59.0483 188.247C58.6115 188.34 58.3301 188.768 58.4225 189.209C58.5023 189.591 58.8383 189.856 59.2163 189.856C59.2709 189.856 59.3297 189.852 59.3843 189.839C59.821 189.747 60.1024 189.318 60.01 188.877C59.9302 188.495 59.5942 188.23 59.2163 188.23Z" fill="black"/>
<path d="M38.4784 187.909C38.3398 188.573 38.8815 189.186 39.4863 188.686C41.7751 186.788 36.3911 187.317 41.4979 189.577" fill="#A1C6FF"/>
<path d="M38.4784 187.909C38.3398 188.573 38.8815 189.186 39.4863 188.686C41.7751 186.788 36.3911 187.317 41.4979 189.577" stroke="black" stroke-width="0.935446" stroke-miterlimit="10"/>
<path d="M46.8315 186.369C46.7055 186.255 46.5879 186.129 46.4787 185.995C46.2099 185.655 46.0167 185.252 45.9201 184.794C45.5884 183.207 46.6047 181.648 48.1921 181.317C49.7754 180.985 51.3335 182.001 51.6653 183.589C51.7618 184.042 51.745 184.492 51.6317 184.912C51.5981 185.08 51.5393 185.243 51.4679 185.395" fill="#A1C6FF"/>
<path d="M46.8315 186.369C46.7055 186.255 46.5879 186.129 46.4787 185.995C46.2099 185.655 46.0167 185.252 45.9201 184.794C45.5884 183.207 46.6047 181.648 48.1921 181.317C49.7754 180.985 51.3335 182.001 51.6653 183.589C51.7618 184.042 51.745 184.492 51.6317 184.912C51.5981 185.08 51.5393 185.243 51.4679 185.395" stroke="black" stroke-width="0.935446" stroke-miterlimit="10"/>
<path d="M46.4786 185.992C46.1426 186.135 45.8067 186.299 45.4875 186.471C45.3699 186.534 45.3279 186.681 45.3909 186.799C45.4413 186.895 45.5505 186.941 45.6555 186.92C45.6765 186.916 45.7017 186.908 45.7185 186.895C46.0796 186.698 46.4492 186.522 46.8314 186.37C48.2928 185.757 49.8845 185.421 51.472 185.396C51.8836 185.388 52.2909 185.396 52.7025 185.43C52.8327 185.442 52.9503 185.341 52.9629 185.211C52.9713 185.077 52.8747 184.963 52.7403 184.951C52.3749 184.921 52.0053 184.905 51.6358 184.909" fill="#A1C6FF"/>
<path d="M46.4786 185.992C46.1426 186.135 45.8067 186.299 45.4875 186.471C45.3699 186.534 45.3279 186.681 45.3909 186.799C45.4413 186.895 45.5505 186.941 45.6555 186.92C45.6765 186.916 45.7017 186.908 45.7185 186.895C46.0796 186.698 46.4492 186.522 46.8314 186.37C48.2928 185.757 49.8845 185.421 51.472 185.396C51.8836 185.388 52.2909 185.396 52.7025 185.43C52.8327 185.442 52.9503 185.341 52.9629 185.211C52.9713 185.077 52.8747 184.963 52.7403 184.951C52.3749 184.921 52.0053 184.905 51.6358 184.909" stroke="black" stroke-width="0.935446" stroke-miterlimit="10"/>
<path d="M189.292 221.866C173.527 221.866 160.701 209.04 160.701 193.275C160.701 177.509 173.527 164.684 189.292 164.684C205.058 164.684 217.883 177.509 217.883 193.275C217.883 209.04 205.058 221.866 189.292 221.866Z" fill="#0064FF"/>
<path d="M189.292 165.075C204.864 165.075 217.488 177.699 217.488 193.271C217.488 208.843 204.864 221.468 189.292 221.468C173.72 221.468 161.095 208.843 161.095 193.271C161.095 177.699 173.72 165.075 189.292 165.075ZM189.292 164.285C173.308 164.285 160.302 177.287 160.302 193.275C160.302 209.263 173.304 222.266 189.292 222.266C205.28 222.266 218.282 209.263 218.282 193.275C218.282 177.287 205.28 164.285 189.292 164.285Z" fill="black"/>
<mask id="mask0_586_32453" style="mask-type:luminance" maskUnits="userSpaceOnUse" x="161" y="165" width="57" height="57">
<path d="M189.292 221.473C204.864 221.473 217.488 208.849 217.488 193.277C217.488 177.704 204.864 165.08 189.292 165.08C173.72 165.08 161.096 177.704 161.096 193.277C161.096 208.849 173.72 221.473 189.292 221.473Z" fill="white"/>
</mask>
<g mask="url(#mask0_586_32453)">
<path d="M215.393 240.315L215.338 228.976C215.393 215.949 212.134 216.629 208.846 216.457C190.43 215.491 200.388 215.756 199.468 222.374L194.794 240.55L215.397 240.319L215.393 240.315Z" fill="white" stroke="black" stroke-width="0.706262" stroke-miterlimit="10"/>
<path d="M164.002 240.309L164.056 228.563C164.002 215.069 167.261 215.775 170.549 215.594C188.964 214.595 179.007 214.868 179.927 221.722L184.601 240.549L163.998 240.309H164.002Z" fill="white" stroke="black" stroke-width="0.706262" stroke-miterlimit="10"/>
<path d="M209.018 240.316L211.34 216.412L189.695 207.861V240.316H209.018Z" fill="#002850" stroke="black" stroke-width="0.706262" stroke-miterlimit="10"/>
<path d="M170.377 240.316L168.054 215.517L189.695 207.861V240.316H170.377Z" fill="#002850" stroke="black" stroke-width="0.706262" stroke-miterlimit="10"/>
<path d="M199.279 211.501L198.75 212.849L197.62 215.743L197.607 215.772L191.883 230.42L190.854 233.049C190.854 233.049 190.854 233.058 190.85 233.062L189.691 236.023L189.67 236.081L187.52 231.017H187.516L186.768 229.253L183.526 221.618L179.902 213.088L179.255 211.564L184.261 208.704V208.62L184.269 208.553H194.613L194.605 208.83L199.275 211.497L199.279 211.501Z" fill="white" stroke="black" stroke-width="0.706262" stroke-miterlimit="10"/>
<path d="M194.789 202.643L194.621 208.556L194.613 208.833L194.609 208.967L194.567 210.198L194.554 210.698L194.533 211.449L194.453 214.208L193.609 214.775C192.446 215.548 191.127 215.951 189.8 215.951C189.771 215.951 189.733 215.951 189.704 215.947C189.582 215.947 189.464 215.943 189.342 215.93H189.338C189.082 215.918 188.834 215.884 188.578 215.838L188.465 215.817C188.347 215.796 188.242 215.766 188.129 215.741C187.969 215.695 187.801 215.645 187.642 215.59C186.302 215.12 185.13 214.221 184.294 213.003L184.139 212.772L184.168 211.689L184.219 209.799L184.273 208.719V208.635L184.282 208.568L184.374 206.855L184.53 203.797L194.794 202.655L194.789 202.643Z" fill="#FFCD9F" stroke="black" stroke-width="0.706262" stroke-linecap="round" stroke-linejoin="round"/>
<path d="M202.202 193.041C202.193 195.62 201.685 197.707 200.778 199.425C199.678 201.508 197.998 203.049 195.928 204.246C195.545 204.468 195.142 204.678 194.731 204.867C191.631 206.299 187.839 206.791 184.42 205.984C181.439 205.279 178.747 203.586 177.037 200.676C176.634 199.996 176.387 199.29 176.248 198.585C175.673 195.615 177.096 192.575 177.999 191.021C178.39 190.353 178.68 189.963 178.68 189.963L178.449 187.279L177.932 181.261V181.253C177.932 181.253 186.856 177.536 191.174 177.166C195.491 176.797 201.433 183.781 202.105 190.853C202.147 191.269 202.172 191.676 202.189 192.067C202.202 192.399 202.21 192.722 202.21 193.041H202.202Z" fill="#FFCD9F"/>
<path d="M192.081 193.739C192.811 193.009 194.059 192.605 194.827 192.605C195.596 192.605 196.352 192.832 196.986 193.261C197.62 193.685 198.12 194.294 198.414 195.003C198.708 195.713 198.783 196.499 198.632 197.246C198.481 198.002 198.111 198.695 197.574 199.233C197.024 199.77 196.335 200.14 195.587 200.291C194.831 200.442 194.055 200.366 193.345 200.072C192.635 199.778 192.03 199.279 191.602 198.645C191.178 198.002 190.947 197.254 190.947 196.486C190.947 195.453 191.354 194.47 192.081 193.739Z" fill="#FFA195"/>
<path d="M186.676 182.514C184.206 187.239 178.507 187.276 178.507 187.276C169.402 187.419 165.724 168.063 183.182 169.659C193.941 163.359 201.358 171.015 201.114 175.807C203.033 175.559 210.693 175.988 209.786 186.655C209.182 193.689 201.71 193.803 198.96 192.24C196.205 190.678 195.856 182.291 195.856 182.291C191.32 184.391 186.684 182.518 186.684 182.518L186.676 182.514Z" fill="black"/>
<path d="M195.121 190.549C193.912 188.768 192.593 188.247 190.691 188.36" stroke="black" stroke-width="0.706262" stroke-linecap="round" stroke-linejoin="round"/>
<path d="M190.531 191.855C190.682 191.696 190.955 191.607 191.119 191.607C191.283 191.607 191.442 191.654 191.581 191.75C191.719 191.847 191.829 191.977 191.892 192.128C191.959 192.279 191.967 192.452 191.938 192.611C191.908 192.771 191.824 192.922 191.711 193.035C191.598 193.149 191.446 193.233 191.287 193.262C191.127 193.291 190.955 193.283 190.804 193.216C190.644 193.149 190.518 193.044 190.426 192.905C190.329 192.771 190.283 192.603 190.283 192.443C190.283 192.225 190.367 192.019 190.531 191.855Z" fill="black"/>
<path d="M181.292 191.125C181.443 190.965 181.716 190.877 181.88 190.877C182.043 190.877 182.203 190.923 182.342 191.02C182.48 191.116 182.589 191.247 182.652 191.398C182.72 191.549 182.728 191.721 182.699 191.881C182.669 192.04 182.585 192.191 182.472 192.305C182.358 192.418 182.207 192.502 182.048 192.532C181.888 192.561 181.716 192.553 181.565 192.485C181.405 192.418 181.279 192.313 181.187 192.175C181.09 192.04 181.044 191.872 181.044 191.713C181.044 191.494 181.128 191.289 181.292 191.125Z" fill="black"/>
<path d="M184.622 196.892C183.769 195.775 184.488 193.684 184.488 193.684" stroke="black" stroke-width="0.706262" stroke-miterlimit="10"/>
<path d="M188.633 199.236C187.507 200.076 185.424 199.341 185.424 199.341" stroke="black" stroke-width="0.706262" stroke-miterlimit="10"/>
<path d="M189.107 197.893C189.107 197.893 190.048 198.523 190.287 199.434" stroke="black" stroke-width="0.706262" stroke-miterlimit="10"/>
<path d="M192.412 229.08C191.031 232.096 189.674 236.085 189.674 236.085C188.633 233.83 187.625 231.256 186.76 229.345C187.121 226.493 187.574 222.327 187.684 221.613H190.678L192.412 229.084V229.08Z" fill="#0064FF" stroke="black" stroke-width="0.706262" stroke-miterlimit="10"/>
<path d="M192.068 217.48L191.678 219.845L191.136 223.095H187.675C187.675 223.095 186.735 217.707 186.604 216.766C186.546 216.35 186.739 215.947 186.995 215.947H191.367C191.841 215.947 192.194 216.707 192.068 217.48Z" fill="#0064FF" stroke="black" stroke-width="0.706262" stroke-miterlimit="10"/>
<path d="M189.33 215.926V215.93L189.313 215.951L186.86 218.354L183.53 221.621L179.91 213.091L179.259 211.567L184.269 208.707L185.936 211.088L189.33 215.926Z" fill="white" stroke="black" stroke-width="0.706262" stroke-miterlimit="10"/>
<path d="M199.396 211.567L198.838 212.877L197.62 215.746L197.607 215.775L195.125 221.621L191.908 218.459L189.695 216.287L189.347 215.951L189.33 215.93V215.926H189.334L189.695 215.41L192.858 210.887L194.386 208.707L194.609 208.833V208.837L199.279 211.5L199.396 211.567Z" fill="white" stroke="black" stroke-width="0.706262" stroke-miterlimit="10"/>
<path d="M180.855 195.545C180.704 196.301 180.338 196.994 179.797 197.531C179.246 198.069 178.553 198.438 177.81 198.59C177.281 198.699 176.752 198.69 176.244 198.581C175.668 195.612 177.092 192.571 177.995 191.018C178.427 191.127 178.839 191.307 179.209 191.559C179.843 191.984 180.347 192.592 180.637 193.298C180.93 194.008 181.006 194.793 180.855 195.545Z" fill="#FFA195"/>
<path d="M202.202 193.041C202.193 195.62 201.685 197.707 200.778 199.425C199.678 201.508 197.998 203.049 195.928 204.246C195.545 204.468 195.142 204.678 194.731 204.867C191.631 206.299 187.839 206.791 184.42 205.984C181.439 205.279 178.747 203.586 177.037 200.676C176.634 199.996 176.387 199.29 176.248 198.585C175.673 195.615 177.096 192.575 177.999 191.021C178.39 190.353 178.68 189.963 178.68 189.963L178.449 187.279L177.932 181.261V181.253C177.932 181.253 186.856 177.536 191.174 177.166C195.491 176.797 201.433 183.781 202.105 190.853C202.147 191.269 202.172 191.676 202.189 192.067C202.202 192.399 202.21 192.722 202.21 193.041H202.202Z" stroke="black" stroke-width="0.706262" stroke-linecap="round" stroke-linejoin="round"/>
<path d="M199.472 193.32L200.976 192.451C201.669 192.052 202.492 191.951 203.256 192.157C204.033 192.367 204.684 192.866 205.083 193.559C205.482 194.252 205.595 195.075 205.385 195.84C205.175 196.604 204.675 197.268 203.983 197.667L200.526 199.561L199.468 193.324L199.472 193.32Z" fill="#FFCD9F"/>
<path d="M199.472 193.32L200.976 192.451C201.668 192.052 202.492 191.951 203.256 192.157C204.033 192.367 204.684 192.866 205.083 193.559C205.482 194.252 205.595 195.075 205.385 195.84C205.175 196.604 204.675 197.268 203.982 197.667L200.526 199.561" stroke="black" stroke-width="0.706262" stroke-linecap="round" stroke-linejoin="round"/>
</g>
<path d="M181.199 191.038C181.359 190.866 181.649 190.777 181.821 190.777C181.993 190.777 182.161 190.828 182.312 190.929C182.463 191.029 182.573 191.168 182.644 191.327C182.715 191.487 182.724 191.668 182.694 191.84C182.665 192.012 182.573 192.172 182.455 192.289C182.333 192.411 182.174 192.499 182.006 192.529C181.833 192.558 181.657 192.55 181.493 192.478C181.321 192.407 181.191 192.298 181.094 192.146C180.994 192.008 180.943 191.827 180.943 191.655C180.943 191.424 181.031 191.206 181.203 191.034L181.199 191.038Z" fill="black"/>
<path d="M190.493 191.852C190.653 191.68 190.942 191.592 191.115 191.592C191.287 191.592 191.455 191.642 191.606 191.743C191.757 191.844 191.866 191.982 191.938 192.142C192.009 192.302 192.018 192.482 191.988 192.654C191.959 192.826 191.866 192.986 191.749 193.104C191.627 193.225 191.467 193.314 191.299 193.343C191.127 193.372 190.951 193.364 190.787 193.293C190.615 193.221 190.485 193.112 190.388 192.961C190.287 192.822 190.237 192.642 190.237 192.47C190.237 192.239 190.325 192.02 190.497 191.848L190.493 191.852Z" fill="black"/>
<path d="M104.564 221.93C88.7983 221.93 75.9726 209.105 75.9726 193.339C75.9726 177.574 88.7983 164.748 104.564 164.748C120.329 164.748 133.155 177.574 133.155 193.339C133.155 209.105 120.329 221.93 104.564 221.93Z" fill="#0064FF"/>
<path d="M104.564 165.139C120.136 165.139 132.76 177.763 132.76 193.336C132.76 208.908 120.136 221.532 104.564 221.532C88.9915 221.532 76.3673 208.908 76.3673 193.336C76.3673 177.763 88.9915 165.139 104.564 165.139ZM104.564 164.35C88.5799 164.35 75.5736 177.352 75.5736 193.34C75.5736 209.328 88.5757 222.33 104.564 222.33C120.552 222.33 133.554 209.328 133.554 193.34C133.554 177.352 120.552 164.35 104.564 164.35Z" fill="black"/>
<path d="M104.564 221.537C120.136 221.537 132.76 208.913 132.76 193.341C132.76 177.769 120.136 165.145 104.564 165.145C88.9914 165.145 76.3674 177.769 76.3674 193.341C76.3674 208.913 88.9914 221.537 104.564 221.537Z" fill="#0064FF"/>
<mask id="mask1_586_32453" style="mask-type:luminance" maskUnits="userSpaceOnUse" x="76" y="165" width="57" height="57">
<path d="M104.564 221.535C120.136 221.535 132.76 208.911 132.76 193.339C132.76 177.767 120.136 165.143 104.564 165.143C88.9914 165.143 76.3674 177.767 76.3674 193.339C76.3674 208.911 88.9914 221.535 104.564 221.535Z" fill="white"/>
</mask>
<g mask="url(#mask1_586_32453)">
<path d="M89.0505 182.831C89.0505 182.831 73.3942 223.735 104.635 220.006C125.398 217.528 128.023 208.612 123.555 185.472C119.086 162.332 94.0858 162.534 89.0505 182.831Z" fill="black" stroke="black" stroke-width="0.60804" stroke-miterlimit="10"/>
<path d="M97.1809 191.882L93.5314 188.808C93.2038 188.518 92.8133 188.317 92.4059 188.178C91.9985 188.044 91.5492 187.985 91.125 188.027C90.6798 188.077 90.2599 188.174 89.8777 188.384C89.4829 188.573 89.168 188.863 88.874 189.19C88.5842 189.518 88.3826 189.908 88.244 190.316C88.1307 190.715 88.0719 191.164 88.1139 191.584C88.1643 192.029 88.2818 192.437 88.4918 192.823C88.6808 193.218 88.9706 193.533 89.2982 193.827L94.2243 197.917L98.4492 192.878L97.1851 191.882H97.1809Z" fill="#FDD3BB"/>
<path d="M129.636 232.527L129.581 224.014C129.548 218.332 126.049 213.246 120.754 211.184L114.463 208.732C113.912 208.35 113.245 208.127 112.522 208.127H102.935C102.212 208.127 101.544 208.35 100.994 208.732L94.7032 211.184C89.4074 213.246 85.9091 218.332 85.8755 224.014L85.8251 232.527H129.636Z" fill="white" stroke="black" stroke-width="0.715616" stroke-miterlimit="10" stroke-linecap="round"/>
<path d="M112.753 192.002H99.978V208.322H112.753V192.002Z" fill="#FDD3BB" stroke="black" stroke-width="0.715616" stroke-miterlimit="10"/>
<path d="M115.252 189.227C115.626 190.416 115.806 191.688 115.773 193.003C115.752 193.755 115.659 194.49 115.504 195.199C115.424 195.581 115.323 195.968 115.193 196.333C113.627 201.142 109.041 204.552 103.728 204.409C97.2481 204.233 92.1413 198.845 92.3177 192.364C92.3513 191.134 92.5739 189.95 92.9561 188.845C92.9561 188.845 92.9603 188.824 92.9645 188.816C92.9855 188.749 93.0107 188.681 93.0401 188.618C92.6663 187.43 92.4857 186.157 92.5193 184.843C92.5529 183.612 92.7755 182.428 93.1577 181.324C93.1577 181.324 93.1619 181.303 93.1661 181.294C94.7997 176.595 99.3269 173.285 104.564 173.428C104.833 173.437 105.097 173.453 105.353 173.479C106.324 177.716 110.057 180.925 114.597 181.046C114.807 181.051 115.021 181.055 115.227 181.038C115.748 182.416 116.008 183.915 115.966 185.473C115.945 186.225 115.853 186.96 115.697 187.669C115.617 188.051 115.517 188.438 115.386 188.803C115.344 188.942 115.294 189.08 115.244 189.215L115.252 189.227Z" fill="#FDD3BB" stroke="black" stroke-width="0.715616" stroke-miterlimit="10"/>
<path d="M98.4283 194.435C98.4283 196.426 96.8198 198.034 94.8292 198.034C94.5142 198.034 94.2076 197.996 93.9178 197.921C93.0485 196.224 92.5781 194.296 92.6369 192.251C92.6411 192.02 92.6579 191.789 92.6747 191.558C93.2753 191.105 94.0186 190.836 94.825 190.836C96.8156 190.836 98.4241 192.449 98.4241 194.435H98.4283Z" fill="#FFB2AB"/>
<path d="M97.0004 190.471C97.0298 190.593 97.097 190.702 97.1852 190.782C97.2776 190.866 97.391 190.921 97.5128 190.937C97.6346 190.954 97.7606 190.937 97.8739 190.887C97.9873 190.832 98.0797 190.748 98.1427 190.643C98.2057 190.538 98.2393 190.417 98.2309 190.291C98.2267 190.169 98.1847 190.047 98.1091 189.946C98.0377 189.845 97.9327 189.77 97.8194 189.728C97.7018 189.686 97.5758 189.677 97.4582 189.707C97.2986 189.749 97.16 189.85 97.0718 189.992C96.9878 190.135 96.9584 190.303 97.0004 190.467" fill="black"/>
<path d="M106.496 190.471C106.525 190.593 106.592 190.702 106.681 190.782C106.773 190.866 106.886 190.921 107.008 190.937C107.13 190.954 107.256 190.937 107.369 190.887C107.483 190.832 107.575 190.748 107.638 190.643C107.701 190.538 107.735 190.417 107.726 190.291C107.722 190.169 107.68 190.047 107.604 189.946C107.533 189.845 107.428 189.77 107.315 189.728C107.197 189.686 107.071 189.677 106.954 189.707C106.794 189.749 106.655 189.85 106.567 189.992C106.483 190.135 106.454 190.303 106.496 190.467" fill="black"/>
<path d="M118.12 182.573C118.12 184.728 116.755 186.563 114.849 187.264L112.472 181.994C112.224 181.439 111.477 181.355 111.103 181.838L106.693 187.571H94.9299C93.145 187.571 91.6962 186.126 91.6962 184.337V180.755C91.6962 175.929 95.606 172.02 100.431 172.02H107.567C113.396 172.02 118.116 176.744 118.116 182.569L118.12 182.573Z" fill="black"/>
<path d="M99.1169 196.844H106.823C106.823 196.844 107.117 201.178 103.85 201.337C100.226 201.514 99.4319 199.305 99.1169 196.844Z" fill="white" stroke="black" stroke-width="0.715616" stroke-miterlimit="10"/>
<path d="M111.913 189.863L115.563 186.789C115.89 186.499 116.281 186.297 116.688 186.159C117.096 186.024 117.545 185.966 117.969 186.008C118.414 186.058 118.834 186.154 119.217 186.364C119.611 186.553 119.926 186.843 120.22 187.171C120.51 187.498 120.712 187.889 120.85 188.296C120.964 188.695 121.022 189.145 120.98 189.565C120.93 190.01 120.812 190.417 120.602 190.804C120.413 191.198 120.124 191.513 119.796 191.807L114.87 195.898L110.645 190.858L111.909 189.863H111.913Z" fill="#FDD3BB"/>
<path d="M111.33 197.232C113.32 197.232 114.933 195.619 114.933 193.629C114.933 191.639 113.32 190.025 111.33 190.025C109.34 190.025 107.726 191.639 107.726 193.629C107.726 195.619 109.34 197.232 111.33 197.232Z" fill="#FFB2AB"/>
<path d="M101.019 195.257L98.9406 194.299L100.746 192.002" stroke="black" stroke-width="0.715616" stroke-miterlimit="10"/>
<path d="M100.432 209.517C99.4992 209.517 98.7433 208.761 98.7433 207.833C98.7433 206.905 99.495 206.141 100.432 206.141C100.99 206.141 101.486 206.414 101.796 206.834C102.099 206.414 102.599 206.141 103.157 206.141C103.674 206.141 104.144 206.376 104.459 206.745C104.766 206.376 105.232 206.141 105.748 206.141C106.307 206.141 106.802 206.414 107.113 206.834C107.416 206.414 107.915 206.141 108.474 206.141C108.99 206.141 109.461 206.376 109.776 206.745C110.082 206.376 110.549 206.141 111.065 206.141C111.624 206.141 112.119 206.414 112.43 206.834C112.732 206.414 113.232 206.141 113.791 206.141C114.723 206.141 115.483 206.897 115.483 207.833C115.483 208.77 114.727 209.517 113.791 209.517" fill="white"/>
<path d="M100.432 209.517C99.4992 209.517 98.7433 208.761 98.7433 207.833C98.7433 206.905 99.495 206.141 100.432 206.141C100.99 206.141 101.486 206.414 101.796 206.834C102.099 206.414 102.599 206.141 103.157 206.141C103.674 206.141 104.144 206.376 104.459 206.745C104.766 206.376 105.232 206.141 105.748 206.141C106.307 206.141 106.802 206.414 107.113 206.834C107.416 206.414 107.915 206.141 108.474 206.141C108.99 206.141 109.461 206.376 109.776 206.745C110.082 206.376 110.549 206.141 111.065 206.141C111.624 206.141 112.119 206.414 112.43 206.834C112.732 206.414 113.232 206.141 113.791 206.141C114.723 206.141 115.483 206.897 115.483 207.833C115.483 208.77 114.727 209.517 113.791 209.517" stroke="black" stroke-width="0.715616" stroke-miterlimit="10"/>
<path d="M97.013 189.696C97.1726 189.524 97.4624 189.436 97.6346 189.436C97.8067 189.436 97.9747 189.486 98.1259 189.587C98.2771 189.688 98.3863 189.826 98.4577 189.986C98.5291 190.145 98.5375 190.326 98.5081 190.498C98.4787 190.67 98.3863 190.83 98.2687 190.947C98.1469 191.069 97.9873 191.157 97.8193 191.187C97.6472 191.216 97.4708 191.208 97.307 191.136C97.1348 191.065 97.0046 190.956 96.908 190.805C96.8072 190.666 96.7568 190.485 96.7568 190.313C96.7568 190.082 96.845 189.864 97.0172 189.692L97.013 189.696Z" fill="black"/>
<path d="M106.324 189.696C106.483 189.524 106.773 189.436 106.945 189.436C107.117 189.436 107.285 189.486 107.437 189.587C107.588 189.688 107.697 189.826 107.768 189.986C107.84 190.145 107.848 190.326 107.819 190.498C107.789 190.67 107.697 190.83 107.579 190.947C107.458 191.069 107.298 191.157 107.13 191.187C106.958 191.216 106.781 191.208 106.618 191.136C106.445 191.065 106.315 190.956 106.219 190.805C106.118 190.666 106.067 190.485 106.067 190.313C106.067 190.082 106.156 189.864 106.328 189.692L106.324 189.696Z" fill="black"/>
</g>
<path d="M147.165 172.864C131.4 172.864 118.574 160.038 118.574 144.273C118.574 128.507 131.4 115.682 147.165 115.682C162.931 115.682 175.756 128.507 175.756 144.273C175.756 160.038 162.931 172.864 147.165 172.864Z" fill="#0064FF"/>
<path d="M147.161 116.073C162.733 116.073 175.358 128.697 175.358 144.269C175.358 159.842 162.733 172.466 147.161 172.466C131.589 172.466 118.965 159.842 118.965 144.269C118.965 128.697 131.589 116.073 147.161 116.073ZM147.161 115.283C131.177 115.283 118.171 128.285 118.171 144.273C118.171 160.261 131.173 173.264 147.161 173.264C163.149 173.264 176.151 160.261 176.151 144.273C176.151 128.285 163.149 115.283 147.161 115.283Z" fill="black"/>
<path d="M147.161 172.469C162.733 172.469 175.357 159.845 175.357 144.273C175.357 128.7 162.733 116.076 147.161 116.076C131.589 116.076 118.965 128.7 118.965 144.273C118.965 159.845 131.589 172.469 147.161 172.469Z" fill="#0064FF"/>
<mask id="mask2_586_32453" style="mask-type:luminance" maskUnits="userSpaceOnUse" x="118" y="116" width="58" height="57">
<path d="M147.161 172.473C162.733 172.473 175.357 159.849 175.357 144.277C175.357 128.704 162.733 116.08 147.161 116.08C131.588 116.08 118.964 128.704 118.964 144.277C118.964 159.849 131.588 172.473 147.161 172.473Z" fill="white"/>
</mask>
<g mask="url(#mask2_586_32453)">
<path d="M161.633 128.043C161.633 128.043 169.024 139.844 163.976 148.185C159.936 154.854 151.503 155.618 149.815 155.488C134.239 154.261 126.851 142.154 130.87 129.689C135.146 116.423 153.83 115.574 161.637 128.047L161.633 128.043Z" fill="black" stroke="black" stroke-width="0.449014" stroke-miterlimit="10" stroke-linecap="round"/>
<path d="M158.496 144.932L156.656 149.909C156.484 150.379 156.866 150.866 157.408 150.866H161.188C161.734 150.866 162.116 150.371 161.931 149.9L159.987 144.924C159.735 144.277 158.731 144.285 158.492 144.936L158.496 144.932Z" fill="#0064FF" stroke="black" stroke-width="0.682876" stroke-miterlimit="10" stroke-linecap="round"/>
<path d="M179.549 186.57L179.494 177.427C179.456 171.325 175.698 165.862 170.011 163.648L161.696 160.406V186.57H179.544H179.549Z" fill="white" stroke="black" stroke-width="0.715616" stroke-miterlimit="10" stroke-linecap="round"/>
<path d="M168.835 186.57L171.284 164.186L153.553 157.273V186.57H168.835Z" fill="white" stroke="black" stroke-width="0.715616" stroke-miterlimit="10" stroke-linecap="round"/>
<path d="M115.332 186.57L115.386 177.427C115.424 171.325 119.183 165.862 124.869 163.648L133.185 160.406V186.57H115.336H115.332Z" fill="white" stroke="black" stroke-width="0.715616" stroke-miterlimit="10" stroke-linecap="round"/>
<path d="M126.045 186.57L123.597 164.186L141.328 157.273V186.57H126.045Z" fill="white" stroke="black" stroke-width="0.715616" stroke-miterlimit="10" stroke-linecap="round"/>
<path d="M155.926 186.221H138.375V162.673C138.375 158.356 141.882 154.849 146.199 154.849H148.106C152.423 154.849 155.93 158.356 155.93 162.673V186.221H155.926Z" fill="#2E3192" stroke="black" stroke-width="0.715616" stroke-miterlimit="10" stroke-linecap="round"/>
<path d="M135.142 138.74C135.142 140.881 135.687 142.893 136.645 144.644C137.073 145.43 137.59 146.165 138.178 146.832C140.433 149.407 143.742 151.036 147.434 151.036C153.717 151.036 158.895 146.333 159.638 140.247C159.642 140.222 159.642 140.205 159.642 140.189C159.701 139.718 159.73 139.231 159.73 138.74C159.73 132.054 154.393 126.607 147.732 126.447C148.211 127.564 148.471 128.795 148.471 130.088C148.471 130.899 148.37 131.684 148.173 132.432C147.136 136.459 143.482 139.433 139.135 139.433C138.934 139.433 138.728 139.428 138.531 139.407C137.325 139.332 136.179 139.029 135.142 138.534C135.137 138.601 135.137 138.668 135.137 138.74H135.142Z" fill="white" stroke="black" stroke-width="0.519172" stroke-miterlimit="10" stroke-linecap="round"/>
<path d="M147.438 167.66C144.066 167.66 141.328 164.922 141.328 161.55V142.983H153.553V161.55C153.553 164.922 150.815 167.66 147.442 167.66H147.438Z" fill="#FFCD9F" stroke="black" stroke-width="0.715616" stroke-miterlimit="10" stroke-linecap="round"/>
<path d="M137.888 140.321C137.531 141.459 137.359 142.673 137.393 143.933C137.414 144.651 137.502 145.357 137.649 146.037C137.724 146.406 137.821 146.772 137.947 147.125C139.446 151.723 143.835 154.986 148.912 154.848C155.111 154.68 159.999 149.523 159.831 143.328C159.798 142.152 159.588 141.018 159.222 139.964C159.222 139.964 159.218 139.947 159.214 139.935C159.193 139.872 159.168 139.805 159.143 139.746C159.5 138.608 159.672 137.394 159.638 136.134C159.605 134.958 159.395 133.824 159.029 132.77C159.029 132.77 159.025 132.753 159.021 132.741C157.458 128.247 153.124 125.081 148.114 125.215C147.858 125.223 147.606 125.24 147.358 125.265C146.43 129.318 142.861 132.388 138.514 132.506C138.312 132.51 138.107 132.514 137.909 132.497C137.414 133.816 137.162 135.248 137.199 136.739C137.22 137.457 137.309 138.163 137.456 138.843C137.531 139.208 137.628 139.578 137.754 139.931C137.796 140.065 137.842 140.195 137.892 140.325L137.888 140.321Z" fill="#FFCD9F" stroke="black" stroke-width="0.715616" stroke-miterlimit="10" stroke-linecap="round"/>
<path d="M140.198 140.334L136.708 137.394C136.393 137.117 136.019 136.924 135.629 136.794C135.238 136.663 134.806 136.609 134.402 136.647C133.978 136.697 133.575 136.785 133.205 136.987C132.827 137.171 132.525 137.444 132.248 137.755C131.971 138.07 131.778 138.444 131.647 138.835C131.538 139.212 131.484 139.645 131.521 140.048C131.572 140.472 131.681 140.867 131.883 141.233C132.067 141.61 132.34 141.913 132.651 142.19L137.363 146.104L141.403 141.283L140.194 140.33L140.198 140.334Z" fill="#FFCD9F"/>
<path d="M153.742 155.619L160.1 163.766L158.311 166.639L161.091 169.65L155.527 186.222H151.948C151.948 186.222 155.056 166.257 153.737 155.619H153.742Z" fill="#0064FF" stroke="black" stroke-width="0.715616" stroke-miterlimit="10" stroke-linecap="round"/>
<path d="M141.16 155.619L134.801 163.766L136.59 166.639L133.81 169.65L139.375 186.222H142.953C142.953 186.222 139.845 166.257 141.164 155.619H141.16Z" fill="#0064FF" stroke="black" stroke-width="0.715616" stroke-miterlimit="10" stroke-linecap="round"/>
<path d="M147.782 147.869C147.782 147.869 150.08 149.158 151.848 148.058" stroke="black" stroke-width="0.715616" stroke-miterlimit="10" stroke-linecap="round"/>
<path d="M150.945 145.386L152.936 144.47L151.205 142.27" stroke="black" stroke-width="0.715616" stroke-miterlimit="10" stroke-linecap="round"/>
<path d="M137.456 138.844C137.456 138.844 147.715 130.643 146.14 125.355C146.14 125.355 132.143 124.658 137.456 138.844Z" fill="black" stroke="black" stroke-width="0.519172" stroke-miterlimit="10" stroke-linecap="round"/>
<path d="M136.611 144.77L134.772 149.747C134.6 150.217 134.982 150.704 135.524 150.704H139.303C139.849 150.704 140.232 150.209 140.047 149.738L138.102 144.762C137.85 144.115 136.847 144.123 136.607 144.774L136.611 144.77Z" fill="#0064FF" stroke="black" stroke-width="0.682876" stroke-miterlimit="10" stroke-linecap="round"/>
<path d="M145.683 139.409C145.842 139.237 146.132 139.148 146.304 139.148C146.476 139.148 146.644 139.199 146.796 139.3C146.947 139.4 147.056 139.539 147.127 139.699C147.199 139.858 147.207 140.039 147.178 140.211C147.148 140.383 147.056 140.543 146.938 140.66C146.817 140.782 146.657 140.87 146.489 140.9C146.317 140.929 146.14 140.921 145.977 140.849C145.804 140.778 145.674 140.669 145.578 140.518C145.477 140.379 145.427 140.198 145.427 140.026C145.427 139.795 145.515 139.577 145.687 139.405L145.683 139.409Z" fill="black"/>
<path d="M153.948 139.409C154.107 139.237 154.397 139.148 154.569 139.148C154.741 139.148 154.909 139.199 155.06 139.3C155.212 139.4 155.321 139.539 155.392 139.699C155.464 139.858 155.472 140.039 155.443 140.211C155.413 140.383 155.321 140.543 155.203 140.66C155.081 140.782 154.922 140.87 154.754 140.9C154.582 140.929 154.405 140.921 154.242 140.849C154.069 140.778 153.939 140.669 153.843 140.518C153.742 140.379 153.691 140.198 153.691 140.026C153.691 139.795 153.78 139.577 153.952 139.405L153.948 139.409Z" fill="black"/>
<path d="M159.495 143.326C159.542 144.909 159.252 146.421 158.702 147.799C158.374 147.9 158.021 147.958 157.656 147.958C155.753 147.958 154.208 146.413 154.208 144.51C154.208 142.608 155.753 141.062 157.656 141.062C158.252 141.062 158.807 141.209 159.29 141.478C159.411 142.075 159.474 142.696 159.495 143.322V143.326Z" fill="#FFA195"/>
<path d="M142.289 146.899C144.191 146.899 145.733 145.357 145.733 143.455C145.733 141.554 144.191 140.012 142.289 140.012C140.387 140.012 138.846 141.554 138.846 143.455C138.846 145.357 140.387 146.899 142.289 146.899Z" fill="#FFA195"/>
<path d="M141.479 125.784C141.479 125.784 158.151 133.902 160.822 146.833C160.822 146.833 169.016 127.342 148.408 122.811C143.642 121.765 141.479 125.78 141.479 125.78V125.784Z" fill="black"/>
</g>
<path d="M234.01 172.864C218.244 172.864 205.418 160.038 205.418 144.273C205.418 128.507 218.244 115.682 234.01 115.682C249.775 115.682 262.605 128.507 262.605 144.273C262.605 160.038 249.779 172.864 234.01 172.864Z" fill="#0064FF"/>
<path d="M234.01 116.073C249.582 116.073 262.206 128.697 262.206 144.269C262.206 159.842 249.582 172.466 234.01 172.466C218.437 172.466 205.813 159.842 205.813 144.269C205.813 128.697 218.437 116.073 234.01 116.073ZM234.01 115.283C218.026 115.283 205.019 128.285 205.019 144.273C205.019 160.261 218.022 173.264 234.01 173.264C249.998 173.264 263 160.261 263 144.273C263 128.285 249.998 115.283 234.01 115.283Z" fill="black"/>
<path d="M234.01 172.469C249.582 172.469 262.206 159.845 262.206 144.273C262.206 128.7 249.582 116.076 234.01 116.076C218.437 116.076 205.813 128.7 205.813 144.273C205.813 159.845 218.437 172.469 234.01 172.469Z" fill="#0064FF"/>
<mask id="mask3_586_32453" style="mask-type:luminance" maskUnits="userSpaceOnUse" x="205" y="116" width="58" height="57">
<path d="M234.01 172.473C249.582 172.473 262.206 159.849 262.206 144.277C262.206 128.704 249.582 116.08 234.01 116.08C218.437 116.08 205.813 128.704 205.813 144.277C205.813 159.849 218.437 172.473 234.01 172.473Z" fill="white"/>
</mask>
<g mask="url(#mask3_586_32453)">
<path d="M240.696 145.633H227.572V167.685H240.696V145.633Z" fill="#F2AF7D" stroke="black" stroke-width="0.706262" stroke-miterlimit="10"/>
<path d="M242.136 161.623H226.127V176.62H242.136V161.623Z" fill="white" stroke="black" stroke-width="0.715616" stroke-miterlimit="10" stroke-linecap="round"/>
<path d="M228.45 155.682C243.782 156.291 242.93 144.801 243.413 141.983C244.391 136.048 243.577 129.934 241.422 128.233C239.902 127.019 237.399 126.423 233.976 126.444C228.269 126.477 221.759 130.648 221.696 130.673L221.524 128.346L221.818 139.337C221.289 140.105 219.051 145.212 221.604 150.243C224.162 155.274 228.45 155.682 228.45 155.682Z" fill="#F2AF7D" stroke="black" stroke-width="0.706262" stroke-miterlimit="10"/>
<path d="M222.125 142.824C221.465 142.723 221.045 142.782 220.777 142.987C220.668 143.936 220.63 144.877 220.693 145.83C220.743 146.859 220.941 147.884 221.306 148.85C222.091 148.942 222.893 148.72 223.523 148.233C224.157 147.741 224.561 147.032 224.678 146.242C224.796 145.457 224.573 144.659 224.099 144.012C223.62 143.378 222.91 142.95 222.125 142.819V142.824Z" fill="#EE887B"/>
<path d="M233.552 145.452C233.737 144.881 234.081 144.369 234.56 143.999C235.026 143.63 235.597 143.399 236.202 143.348C236.807 143.298 237.403 143.432 237.932 143.714C238.461 144.008 238.881 144.453 239.163 144.978C239.444 145.515 239.545 146.12 239.474 146.721C239.402 147.321 239.167 147.888 238.772 148.337C238.377 148.799 237.865 149.131 237.294 149.299C236.71 149.467 236.097 149.455 235.526 149.27C234.757 149.026 234.115 148.476 233.749 147.758C233.376 147.04 233.304 146.212 233.56 145.444H233.548V145.457L233.552 145.452Z" fill="#EE887B"/>
<path d="M226.82 149.738C229.101 150.503 231.322 148.453 231.322 148.453" stroke="black" stroke-width="0.706262" stroke-linecap="round" stroke-linejoin="round"/>
<path d="M228.437 141.42L226.904 144.851C226.862 144.927 226.85 144.998 226.845 145.074C226.841 145.149 226.866 145.225 226.9 145.3C226.933 145.363 226.996 145.431 227.055 145.468C227.118 145.51 227.19 145.536 227.278 145.54L229.764 145.46" stroke="black" stroke-width="0.706262" stroke-linecap="round" stroke-linejoin="round"/>
<path d="M224.523 140.465C224.393 140.587 224.216 140.654 224.04 140.646C223.864 140.638 223.691 140.558 223.57 140.428C223.448 140.297 223.381 140.121 223.389 139.945C223.397 139.768 223.477 139.596 223.607 139.474C223.738 139.352 223.914 139.285 224.09 139.294C224.267 139.302 224.439 139.382 224.561 139.512C224.683 139.642 224.75 139.819 224.741 139.995C224.733 140.171 224.653 140.344 224.523 140.465Z" fill="black"/>
<path d="M233.367 140.801C233.237 140.923 233.061 140.99 232.884 140.982C232.708 140.973 232.536 140.894 232.414 140.764C232.292 140.633 232.225 140.457 232.233 140.281C232.242 140.104 232.322 139.932 232.452 139.81C232.582 139.688 232.758 139.621 232.935 139.63C233.111 139.638 233.283 139.718 233.405 139.848C233.527 139.978 233.594 140.155 233.586 140.331C233.577 140.507 233.498 140.68 233.367 140.801Z" fill="black"/>
<path d="M229.957 144.359C229.957 144.359 231.385 145.065 231.616 147.56" stroke="black" stroke-width="0.706262" stroke-linecap="round" stroke-linejoin="round"/>
<path d="M230.81 134.018C230.81 134.018 229.147 135.198 226.156 133.955" stroke="black" stroke-width="0.706262" stroke-linecap="round" stroke-linejoin="round"/>
<path d="M230.016 132.875C229.554 133.135 229.033 133.278 228.508 133.282C227.979 133.287 227.458 133.144 226.992 132.888" stroke="black" stroke-width="0.706262" stroke-linecap="round" stroke-linejoin="round"/>
<path d="M246.907 142.842C246.907 142.842 250.531 142.666 250.317 131.919C250.229 127.53 246.189 110.686 225.632 121.685C215.603 124.553 221.692 134.481 221.692 134.481C222.914 129.466 226.194 128.24 229.159 128.971C234.337 125.863 242.283 127.799 243.291 133.838C243.778 136.774 243.581 139.869 242.913 141.511C242.363 142.868 244.862 143.178 244.862 143.178L246.911 142.834L246.907 142.842Z" fill="#939399" stroke="black" stroke-width="0.706262" stroke-miterlimit="10"/>
<path d="M242.552 138.511L244.95 138.007C245.748 137.814 246.588 137.953 247.285 138.381C247.991 138.814 248.49 139.498 248.679 140.292C248.872 141.09 248.742 141.934 248.314 142.631C247.886 143.328 247.197 143.836 246.403 144.025L242.447 144.891" fill="#F2AF7D"/>
<path d="M242.552 138.511L244.95 138.007C245.748 137.814 246.588 137.953 247.285 138.381C247.991 138.814 248.49 139.498 248.679 140.292C248.872 141.09 248.742 141.934 248.314 142.631C247.886 143.328 247.197 143.836 246.403 144.025L242.447 144.891" stroke="black" stroke-width="0.706262" stroke-miterlimit="10"/>
<path d="M223.129 143.972C225.296 144.056 227.127 142.368 227.211 140.189C227.295 138.009 225.606 136.191 223.427 136.107C221.247 136.023 219.429 137.711 219.345 139.89C219.261 142.07 220.949 143.888 223.129 143.972Z" stroke="black" stroke-width="0.706262" stroke-linecap="round" stroke-linejoin="round"/>
<path d="M232.54 143.564C234.707 143.648 236.538 141.96 236.622 139.78C236.706 137.601 235.018 135.782 232.838 135.698C230.659 135.614 228.84 137.303 228.756 139.482C228.672 141.662 230.361 143.48 232.54 143.564Z" stroke="black" stroke-width="0.706262" stroke-linecap="round" stroke-linejoin="round"/>
<path d="M227.211 140.201C227.416 140.083 227.631 140.004 227.87 139.974C228.097 139.945 228.336 139.953 228.559 139.999" stroke="black" stroke-width="0.706262" stroke-linecap="round" stroke-linejoin="round"/>
<path d="M236.82 139.508L243.316 138.387" stroke="black" stroke-width="0.706262" stroke-linecap="round" stroke-linejoin="round"/>
<path d="M207.72 186.924L207.775 178.176C207.72 164.62 210.996 165.33 214.297 165.149C232.796 164.145 222.797 164.418 223.717 171.306L228.416 186.815L207.716 186.924H207.72Z" fill="white" stroke="black" stroke-width="0.715616" stroke-miterlimit="10"/>
<path d="M260.304 186.927L260.249 178.267C260.304 164.849 257.028 165.546 253.727 165.37C235.228 164.375 245.227 164.648 244.307 171.464L239.692 186.885L260.308 186.927H260.304Z" fill="white" stroke="black" stroke-width="0.715616" stroke-miterlimit="10"/>
<path d="M245.177 161.435L232.968 173.412L223.599 161.389L211.063 165.588V186.818H232.246L256.47 187.049V165.622L245.177 161.435Z" fill="black" stroke="black" stroke-width="0.715616" stroke-miterlimit="10"/>
<path d="M234.077 161.389L227.526 157.328L222.978 161.435L229.038 168.092L234.077 161.389Z" fill="white" stroke="black" stroke-width="0.715616" stroke-miterlimit="10" stroke-linecap="round"/>
<path d="M234.077 161.389L240.629 157.328L245.177 161.435L238.6 167.684L234.077 161.389Z" fill="white" stroke="black" stroke-width="0.715616" stroke-miterlimit="10" stroke-linecap="round"/>
<path d="M232.372 139.684C232.532 139.512 232.821 139.424 232.994 139.424C233.166 139.424 233.334 139.474 233.485 139.575C233.636 139.676 233.745 139.814 233.817 139.974C233.888 140.134 233.897 140.314 233.867 140.486C233.838 140.659 233.745 140.818 233.628 140.936C233.506 141.057 233.346 141.146 233.178 141.175C233.006 141.204 232.83 141.196 232.666 141.125C232.494 141.053 232.364 140.944 232.267 140.793C232.166 140.654 232.116 140.474 232.116 140.302C232.116 140.071 232.204 139.852 232.376 139.68L232.372 139.684Z" fill="black"/>
<path d="M223.439 139.454C223.599 139.282 223.889 139.193 224.061 139.193C224.233 139.193 224.401 139.244 224.552 139.345C224.704 139.445 224.813 139.584 224.884 139.744C224.955 139.903 224.964 140.084 224.934 140.256C224.905 140.428 224.813 140.588 224.695 140.705C224.573 140.827 224.414 140.915 224.246 140.945C224.074 140.974 223.897 140.966 223.733 140.894C223.561 140.823 223.431 140.714 223.334 140.562C223.234 140.424 223.183 140.243 223.183 140.071C223.183 139.84 223.271 139.622 223.444 139.45L223.439 139.454Z" fill="black"/>
</g>
<path d="M65.9902 172.864C50.2247 172.864 37.399 160.038 37.399 144.273C37.399 128.507 50.2247 115.682 65.9902 115.682C81.7557 115.682 94.5814 128.507 94.5814 144.273C94.5814 160.038 81.7557 172.864 65.9902 172.864Z" fill="#0064FF"/>
<path d="M65.9902 116.073C81.5625 116.073 94.1866 128.697 94.1866 144.269C94.1866 159.842 81.5625 172.466 65.9902 172.466C50.4179 172.466 37.7937 159.842 37.7937 144.269C37.7937 128.697 50.4179 116.073 65.9902 116.073ZM65.9902 115.283C50.0063 115.283 37 128.285 37 144.273C37 160.261 50.0021 173.264 65.9902 173.264C81.9783 173.264 94.9804 160.261 94.9804 144.273C94.9804 128.285 81.9783 115.283 65.9902 115.283Z" fill="black"/>
<mask id="mask4_586_32453" style="mask-type:luminance" maskUnits="userSpaceOnUse" x="37" y="116" width="58" height="57">
<path d="M65.9903 172.469C81.5628 172.469 94.1868 159.845 94.1868 144.273C94.1868 128.7 81.5628 116.076 65.9903 116.076C50.4179 116.076 37.7939 128.7 37.7939 144.273C37.7939 159.845 50.4179 172.469 65.9903 172.469Z" fill="white"/>
</mask>
<g mask="url(#mask4_586_32453)">
<path d="M52.9085 156.338H78.7615C81.4073 156.338 83.5575 158.488 83.5575 161.134V179.23H48.1125V161.134C48.1125 158.488 50.2627 156.338 52.9085 156.338Z" fill="#002850" stroke="black" stroke-width="0.430305" stroke-miterlimit="10"/>
<path d="M61.7192 150.47C59.8714 149.567 54.5252 150.924 52.5514 152.263C50.4012 153.729 48.5869 155.64 47.2346 157.857L42.7704 165.051C41.8381 166.542 41.3089 168.26 41.2249 170.011C41.1535 171.766 41.5189 173.518 42.3168 175.088C43.2324 176.89 44.6603 178.381 46.4283 179.355C48.1922 180.342 50.2122 180.762 52.2196 180.577" fill="#002850"/>
<path d="M61.7192 150.47C59.8714 149.567 54.5252 150.924 52.5514 152.263C50.4012 153.729 48.5869 155.64 47.2346 157.857L42.7704 165.051C41.8381 166.542 41.3089 168.26 41.2249 170.011C41.1535 171.766 41.5189 173.518 42.3168 175.088C43.2324 176.89 44.6603 178.381 46.4283 179.355C48.1922 180.342 50.2122 180.762 52.2196 180.577" stroke="black" stroke-width="0.706262" stroke-miterlimit="10"/>
<path d="M79.7526 180.616C81.76 180.801 83.7801 180.381 85.5439 179.394C87.312 178.42 88.7398 176.929 89.6554 175.127C90.4533 173.556 90.8187 171.805 90.7473 170.05C90.6633 168.299 90.1341 166.577 89.2018 165.09L84.7376 157.896C83.3853 155.679 81.571 153.768 79.4208 152.302C77.447 150.962 72.105 149.602 70.253 150.509" fill="#002850"/>
<path d="M79.7526 180.616C81.76 180.801 83.7801 180.381 85.5439 179.394C87.312 178.42 88.7398 176.929 89.6554 175.127C90.4533 173.556 90.8187 171.805 90.7473 170.05C90.6633 168.299 90.1341 166.577 89.2018 165.09L84.7376 157.896C83.3853 155.679 81.571 153.768 79.4208 152.302C77.447 150.962 72.105 149.602 70.253 150.509" stroke="black" stroke-width="0.706262" stroke-miterlimit="10"/>
<path d="M67.4811 164.129C72.8065 164.129 77.1235 159.279 77.1235 153.298C77.1235 147.316 72.8065 142.467 67.4811 142.467C62.1558 142.467 57.8387 147.316 57.8387 153.298C57.8387 159.279 62.1558 164.129 67.4811 164.129Z" fill="white" stroke="black" stroke-width="0.706262" stroke-miterlimit="10"/>
<path d="M61.0264 148.268H73.9907V154.752C73.9907 158.33 71.0845 161.236 67.5064 161.236C63.9283 161.236 61.0222 158.33 61.0222 154.752V148.268H61.0264Z" fill="#E28A46" stroke="black" stroke-width="0.706262" stroke-miterlimit="10"/>
<path d="M55.8481 147.551C54.3698 145.078 54.1052 142.461 54.9535 139.509C54.6638 133.398 55.6927 131.034 59.0482 127.54C60.7449 125.789 62.3827 124.861 63.8232 124.873C64.0374 124.873 64.2474 124.89 64.4532 124.936C68.8334 125.881 75.641 128.195 75.7082 128.22C75.788 128.245 75.851 128.3 75.8972 128.38L79.0721 136.065C84.3091 138.871 84.8383 144.62 80.4244 149.592C78.4716 151.692 74.9061 153.057 72.0461 153.095C72.0461 153.095 68.7242 153.179 65.6417 153.103C61.6562 153.007 57.8975 150.97 55.8523 147.547L55.8481 147.551Z" fill="#E28A46"/>
<path d="M76.67 129.241C75.6201 131.79 70.6729 130.165 70.6729 130.165C70.6519 134.18 64.4406 134.348 64.4406 134.348C64.4406 134.348 63.3739 140.437 58.1412 139.799C55.508 144.897 58.3595 146.716 62.702 152.226C61.0851 153.788 49.1875 151.323 47.1297 140.736C44.4881 120.665 68.1573 121.535 68.1573 121.535C68.1573 121.535 79.5426 123.227 76.6574 129.258" fill="black"/>
<path d="M73.8353 141.958L76.1451 140.895L74.1376 138.342" stroke="black" stroke-width="0.706262" stroke-linecap="round" stroke-linejoin="round"/>
<path d="M71.1475 145.289C73.0499 147.305 74.6164 146.839 74.6164 146.839" stroke="black" stroke-width="0.706262" stroke-linecap="round" stroke-linejoin="round"/>
<path d="M77.6233 139.761C77.5981 141.072 78.0853 142.336 78.9924 143.281C79.5258 143.814 80.1725 144.234 80.8865 144.499C81.6046 144.763 82.3689 144.872 83.1207 144.822C83.2761 144.196 83.3642 143.558 83.3936 142.911C83.3684 142.088 83.4482 142.113 83.0955 140.79C82.1841 138.363 81.0166 137.242 79.1394 136.301C78.1903 137.208 77.6443 138.451 77.6149 139.761H77.6233Z" fill="#E25333"/>
<path d="M69.9758 138.057C69.9842 137.927 70.0262 137.805 70.1228 137.713C70.2068 137.633 70.3328 137.578 70.463 137.578C70.5554 137.578 70.6604 137.608 70.7318 137.666C70.8199 137.717 70.8787 137.797 70.9123 137.885C70.9459 137.973 70.9543 138.069 70.9417 138.162C70.9291 138.254 70.8787 138.342 70.8073 138.414C70.7402 138.473 70.6604 138.523 70.5638 138.54C70.4672 138.561 70.3748 138.544 70.2824 138.506C70.1942 138.468 70.1186 138.41 70.0598 138.33C70.0136 138.25 69.9674 138.149 69.9842 138.057H69.9716H69.9758Z" fill="black"/>
<path d="M69.9758 138.057C69.9842 137.927 70.0262 137.805 70.1228 137.713C70.2068 137.633 70.3328 137.578 70.463 137.578C70.5554 137.578 70.6604 137.608 70.7318 137.666C70.8199 137.717 70.8787 137.797 70.9123 137.885C70.9459 137.973 70.9543 138.069 70.9417 138.162C70.9291 138.254 70.8787 138.342 70.8073 138.414C70.7402 138.473 70.6604 138.523 70.5638 138.54C70.4672 138.561 70.3748 138.544 70.2824 138.506C70.1942 138.468 70.1186 138.41 70.0598 138.33C70.0136 138.25 69.9674 138.149 69.9842 138.057H69.9716H69.9758Z" stroke="black" stroke-width="0.392887" stroke-linecap="round" stroke-linejoin="round"/>
<path d="M75.5025 136.108C75.5235 136.041 75.5697 135.987 75.6117 135.949C75.6537 135.911 75.7083 135.869 75.7712 135.844C75.8216 135.827 75.8972 135.806 75.9518 135.814C76.0442 135.814 76.1492 135.844 76.2206 135.903C76.3088 135.953 76.3676 136.033 76.4012 136.121C76.4348 136.209 76.4432 136.306 76.4306 136.398C76.418 136.491 76.3676 136.579 76.2962 136.65C76.2374 136.713 76.1492 136.759 76.0526 136.776C75.956 136.797 75.8636 136.78 75.7712 136.743C75.6789 136.705 75.6075 136.646 75.5487 136.566C75.5025 136.486 75.4563 136.386 75.4731 136.293C75.4605 136.23 75.4941 136.167 75.5025 136.108Z" fill="black"/>
<path d="M75.5025 136.108C75.5235 136.041 75.5697 135.987 75.6117 135.949C75.6537 135.911 75.7083 135.869 75.7712 135.844C75.8216 135.827 75.8972 135.806 75.9518 135.814C76.0442 135.814 76.1492 135.844 76.2206 135.903C76.3088 135.953 76.3676 136.033 76.4012 136.121C76.4348 136.209 76.4432 136.306 76.4306 136.398C76.418 136.491 76.3676 136.579 76.2962 136.65C76.2374 136.713 76.1492 136.759 76.0526 136.776C75.956 136.797 75.8636 136.78 75.7712 136.743C75.6789 136.705 75.6075 136.646 75.5487 136.566C75.5025 136.486 75.4563 136.386 75.4731 136.293C75.4605 136.23 75.4941 136.167 75.5025 136.108Z" stroke="black" stroke-width="0.392887" stroke-linecap="round" stroke-linejoin="round"/>
<path d="M59.2288 150.227C55.4407 146.926 53.7524 143.671 54.9535 139.48C54.6638 133.369 55.6927 131.005 59.0482 127.511C60.7449 125.759 62.3827 124.831 63.8232 124.844C64.0374 124.844 64.2474 124.861 64.4531 124.907C68.8334 125.852 75.641 128.166 75.7082 128.191C75.788 128.216 75.851 128.271 75.8972 128.351L79.0721 136.036C84.3091 138.841 84.8383 144.591 80.4244 149.563C78.4716 151.663 74.9061 153.028 72.0461 153.066C72.0461 153.066 68.3042 152.994 65.2469 152.751C63.0253 152.574 60.917 151.688 59.233 150.222L59.2288 150.227Z" stroke="black" stroke-width="0.706262" stroke-miterlimit="10"/>
<path d="M59.6026 147.134H59.632L55.1804 145.392C54.773 145.232 54.4035 144.997 54.0927 144.694C53.7819 144.392 53.5299 144.031 53.3536 143.64C53.1814 143.246 53.0848 142.817 53.0806 142.385C53.0722 141.952 53.1478 141.52 53.3074 141.112C53.467 140.705 53.7021 140.335 54.0045 140.024C54.3069 139.705 54.6681 139.462 55.0586 139.285C55.4534 139.113 55.8818 139.017 56.3143 139.012C56.7385 139.004 57.171 139.08 57.5784 139.239L62.0216 140.986L59.6068 147.13V147.139L59.6026 147.134Z" fill="#E28A46"/>
<path d="M70.7611 142.655C70.6435 141.357 70.0135 140.143 69.0224 139.303C68.0145 138.459 66.7294 138.056 65.4191 138.161C64.7723 138.215 64.1256 138.396 63.5461 138.711C62.9623 139.022 62.4499 139.442 62.0258 139.954C61.6142 140.458 61.2992 141.05 61.1145 141.684C60.9213 142.319 60.8625 142.986 60.9423 143.637C61.0935 144.88 61.7066 146.018 62.6725 146.833C63.6384 147.635 64.8647 148.051 66.1162 147.996C66.7756 147.959 67.4181 147.786 68.0061 147.497C68.594 147.211 69.119 146.804 69.5558 146.304C69.9883 145.804 70.3159 145.225 70.5217 144.595C70.7233 143.973 70.7947 143.31 70.7401 142.65" fill="#E25333"/>
<path d="M69.8372 137.436C69.9968 137.264 70.2865 137.176 70.4587 137.176C70.6309 137.176 70.7989 137.226 70.9501 137.327C71.1013 137.428 71.2105 137.566 71.2819 137.726C71.3532 137.886 71.3616 138.066 71.3322 138.238C71.3028 138.41 71.2105 138.57 71.0929 138.688C70.9711 138.809 70.8115 138.898 70.6435 138.927C70.4713 138.956 70.2949 138.948 70.1311 138.877C69.959 138.805 69.8288 138.696 69.7322 138.545C69.6314 138.406 69.581 138.226 69.581 138.054C69.581 137.823 69.6692 137.604 69.8414 137.432L69.8372 137.436Z" fill="black"/>
<path d="M75.3303 135.671C75.4899 135.498 75.7797 135.41 75.9519 135.41C76.1241 135.41 76.2921 135.461 76.4432 135.561C76.5944 135.662 76.7036 135.801 76.775 135.96C76.8464 136.12 76.8548 136.3 76.8254 136.473C76.796 136.645 76.7036 136.804 76.586 136.922C76.4642 137.044 76.3047 137.132 76.1367 137.161C75.9645 137.191 75.7881 137.182 75.6243 137.111C75.4521 137.04 75.3219 136.93 75.2253 136.779C75.1246 136.641 75.0742 136.46 75.0742 136.288C75.0742 136.057 75.1623 135.839 75.3345 135.666L75.3303 135.671Z" fill="black"/>
</g>
<path d="M249.985 216.363C248.683 216.363 247.217 216.19 245.752 215.867C243.652 215.405 241.737 214.674 240.364 213.813C238.889 212.89 238.184 211.894 238.377 211.012L239.343 206.632C239.364 206.544 239.414 206.468 239.494 206.418C239.549 206.384 239.612 206.363 239.679 206.363C239.704 206.363 239.729 206.363 239.75 206.372L255.197 209.782C255.285 209.803 255.361 209.853 255.411 209.933C255.461 210.009 255.478 210.101 255.457 210.189L254.491 214.569C254.239 215.712 252.597 216.363 249.989 216.363H249.985Z" fill="#4890FF"/>
<path d="M239.679 206.704L255.125 210.114C255.125 210.114 254.491 212.978 254.16 214.494C253.941 215.481 252.291 216.023 249.989 216.023C248.75 216.023 247.322 215.867 245.832 215.536C241.565 214.595 238.381 212.6 238.717 211.084L239.683 206.704M239.679 206.023C239.549 206.023 239.423 206.061 239.314 206.128C239.163 206.225 239.053 206.38 239.016 206.557L238.05 210.937C237.554 213.175 241.514 215.279 245.685 216.199C247.176 216.527 248.662 216.703 249.989 216.703C252.774 216.703 254.533 215.951 254.823 214.641L255.789 210.261C255.827 210.084 255.793 209.9 255.697 209.749C255.6 209.597 255.445 209.488 255.268 209.45L239.822 206.04C239.772 206.028 239.725 206.023 239.675 206.023H239.679Z" fill="black"/>
<path d="M248.007 205.664C252.274 206.604 255.457 208.599 255.121 210.115C254.785 211.631 251.056 212.098 246.793 211.157C242.531 210.216 239.343 208.221 239.679 206.705C240.015 205.189 243.744 204.723 248.007 205.664Z" fill="#FFE563" stroke="black" stroke-width="0.757711" stroke-linecap="round" stroke-linejoin="round"/>
<path d="M247.982 205.658C252.366 206.628 255.65 208.64 255.319 210.16C254.983 211.676 251.157 212.121 246.768 211.151C242.384 210.181 239.1 208.169 239.431 206.649C239.767 205.133 243.593 204.688 247.982 205.658Z" fill="#7DB0FF" stroke="black" stroke-width="0.757711" stroke-linecap="round" stroke-linejoin="round"/>
<path d="M253.143 210.927C251.841 210.927 250.376 210.755 248.91 210.432C246.81 209.97 244.895 209.239 243.522 208.378C242.048 207.454 241.342 206.459 241.535 205.577L242.501 201.197C242.535 201.037 242.678 200.928 242.833 200.928C242.858 200.928 242.884 200.928 242.909 200.936L258.355 204.346C258.443 204.367 258.519 204.418 258.569 204.497C258.62 204.573 258.636 204.665 258.615 204.754L257.65 209.134C257.398 210.276 255.755 210.927 253.147 210.927H253.143Z" fill="#7DB0FF"/>
<path d="M242.837 201.268L258.284 204.678C258.284 204.678 257.65 207.543 257.318 209.059C257.099 210.046 255.449 210.587 253.147 210.587C251.909 210.587 250.481 210.432 248.99 210.1C244.723 209.159 241.54 207.165 241.876 205.648L242.842 201.268M242.837 200.588C242.527 200.588 242.245 200.806 242.174 201.121L241.208 205.501C240.712 207.74 244.673 209.844 248.843 210.764C250.334 211.091 251.82 211.268 253.147 211.268C255.932 211.268 257.691 210.516 257.981 209.206L258.947 204.825C258.985 204.649 258.951 204.464 258.855 204.313C258.758 204.162 258.603 204.053 258.426 204.015L242.98 200.605C242.93 200.592 242.879 200.588 242.833 200.588H242.837Z" fill="black"/>
<path d="M251.165 200.228C255.55 201.199 258.834 203.21 258.502 204.73C258.17 206.251 254.34 206.692 249.952 205.722C245.567 204.751 242.283 202.74 242.615 201.22C242.951 199.703 246.777 199.258 251.165 200.228Z" fill="#A1C6FF"/>
<path d="M251.165 200.228C255.55 201.199 258.834 203.21 258.502 204.73C258.17 206.251 254.34 206.692 249.952 205.722C245.567 204.751 242.283 202.74 242.615 201.22C242.951 199.703 246.777 199.258 251.165 200.228Z" stroke="black" stroke-width="0.757711" stroke-miterlimit="10"/>
<path d="M250.363 204.71C249.061 204.71 247.596 204.538 246.13 204.215C244.03 203.753 242.115 203.022 240.742 202.161C239.268 201.237 238.562 200.242 238.756 199.36L239.721 194.98C239.742 194.892 239.793 194.816 239.873 194.766C239.927 194.732 239.99 194.711 240.057 194.711C240.083 194.711 240.108 194.711 240.129 194.719L255.575 198.129C255.663 198.15 255.739 198.201 255.789 198.281C255.84 198.356 255.857 198.449 255.836 198.537L254.87 202.917C254.618 204.059 252.976 204.71 250.368 204.71H250.363Z" fill="#4890FF"/>
<path d="M240.053 195.055L255.5 198.465C255.5 198.465 254.865 201.33 254.534 202.846C254.315 203.833 252.665 204.374 250.363 204.374C249.125 204.374 247.697 204.219 246.206 203.887C241.939 202.946 238.756 200.952 239.092 199.436L240.057 195.055M240.053 194.375C239.743 194.375 239.461 194.593 239.39 194.908L238.424 199.289C237.928 201.527 241.889 203.631 246.059 204.551C247.55 204.878 249.036 205.055 250.363 205.055C253.148 205.055 254.907 204.303 255.197 202.993L256.163 198.612C256.201 198.436 256.167 198.251 256.071 198.1C255.974 197.949 255.819 197.84 255.642 197.802L240.196 194.392C240.146 194.379 240.095 194.375 240.049 194.375H240.053Z" fill="black"/>
<path d="M248.381 194.017C252.648 194.958 255.831 196.953 255.495 198.469C255.159 199.985 251.43 200.451 247.167 199.51C242.905 198.57 239.717 196.575 240.053 195.059C240.389 193.543 244.118 193.077 248.381 194.017Z" fill="#FFE563" stroke="black" stroke-width="0.757711" stroke-linecap="round" stroke-linejoin="round"/>
<path d="M248.36 194.008C252.745 194.978 256.029 196.989 255.697 198.51C255.365 200.03 251.535 200.471 247.146 199.501C242.758 198.531 239.478 196.519 239.81 194.999C240.146 193.483 243.971 193.038 248.36 194.008Z" fill="#7DB0FF" stroke="black" stroke-width="0.757711" stroke-linecap="round" stroke-linejoin="round"/>
<path d="M234.161 213.721C232.506 213.721 230.142 211.151 228.411 207.468C227.496 205.523 226.904 203.562 226.744 201.945C226.572 200.215 226.933 199.048 227.752 198.661L231.809 196.75C231.855 196.729 231.906 196.717 231.952 196.717C231.99 196.717 232.032 196.725 232.065 196.738C232.149 196.767 232.221 196.83 232.258 196.914L238.99 211.227C239.028 211.306 239.032 211.403 239.003 211.487C238.974 211.571 238.911 211.642 238.827 211.68L234.77 213.591C234.581 213.679 234.375 213.725 234.157 213.725L234.161 213.721Z" fill="#4890FF"/>
<path d="M231.956 197.056L238.688 211.368C238.688 211.368 236.034 212.615 234.631 213.279C234.488 213.346 234.329 213.38 234.161 213.38C232.691 213.38 230.385 210.868 228.718 207.32C226.858 203.368 226.492 199.626 227.895 198.966L231.952 197.056M231.956 196.375C231.855 196.375 231.759 196.396 231.666 196.438L227.609 198.349C226.929 198.668 226.169 199.559 226.408 201.973C226.572 203.628 227.173 205.627 228.105 207.605C230.201 212.061 232.657 214.056 234.165 214.056C234.434 214.056 234.69 214.001 234.925 213.892L238.982 211.981C239.146 211.906 239.272 211.767 239.331 211.595C239.389 211.423 239.381 211.238 239.305 211.074L232.573 196.762C232.498 196.598 232.359 196.472 232.187 196.413C232.111 196.388 232.036 196.371 231.956 196.371V196.375Z" fill="black"/>
<path d="M237.865 203.012C239.725 206.963 240.091 210.705 238.688 211.365C237.281 212.024 234.635 209.357 232.775 205.405C230.915 201.454 230.549 197.712 231.952 197.052C233.359 196.389 236.005 199.06 237.865 203.012Z" fill="#FFE563" stroke="black" stroke-width="0.757711" stroke-linecap="round" stroke-linejoin="round"/>
<path d="M237.857 202.994C239.767 207.059 240.179 210.889 238.772 211.553C237.365 212.216 234.677 209.453 232.767 205.392C230.856 201.326 230.444 197.496 231.851 196.833C233.258 196.169 235.946 198.928 237.857 202.994Z" fill="#7DB0FF" stroke="black" stroke-width="0.757711" stroke-linecap="round" stroke-linejoin="round"/>
<path d="M257.07 199.265C255.768 199.265 254.302 199.093 252.837 198.769C250.737 198.307 248.822 197.577 247.449 196.716C245.974 195.792 245.269 194.797 245.462 193.915L246.428 189.534C246.462 189.375 246.604 189.266 246.76 189.266C246.785 189.266 246.81 189.266 246.835 189.274L262.282 192.684C262.37 192.705 262.445 192.756 262.496 192.835C262.546 192.911 262.563 193.003 262.542 193.092L261.576 197.472C261.324 198.614 259.682 199.265 257.074 199.265H257.07Z" fill="#7DB0FF"/>
<path d="M246.764 189.61L262.21 193.02C262.21 193.02 261.576 195.885 261.244 197.401C261.026 198.388 259.376 198.929 257.074 198.929C255.835 198.929 254.407 198.774 252.917 198.442C248.65 197.501 245.466 195.507 245.802 193.991L246.768 189.61M246.764 188.926C246.634 188.926 246.508 188.964 246.399 189.031C246.248 189.127 246.138 189.283 246.101 189.459L245.135 193.839C244.639 196.078 248.599 198.182 252.77 199.102C254.26 199.429 255.747 199.605 257.074 199.605C259.859 199.605 261.618 198.854 261.908 197.543L262.874 193.163C262.912 192.987 262.878 192.802 262.782 192.651C262.685 192.5 262.53 192.39 262.353 192.353L246.907 188.943C246.856 188.93 246.81 188.926 246.76 188.926H246.764Z" fill="black"/>
<path d="M255.092 188.568C259.476 189.538 262.76 191.55 262.429 193.07C262.093 194.586 258.267 195.031 253.878 194.061C249.494 193.091 246.21 191.08 246.541 189.559C246.877 188.043 250.703 187.598 255.092 188.568Z" fill="#A1C6FF"/>
<path d="M255.092 188.568C259.476 189.538 262.76 191.55 262.429 193.07C262.093 194.586 258.267 195.031 253.878 194.061C249.494 193.091 246.21 191.08 246.541 189.559C246.877 188.043 250.703 187.598 255.092 188.568Z" fill="#A1C6FF" stroke="black" stroke-width="0.757711" stroke-miterlimit="10"/>
<path d="M181.519 116.695C181.141 117.384 180.196 119.03 180.632 123.15C180.918 125.834 182.464 128.782 182.464 128.782L192.513 112.894L189.586 106.885L181.519 116.695Z" fill="#CBFFB8"/>
<path d="M182.077 116.019C181.464 116.767 180.183 118.136 180.637 123.15C180.922 125.834 182.468 128.782 182.468 128.782L192.517 112.894L189.59 106.885L182.077 116.019Z" stroke="black" stroke-width="0.809161" stroke-miterlimit="10"/>
<path d="M212.26 100.718L206.234 115.106C206.234 115.106 204.44 117.059 200.766 116.731C199.132 116.58 194.5 115.454 191.186 115.018H191.178C190.489 114.917 189.863 114.858 189.326 114.837C189.149 114.829 188.986 114.829 188.818 114.829C188.561 114.829 188.322 114.837 188.083 114.85H187.973C187.793 114.862 187.612 114.879 187.428 114.9C187.339 114.908 187.26 114.913 187.188 114.929C187.02 114.942 186.852 114.967 186.693 114.997C186.651 115.005 186.604 115.013 186.571 115.018C186.499 115.03 186.424 115.039 186.352 115.055C186.172 115.093 185.995 115.127 185.823 115.173C185.424 115.265 185.055 115.375 184.706 115.501C184.597 115.538 184.488 115.572 184.379 115.618C183.522 115.937 182.833 116.324 182.308 116.664C181.918 116.924 181.611 117.164 181.401 117.353C181.363 117.39 181.33 117.42 181.3 117.441C181.258 117.483 181.22 117.521 181.191 117.55L181.183 117.558C181.132 117.596 181.094 117.63 181.073 117.659C181.065 117.659 181.065 117.668 181.065 117.668C181.065 117.668 181.065 117.676 181.057 117.676C181.048 117.684 181.044 117.689 181.036 117.697L181.094 117.575L181.103 117.567L181.111 117.558L181.124 117.529L181.136 117.508L181.573 116.681L181.582 116.668L181.611 116.626L181.653 116.538L181.661 116.525L183.215 113.598H183.224L184.089 111.973L188.687 103.347L189.427 101.952L189.817 101.218C189.817 101.218 192.177 99.2647 195.894 99.7519C199.947 100.281 203.512 101.255 205.268 101.575C208.556 102.162 212.071 100.798 212.256 100.73L212.26 100.718Z" fill="#CBFFB8"/>
<path d="M209.014 103.359C209.014 103.359 204.869 113.455 204.55 114.165C202.567 115.958 198.065 113.884 192.387 113.119H192.379C189.88 112.779 187.15 112.691 184.311 113.308H184.303C183.946 113.388 183.585 113.476 183.228 113.586L184.093 111.96C184.614 111.809 185.151 111.692 185.706 111.603H185.714C187.684 111.293 189.817 111.372 191.9 111.616C197.717 112.284 203.164 114.216 203.68 112.414L206.637 104.863C198.578 104.716 194.445 102.007 188.692 103.33L189.431 101.936C191.371 101.629 193.416 101.545 195.453 101.814C205.814 104.321 209.018 103.359 209.018 103.359H209.014Z" fill="#3C7878" stroke="black" stroke-width="0.809161" stroke-miterlimit="10"/>
<path d="M212.26 100.718L206.234 115.106C206.234 115.106 204.44 117.059 200.766 116.731C199.132 116.58 194.5 115.455 191.186 115.018H191.178C190.489 114.917 189.863 114.858 189.326 114.837C189.149 114.829 188.986 114.829 188.818 114.829C188.562 114.829 188.322 114.837 188.083 114.85H187.974C187.793 114.863 187.612 114.879 187.428 114.9C187.339 114.909 187.26 114.913 187.188 114.93C187.02 114.942 186.852 114.967 186.693 114.997C186.651 115.005 186.605 115.014 186.571 115.018C186.5 115.03 186.424 115.039 186.353 115.056C186.172 115.093 185.996 115.127 185.823 115.173C185.424 115.266 185.055 115.375 184.706 115.501C184.597 115.539 184.488 115.572 184.379 115.618C183.522 115.938 182.833 116.324 182.308 116.664C181.918 116.933 181.611 117.172 181.401 117.353C181.363 117.391 181.33 117.42 181.3 117.441C181.258 117.483 181.221 117.521 181.191 117.55L181.183 117.559C181.153 117.567 181.124 117.542 181.141 117.508L181.578 116.681L181.615 116.622L181.657 116.534L181.666 116.521L183.228 113.594L184.093 111.969L188.692 103.343L189.431 101.949L189.821 101.214C189.821 101.214 192.182 99.2608 195.898 99.748C199.951 100.277 203.517 101.251 205.272 101.571C208.56 102.159 212.075 100.794 212.26 100.726V100.718Z" stroke="black" stroke-width="0.809161" stroke-miterlimit="10"/>
</svg>
