<svg width="760" height="416" viewBox="0 0 760 416" fill="none" xmlns="http://www.w3.org/2000/svg">
<path d="M47.2173 340.485C41.7826 337.872 41.7044 332.9 43.5333 328.714C43.8592 327.968 44.6887 327.599 45.4788 327.778L53.8749 329.675C55.1424 329.962 55.6796 331.458 54.8894 332.501L49.2633 339.928C48.7805 340.565 47.9313 340.829 47.2173 340.485Z" fill="#002850" stroke="black" stroke-width="1.01401" stroke-linecap="round"/>
<path d="M186.672 248.295C192.532 251.501 192.325 257.901 190.5 261.775C190.18 262.452 189.42 262.77 188.689 262.628L179.303 260.803C178.037 260.557 177.451 259.096 178.19 258.029L184.528 248.877C185.014 248.176 185.93 247.889 186.672 248.295Z" fill="#002850" stroke="black" stroke-width="1.01401" stroke-linecap="round"/>
<path d="M38.5299 340.029C32.5004 337.146 32.3614 330.748 33.9753 326.784C34.2574 326.091 35.0001 325.733 35.7384 325.835L45.2152 327.151C46.4938 327.328 47.1585 328.754 46.4777 329.859L40.6399 339.333C40.1926 340.059 39.2924 340.394 38.5299 340.029Z" fill="#002850" stroke="black" stroke-width="1.01401" stroke-linecap="round"/>
<path d="M183.014 247.85C189.369 250.804 189.409 256.546 187.258 261.327C186.924 262.069 186.097 262.437 185.307 262.259L175.321 260.005C174.052 259.719 173.515 258.221 174.307 257.178L180.964 248.412C181.447 247.776 182.296 247.516 183.014 247.85Z" fill="#002850" stroke="black" stroke-width="1.01401" stroke-linecap="round"/>
<path d="M186.041 253.547C190.244 255.016 191.804 260.118 189.16 263.745L117.181 362.5C115.423 364.913 112.293 365.9 109.497 364.923L40.4454 340.794C36.243 339.325 34.6822 334.224 37.3259 330.597L109.305 231.842C111.064 229.429 114.193 228.442 116.989 229.419L186.041 253.547Z" fill="#002850" stroke="black" stroke-width="1.01401"/>
<path d="M184.253 247.232C188.456 248.7 190.016 253.802 187.372 257.429L115.394 356.185C113.635 358.598 110.505 359.584 107.709 358.607L38.6577 334.478C34.4552 333.01 32.8944 327.908 35.5381 324.281L107.517 225.526C109.276 223.113 112.405 222.127 115.201 223.103L184.253 247.232Z" fill="#0064FF" stroke="black" stroke-width="1.01401"/>
<path d="M179.802 250.509C182.889 251.588 184.023 255.345 182.06 257.995L113.972 349.915C112.206 352.299 109.096 353.267 106.318 352.296L43.4761 330.338C40.3889 329.259 39.2554 325.501 41.2179 322.852L109.307 230.93C111.073 228.546 114.182 227.579 116.96 228.549L179.802 250.509Z" fill="white" stroke="black" stroke-width="1.01401"/>
<path d="M110.278 253.126C110.785 252.443 111.697 252.199 112.468 252.54L113.825 253.141C114.869 253.603 115.208 254.912 114.525 255.839L92.578 285.611L87.4233 283.896L110.278 253.126Z" fill="#7DB0FF"/>
<path d="M110.282 263.79C110.789 263.106 111.701 262.862 112.473 263.204L113.834 263.806C114.875 264.267 115.216 265.573 114.536 266.5L98.9261 287.773L93.7714 286.058L110.282 263.79Z" fill="#002850"/>
<path d="M147.707 263.118C148.215 262.435 149.127 262.191 149.898 262.532L151.255 263.133C152.298 263.595 152.637 264.904 151.954 265.831L128.311 297.905L123.156 296.19L147.707 263.118Z" fill="#7DB0FF"/>
<path d="M148.277 273.011C148.784 272.327 149.697 272.082 150.468 272.424L151.828 273.026C152.87 273.487 153.21 274.794 152.529 275.721L134.646 300.062L129.492 298.347L148.277 273.011Z" fill="#002850"/>
<path d="M123.016 266.02C123.524 265.336 124.436 265.091 125.208 265.433L126.568 266.035C127.61 266.497 127.95 267.803 127.269 268.73L110.473 291.607L105.319 289.893L123.016 266.02Z" fill="#7DB0FF"/>
<path d="M123.681 275.921C124.189 275.239 125.1 274.996 125.87 275.337L127.233 275.941C128.275 276.402 128.615 277.709 127.934 278.636L116.814 293.772L111.659 292.057L123.681 275.921Z" fill="#002850"/>
<path d="M111.261 241.94L81.6079 281.387L141.795 302.218" stroke="#BEC5CC" stroke-width="1.01401" stroke-linecap="round"/>
<mask id="mask0_599_13321" style="mask-type:alpha" maskUnits="userSpaceOnUse" x="60" y="296" width="35" height="31">
<ellipse cx="16.9194" cy="15.1841" rx="16.9194" ry="15.1841" transform="matrix(0.995609 0.0936117 -0.105842 0.994383 62.4371 294.53)" fill="#0064FF"/>
</mask>
<g mask="url(#mask0_599_13321)">
<path d="M77.4592 311.192L80.0681 286.681L106.329 299.448L97.5 326.346L77.4592 311.192Z" fill="#002850"/>
<path d="M62.7246 325.059L77.4578 311.194L94.0301 323.645L85.7262 329.004L62.7246 325.059Z" fill="#3F5880"/>
<path d="M56.4432 303.075L77.4542 311.19L64.148 326.179L56.4432 303.075Z" fill="#7DB0FF"/>
<path d="M81.5002 293.946L77.4549 311.192L59.5894 306.74L61.9664 296.863L81.5002 293.946Z" fill="#9669D2"/>
<ellipse cx="7.25119" cy="6.50748" rx="7.25119" ry="6.50748" transform="matrix(0.995609 0.0936117 -0.105842 0.994383 71.1615 304.065)" fill="white"/>
</g>
<path d="M87.5209 271.615C88.604 271.602 89.4719 270.821 89.4595 269.871C89.447 268.92 88.5588 268.16 87.4757 268.173C86.3926 268.185 85.5247 268.966 85.5372 269.916C85.5497 270.867 86.4378 271.627 87.5209 271.615Z" fill="#002850"/>
<path d="M83.334 277.369C84.4171 277.357 85.2851 276.576 85.2726 275.626C85.2601 274.675 84.3719 273.915 83.2888 273.927C82.2057 273.94 81.3378 274.721 81.3503 275.671C81.3628 276.622 82.2509 277.382 83.334 277.369Z" fill="#3F5880"/>
<path d="M79.158 283.131C80.2411 283.119 81.109 282.338 81.0966 281.387C81.0841 280.437 80.1959 279.677 79.1128 279.689C78.0297 279.702 77.1618 280.482 77.1743 281.433C77.1868 282.383 78.0749 283.144 79.158 283.131Z" fill="#7DB0FF"/>
<path d="M112.528 313.496L123.201 317.37" stroke="black" stroke-width="1.01401" stroke-linecap="round"/>
<path d="M106.702 321.974L117.375 325.847" stroke="black" stroke-width="1.01401" stroke-linecap="round"/>
<path d="M100.879 330.444L111.551 334.318" stroke="black" stroke-width="1.01401" stroke-linecap="round"/>
<path d="M398.47 137.105L508.149 69.5736C509.272 68.8821 510.76 69.1868 511.48 70.22L566.453 149.089C567.42 150.476 567.017 152.357 565.518 153.28L457.204 219.971C455.704 220.894 453.709 220.49 452.742 219.103L397.769 140.234C397.049 139.201 397.346 137.797 398.47 137.105Z" fill="white" stroke="black" stroke-width="1.02778"/>
<path d="M396.762 138.156L509.854 68.5234C510.034 68.4128 510.257 68.4688 510.358 68.6139L526.583 91.8914L412.874 161.904L396.649 138.627C396.548 138.482 396.582 138.267 396.762 138.156Z" fill="#0064FF" stroke="black" stroke-width="1.02778"/>
<path d="M422.872 148.433L424.188 150.321L416.935 154.787L415.618 152.899L422.872 148.433Z" fill="white" stroke="black" stroke-width="1.02778"/>
<path d="M438.406 138.865L439.723 140.754L432.469 145.22L431.153 143.332L438.406 138.865Z" fill="white" stroke="black" stroke-width="1.02778"/>
<path d="M453.649 129.485L454.965 131.373L447.711 135.839L446.395 133.951L453.649 129.485Z" fill="white" stroke="black" stroke-width="1.02778"/>
<path d="M469.183 119.923L470.499 121.811L463.245 126.278L461.929 124.389L469.183 119.923Z" fill="white" stroke="black" stroke-width="1.02778"/>
<path d="M485.571 109.832L486.888 111.721L479.634 116.187L478.318 114.299L485.571 109.832Z" fill="white" stroke="black" stroke-width="1.02778"/>
<path d="M501.106 100.263L502.422 102.151L495.168 106.618L493.852 104.729L501.106 100.263Z" fill="white" stroke="black" stroke-width="1.02778"/>
<path d="M516.917 90.5286L518.234 92.4169L510.98 96.8832L509.664 94.9949L516.917 90.5286Z" fill="white" stroke="black" stroke-width="1.02778"/>
<path d="M496.81 67.0942L499.814 65.2448C499.857 65.2183 499.895 65.2386 499.906 65.2552L508.641 77.786C508.652 77.8026 508.657 77.8436 508.614 77.8702L505.61 79.7196C505.567 79.7461 505.528 79.7263 505.516 79.7097L496.782 67.1788C496.771 67.1622 496.767 67.1207 496.81 67.0942Z" fill="#7BB1FF" stroke="black" stroke-width="1.02778"/>
<path d="M430.352 108.011L433.355 106.162C433.399 106.135 433.437 106.156 433.448 106.172L442.182 118.703C442.194 118.72 442.199 118.761 442.156 118.787L439.152 120.637C439.109 120.663 439.07 120.643 439.058 120.627L430.324 108.096C430.312 108.079 430.309 108.038 430.352 108.011Z" fill="#7BB1FF" stroke="black" stroke-width="1.02778"/>
<path d="M447.36 97.5385L450.363 95.6891C450.406 95.6627 450.445 95.6829 450.456 95.6995L459.19 108.23C459.202 108.247 459.206 108.288 459.163 108.314L456.16 110.164C456.117 110.19 456.078 110.171 456.066 110.154L447.332 97.6232C447.32 97.6066 447.317 97.5651 447.36 97.5385Z" fill="#7BB1FF" stroke="black" stroke-width="1.02778"/>
<path d="M464.367 87.0678L467.371 85.2184C467.414 85.192 467.452 85.2122 467.464 85.2288L476.198 97.7597C476.21 97.7763 476.214 97.8173 476.171 97.8438L473.168 99.6932C473.124 99.7197 473.085 99.6999 473.074 99.6833L464.34 87.1525C464.328 87.1359 464.324 87.0944 464.367 87.0678Z" fill="#7BB1FF" stroke="black" stroke-width="1.02778"/>
<path d="M481.383 76.5893L484.386 74.7399C484.429 74.7135 484.467 74.7337 484.479 74.7503L493.213 87.2811C493.225 87.2977 493.229 87.3387 493.186 87.3653L490.183 89.2147C490.14 89.2412 490.101 89.2214 490.089 89.2048L481.355 76.674C481.343 76.6574 481.339 76.6158 481.383 76.5893Z" fill="#7BB1FF" stroke="black" stroke-width="1.02778"/>
<path d="M413.301 118.509L416.305 116.66C416.348 116.633 416.386 116.654 416.398 116.67L425.132 129.201C425.144 129.218 425.148 129.259 425.105 129.285L422.101 131.135C422.058 131.161 422.019 131.141 422.008 131.125L413.274 118.594C413.262 118.577 413.258 118.536 413.301 118.509Z" fill="#7BB1FF" stroke="black" stroke-width="1.02778"/>
<path d="M397.511 128.232L400.514 126.382C400.557 126.356 400.596 126.376 400.607 126.393L409.341 138.924C409.353 138.94 409.357 138.981 409.314 139.008L406.311 140.857C406.268 140.884 406.229 140.864 406.217 140.847L397.483 128.317C397.471 128.3 397.468 128.258 397.511 128.232Z" fill="#7BB1FF" stroke="black" stroke-width="1.02778"/>
<path d="M462.563 138.242L469.796 148.619L458.747 155.422L451.513 145.045L462.563 138.242Z" fill="#7BB1FF" stroke="black" stroke-width="1.02778"/>
<path d="M478.239 128.585L485.472 138.963L474.423 145.766L467.19 135.388L478.239 128.585Z" fill="#7BB1FF" stroke="black" stroke-width="1.02778"/>
<path d="M494.364 118.662L501.597 129.04L490.548 135.843L483.315 125.466L494.364 118.662Z" fill="#7BB1FF" stroke="black" stroke-width="1.02778"/>
<path d="M510.034 109.014L517.267 119.391L506.218 126.194L498.985 115.817L510.034 109.014Z" fill="#7BB1FF" stroke="black" stroke-width="1.02778"/>
<path d="M525.604 99.4251L532.837 109.802L521.788 116.606L514.555 106.228L525.604 99.4251Z" fill="#7BB1FF" stroke="black" stroke-width="1.02778"/>
<path d="M441.127 171.335L448.36 181.713L437.311 188.516L430.078 178.138L441.127 171.335Z" fill="#7BB1FF" stroke="black" stroke-width="1.02778"/>
<path d="M456.81 161.674L464.043 172.051L452.994 178.855L445.761 168.477L456.81 161.674Z" fill="#7BB1FF" stroke="black" stroke-width="1.02778"/>
<path d="M472.266 152.16L479.499 162.538L468.45 169.341L461.217 158.964L472.266 152.16Z" fill="#7BB1FF" stroke="black" stroke-width="1.02778"/>
<path d="M487.943 142.504L495.176 152.882L484.127 159.685L476.894 149.307L487.943 142.504Z" fill="#7BB1FF" stroke="black" stroke-width="1.02778"/>
<path d="M504.061 132.581L511.294 142.959L500.245 149.762L493.012 139.385L504.061 132.581Z" fill="#7BB1FF" stroke="black" stroke-width="1.02778"/>
<path d="M519.737 122.931L526.971 133.308L515.921 140.111L508.688 129.734L519.737 122.931Z" fill="#7BB1FF" stroke="black" stroke-width="1.02778"/>
<path d="M535.307 113.342L542.54 123.719L531.491 130.523L524.258 120.145L535.307 113.342Z" fill="#7BB1FF" stroke="black" stroke-width="1.02778"/>
<path d="M450.695 185.066L457.928 195.443L446.879 202.246L439.646 191.869L450.695 185.066Z" fill="#7BB1FF" stroke="black" stroke-width="1.02778"/>
<path d="M466.386 175.411L473.619 185.789L462.57 192.592L455.337 182.215L466.386 175.411Z" fill="#7BB1FF" stroke="black" stroke-width="1.02778"/>
<path d="M481.842 165.896L489.075 176.273L478.026 183.076L470.793 172.699L481.842 165.896Z" fill="#7BB1FF" stroke="black" stroke-width="1.02778"/>
<path d="M497.518 156.241L504.751 166.618L493.702 173.421L486.469 163.044L497.518 156.241Z" fill="#7BB1FF" stroke="black" stroke-width="1.02778"/>
<path d="M513.636 146.318L520.869 156.695L509.82 163.498L502.587 153.121L513.636 146.318Z" fill="#7BB1FF" stroke="black" stroke-width="1.02778"/>
<path d="M529.313 136.661L536.546 147.039L525.497 153.842L518.264 143.465L529.313 136.661Z" fill="#7BB1FF" stroke="black" stroke-width="1.02778"/>
<path d="M544.875 127.08L552.109 137.458L541.059 144.261L533.826 133.884L544.875 127.08Z" fill="#7BB1FF" stroke="black" stroke-width="1.02778"/>
<path d="M460.398 198.985L467.632 209.362L456.583 216.165L449.349 205.788L460.398 198.985Z" fill="#7BB1FF" stroke="black" stroke-width="1.02778"/>
<path d="M476.082 189.328L483.315 199.706L472.266 206.509L465.033 196.132L476.082 189.328Z" fill="#7BB1FF" stroke="black" stroke-width="1.02778"/>
<path d="M491.538 179.807L498.771 190.184L487.722 196.987L480.489 186.61L491.538 179.807Z" fill="#7BB1FF" stroke="black" stroke-width="1.02778"/>
<path d="M591.311 249.735L608.567 314.133C609.568 317.868 613.407 320.085 617.143 319.084L717.774 292.12C721.509 291.119 723.726 287.279 722.725 283.544L705.47 219.146L591.311 249.735Z" fill="#F7F7F7" stroke="#000926" stroke-width="0.933562"/>
<path d="M591.446 249.696L619.78 300.717C621.34 303.526 624.61 304.913 627.713 304.081L727.9 277.236C732.301 276.057 734.422 271.056 732.21 267.073L705.576 219.115L591.446 249.696Z" fill="white" stroke="#000926" stroke-width="0.933562"/>
<path d="M706.377 228.111C705.922 227.49 705.132 227.212 704.388 227.411L601.942 254.861C600.674 255.201 600.143 256.709 600.919 257.769L602.44 259.843C602.895 260.465 603.685 260.743 604.429 260.543L706.875 233.093C708.143 232.753 708.674 231.245 707.897 230.186L706.377 228.111Z" fill="#0064FF"/>
<path d="M683.221 269.44C683.138 270.203 682.594 270.836 681.853 271.035L621.192 287.289C619.928 287.628 618.719 286.59 618.861 285.29V285.29C618.944 284.527 619.487 283.893 620.229 283.695L680.89 267.44C682.154 267.102 683.363 268.139 683.221 269.44V269.44Z" fill="#BEC5CC"/>
<path d="M687.086 276.485C687.003 277.248 686.459 277.882 685.718 278.081L625.057 294.335C623.793 294.673 622.584 293.636 622.726 292.336V292.336C622.809 291.573 623.352 290.939 624.094 290.74L684.755 274.486C686.019 274.148 687.228 275.185 687.086 276.485V276.485Z" fill="#BEC5CC"/>
<path fill-rule="evenodd" clip-rule="evenodd" d="M724.139 247.683C714.214 247.683 706.169 255.728 706.169 265.654C706.169 275.578 714.214 283.624 724.139 283.624C734.064 283.624 742.11 275.578 742.11 265.654C742.11 255.728 734.064 247.683 724.139 247.683Z" fill="#11AB54"/>
<path fill-rule="evenodd" clip-rule="evenodd" d="M733.548 260.184L721.079 274.689L714.737 267.371L717.206 265.231L721.069 269.688L731.07 258.054L733.548 260.184Z" fill="white"/>
<mask id="path-72-inside-1_599_13321" fill="white">
<path d="M232.822 105.868C231.473 98.9322 224.734 94.2784 217.77 95.4726L216.042 95.7689L216.041 95.7632L280.525 84.7063C287.492 83.5117 294.232 88.1678 295.579 95.1064L232.822 105.868Z"/>
</mask>
<path d="M232.822 105.868C231.473 98.9322 224.734 94.2784 217.77 95.4726L216.042 95.7689L216.041 95.7632L280.525 84.7063C287.492 83.5117 294.232 88.1678 295.579 95.1064L232.822 105.868Z" fill="#D9DBDE"/>
<path d="M232.822 105.868L231.809 106.042L232.005 107.051L233.018 106.877L232.822 105.868ZM217.77 95.4726L217.574 94.4637L217.574 94.4637L217.77 95.4726ZM216.042 95.7689L215.029 95.9426L215.225 96.9516L216.238 96.7779L216.042 95.7689ZM216.041 95.7632L215.845 94.7542L214.832 94.9279L215.028 95.9369L216.041 95.7632ZM280.525 84.7063L280.721 85.7152L280.721 85.7152L280.525 84.7063ZM295.579 95.1064L295.775 96.1154L296.788 95.9417L296.592 94.9327L295.579 95.1064ZM232.822 105.868L233.835 105.694C232.377 98.2011 225.098 93.1736 217.574 94.4637L217.77 95.4726L217.965 96.4816C224.371 95.3832 230.568 99.6634 231.809 106.042L232.822 105.868ZM217.77 95.4726L217.574 94.4637L215.846 94.76L216.042 95.7689L216.238 96.7779L217.965 96.4816L217.77 95.4726ZM216.042 95.7689L217.055 95.5952L217.054 95.5895L216.041 95.7632L215.028 95.9369L215.029 95.9426L216.042 95.7689ZM216.041 95.7632L216.237 96.7721L280.721 85.7152L280.525 84.7063L280.33 83.6973L215.845 94.7542L216.041 95.7632ZM280.525 84.7063L280.721 85.7152C287.129 84.6166 293.327 88.8988 294.566 95.2802L295.579 95.1064L296.592 94.9327C295.137 87.4367 287.856 82.4068 280.33 83.6973L280.525 84.7063ZM295.579 95.1064L295.383 94.0975L232.626 104.859L232.822 105.868L233.018 106.877L295.775 96.1154L295.579 95.1064Z" fill="#000926" mask="url(#path-72-inside-1_599_13321)"/>
<path d="M277.696 85.7109C276.445 86.5414 275.407 87.6069 274.575 88.9049C272.818 91.6451 272.008 95.373 271.956 99.9988C271.895 105.303 271.695 157.886 271.603 182.799C271.576 190.107 266.343 196.241 259.107 197.482L202.477 207.193L208.024 109.448C208.421 102.46 213.557 96.7295 220.491 95.5384L277.696 85.7109Z" fill="#F7F7F7" stroke="#000926" stroke-width="1.02778"/>
<path d="M214.83 114.254L214.321 122.924C214.278 123.658 214.945 124.251 215.674 124.126L261.33 116.297C261.841 116.209 262.22 115.787 262.25 115.272L262.759 106.602C262.802 105.868 262.135 105.275 261.406 105.4L215.75 113.23C215.239 113.317 214.86 113.739 214.83 114.254Z" fill="#000926"/>
<path d="M214.598 152.457L230.698 149.696" stroke="#000926" stroke-width="1.02778" stroke-linecap="round"/>
<path d="M255.334 145.473L261.266 144.455" stroke="#EB144B" stroke-width="1.02778" stroke-linecap="round"/>
<path d="M240.597 174.861L259.563 171.609" stroke="#EB144B" stroke-width="1.02778" stroke-linecap="round"/>
<path d="M215.353 139.423L237.86 135.563" stroke="#000926" stroke-width="1.02778" stroke-linecap="round"/>
<path d="M255.626 132.517L261.558 131.499" stroke="#EB144B" stroke-width="1.02778" stroke-linecap="round"/>
<path d="M213.801 165.105L236.308 161.246" stroke="#000926" stroke-width="1.02778" stroke-linecap="round"/>
<path d="M255.014 158.038L260.946 157.021" stroke="#EB144B" stroke-width="1.02778" stroke-linecap="round"/>
<mask id="path-83-inside-2_599_13321" fill="white">
<path d="M261.996 184.529L247.652 186.989C248.988 193.873 255.634 198.511 262.543 197.416L199.949 208.149C192.983 209.344 186.244 204.687 184.897 197.748L261.996 184.527L261.996 184.529Z"/>
</mask>
<path d="M261.996 184.529L247.652 186.989C248.988 193.873 255.634 198.511 262.543 197.416L199.949 208.149C192.983 209.344 186.244 204.687 184.897 197.748L261.996 184.527L261.996 184.529Z" fill="#D9DBDE"/>
<path d="M261.996 184.529L262.192 185.538L263.205 185.364L263.009 184.355L261.996 184.529ZM247.652 186.989L247.456 185.98L246.443 186.153L246.639 187.162L247.652 186.989ZM262.543 197.416L262.738 198.425L262.36 196.405L262.543 197.416ZM199.949 208.149L200.145 209.158L200.145 209.158L199.949 208.149ZM184.897 197.748L184.701 196.739L183.688 196.913L183.884 197.922L184.897 197.748ZM261.996 184.527L263.009 184.353L262.813 183.344L261.8 183.518L261.996 184.527ZM261.996 184.529L261.8 183.52L247.456 185.98L247.652 186.989L247.848 187.998L262.192 185.538L261.996 184.529ZM247.652 186.989L246.639 187.162C248.083 194.6 255.262 199.61 262.726 198.427L262.543 197.416L262.36 196.405C256.006 197.412 249.894 193.147 248.665 186.815L247.652 186.989ZM262.543 197.416L262.347 196.407L199.754 207.14L199.949 208.149L200.145 209.158L262.738 198.425L262.543 197.416ZM199.949 208.149L199.754 207.14C193.346 208.239 187.149 203.956 185.91 197.574L184.897 197.748L183.884 197.922C185.339 205.418 192.619 210.449 200.145 209.158L199.949 208.149ZM184.897 197.748L185.093 198.757L262.192 185.536L261.996 184.527L261.8 183.518L184.701 196.739L184.897 197.748ZM261.996 184.527L260.983 184.701L260.983 184.703L261.996 184.529L263.009 184.355L263.009 184.353L261.996 184.527Z" fill="#000926" mask="url(#path-83-inside-2_599_13321)"/>
<g clip-path="url(#clip0_599_13321)">
<path d="M421.504 233.179C458.058 239.129 482.242 273.528 475.519 310.012C468.796 346.495 433.712 371.245 397.158 365.295C360.604 359.345 336.42 324.947 343.143 288.463C349.866 251.979 384.95 227.228 421.504 233.179Z" fill="#0064FF" stroke="black" stroke-width="1.0208"/>
<path d="M413.294 231.841C449.848 237.791 474.032 272.19 467.309 308.674C460.586 345.157 425.502 369.908 388.948 363.957C352.394 358.007 328.21 323.609 334.933 287.125C341.656 250.642 376.74 225.891 413.294 231.841Z" fill="#002850" stroke="black" stroke-width="1.0208"/>
<path d="M375.752 261.817C396.075 247.479 423.908 252.009 437.918 271.936C451.927 291.864 446.809 319.641 426.485 333.98C406.161 348.318 378.328 343.787 364.319 323.86C350.309 303.933 355.428 276.156 375.752 261.817Z" fill="white" stroke="black" stroke-width="1.0208"/>
<path d="M388.588 280.065C398.633 272.978 412.39 275.217 419.315 285.067C426.239 294.916 423.709 308.646 413.664 315.733C403.618 322.82 389.861 320.581 382.937 310.731C376.012 300.882 378.542 287.152 388.588 280.065Z" fill="#002850" stroke="black" stroke-width="1.0208"/>
<path d="M399.001 298.57L411.632 288.563L412.91 290.381L399.249 298.923C399.014 299.07 398.783 298.742 399.001 298.57Z" fill="white"/>
<path d="M399.021 299.302C398.877 299.278 398.744 299.199 398.653 299.07C398.478 298.821 398.53 298.487 398.773 298.294L411.405 288.286C411.482 288.225 411.58 288.198 411.676 288.212C411.772 288.219 411.859 288.276 411.913 288.355L413.191 290.173C413.246 290.251 413.266 290.349 413.246 290.445C413.226 290.54 413.167 290.623 413.085 290.675L399.424 299.217C399.297 299.296 399.154 299.322 399.022 299.301L399.021 299.302ZM411.545 289.069L401.088 297.353L412.397 290.282L411.545 289.069Z" fill="black"/>
<path d="M416.843 284.344L418.635 286.893L413.187 290.737C412.658 291.11 411.932 290.992 411.567 290.473L411.096 289.803C410.732 289.285 410.864 288.56 411.394 288.187L416.843 284.343L416.843 284.344Z" fill="white"/>
<path d="M412.245 291.29C411.846 291.225 411.5 291.009 411.27 290.682L410.798 290.011C410.323 289.336 410.498 288.39 411.187 287.904L416.636 284.06C416.797 283.946 417.018 283.982 417.129 284.14L418.921 286.689C418.974 286.765 418.995 286.859 418.978 286.952C418.961 287.044 418.908 287.126 418.83 287.181L413.381 291.025C413.047 291.261 412.644 291.355 412.245 291.29ZM416.746 284.838L411.588 288.477C411.221 288.736 411.128 289.24 411.381 289.601L411.853 290.271C412.098 290.621 412.622 290.706 412.979 290.455L418.137 286.816L416.746 284.838Z" fill="black"/>
<path d="M415.445 288.087L414.637 286.937C414.011 286.048 414.24 284.808 415.147 284.168L475.877 241.323C476.784 240.683 478.027 240.885 478.652 241.774L479.461 242.924C480.086 243.813 479.857 245.054 478.95 245.693L418.22 288.539C417.313 289.178 416.07 288.976 415.445 288.087Z" fill="white"/>
<path d="M416.652 289.228C416.06 289.131 415.51 288.81 415.143 288.288L414.335 287.138C413.599 286.092 413.869 284.629 414.936 283.877L475.666 241.032C476.183 240.667 476.807 240.522 477.424 240.622C478.04 240.723 478.577 241.057 478.933 241.564L479.741 242.713C480.476 243.759 480.206 245.222 479.14 245.974L418.409 288.819C417.876 289.195 417.243 289.324 416.652 289.228ZM477.296 241.318C476.864 241.247 476.428 241.348 476.068 241.603L415.337 284.449C414.592 284.974 414.404 285.996 414.918 286.727L415.726 287.876C416.239 288.607 417.263 288.773 418.008 288.248L478.739 245.403C479.484 244.877 479.672 243.855 479.159 243.125L478.351 241.975C478.101 241.621 477.727 241.388 477.297 241.318L477.296 241.318Z" fill="black"/>
<path d="M457.862 254.015L457.696 246.206C457.63 243.129 459.126 240.193 461.676 238.392L473.102 230.331C473.518 230.038 474.086 230.315 474.097 230.818L474.342 242.388L457.862 254.015Z" fill="#2962F5"/>
<path d="M457.806 254.365C457.773 254.359 457.74 254.348 457.709 254.334C457.593 254.277 457.519 254.161 457.517 254.032L457.35 246.222C457.282 243.016 458.827 239.983 461.484 238.109L472.91 230.048C473.21 229.836 473.597 229.804 473.922 229.962C474.246 230.121 474.452 230.443 474.46 230.806L474.706 242.376C474.708 242.495 474.651 242.608 474.553 242.677L458.072 254.304C457.994 254.359 457.899 254.381 457.807 254.366L457.806 254.365ZM473.517 230.57C473.461 230.561 473.388 230.566 473.311 230.62L461.885 238.681C459.425 240.417 457.994 243.225 458.057 246.194L458.209 253.35L473.992 242.216L473.75 230.835C473.747 230.685 473.643 230.617 473.598 230.596C473.581 230.588 473.553 230.577 473.517 230.571L473.517 230.57Z" fill="black"/>
<path d="M460.947 258.389L468.231 261.177C471.102 262.276 474.364 261.854 476.916 260.055L488.342 251.994C488.758 251.7 488.688 251.071 488.22 250.892L477.427 246.762L460.947 258.389Z" fill="#2962F5"/>
<path d="M469.975 262.012C469.342 261.909 468.715 261.741 468.104 261.508L460.82 258.72C460.7 258.674 460.616 258.565 460.602 258.437C460.587 258.308 460.646 258.181 460.753 258.105L477.233 246.478C477.332 246.409 477.457 246.392 477.567 246.435L488.36 250.565C488.697 250.695 488.931 250.998 488.971 251.357C489.011 251.717 488.85 252.071 488.55 252.282L477.124 260.343C475.009 261.834 472.443 262.414 469.976 262.013L469.975 262.012ZM461.695 258.295L468.371 260.85C471.14 261.909 474.261 261.506 476.722 259.771L488.148 251.71C488.272 251.622 488.272 251.498 488.267 251.448C488.263 251.399 488.234 251.277 488.094 251.223L477.479 247.161L461.696 258.296L461.695 258.295Z" fill="black"/>
<path d="M483.884 253.955C483.863 253.952 483.841 253.946 483.821 253.938L475.016 250.751C474.833 250.685 474.743 250.483 474.813 250.301C474.884 250.118 475.089 250.023 475.271 250.089L484.075 253.275C484.257 253.342 484.348 253.544 484.278 253.726C484.215 253.888 484.048 253.98 483.883 253.954L483.884 253.955Z" fill="black"/>
<path d="M479.491 257.048C479.47 257.044 479.449 257.039 479.428 257.031L470.623 253.844C470.441 253.778 470.35 253.576 470.42 253.394C470.491 253.21 470.696 253.116 470.878 253.181L479.682 256.368C479.864 256.434 479.955 256.636 479.885 256.819C479.822 256.98 479.655 257.073 479.49 257.046L479.491 257.048Z" fill="black"/>
<path d="M457.26 259.658C457.171 259.643 457.088 259.595 457.033 259.516L455.497 257.331C455.386 257.174 455.427 256.953 455.588 256.84C455.748 256.726 455.969 256.762 456.08 256.92L457.616 259.104C457.726 259.262 457.686 259.482 457.525 259.596C457.444 259.653 457.349 259.672 457.26 259.658Z" fill="black"/>
<path d="M459.835 257.845C459.745 257.83 459.663 257.782 459.607 257.703L458.072 255.519C457.961 255.361 458.001 255.141 458.162 255.027C458.323 254.914 458.544 254.95 458.655 255.108L460.19 257.292C460.301 257.449 460.26 257.67 460.1 257.783C460.019 257.84 459.924 257.86 459.835 257.845Z" fill="black"/>
<path d="M462.425 256.026C462.336 256.012 462.254 255.964 462.198 255.885L460.663 253.701C460.552 253.543 460.593 253.322 460.754 253.209C460.915 253.096 461.136 253.132 461.246 253.289L462.781 255.473C462.892 255.631 462.851 255.851 462.69 255.965C462.609 256.022 462.515 256.041 462.425 256.026Z" fill="black"/>
</g>
<defs>
<clipPath id="clip0_599_13321">
<rect width="145.596" height="146.5" fill="white" transform="matrix(0.987009 0.160665 -0.181221 0.983442 348.712 209.539)"/>
</clipPath>
</defs>
</svg>
