<svg width="408" height="408" viewBox="0 0 408 408" fill="none" xmlns="http://www.w3.org/2000/svg">
<path d="M0 8C0 3.58172 3.58172 0 8 0H400C404.418 0 408 3.58172 408 8V400C408 404.418 404.418 408 400 408H8C3.58172 408 0 404.418 0 400V8Z" fill="#F7EBFF"/>
<path d="M149.611 279.8C149.913 296.197 171.431 301.559 179.51 287.557C185.449 276.869 188.341 265.743 190.92 254.091C193.306 242.954 195.245 231.862 195.996 220.457C196.681 202.202 172.002 196.975 165.1 213.664C161.607 222.899 158.611 232.315 156.123 241.869C155.243 245.171 154.419 248.485 153.652 251.806C152.886 255.127 152.162 258.454 151.484 261.784C151.258 262.947 151.058 264.112 150.866 265.275C150.609 266.797 150.395 268.319 150.194 269.819C149.713 273.122 149.517 276.463 149.611 279.8Z" fill="#1B4545"/>
<path d="M149.611 279.8C149.913 296.197 171.431 301.559 179.51 287.557C185.449 276.869 188.341 265.743 190.92 254.091C193.306 242.954 195.245 231.862 195.996 220.457C196.681 202.202 172.002 196.975 165.1 213.664C161.607 222.899 158.611 232.315 156.123 241.869C155.243 245.171 154.419 248.485 153.652 251.806C152.886 255.127 152.162 258.454 151.484 261.784C151.258 262.947 151.058 264.112 150.866 265.275C150.609 266.797 150.395 268.319 150.194 269.819C149.713 273.122 149.517 276.463 149.611 279.8Z" stroke="black" stroke-width="0.432658" stroke-miterlimit="10"/>
<path d="M204.054 197.04C204.05 197.065 204.05 197.094 204.05 197.118C204.466 197.073 204.888 197.026 205.307 196.985C205.737 196.944 206.168 196.902 206.597 196.863C205.793 196.904 205.029 196.959 204.299 197.018C204.217 197.03 204.137 197.03 204.054 197.04Z" fill="#F2CAA0"/>
<path d="M208.745 196.699L208.775 185.919C206.469 185.864 204.2 185.349 202.102 184.397C200.004 183.445 198.118 182.077 196.565 180.377C189.766 171.999 194.563 162.487 194.6 162.384L206.394 141.882C206.465 141.761 206.577 141.671 206.71 141.624C206.822 141.582 217.93 137.899 225.073 136.401C225.41 136.33 225.751 136.297 226.093 136.297C228.446 136.297 231.112 137.818 233.84 140.695C239.267 146.419 244.479 157.421 243.934 167.375C243.712 171.533 242.24 175.528 239.716 178.845C237.189 182.159 233.726 184.642 229.771 185.968L229.338 196.404L233.965 197.594L232.848 201.648C232.848 201.648 229.659 208.001 217.279 207.564C203.351 207.071 204.053 197.038 204.053 197.038L208.745 196.697V196.699Z" fill="#F2CAA0"/>
<path d="M182.846 255.998C182.846 255.998 180.222 255.495 175.303 255.516L182.846 255.998Z" fill="#CC513B"/>
<path d="M182.846 255.998C182.846 255.998 180.222 255.495 175.303 255.516" stroke="black" stroke-width="0.432658" stroke-miterlimit="10"/>
<path d="M182.845 255.992C184.138 258.92 185.236 261.93 186.128 265.002C186.487 266.232 186.846 267.542 187.159 268.919C188.706 275.546 189.481 283.503 186.734 289.636C184.894 293.745 181.477 297.037 175.661 298.556L155.645 299.99L130.26 303.472C130.26 303.472 112.877 272.771 120.611 269.356C129.79 265.304 145.021 260.447 152.123 258.679L157.225 259.012" fill="#1B4545"/>
<path d="M182.845 255.992C184.138 258.92 185.236 261.93 186.128 265.002C186.487 266.232 186.846 267.542 187.159 268.919C188.706 275.546 189.481 283.503 186.734 289.636C184.894 293.745 181.477 297.037 175.661 298.556L155.645 299.99L130.26 303.472C130.26 303.472 112.877 272.771 120.611 269.356C129.79 265.304 145.021 260.447 152.123 258.679L157.225 259.012" stroke="black" stroke-width="0.432658" stroke-linecap="round" stroke-linejoin="round"/>
<path d="M206.595 196.866C207.286 196.832 208.007 196.803 208.742 196.778V196.699C208.027 196.748 207.311 196.803 206.595 196.866Z" fill="white"/>
<path d="M175.751 205.736C175.751 205.736 176.863 269.649 180.047 302.134H251.103C256.537 269.7 258.705 237.222 265.174 206.987C255.466 202.085 244.793 199.105 234.236 197.603C233.624 199.591 233.099 202.342 231.211 203.57C225.965 206.991 215.724 210.63 206.145 203.315C205.716 202.879 205.345 202.389 205.041 201.856C204.226 200.417 203.881 198.762 204.047 197.117C191.741 198.476 181.48 201.678 175.753 205.736H175.751Z" fill="white"/>
<path d="M111.09 284.896L95.8012 296.615C95.1345 297.096 98.5758 297.854 100.019 296.863L113.623 288.787C116.355 287.085 113.76 283.09 111.088 284.896" fill="#F5A082"/>
<path d="M106.093 284.011L91.4023 295.777C89.9337 296.93 92.9514 297.619 94.5024 296.642L108.734 287.828C111.412 286.05 108.71 282.131 106.091 284.009" fill="#F5A082"/>
<path d="M103.153 282.266L87.3467 295.093C86.7761 295.965 89.3938 296.335 90.8546 295.744L105.857 286.04C108.492 284.217 105.735 280.359 103.151 282.266H103.153Z" fill="#F5A082"/>
<path d="M87.8665 292.869C86.6449 294.128 89.6489 294.478 91.0057 293.368L102.949 283.698C105.179 281.702 101.802 279.133 99.6216 281.193L87.8665 292.871V292.869Z" fill="#F5A082"/>
<path d="M106.655 288.253C105.676 291 108.827 294.629 113.692 296.356C118.557 298.084 123.294 297.257 124.273 294.51C125.251 291.762 122.1 288.133 117.235 286.406C112.37 284.679 107.633 285.505 106.655 288.253Z" fill="#F5A082"/>
<path d="M128.379 290.197C124.82 290.352 121.087 291.625 117.742 292.048C114.052 292.387 109.893 293.591 106.279 294.545C104.402 295.038 106.067 296.914 108.289 297.324C113.054 298.203 116.711 298.007 121.45 296.862C124.201 296.037 126.86 294.933 129.383 293.566C129.74 293.366 130.017 293.051 130.172 292.673C130.324 292.295 130.346 291.874 130.228 291.484C130.113 291.092 129.866 290.752 129.53 290.519C129.195 290.285 128.791 290.172 128.381 290.199" fill="#F5A082"/>
<path d="M217.333 302.131H254.473C254.922 299.422 255.344 296.71 255.74 293.994C260.055 264.198 261.087 234.136 267.026 206.436C257.063 201.411 246.171 198.914 234.245 197.594C230.369 206.661 217.504 240.988 217.29 294.331C217.268 296.883 217.29 299.491 217.335 302.133" fill="#1B4545"/>
<path d="M217.333 302.131H254.473C254.922 299.422 255.344 296.71 255.74 293.994C260.055 264.198 261.087 234.136 267.026 206.436C257.063 201.411 246.171 198.914 234.245 197.594C230.369 206.661 217.504 240.988 217.29 294.331C217.268 296.881 217.29 299.489 217.335 302.131H217.333Z" stroke="black" stroke-width="0.432658" stroke-linecap="round" stroke-linejoin="round"/>
<path d="M170.445 206.649C170.445 206.649 173.053 269.689 178.484 302.134H196.853C196.357 281.754 198.916 223.719 204.055 197.039L196.104 198.39C184.704 200.145 175.4 203.151 170.447 206.649" fill="#1B4545"/>
<path d="M170.445 206.649C170.445 206.649 173.053 269.689 178.484 302.134H196.853C196.357 281.754 198.916 223.719 204.055 197.039L196.104 198.39C184.702 200.145 175.398 203.151 170.445 206.649Z" stroke="black" stroke-width="0.432658" stroke-linecap="round" stroke-linejoin="round"/>
<path d="M207.56 273.445L190.968 273.925L168.94 275.249L155.151 295.962C154.134 297.286 155.602 297.27 156.816 298.418L158.804 297.155L158.112 296.389L166.624 286.533L166.538 287.069C166.442 287.674 166.518 288.295 166.757 288.859C166.999 289.423 167.393 289.909 167.897 290.257L170.516 292.075C170.467 292.786 170.654 293.493 171.044 294.088C171.436 294.683 172.01 295.134 172.683 295.371L175.575 296.389L175.499 296.7C175.416 297.037 175.403 297.386 175.46 297.727C175.516 298.067 175.642 298.394 175.828 298.684C176.014 298.976 176.258 299.227 176.544 299.422C176.83 299.618 177.152 299.753 177.491 299.82C177.83 299.887 178.181 299.885 178.518 299.814C178.856 299.744 179.177 299.603 179.462 299.405C179.746 299.207 179.985 298.952 180.167 298.659C180.35 298.365 180.471 298.038 180.524 297.695L181.422 291.854L187.25 291.1C187.25 291.1 199.395 289.065 205.36 286.78C210.772 284.706 207.554 273.449 207.554 273.449L207.56 273.445Z" fill="#F2CAA0"/>
<path d="M207.56 273.445L190.968 273.925L168.942 275.249L164.738 280.72C163.72 282.044 154.375 296.546 155.589 297.693C155.589 297.693 155.724 299.18 158.483 296.389C161.242 293.598 166.626 286.531 166.626 286.531L166.54 287.067C166.444 287.673 166.52 288.293 166.759 288.857C166.999 289.421 167.395 289.907 167.899 290.256L170.518 292.073C170.469 292.784 170.656 293.491 171.046 294.086C171.438 294.681 172.014 295.132 172.685 295.369L175.577 296.387L175.501 296.698C175.418 297.035 175.407 297.384 175.461 297.725C175.518 298.065 175.644 298.392 175.83 298.684C176.016 298.976 176.26 299.227 176.546 299.422C176.832 299.616 177.154 299.751 177.493 299.82C177.832 299.887 178.183 299.885 178.52 299.814C178.858 299.744 179.179 299.603 179.464 299.405C179.748 299.207 179.987 298.952 180.169 298.659C180.352 298.365 180.473 298.038 180.526 297.695L181.422 291.854L187.25 291.1C187.25 291.1 199.395 289.065 205.36 286.78C210.772 284.706 207.554 273.449 207.554 273.449L207.56 273.445Z" stroke="black" stroke-width="0.432658" stroke-miterlimit="10"/>
<path d="M166.621 286.527L167.986 282.195" stroke="black" stroke-width="0.432658" stroke-linecap="round" stroke-linejoin="round"/>
<path d="M170.522 292.07L171.771 286.91" stroke="black" stroke-width="0.432658" stroke-linecap="round" stroke-linejoin="round"/>
<path d="M175.578 296.388L176.235 290.156" stroke="black" stroke-width="0.432658" stroke-linecap="round" stroke-linejoin="round"/>
<path d="M181.357 292.427L181.537 290.668" stroke="black" stroke-width="0.432658" stroke-linecap="round" stroke-linejoin="round"/>
<path d="M244.191 222.783C244.897 231.621 246.593 240.694 248.013 249.37C248.615 252.932 249.158 256.412 249.77 259.809C250.219 262.381 250.709 264.903 251.303 267.382C251.403 267.805 251.54 268.218 251.711 268.618C251.937 269.139 252.109 269.139 252.611 268.914C251.252 272.877 251.523 277.219 253.366 280.983C255.209 284.747 258.474 287.625 262.441 288.988C263.4 289.321 264.388 289.552 265.394 289.682C269.029 290.193 272.731 289.423 275.861 287.504C278.99 285.585 281.353 282.638 282.541 279.169C284.584 274.74 285.247 271.597 285.841 267.237C286.253 263.783 286.357 260.299 286.147 256.827C285.827 251.988 285.137 247.18 284.082 242.447C281.87 232.479 278.492 222.807 274.017 213.63C272.837 211.267 271.123 209.208 269.009 207.62C259.35 200.498 244.281 207.093 244.099 220.804C244.093 221.465 244.125 222.127 244.189 222.785" fill="#1B4545"/>
<path d="M244.191 222.783C244.897 231.621 246.593 240.694 248.013 249.37C248.615 252.932 249.158 256.412 249.77 259.809C250.219 262.381 250.709 264.903 251.303 267.382C251.403 267.805 251.54 268.218 251.711 268.618C251.937 269.139 252.109 269.139 252.611 268.914C251.252 272.877 251.523 277.219 253.366 280.983C255.209 284.747 258.474 287.625 262.441 288.988C263.4 289.321 264.388 289.552 265.394 289.682C269.029 290.193 272.731 289.423 275.861 287.504C278.99 285.585 281.353 282.638 282.541 279.169C284.584 274.74 285.247 271.597 285.841 267.237C286.253 263.783 286.357 260.299 286.147 256.827C285.827 251.988 285.137 247.18 284.082 242.447C281.87 232.479 278.492 222.807 274.017 213.63C272.837 211.267 271.123 209.208 269.009 207.62C259.35 200.498 244.281 207.093 244.099 220.804C244.093 221.465 244.125 222.127 244.189 222.785" stroke="black" stroke-width="0.432658"/>
<path d="M244.191 222.787C244.897 231.625 246.593 240.698 248.013 249.373C248.615 252.935 249.158 256.415 249.77 259.813C250.219 262.384 250.709 264.906 251.303 267.386C251.403 267.809 251.54 268.222 251.711 268.621C251.937 269.142 252.109 269.142 252.611 268.917C251.252 272.881 251.523 277.222 253.366 280.986C255.209 284.75 258.474 287.629 262.441 288.992C263.4 289.325 264.388 289.556 265.394 289.685C269.029 290.196 272.731 289.426 275.861 287.507C278.99 285.588 281.353 282.643 282.541 279.173C284.584 274.743 285.247 271.6 285.841 267.241C286.253 263.786 286.357 260.302 286.147 256.83C285.827 251.991 285.137 247.184 284.082 242.45C281.87 232.482 278.492 222.81 274.017 213.634C272.837 211.27 271.123 209.212 269.009 207.624C258.862 200.141 242.748 207.796 244.189 222.789L244.191 222.787Z" stroke="black" stroke-width="0.432658" stroke-linecap="round" stroke-linejoin="round"/>
<path d="M271.6 257.913C265.449 258.403 257.835 259.047 249.774 259.811C230.399 261.657 208.409 264.231 197.669 267.158C189.505 269.383 194.993 302.195 203.881 302.132C212.74 302.071 226.874 300.845 238.645 299.643C242.047 299.296 245.245 298.959 248.066 298.654C250.755 298.358 253.104 298.092 254.943 297.878C257.69 297.561 259.316 297.358 259.316 297.358C269.759 296.643 279.743 291.98 284.444 283.254C286.855 278.763 286.855 272.242 286.775 267.139L286.193 256.832H286.151" fill="#1B4545"/>
<path d="M271.6 257.913C265.449 258.403 257.835 259.047 249.774 259.811C230.399 261.657 208.409 264.231 197.669 267.158C189.505 269.383 194.993 302.195 203.881 302.132C212.74 302.071 226.874 300.845 238.645 299.643C242.047 299.296 245.245 298.959 248.066 298.654C250.755 298.358 253.104 298.092 254.943 297.878C257.69 297.561 259.316 297.358 259.316 297.358C269.759 296.643 279.743 291.98 284.444 283.254C286.855 278.763 286.855 272.242 286.775 267.139L286.193 256.832H286.151" stroke="black" stroke-width="0.432658" stroke-linecap="round" stroke-linejoin="round"/>
<path d="M234.839 197.879C234.814 198.012 234.777 198.143 234.73 198.271H234.741C234.784 198.143 234.818 198.012 234.839 197.879Z" fill="#2B1011"/>
<path d="M213.24 136.692C213.297 136.692 213.352 136.674 213.395 136.639C213.44 136.606 213.472 136.557 213.487 136.502C213.501 136.447 213.499 136.39 213.476 136.337C213.454 136.284 213.417 136.241 213.368 136.214C213.268 136.159 203.501 130.695 194.656 134.075C194.593 134.099 194.542 134.148 194.512 134.211C194.485 134.273 194.483 134.344 194.507 134.406C194.532 134.469 194.579 134.52 194.642 134.549C194.705 134.577 194.775 134.579 194.838 134.555C203.456 131.261 213.017 136.604 213.113 136.658C213.15 136.68 213.193 136.694 213.238 136.694" fill="#8F5B31"/>
<path d="M107.305 294.526C107.319 294.526 107.331 294.526 107.344 294.525C107.521 294.499 111.693 293.865 114.582 292.488C119.184 290.293 121.121 290.757 121.139 290.761C121.168 290.774 121.201 290.78 121.235 290.782C121.268 290.782 121.301 290.776 121.331 290.763C121.36 290.751 121.39 290.731 121.411 290.708C121.435 290.684 121.452 290.657 121.464 290.626C121.49 290.563 121.49 290.49 121.464 290.428C121.439 290.365 121.388 290.314 121.325 290.287C121.309 290.277 119.288 289.676 114.36 292.028C111.542 293.371 107.309 294.015 107.266 294.023C107.201 294.033 107.144 294.064 107.103 294.115C107.062 294.166 107.042 294.229 107.048 294.295C107.054 294.36 107.082 294.421 107.131 294.464C107.178 294.507 107.24 294.532 107.305 294.53" fill="#542717"/>
<path d="M107.548 292.402C107.597 292.402 107.644 292.386 107.685 292.36L111.301 290.071C112.044 289.597 112.885 289.296 113.759 289.188C114.634 289.08 115.524 289.166 116.359 289.445C116.422 289.462 116.491 289.456 116.55 289.425C116.608 289.394 116.654 289.341 116.673 289.278C116.695 289.215 116.689 289.147 116.661 289.088C116.632 289.027 116.581 288.982 116.518 288.959C115.61 288.659 114.646 288.563 113.697 288.683C112.748 288.8 111.836 289.127 111.028 289.642L107.41 291.932C107.363 291.961 107.328 292.006 107.308 292.057C107.289 292.11 107.287 292.165 107.302 292.218C107.318 292.27 107.349 292.317 107.395 292.351C107.44 292.384 107.493 292.402 107.548 292.402Z" fill="#542717"/>
<path d="M97.7694 295.367C97.8302 295.367 97.889 295.345 97.9361 295.306L110.009 285.182C110.034 285.16 110.056 285.135 110.072 285.105C110.087 285.076 110.097 285.043 110.099 285.009C110.101 284.976 110.099 284.943 110.087 284.909C110.076 284.876 110.062 284.849 110.04 284.821C110.019 284.794 109.993 284.774 109.964 284.759C109.934 284.743 109.901 284.733 109.868 284.731C109.834 284.729 109.801 284.731 109.768 284.743C109.736 284.753 109.707 284.768 109.679 284.79L97.6067 294.914C97.5675 294.948 97.5381 294.995 97.5243 295.044C97.5106 295.095 97.5126 295.147 97.5322 295.196C97.5498 295.245 97.5831 295.288 97.6263 295.318C97.6694 295.347 97.7204 295.363 97.7733 295.363" fill="#542717"/>
<path d="M92.8418 294.877C92.9045 294.877 92.9653 294.854 93.0124 294.811L105.695 283.437C105.72 283.415 105.742 283.388 105.758 283.356C105.773 283.327 105.781 283.294 105.783 283.259C105.785 283.225 105.781 283.19 105.769 283.159C105.758 283.127 105.74 283.098 105.719 283.072C105.697 283.047 105.668 283.027 105.638 283.012C105.607 282.998 105.573 282.988 105.54 282.988C105.507 282.988 105.471 282.992 105.44 283.004C105.409 283.016 105.379 283.033 105.354 283.057L92.6712 294.431C92.632 294.466 92.6065 294.511 92.5947 294.56C92.583 294.609 92.5869 294.662 92.6045 294.711C92.6241 294.76 92.6555 294.801 92.6987 294.83C92.7418 294.86 92.7908 294.875 92.8437 294.875" fill="#542717"/>
<path d="M88.6527 294.288C88.7174 294.288 88.7801 294.264 88.8272 294.219L102.02 281.933C102.069 281.886 102.098 281.823 102.1 281.755C102.102 281.686 102.078 281.622 102.031 281.571C101.984 281.522 101.922 281.492 101.853 281.488C101.784 281.486 101.72 281.51 101.669 281.557L88.4742 293.843C88.437 293.879 88.4115 293.924 88.3997 293.975C88.388 294.024 88.3919 294.076 88.4115 294.125C88.4311 294.172 88.4625 294.214 88.5056 294.243C88.5487 294.272 88.5977 294.288 88.6487 294.288H88.6527Z" fill="#542717"/>
<path d="M193.017 171.946C193.303 174.619 194.278 177.563 196.564 180.379C198.117 182.078 200.003 183.447 202.101 184.399C204.199 185.351 206.468 185.866 208.774 185.921L208.745 196.78C207.151 196.829 205.656 196.909 204.299 197.02C204.217 197.032 204.137 197.032 204.054 197.042C203.872 198.712 204.217 200.397 205.045 201.861C205.349 202.394 205.715 202.88 206.149 203.316C215.727 210.635 225.965 206.992 231.214 203.575C233.108 202.345 233.631 199.584 234.245 197.596C232.584 197.33 230.943 196.934 229.341 196.408L229.774 185.972C233.729 184.646 237.192 182.163 239.72 178.849C242.243 175.532 243.716 171.537 243.937 167.379C244.483 157.425 239.271 146.425 233.843 140.699C231.116 137.822 228.449 136.301 226.096 136.301C225.755 136.301 225.414 136.334 225.076 136.405C217.933 137.901 206.827 141.584 206.713 141.627C206.58 141.672 206.468 141.764 206.398 141.886L196.964 158.283L194.603 162.386C194.578 162.456 192.456 166.672 193.021 171.948L193.017 171.946Z" stroke="black" stroke-width="0.432658" stroke-miterlimit="10"/>
<path d="M193.017 171.944C194.192 171.504 195.264 170.818 196.168 169.916C197.833 168.253 198.77 165.995 198.77 163.641C198.77 161.691 198.129 159.813 196.958 158.277L194.598 162.38C194.572 162.451 192.451 166.667 193.015 171.943L193.017 171.944Z" fill="#EDA094"/>
<path d="M206.149 203.317C205.722 202.878 205.351 202.388 205.045 201.858C204.218 200.395 203.873 198.711 204.055 197.04C204.137 197.03 207.151 196.827 208.745 196.776L208.777 185.917C206.473 185.866 204.202 185.347 202.104 184.395C200.006 183.444 198.121 182.075 196.567 180.375C189.77 171.995 194.565 162.484 194.604 162.382L206.394 141.878C206.465 141.757 206.577 141.665 206.712 141.624C206.824 141.582 217.932 137.899 225.075 136.399C225.412 136.328 225.753 136.295 226.097 136.297C228.448 136.297 231.114 137.817 233.842 140.695C239.267 146.421 244.479 157.421 243.938 167.372C243.714 171.531 242.244 175.528 239.718 178.843C237.193 182.159 233.73 184.64 229.775 185.966L229.342 196.402C230.944 196.929 232.583 197.326 234.248 197.59C233.634 199.58 233.108 202.337 231.216 203.569C225.967 206.99 215.73 210.629 206.151 203.317H206.149Z" stroke="black" stroke-width="0.432658" stroke-linecap="round" stroke-linejoin="round"/>
<path d="M203.062 172.047C205.98 180.094 212.507 177.18 215.468 171.15L203.062 172.047Z" fill="white"/>
<path d="M203.062 172.047C205.98 180.094 212.507 177.18 215.468 171.15L203.062 172.047Z" stroke="black" stroke-width="0.432658" stroke-linecap="round" stroke-linejoin="round"/>
<path d="M214.875 158.713C214.883 158.958 214.963 159.193 215.107 159.391C215.248 159.588 215.446 159.741 215.675 159.827C215.905 159.913 216.154 159.929 216.391 159.874C216.628 159.819 216.846 159.694 217.012 159.516C217.179 159.338 217.291 159.114 217.33 158.874C217.369 158.633 217.338 158.386 217.236 158.163C217.136 157.939 216.971 157.753 216.763 157.624C216.556 157.495 216.314 157.43 216.071 157.438C215.908 157.444 215.75 157.481 215.603 157.548C215.456 157.614 215.322 157.71 215.21 157.828C215.099 157.945 215.012 158.084 214.956 158.237C214.899 158.388 214.871 158.55 214.877 158.713H214.875Z" fill="black"/>
<path d="M201.511 156.817C201.519 157.061 201.599 157.296 201.74 157.496C201.883 157.694 202.079 157.847 202.309 157.933C202.538 158.019 202.787 158.035 203.024 157.98C203.264 157.925 203.479 157.8 203.646 157.621C203.813 157.443 203.924 157.22 203.964 156.979C204.003 156.738 203.971 156.491 203.87 156.268C203.77 156.045 203.605 155.857 203.397 155.73C203.189 155.6 202.948 155.536 202.705 155.544C202.542 155.549 202.383 155.587 202.236 155.653C202.089 155.72 201.956 155.816 201.844 155.933C201.732 156.051 201.646 156.19 201.589 156.343C201.532 156.493 201.505 156.656 201.511 156.818V156.817Z" fill="black"/>
<path d="M207.778 158.012L202.748 165.35L208.207 166.517" stroke="black" stroke-width="0.432658" stroke-linecap="round" stroke-linejoin="round"/>
<path d="M223.58 128.112C223.58 128.112 207.696 124.465 194.144 138.961C194.144 138.961 187.838 149.267 193.817 154.365L219.41 154.978C222.045 152.379 225.221 150.389 228.71 149.15C234.751 146.941 242.12 129.253 223.576 128.112H223.578H223.58Z" fill="black"/>
<path d="M204.25 132.712C204.25 132.712 184.755 131.094 184.771 150.084L190.616 151.434C190.616 151.434 187.185 142.331 204.252 132.714L204.25 132.712Z" fill="black"/>
<path d="M70.0846 309.704H356.628C356.789 309.704 356.948 309.669 357.097 309.596C357.246 309.526 357.381 309.422 357.494 309.293C357.607 309.164 357.698 309.009 357.76 308.838C357.821 308.668 357.852 308.486 357.852 308.302V301.943C357.852 301.759 357.821 301.577 357.76 301.407C357.698 301.236 357.607 301.082 357.494 300.952C357.38 300.821 357.246 300.719 357.097 300.649C356.948 300.578 356.789 300.543 356.628 300.543H70.0863C69.9253 300.543 69.7661 300.578 69.6172 300.649C69.4682 300.719 69.333 300.823 69.22 300.952C69.107 301.082 69.0162 301.236 68.9546 301.407C68.8929 301.577 68.8604 301.759 68.8604 301.943V308.302C68.8604 308.486 68.8912 308.668 68.9546 308.838C69.0162 309.009 69.107 309.164 69.22 309.293C69.333 309.424 69.4682 309.526 69.6172 309.596C69.7661 309.667 69.9253 309.704 70.0863 309.704" fill="#808080"/>
<path d="M70.0846 309.704H356.628C356.789 309.704 356.948 309.669 357.097 309.596C357.246 309.526 357.381 309.422 357.494 309.293C357.607 309.164 357.698 309.009 357.76 308.838C357.821 308.668 357.852 308.486 357.852 308.302V301.943C357.852 301.759 357.821 301.577 357.76 301.407C357.698 301.236 357.607 301.082 357.494 300.952C357.38 300.821 357.246 300.719 357.097 300.649C356.948 300.578 356.789 300.543 356.628 300.543H70.0863C69.9253 300.543 69.7661 300.578 69.6172 300.649C69.4682 300.719 69.333 300.823 69.22 300.952C69.107 301.082 69.0162 301.236 68.9546 301.407C68.8929 301.577 68.8604 301.759 68.8604 301.943V308.302C68.8604 308.486 68.8912 308.668 68.9546 308.838C69.0162 309.009 69.107 309.164 69.22 309.293C69.333 309.424 69.4682 309.526 69.6172 309.596C69.7661 309.667 69.9253 309.704 70.0863 309.704" stroke="black" stroke-width="0.432658"/>
<path d="M246.974 289.65H307.616C309.085 289.65 310.495 290.234 311.534 291.272C312.573 292.31 313.158 293.718 313.158 295.185C313.158 296.651 312.573 298.059 311.534 299.097C310.495 300.135 309.087 300.719 307.616 300.719H246.974V289.652V289.65Z" fill="black"/>
<path d="M247.401 290.717H276.021C277.207 290.717 278.345 291.187 279.182 292.025C280.021 292.863 280.492 293.999 280.492 295.182C280.492 296.365 280.021 297.502 279.182 298.339C278.343 299.177 277.205 299.647 276.021 299.647H247.401V290.717Z" fill="white" stroke="black" stroke-width="0.432658" stroke-linecap="round" stroke-linejoin="round"/>
<path d="M237.664 278.592H298.305C299.773 278.592 301.183 279.175 302.222 280.213C303.262 281.251 303.846 282.657 303.846 284.126C303.846 285.595 303.262 287.001 302.222 288.039C301.183 289.077 299.773 289.66 298.305 289.66H237.664V278.594V278.592Z" fill="#79B9D9" stroke="black" stroke-width="0.432658" stroke-linecap="round" stroke-linejoin="round"/>
<path d="M237.666 279.658H266.286C267.472 279.658 268.609 280.128 269.447 280.966C270.286 281.805 270.756 282.94 270.756 284.123C270.756 285.306 270.286 286.444 269.447 287.28C268.607 288.116 267.47 288.588 266.286 288.588H237.666V279.658Z" fill="white" stroke="black" stroke-width="0.432658" stroke-linecap="round" stroke-linejoin="round"/>
<path d="M251.808 267.535H312.448C313.917 267.535 315.327 268.119 316.366 269.157C317.405 270.195 317.99 271.603 317.99 273.069C317.99 274.536 317.405 275.944 316.366 276.982C315.327 278.02 313.919 278.604 312.448 278.604H251.808V267.537V267.535Z" fill="#2962F5" stroke="black" stroke-width="0.432658"/>
<path d="M251.808 268.604H280.428C281.614 268.604 282.751 269.074 283.588 269.912C284.428 270.75 284.898 271.886 284.898 273.068C284.898 274.251 284.428 275.389 283.588 276.225C282.749 277.063 281.612 277.533 280.428 277.533H251.808V268.604Z" fill="white" stroke="black" stroke-width="0.432658"/>
<path d="M198.889 298.648H153.69V301.273H201.516C201.516 300.577 201.24 299.91 200.746 299.418C200.254 298.927 199.585 298.648 198.889 298.648Z" fill="black"/>
<path d="M69.7353 251.32H134.693C135.619 251.32 136.527 251.579 137.313 252.068C138.099 252.556 138.733 253.255 139.142 254.085L162.431 301.273H89.7533L67.149 255.476C66.9313 255.037 66.8313 254.55 66.8549 254.06C66.8784 253.57 67.0274 253.097 67.2862 252.679C67.5451 252.264 67.9059 251.922 68.3353 251.683C68.7627 251.446 69.2451 251.32 69.7353 251.32Z" fill="black"/>
<path d="M344.875 257.424L346.555 258.299L332.351 285.532L330.671 284.656L344.875 257.424Z" fill="#D1BEA3"/>
<path d="M344.97 257.344L346.651 258.219L332.447 285.452L330.766 284.578L344.97 257.346V257.344Z" stroke="black" stroke-width="0.432658" stroke-miterlimit="10"/>
<path d="M325.787 273.048H344.846L343.965 269.746H326.667L325.787 273.048Z" fill="#87B8C4" stroke="black" stroke-width="0.432658"/>
<path d="M325.691 272.578L326.165 279.81L327.049 293.299L327.524 300.541H342.918L343.393 293.299L344.277 279.81L344.752 272.578H325.691Z" fill="white" stroke="black" stroke-width="0.432658"/>
<path d="M324.035 274.724H346.712L345.665 271.893H325.084L324.037 274.724H324.035Z" fill="#A1D4E0"/>
<path d="M323.936 274.802H346.613L345.566 271.971H324.985L323.938 274.802H323.936Z" stroke="black" stroke-width="0.432658" stroke-miterlimit="10"/>
<path d="M326.269 279.953L327.153 293.442H343.494L344.379 279.953H326.267H326.269Z" fill="#2962F5"/>
<path d="M326.26 279.729L327.144 293.217H343.332L344.217 279.729H326.26Z" stroke="black" stroke-width="0.432658" stroke-miterlimit="10"/>
<path d="M205.157 143.32C200.527 133.466 228.818 134.48 228.818 134.48C228.818 134.48 259.993 128.464 256.168 158.012C256.168 158.012 255.181 173.226 242.754 178.494C242.587 184.024 232.267 189.625 229.479 185.686C226.691 181.748 236.138 170.323 231.904 161.995C229.363 162.287 228.026 161.356 227.4 159.907C225.926 156.494 225.847 150.2 225.847 150.2C225.847 150.2 209.765 147.48 205.167 143.32H205.159H205.157Z" fill="black"/>
<path d="M229.853 175.716L224.983 163.092L234.126 159.577C235.802 158.933 237.665 158.978 239.308 159.706C240.95 160.435 242.236 161.782 242.881 163.457C243.526 165.131 243.481 166.991 242.752 168.633C242.022 170.272 240.673 171.556 238.997 172.201L229.853 175.718V175.716Z" fill="#F2CAA0"/>
<path d="M224.028 177.53C221.858 177.53 219.773 176.668 218.24 175.135C216.705 173.601 215.842 171.522 215.842 169.352C215.842 167.182 216.705 165.104 218.24 163.571C219.775 162.037 221.858 161.176 224.03 161.176C226.203 161.176 228.285 162.037 229.821 163.571C231.356 165.104 232.219 167.184 232.219 169.352C232.219 171.52 231.356 173.601 229.821 175.135C228.285 176.668 226.203 177.53 224.032 177.53" fill="#EDA094"/>
<path d="M112.988 265.777H70.0103V274.758H112.988V265.777Z" fill="#FCF4A6" stroke="black" stroke-width="0.3"/>
<path d="M77.3146 265.777H74.8083V274.758H77.3146V265.777Z" fill="#FFD861" stroke="black" stroke-width="0.3"/>
<path d="M85.3423 265.777H82.836V274.758H85.3423V265.777Z" fill="#FFD861" stroke="black" stroke-width="0.3"/>
<path d="M93.3763 265.777H90.87V274.758H93.3763V265.777Z" fill="#FFD861" stroke="black" stroke-width="0.3"/>
<path d="M101.404 265.777H98.8978V274.758H101.404V265.777Z" fill="#FFD861" stroke="black" stroke-width="0.3"/>
<path d="M109.432 265.777H106.926V274.758H109.432V265.777Z" fill="#FFD861" stroke="black" stroke-width="0.3"/>
<path d="M115.748 274.758H72.7699V283.739H115.748V274.758Z" fill="#FCF4A6" stroke="black" stroke-width="0.3"/>
<path d="M80.08 274.758H77.5737V283.739H80.08V274.758Z" fill="#FFD861" stroke="black" stroke-width="0.3"/>
<path d="M88.108 274.758H85.6017V283.739H88.108V274.758Z" fill="#FFD861" stroke="black" stroke-width="0.3"/>
<path d="M96.1359 274.758H93.6296V283.739H96.1359V274.758Z" fill="#FFD861" stroke="black" stroke-width="0.3"/>
<path d="M104.164 274.758H101.657V283.739H104.164V274.758Z" fill="#FFD861" stroke="black" stroke-width="0.3"/>
<path d="M112.191 274.758H109.685V283.739H112.191V274.758Z" fill="#FFD861" stroke="black" stroke-width="0.3"/>
<path d="M113.61 283.734H70.6322V292.715H113.61V283.734Z" fill="#FCF4A6" stroke="black" stroke-width="0.3"/>
<path d="M77.9378 283.734H75.4315V292.715H77.9378V283.734Z" fill="#FFD861" stroke="black" stroke-width="0.3"/>
<path d="M85.9656 283.734H83.4593V292.715H85.9656V283.734Z" fill="#FFD861" stroke="black" stroke-width="0.3"/>
<path d="M93.9996 283.734H91.4933V292.715H93.9996V283.734Z" fill="#FFD861" stroke="black" stroke-width="0.3"/>
<path d="M102.027 283.734H99.5211V292.715H102.027V283.734Z" fill="#FFD861" stroke="black" stroke-width="0.3"/>
<path d="M110.055 283.734H107.549V292.715H110.055V283.734Z" fill="#FFD861" stroke="black" stroke-width="0.3"/>
<path d="M116.876 292.715H73.8984V301.696H116.876V292.715Z" fill="#FCF4A6" stroke="black" stroke-width="0.3"/>
<path d="M81.2045 292.715H78.6982V301.696H81.2045V292.715Z" fill="#FFD861" stroke="black" stroke-width="0.3"/>
<path d="M89.2324 292.715H86.7261V301.696H89.2324V292.715Z" fill="#FFD861" stroke="black" stroke-width="0.3"/>
<path d="M97.2602 292.715H94.7539V301.696H97.2602V292.715Z" fill="#FFD861" stroke="black" stroke-width="0.3"/>
<path d="M105.288 292.715H102.782V301.696H105.288V292.715Z" fill="#FFD861" stroke="black" stroke-width="0.3"/>
<path d="M113.319 292.715H110.813V301.696H113.319V292.715Z" fill="#FFD861" stroke="black" stroke-width="0.3"/>
<path d="M111.578 301.605H68.6001V310.586H111.578V301.605Z" fill="#FCF4A6" stroke="black" stroke-width="0.3"/>
<path d="M75.907 301.605H73.4007V310.586H75.907V301.605Z" fill="#FFD861" stroke="black" stroke-width="0.3"/>
<path d="M83.9412 301.605H81.4349V310.586H83.9412V301.605Z" fill="#FFD861" stroke="black" stroke-width="0.3"/>
<path d="M91.9659 301.605H89.4597V310.586H91.9659V301.605Z" fill="#FFD861" stroke="black" stroke-width="0.3"/>
<path d="M99.9937 301.605H97.4874V310.586H99.9937V301.605Z" fill="#FFD861" stroke="black" stroke-width="0.3"/>
<path d="M108.022 301.605H105.515V310.586H108.022V301.605Z" fill="#FFD861" stroke="black" stroke-width="0.3"/>
<path d="M109.477 256.795H66.4994V265.776H109.477V256.795Z" fill="#FCF4A6" stroke="black" stroke-width="0.3"/>
<path d="M73.8042 256.795H71.2979V265.776H73.8042V256.795Z" fill="#FFD861" stroke="black" stroke-width="0.3"/>
<path d="M81.8381 256.795H79.3318V265.776H81.8381V256.795Z" fill="#FFD861" stroke="black" stroke-width="0.3"/>
<path d="M89.866 256.795H87.3597V265.776H89.866V256.795Z" fill="#FFD861" stroke="black" stroke-width="0.3"/>
<path d="M97.8907 256.795H95.3844V265.776H97.8907V256.795Z" fill="#FFD861" stroke="black" stroke-width="0.3"/>
<path d="M105.919 256.795H103.412V265.776H105.919V256.795Z" fill="#FFD861" stroke="black" stroke-width="0.3"/>
<path d="M70.0116 265.777H109.478" stroke="black" stroke-width="0.3" stroke-miterlimit="10"/>
<path d="M74.0938 256.92H97.23" stroke="black" stroke-width="0.3" stroke-miterlimit="10"/>
<path d="M72.7714 274.758H112.989" stroke="black" stroke-width="0.3" stroke-miterlimit="10"/>
<path d="M113.61 283.734H72.7714" stroke="black" stroke-width="0.3" stroke-miterlimit="10"/>
<path d="M113.611 292.715H73.8983" stroke="black" stroke-width="0.3" stroke-miterlimit="10"/>
<path d="M73.8983 301.691H111.576" stroke="black" stroke-width="0.3" stroke-miterlimit="10"/>
<path d="M45.8584 232.857L13.9858 256.89C25.6206 277.103 41.2045 295.098 59.6325 309.6L91.5052 285.567C73.0772 271.066 57.4891 253.071 45.8584 232.857Z" fill="#C2FCA5" stroke="black" stroke-width="0.3"/>
<path d="M82.1885 277.599C77.9475 273.647 73.8107 269.594 69.7864 265.445" stroke="black" stroke-width="0.3"/>
<path d="M57.9728 304.734C42.7016 292.097 29.1777 276.524 18.8649 259.696L18.1977 258.608C17.8474 258.037 17.9892 257.299 18.5271 256.894L43.8568 237.794C44.4823 237.323 45.3831 237.49 45.7917 238.149L46.6258 239.491C56.7218 255.723 69.7994 270.879 84.4451 283.324L85.7879 284.463C86.4259 285.005 86.3968 285.984 85.7295 286.489L60.5208 305.497C60.0287 305.868 59.3365 305.856 58.8611 305.46L57.977 304.73L57.9728 304.734Z" stroke="black" stroke-width="0.3"/>
<path d="M59.7514 302.648C44.6345 290.14 31.4359 274.942 21.2315 258.29L44.2675 240.92C54.5804 257.498 67.6873 272.687 82.6373 285.391L59.7514 302.648Z" fill="#2E7C7E" stroke="black" stroke-width="0.3"/>
<path d="M55.621 279.853C60.9036 276.41 62.69 269.79 59.6111 265.068C56.5321 260.346 49.7537 259.309 44.4711 262.752C39.1885 266.195 37.4021 272.814 40.481 277.537C43.56 282.259 50.3384 283.296 55.621 279.853Z" fill="#C2FCA5" stroke="black" stroke-width="0.3"/>
<path d="M54.6098 278.307C58.9335 275.489 60.3953 270.07 57.8748 266.205C55.3543 262.339 49.806 261.489 45.4822 264.308C41.1585 267.126 39.6967 272.544 42.2172 276.41C44.7378 280.275 50.2861 281.125 54.6098 278.307Z" stroke="black" stroke-width="0.3"/>
<path d="M40.8442 260.184C38.3713 262.002 35.0226 261.701 33.3629 259.512C31.7032 257.323 32.362 254.071 34.8391 252.253C37.312 250.436 40.6607 250.736 42.3204 252.925C43.9802 255.114 43.3213 258.366 40.8442 260.184Z" fill="#C2FCA5" stroke="black" stroke-width="0.3"/>
<path d="M39.9794 259.037C38.2196 260.33 35.8426 260.117 34.6624 258.558C33.4823 257.002 33.9535 254.693 35.7091 253.4C37.469 252.108 39.8501 252.32 41.0261 253.88C42.2063 255.435 41.735 257.745 39.9794 259.037Z" fill="#3C7878" stroke="black" stroke-width="0.3"/>
<path d="M66.6754 291.15C64.2025 292.968 60.8538 292.668 59.1941 290.479C57.5344 288.29 58.1933 285.038 60.6703 283.22C63.1433 281.402 66.4919 281.703 68.1516 283.891C69.8114 286.08 69.1525 289.333 66.6754 291.15Z" fill="#C2FCA5" stroke="black" stroke-width="0.3"/>
<path d="M65.8087 290C64.0489 291.293 61.6678 291.08 60.4918 289.521C59.3158 287.961 59.7828 285.656 61.5385 284.363C63.2941 283.07 65.6753 283.283 66.8555 284.842C68.0356 286.398 67.5644 288.708 65.8087 290Z" fill="#3C7878" stroke="black" stroke-width="0.3"/>
<path d="M45.2819 274.418C44.7273 273.684 44.2852 272.908 43.9641 272.091C43.6388 271.274 43.4762 270.548 43.4679 269.915L45.5613 269.502C45.5822 270.086 45.7114 270.711 45.9491 271.382C46.1868 272.054 46.5163 272.662 46.9333 273.213C47.2502 273.634 47.5505 273.942 47.8299 274.138C48.1093 274.334 48.3637 274.443 48.5972 274.464C48.8307 274.484 49.0392 274.426 49.2227 274.288C49.4604 274.113 49.573 273.88 49.5688 273.584C49.5605 273.288 49.4813 272.95 49.3311 272.567C49.181 272.183 48.9975 271.77 48.7932 271.337C48.5889 270.903 48.4012 270.453 48.226 269.986C48.0509 269.523 47.9383 269.06 47.8883 268.601C47.834 268.143 47.8924 267.705 48.0592 267.292C48.226 266.875 48.5388 266.5 49.0059 266.158C49.5105 265.787 50.0818 265.587 50.7115 265.558C51.3412 265.529 51.9959 265.712 52.6798 266.1C53.3637 266.487 54.0309 267.117 54.6898 267.984C55.1277 268.564 55.4905 269.181 55.7824 269.844C56.0743 270.507 56.2536 271.141 56.3162 271.749L54.2645 272.216C54.1811 271.637 54.0309 271.086 53.8141 270.565C53.5972 270.044 53.3345 269.581 53.0301 269.181C52.7131 268.76 52.4129 268.455 52.1335 268.268C51.8541 268.08 51.5914 267.98 51.3495 267.976C51.1076 267.972 50.895 268.034 50.7073 268.172C50.4696 268.347 50.3528 268.585 50.357 268.881C50.357 269.177 50.4404 269.514 50.5989 269.89C50.7573 270.261 50.9408 270.674 51.1535 271.116C51.3662 271.557 51.5538 272.012 51.7206 272.475C51.8875 272.938 52 273.392 52.0543 273.842C52.1126 274.293 52.0584 274.726 51.9 275.152C51.7415 275.577 51.4329 275.956 50.9784 276.29C50.4779 276.657 49.915 276.848 49.2853 276.869C48.6556 276.89 47.9967 276.707 47.3044 276.315C46.6122 275.923 45.9408 275.293 45.2861 274.43L45.2819 274.418ZM43.5471 274.939L55.453 266.183L56.458 267.509L44.5521 276.265L43.5471 274.939Z" fill="#3C7878"/>
<path d="M72.2918 302.758H31.1477V311.735H72.2918V302.758Z" fill="#FFD861" stroke="black" stroke-width="0.3"/>
<path d="M38.1463 302.758H35.747V311.735H38.1463V302.758Z" fill="#FCF4A6" stroke="black" stroke-width="0.3"/>
<path d="M45.8298 302.758H43.4305V311.735H45.8298V302.758Z" fill="#FCF4A6" stroke="black" stroke-width="0.3"/>
<path d="M53.5161 302.758H51.1168V311.735H53.5161V302.758Z" fill="#FCF4A6" stroke="black" stroke-width="0.3"/>
<path d="M61.2056 302.758H58.8062V311.735H61.2056V302.758Z" fill="#FCF4A6" stroke="black" stroke-width="0.3"/>
<path d="M68.8888 302.758H66.4895V311.735H68.8888V302.758Z" fill="#FCF4A6" stroke="black" stroke-width="0.3"/>
<path d="M77.4982 275.906H36.3542V284.883H77.4982V275.906Z" fill="#FFD861" stroke="black" stroke-width="0.3"/>
<path d="M43.3478 275.906H40.9485V284.883H43.3478V275.906Z" fill="#FCF4A6" stroke="black" stroke-width="0.3"/>
<path d="M51.0342 275.906H48.6348V284.883H51.0342V275.906Z" fill="#FCF4A6" stroke="black" stroke-width="0.3"/>
<path d="M58.7174 275.906H56.3181V284.883H58.7174V275.906Z" fill="#FCF4A6" stroke="black" stroke-width="0.3"/>
<path d="M66.4099 275.906H64.0106V284.883H66.4099V275.906Z" fill="#FCF4A6" stroke="black" stroke-width="0.3"/>
<path d="M74.0932 275.906H71.6938V284.883H74.0932V275.906Z" fill="#FCF4A6" stroke="black" stroke-width="0.3"/>
<path d="M71.351 284.879H30.207V293.856H71.351V284.879Z" fill="#F7D151" stroke="black" stroke-width="0.3"/>
<path d="M37.2054 284.879H34.8061V293.856H37.2054V284.879Z" fill="#FCF4A6" stroke="black" stroke-width="0.3"/>
<path d="M44.892 284.879H42.4926V293.856H44.892V284.879Z" fill="#FCF4A6" stroke="black" stroke-width="0.3"/>
<path d="M52.5752 284.879H50.1759V293.856H52.5752V284.879Z" fill="#FCF4A6" stroke="black" stroke-width="0.3"/>
<path d="M60.2647 284.879H57.8653V293.856H60.2647V284.879Z" fill="#FCF4A6" stroke="black" stroke-width="0.3"/>
<path d="M67.951 284.879H65.5517V293.856H67.951V284.879Z" fill="#FCF4A6" stroke="black" stroke-width="0.3"/>
<path d="M68.9297 293.781H27.7857V302.758H68.9297V293.781Z" fill="#FFD861" stroke="black" stroke-width="0.3"/>
<path d="M34.7784 293.781H32.379V302.758H34.7784V293.781Z" fill="#FCF4A6" stroke="black" stroke-width="0.3"/>
<path d="M42.4646 293.781H40.0652V302.758H42.4646V293.781Z" fill="#FCF4A6" stroke="black" stroke-width="0.3"/>
<path d="M50.154 293.781H47.7547V302.758H50.154V293.781Z" fill="#FCF4A6" stroke="black" stroke-width="0.3"/>
<path d="M57.8403 293.781H55.441V302.758H57.8403V293.781Z" fill="#FCF4A6" stroke="black" stroke-width="0.3"/>
<path d="M65.5236 293.781H63.1242V302.758H65.5236V293.781Z" fill="#FCF4A6" stroke="black" stroke-width="0.3"/>
<path d="M31.1467 302.758H68.9293" stroke="black" stroke-width="0.3" stroke-miterlimit="10"/>
<path d="M36.005 284.879H71.3523" stroke="black" stroke-width="0.3" stroke-miterlimit="10"/>
<path d="M355.284 260.994H324.418V298.87H355.284V260.994Z" fill="#FFD861" stroke="black" stroke-width="0.3"/>
<path d="M352.741 255.195H321.875V260.995H352.741V255.195Z" fill="#F7D151" stroke="black" stroke-width="0.3"/>
<path d="M355.999 249.51H325.133V255.31H355.999V249.51Z" fill="#FFD861" stroke="black" stroke-width="0.3"/>
<path d="M352.736 255.195H325.133" stroke="black" stroke-width="0.3" stroke-miterlimit="10"/>
<path d="M324.418 260.994H352.739" stroke="black" stroke-width="0.3" stroke-miterlimit="10"/>
<path d="M324.418 272.547H355.19" stroke="black" stroke-width="0.3" stroke-miterlimit="10"/>
<path d="M355.281 266.521H350.551" stroke="black" stroke-width="0.3" stroke-miterlimit="10"/>
<path d="M347.496 266.521H327.348" stroke="black" stroke-width="0.3" stroke-miterlimit="10"/>
<path d="M364.794 256.656L384.377 274.264C374.791 286.147 362.709 296.33 348.993 304.085L329.41 286.477C343.126 278.72 355.205 268.54 364.794 256.656Z" fill="#C2FCA5" stroke="black" stroke-width="0.3"/>
<path d="M341.035 279.039C349.995 272.598 358.012 265.052 364.786 256.656" stroke="black" stroke-width="0.3"/>
<path d="M373.677 285.85C366.317 292.839 358.009 298.985 348.993 304.085L329.41 286.477" stroke="black" stroke-width="0.3"/>
<path d="M376.77 282.806C379.45 280.073 381.988 277.22 384.374 274.265L378.628 269.098" stroke="black" stroke-width="0.3"/>
<path d="M350.529 301.141C361.945 294.322 372.424 285.513 380.835 275.671L381.38 275.035C381.666 274.703 381.631 274.224 381.301 273.929L365.738 259.937C365.355 259.591 364.731 259.629 364.395 260.012L363.715 260.797C355.503 270.282 345.36 278.861 334.386 285.607L333.382 286.227C332.904 286.521 332.843 287.143 333.252 287.511L348.741 301.439C349.044 301.712 349.513 301.755 349.869 301.541L350.529 301.147V301.141Z" stroke="black" stroke-width="0.3"/>
<path d="M349.498 299.685C360.799 292.936 371.025 284.338 379.348 274.598L365.193 261.871C356.805 271.556 346.641 280.155 335.438 287.041L349.498 299.685Z" fill="#2E7C7E" stroke="black" stroke-width="0.3"/>
<path d="M364.376 285.573C367.064 282.992 366.706 278.674 363.577 275.928C360.448 273.182 355.733 273.049 353.046 275.63C350.358 278.21 350.716 282.529 353.845 285.275C356.974 288.02 361.689 288.154 364.376 285.573Z" fill="#C2FCA5" stroke="black" stroke-width="0.3"/>
<path d="M363.346 284.673C365.546 282.561 365.253 279.026 362.692 276.779C360.132 274.531 356.272 274.422 354.073 276.534C351.873 278.647 352.166 282.181 354.727 284.429C357.288 286.676 361.147 286.786 363.346 284.673Z" stroke="black" stroke-width="0.3"/>
<path d="M371.014 274.447C372.323 273.189 372.149 271.086 370.625 269.749C369.102 268.411 366.805 268.347 365.496 269.604C364.186 270.862 364.36 272.965 365.884 274.302C367.408 275.639 369.704 275.704 371.014 274.447Z" fill="#C2FCA5" stroke="black" stroke-width="0.3"/>
<path d="M366.573 273.643C367.657 274.594 369.289 274.64 370.219 273.746C371.15 272.854 371.026 271.359 369.943 270.407C368.859 269.455 367.227 269.409 366.296 270.304C365.366 271.196 365.489 272.691 366.573 273.643Z" fill="#3C7878" stroke="black" stroke-width="0.3"/>
<path d="M345.774 291.893C347.297 293.231 349.594 293.296 350.902 292.039C352.209 290.781 352.036 288.678 350.513 287.342C348.99 286.006 346.693 285.939 345.385 287.196C344.078 288.453 344.251 290.557 345.774 291.893Z" fill="#C2FCA5" stroke="black" stroke-width="0.3"/>
<path d="M346.456 291.237C347.54 292.188 349.172 292.234 350.102 291.339C351.033 290.445 350.909 288.952 349.825 288.001C348.742 287.049 347.11 287.003 346.179 287.898C345.248 288.79 345.372 290.285 346.456 291.237Z" fill="#3C7878" stroke="black" stroke-width="0.3"/>
<path d="M360.153 283.99C359.653 284.185 359.19 284.253 358.763 284.191C358.339 284.131 357.971 283.966 357.665 283.696C357.385 283.45 357.208 283.187 357.134 282.906C357.061 282.628 357.064 282.347 357.14 282.068C357.217 281.79 357.332 281.511 357.482 281.23C357.635 280.949 357.8 280.678 357.98 280.413C358.162 280.148 358.321 279.905 358.46 279.681C358.598 279.456 358.681 279.251 358.707 279.061C358.734 278.875 358.675 278.715 358.528 278.588C358.413 278.488 358.274 278.431 358.109 278.415C357.944 278.402 357.759 278.442 357.553 278.539C357.347 278.637 357.117 278.807 356.866 279.048C356.628 279.278 356.41 279.551 356.218 279.862C356.027 280.175 355.88 280.511 355.774 280.87L354.422 280.419C354.516 280.04 354.69 279.653 354.943 279.256C355.196 278.859 355.497 278.496 355.841 278.164C356.36 277.666 356.866 277.32 357.361 277.128C357.856 276.933 358.318 276.868 358.743 276.936C359.167 277.001 359.538 277.171 359.847 277.444C360.133 277.696 360.315 277.958 360.392 278.234C360.468 278.51 360.471 278.788 360.398 279.075C360.324 279.361 360.209 279.645 360.05 279.924C359.891 280.205 359.726 280.473 359.552 280.732C359.379 280.992 359.223 281.238 359.084 281.468C358.949 281.698 358.866 281.909 358.837 282.092C358.807 282.279 358.866 282.436 359.011 282.563C359.125 282.663 359.261 282.717 359.42 282.722C359.579 282.728 359.762 282.679 359.968 282.576C360.174 282.474 360.404 282.303 360.654 282.06C360.984 281.744 361.258 281.384 361.473 280.978C361.691 280.573 361.832 280.189 361.894 279.821L363.278 280.243C363.219 280.643 363.046 281.089 362.76 281.581C362.474 282.073 362.109 282.53 361.67 282.952C361.152 283.45 360.642 283.796 360.142 283.99H360.153ZM362.024 284.177L354.687 277.739L355.479 276.979L362.816 283.417L362.024 284.177Z" fill="#3C7878" stroke="black" stroke-width="0.3"/>
<path d="M327.749 254.895L305.238 270.48C313.456 283.588 324.462 295.258 337.477 304.662L359.988 289.077C346.972 279.673 335.963 268.003 327.749 254.895Z" fill="#C2FCA5" stroke="black" stroke-width="0.3"/>
<path d="M336.297 301.507C325.512 293.312 315.96 283.213 308.677 272.3L308.206 271.594C307.958 271.224 308.058 270.745 308.438 270.483L326.328 258.096C326.77 257.791 327.406 257.899 327.694 258.326L328.283 259.197C335.414 269.723 344.65 279.552 354.994 287.623L355.942 288.361C356.393 288.712 356.372 289.348 355.901 289.675L338.097 302.002C337.749 302.242 337.261 302.234 336.925 301.977L336.3 301.504L336.297 301.507Z" stroke="black" stroke-width="0.3"/>
<path d="M337.557 300.154C326.88 292.042 317.559 282.187 310.352 271.387L326.621 260.123C333.905 270.874 343.162 280.724 353.72 288.963L337.557 300.154Z" fill="#2E7C7E" stroke="black" stroke-width="0.3"/>
<path d="M334.646 285.379C338.377 283.146 339.638 278.854 337.464 275.791C335.289 272.729 330.502 272.056 326.771 274.289C323.04 276.522 321.778 280.815 323.953 283.877C326.128 286.939 330.915 287.612 334.646 285.379Z" fill="#C2FCA5" stroke="black" stroke-width="0.3"/>
<path d="M333.933 284.375C336.986 282.547 338.019 279.034 336.239 276.527C334.459 274.02 330.54 273.469 327.486 275.296C324.433 277.124 323.4 280.638 325.18 283.145C326.96 285.652 330.879 286.202 333.933 284.375Z" stroke="black" stroke-width="0.3"/>
<path d="M324.208 272.615C322.461 273.794 320.096 273.599 318.924 272.18C317.752 270.76 318.217 268.651 319.967 267.472C321.713 266.293 324.078 266.488 325.25 267.908C326.422 269.327 325.957 271.436 324.208 272.615Z" fill="#C2FCA5" stroke="black" stroke-width="0.3"/>
<path d="M323.597 271.869C322.354 272.707 320.676 272.569 319.842 271.558C319.009 270.55 319.341 269.052 320.581 268.214C321.824 267.376 323.506 267.514 324.337 268.525C325.17 269.533 324.837 271.031 323.597 271.869Z" fill="#3C7878" stroke="black" stroke-width="0.3"/>
<path d="M342.454 292.699C340.707 293.878 338.342 293.683 337.17 292.264C335.998 290.844 336.463 288.735 338.213 287.556C339.959 286.377 342.324 286.572 343.496 287.992C344.669 289.411 344.203 291.52 342.454 292.699Z" fill="#C2FCA5" stroke="black" stroke-width="0.3"/>
<path d="M341.834 291.953C340.591 292.791 338.91 292.653 338.079 291.642C337.249 290.631 337.578 289.136 338.818 288.298C340.058 287.46 341.74 287.598 342.574 288.609C343.407 289.617 343.074 291.115 341.834 291.953Z" fill="#3C7878" stroke="black" stroke-width="0.3"/>
<path d="M327.34 281.847C326.948 281.371 326.636 280.868 326.409 280.339C326.179 279.809 326.064 279.338 326.059 278.927L327.537 278.659C327.552 279.038 327.643 279.444 327.811 279.879C327.979 280.314 328.212 280.709 328.506 281.066C328.73 281.339 328.942 281.539 329.139 281.666C329.337 281.793 329.516 281.864 329.681 281.877C329.846 281.891 329.993 281.853 330.123 281.763C330.291 281.65 330.37 281.499 330.367 281.307C330.362 281.115 330.306 280.896 330.2 280.647C330.094 280.398 329.964 280.13 329.82 279.849C329.675 279.568 329.543 279.276 329.419 278.973C329.295 278.673 329.216 278.373 329.181 278.075C329.142 277.778 329.184 277.494 329.301 277.226C329.419 276.956 329.64 276.713 329.97 276.491C330.326 276.25 330.73 276.12 331.174 276.102C331.619 276.083 332.082 276.202 332.565 276.453C333.048 276.705 333.519 277.113 333.984 277.675C334.294 278.051 334.55 278.451 334.756 278.881C334.962 279.311 335.089 279.722 335.133 280.117L333.684 280.42C333.625 280.044 333.519 279.687 333.366 279.349C333.213 279.011 333.027 278.711 332.812 278.451C332.588 278.178 332.376 277.981 332.179 277.859C331.981 277.737 331.796 277.673 331.625 277.67C331.454 277.667 331.304 277.708 331.172 277.797C331.004 277.91 330.921 278.065 330.924 278.257C330.924 278.449 330.983 278.668 331.095 278.911C331.207 279.152 331.336 279.419 331.487 279.706C331.637 279.992 331.769 280.287 331.887 280.587C332.005 280.887 332.085 281.182 332.123 281.474C332.164 281.766 332.126 282.047 332.014 282.323C331.902 282.599 331.684 282.845 331.363 283.061C331.01 283.299 330.612 283.424 330.167 283.437C329.722 283.451 329.257 283.332 328.768 283.078C328.279 282.823 327.805 282.415 327.343 281.855L327.34 281.847ZM326.115 282.185L334.523 276.507L335.233 277.367L326.824 283.045L326.115 282.185Z" fill="#3C7878"/>
<path d="M379.78 283.088H349.426V288.912H379.78V283.088Z" fill="#FCF4A6" stroke="black" stroke-width="0.3"/>
<path d="M354.587 283.088H352.816V288.912H354.587V283.088Z" fill="#FFD861" stroke="black" stroke-width="0.3"/>
<path d="M360.258 283.088H358.488V288.912H360.258V283.088Z" fill="#FFD861" stroke="black" stroke-width="0.3"/>
<path d="M365.926 283.088H364.156V288.912H365.926V283.088Z" fill="#FFD861" stroke="black" stroke-width="0.3"/>
<path d="M371.594 283.088H369.824V288.912H371.594V283.088Z" fill="#FFD861" stroke="black" stroke-width="0.3"/>
<path d="M377.266 283.088H375.496V288.912H377.266V283.088Z" fill="#FFD861" stroke="black" stroke-width="0.3"/>
<path d="M381.733 288.912H351.379V294.736H381.733V288.912Z" fill="#FCF4A6" stroke="black" stroke-width="0.3"/>
<path d="M356.54 288.912H354.77V294.736H356.54V288.912Z" fill="#FFD861" stroke="black" stroke-width="0.3"/>
<path d="M362.212 288.912H360.441V294.736H362.212V288.912Z" fill="#FFD861" stroke="black" stroke-width="0.3"/>
<path d="M367.879 288.912H366.109V294.736H367.879V288.912Z" fill="#FFD861" stroke="black" stroke-width="0.3"/>
<path d="M373.547 288.912H371.777V294.736H373.547V288.912Z" fill="#FFD861" stroke="black" stroke-width="0.3"/>
<path d="M379.219 288.912H377.449V294.736H379.219V288.912Z" fill="#FFD861" stroke="black" stroke-width="0.3"/>
<path d="M380.221 294.734H349.867V300.559H380.221V294.734Z" fill="#FCF4A6" stroke="black" stroke-width="0.3"/>
<path d="M355.028 294.734H353.258V300.559H355.028V294.734Z" fill="#FFD861" stroke="black" stroke-width="0.3"/>
<path d="M360.696 294.734H358.926V300.559H360.696V294.734Z" fill="#FFD861" stroke="black" stroke-width="0.3"/>
<path d="M366.368 294.734H364.598V300.559H366.368V294.734Z" fill="#FFD861" stroke="black" stroke-width="0.3"/>
<path d="M372.036 294.734H370.266V300.559H372.036V294.734Z" fill="#FFD861" stroke="black" stroke-width="0.3"/>
<path d="M377.704 294.734H375.934V300.559H377.704V294.734Z" fill="#FFD861" stroke="black" stroke-width="0.3"/>
<path d="M382.526 300.559H352.172V306.383H382.526V300.559Z" fill="#FCF4A6" stroke="black" stroke-width="0.3"/>
<path d="M357.333 300.559H355.562V306.383H357.333V300.559Z" fill="#FFD861" stroke="black" stroke-width="0.3"/>
<path d="M363.001 300.559H361.23V306.383H363.001V300.559Z" fill="#FFD861" stroke="black" stroke-width="0.3"/>
<path d="M368.672 300.559H366.902V306.383H368.672V300.559Z" fill="#FFD861" stroke="black" stroke-width="0.3"/>
<path d="M374.34 300.559H372.57V306.383H374.34V300.559Z" fill="#FFD861" stroke="black" stroke-width="0.3"/>
<path d="M380.008 300.559H378.238V306.383H380.008V300.559Z" fill="#FFD861" stroke="black" stroke-width="0.3"/>
<path d="M378.787 306.324H348.434V312.148H378.787V306.324Z" fill="#FCF4A6" stroke="black" stroke-width="0.3"/>
<path d="M353.594 306.324H351.824V312.148H353.594V306.324Z" fill="#FFD861" stroke="black" stroke-width="0.3"/>
<path d="M359.262 306.324H357.492V312.148H359.262V306.324Z" fill="#FFD861" stroke="black" stroke-width="0.3"/>
<path d="M364.934 306.324H363.164V312.148H364.934V306.324Z" fill="#FFD861" stroke="black" stroke-width="0.3"/>
<path d="M370.602 306.324H368.832V312.148H370.602V306.324Z" fill="#FFD861" stroke="black" stroke-width="0.3"/>
<path d="M376.274 306.324H374.504V312.148H376.274V306.324Z" fill="#FFD861" stroke="black" stroke-width="0.3"/>
<path d="M377.299 277.266H346.945V283.09H377.299V277.266Z" fill="#FCF4A6" stroke="black" stroke-width="0.3"/>
<path d="M352.106 277.266H350.336V283.09H352.106V277.266Z" fill="#FFD861" stroke="black" stroke-width="0.3"/>
<path d="M357.778 277.266H356.008V283.09H357.778V277.266Z" fill="#FFD861" stroke="black" stroke-width="0.3"/>
<path d="M363.446 277.266H361.676V283.09H363.446V277.266Z" fill="#FFD861" stroke="black" stroke-width="0.3"/>
<path d="M369.114 277.266H367.344V283.09H369.114V277.266Z" fill="#FFD861" stroke="black" stroke-width="0.3"/>
<path d="M374.786 277.266H373.016V283.09H374.786V277.266Z" fill="#FFD861" stroke="black" stroke-width="0.3"/>
<path d="M349.426 283.09H377.303" stroke="black" stroke-width="0.3" stroke-miterlimit="10"/>
<path d="M352.312 277.348H368.653" stroke="black" stroke-width="0.3" stroke-miterlimit="10"/>
<path d="M351.379 288.912H379.783" stroke="black" stroke-width="0.3" stroke-miterlimit="10"/>
<path d="M380.222 294.734H351.379" stroke="black" stroke-width="0.3" stroke-miterlimit="10"/>
<path d="M380.222 300.559H352.172" stroke="black" stroke-width="0.3" stroke-miterlimit="10"/>
<path d="M352.172 306.381H378.785" stroke="black" stroke-width="0.3" stroke-miterlimit="10"/>
<path d="M336.505 212.876L340.588 209.729L363.29 231.979L359.207 235.126C352.937 239.961 342.773 238.901 336.503 232.755C330.232 226.612 330.235 217.71 336.503 212.876H336.505Z" fill="#FCF4A6" stroke="black" stroke-width="0.3"/>
<mask id="mask0_579_16723" style="mask-type:luminance" maskUnits="userSpaceOnUse" x="331" y="209" width="33" height="30">
<path d="M336.638 212.863L340.7 209.729L363.29 231.889L359.228 235.024C352.989 239.839 342.875 238.784 336.636 232.662C330.396 226.544 330.399 217.678 336.636 212.863H336.638Z" fill="white" stroke="white" stroke-width="0.3"/>
</mask>
<g mask="url(#mask0_579_16723)">
<path d="M327.066 222.204L340.223 212.059L341.369 213.181L328.212 223.326L327.066 222.204ZM328.654 229.196L341.81 219.051L340.665 217.929L327.508 228.074L328.654 229.196ZM329.096 235.06L342.252 224.916L341.106 223.793L327.95 233.938L329.096 235.06ZM346.62 241.369L359.776 231.224L358.631 230.102L345.474 240.247L346.62 241.369ZM339.972 240.29L353.129 230.145L351.983 229.023L338.827 239.168L339.972 240.29ZM333.325 239.208L346.481 229.063L345.336 227.941L332.179 238.086L333.325 239.208Z" fill="#F7D151" stroke="black" stroke-width="0.3"/>
</g>
<path d="M339.441 230.496C345.712 236.639 355.876 237.702 362.146 232.867C368.416 228.033 368.416 219.132 362.146 212.989C355.876 206.845 345.712 205.783 339.441 210.617C333.171 215.452 333.171 224.353 339.441 230.496Z" fill="#FFD861" stroke="black" stroke-width="0.3"/>
<path d="M336.575 213.719C333.392 218.691 334.346 225.502 339.438 230.496C345.709 236.64 355.873 237.702 362.143 232.868" stroke="black" stroke-width="0.3" stroke-miterlimit="10"/>
<path d="M342.939 227.798C347.801 232.564 355.474 233.551 360.074 230.004C364.675 226.456 364.463 219.716 359.6 214.949C354.738 210.182 347.065 209.195 342.465 212.742C337.864 216.29 338.076 223.031 342.939 227.798Z" fill="#FCF4A6" stroke="black" stroke-width="0.3"/>
<path d="M362.874 226.208C364.153 222.687 363.039 218.323 359.596 214.949C354.734 210.182 347.061 209.195 342.461 212.742" stroke="black" stroke-width="0.3" stroke-miterlimit="10"/>
<path d="M355.774 225.592C355.023 226.17 354.21 226.638 353.333 226.995C352.458 227.352 351.663 227.549 350.953 227.587L350.211 225.568C350.864 225.519 351.551 225.362 352.269 225.094C352.991 224.829 353.633 224.478 354.196 224.045C354.626 223.713 354.932 223.407 355.114 223.123C355.297 222.842 355.385 222.585 355.377 222.358C355.368 222.131 355.276 221.931 355.097 221.755C354.87 221.533 354.593 221.433 354.263 221.452C353.933 221.474 353.562 221.568 353.15 221.736C352.738 221.904 352.302 222.101 351.839 222.32C351.377 222.542 350.9 222.747 350.399 222.942C349.901 223.134 349.398 223.269 348.888 223.342C348.379 223.415 347.881 223.383 347.395 223.239C346.906 223.099 346.441 222.812 345.996 222.374C345.51 221.898 345.21 221.355 345.098 220.741C344.983 220.127 345.098 219.478 345.448 218.792C345.796 218.108 346.411 217.421 347.298 216.739C347.89 216.282 348.538 215.898 349.245 215.579C349.951 215.26 350.641 215.055 351.312 214.963L352.107 216.942C351.468 217.053 350.87 217.226 350.314 217.464C349.757 217.702 349.274 217.98 348.862 218.297C348.432 218.627 348.128 218.935 347.955 219.219C347.781 219.503 347.704 219.762 347.728 219.998C347.754 220.233 347.854 220.438 348.031 220.614C348.258 220.836 348.541 220.938 348.873 220.92C349.209 220.903 349.574 220.809 349.975 220.633C350.373 220.46 350.809 220.26 351.28 220.03C351.751 219.803 352.234 219.595 352.732 219.408C353.23 219.222 353.724 219.092 354.222 219.013C354.72 218.935 355.215 218.962 355.712 219.097C356.21 219.23 356.675 219.511 357.111 219.941C357.588 220.409 357.88 220.949 357.983 221.563C358.089 222.177 357.968 222.828 357.621 223.521C357.273 224.213 356.655 224.902 355.768 225.586L355.774 225.592ZM356.587 227.257L345.183 216.08L346.538 215.033L357.942 226.211L356.587 227.257Z" fill="#E28A46"/>
<path d="M339.815 216.154C338.522 218.62 338.869 221.408 339.838 223.595" stroke="black" stroke-width="0.3" stroke-miterlimit="10"/>
<path d="M366.088 306.064H335.734V312.145H366.088V306.064Z" fill="#FFD861" stroke="black" stroke-width="0.3"/>
<path d="M340.895 306.064H339.125V312.145H340.895V306.064Z" fill="#FCF4A6" stroke="black" stroke-width="0.3"/>
<path d="M346.567 306.064H344.797V312.145H346.567V306.064Z" fill="#FCF4A6" stroke="black" stroke-width="0.3"/>
<path d="M352.235 306.064H350.465V312.145H352.235V306.064Z" fill="#FCF4A6" stroke="black" stroke-width="0.3"/>
<path d="M357.903 306.064H356.133V312.145H357.903V306.064Z" fill="#FCF4A6" stroke="black" stroke-width="0.3"/>
<path d="M363.575 306.064H361.805V312.145H363.575V306.064Z" fill="#FCF4A6" stroke="black" stroke-width="0.3"/>
<path d="M369.924 287.875H339.57V293.956H369.924V287.875Z" fill="#FFD861" stroke="black" stroke-width="0.3"/>
<path d="M344.731 287.875H342.961V293.956H344.731V287.875Z" fill="#FCF4A6" stroke="black" stroke-width="0.3"/>
<path d="M350.403 287.875H348.633V293.956H350.403V287.875Z" fill="#FCF4A6" stroke="black" stroke-width="0.3"/>
<path d="M356.071 287.875H354.301V293.956H356.071V287.875Z" fill="#FCF4A6" stroke="black" stroke-width="0.3"/>
<path d="M361.739 287.875H359.969V293.956H361.739V287.875Z" fill="#FCF4A6" stroke="black" stroke-width="0.3"/>
<path d="M367.407 287.875H365.637V293.956H367.407V287.875Z" fill="#FCF4A6" stroke="black" stroke-width="0.3"/>
<path d="M365.393 293.955H335.039V300.036H365.393V293.955Z" fill="#F7D151" stroke="black" stroke-width="0.3"/>
<path d="M340.2 293.955H338.43V300.036H340.2V293.955Z" fill="#FCF4A6" stroke="black" stroke-width="0.3"/>
<path d="M345.872 293.955H344.102V300.036H345.872V293.955Z" fill="#FCF4A6" stroke="black" stroke-width="0.3"/>
<path d="M351.54 293.955H349.77V300.036H351.54V293.955Z" fill="#FCF4A6" stroke="black" stroke-width="0.3"/>
<path d="M357.208 293.955H355.438V300.036H357.208V293.955Z" fill="#FCF4A6" stroke="black" stroke-width="0.3"/>
<path d="M362.879 293.955H361.109V300.036H362.879V293.955Z" fill="#FCF4A6" stroke="black" stroke-width="0.3"/>
<path d="M363.604 299.982H333.25V306.063H363.604V299.982Z" fill="#FFD861" stroke="black" stroke-width="0.3"/>
<path d="M338.411 299.982H336.641V306.063H338.411V299.982Z" fill="#FCF4A6" stroke="black" stroke-width="0.3"/>
<path d="M344.083 299.982H342.312V306.063H344.083V299.982Z" fill="#FCF4A6" stroke="black" stroke-width="0.3"/>
<path d="M349.751 299.982H347.98V306.063H349.751V299.982Z" fill="#FCF4A6" stroke="black" stroke-width="0.3"/>
<path d="M355.418 299.982H353.648V306.063H355.418V299.982Z" fill="#FCF4A6" stroke="black" stroke-width="0.3"/>
<path d="M361.094 299.982H359.324V306.063H361.094V299.982Z" fill="#FCF4A6" stroke="black" stroke-width="0.3"/>
<path d="M335.734 306.066H363.608" stroke="black" stroke-width="0.3" stroke-miterlimit="10"/>
<path d="M339.312 293.957H365.393" stroke="black" stroke-width="0.3" stroke-miterlimit="10"/>
<path d="M337.257 284.899L331.979 282.914L319.93 309.91L325.208 311.894C331.384 314.217 339.086 310.056 342.414 302.601C345.742 295.146 343.43 287.219 337.254 284.896L337.257 284.899Z" fill="#FCF4A6" stroke="black" stroke-width="0.3"/>
<mask id="mask1_579_16723" style="mask-type:luminance" maskUnits="userSpaceOnUse" x="319" y="282" width="25" height="31">
<path d="M337.157 284.891L331.909 282.914L319.93 309.805L325.177 311.782C331.318 314.095 338.975 309.95 342.284 302.525C345.593 295.099 343.294 287.202 337.154 284.888L337.157 284.891Z" fill="white" stroke="white" stroke-width="0.3"/>
</mask>
<g mask="url(#mask1_579_16723)">
<path d="M346.475 291.58L333.515 286.705L334.122 285.342L347.081 290.217L346.475 291.58ZM348.259 295.584L335.3 290.709L334.694 292.072L347.653 296.947L348.259 295.584ZM349.435 300.949L336.475 296.073L335.869 297.436L348.828 302.311L349.435 300.949ZM337.312 312.11L324.353 307.235L323.746 308.598L336.705 313.473L337.312 312.11ZM342.251 309.044L329.292 304.169L328.685 305.532L341.644 310.407L342.251 309.044ZM347.19 305.978L334.231 301.103L333.624 302.465L346.584 307.341L347.19 305.978Z" fill="#F7D151" stroke="black" stroke-width="0.3"/>
</g>
<path d="M338.224 301.032C341.551 293.577 338.807 285.488 332.095 282.963C325.384 280.438 317.246 284.435 313.919 291.89C310.592 299.345 313.335 307.435 320.047 309.96C326.759 312.484 334.896 308.487 338.224 301.032Z" fill="#FFD861" stroke="black" stroke-width="0.3"/>
<path d="M334.477 299.624C337.058 293.841 335.157 287.652 330.232 285.799C325.307 283.947 319.223 287.133 316.642 292.916C314.061 298.699 315.961 304.888 320.886 306.741C325.811 308.593 331.896 305.407 334.477 299.624Z" fill="#FCF4A6" stroke="black" stroke-width="0.3"/>
<path d="M322.957 301.383C322.153 301.081 321.429 300.683 320.781 300.186C320.136 299.691 319.665 299.185 319.367 298.669L320.943 297.206C321.226 297.674 321.62 298.115 322.127 298.536C322.633 298.958 323.187 299.28 323.791 299.507C324.25 299.68 324.645 299.772 324.969 299.783C325.293 299.794 325.558 299.742 325.764 299.637C325.97 299.529 326.118 299.369 326.212 299.158C326.333 298.888 326.321 298.636 326.182 298.398C326.044 298.16 325.82 297.925 325.517 297.693C325.213 297.46 324.875 297.22 324.504 296.973C324.133 296.727 323.767 296.46 323.408 296.173C323.049 295.887 322.742 295.57 322.489 295.221C322.236 294.873 322.086 294.486 322.036 294.056C321.986 293.626 322.08 293.147 322.315 292.62C322.572 292.044 322.96 291.574 323.482 291.214C324 290.855 324.636 290.649 325.39 290.6C326.144 290.552 326.995 290.706 327.944 291.063C328.577 291.301 329.166 291.612 329.717 291.998C330.265 292.385 330.706 292.81 331.036 293.269L329.517 294.754C329.181 294.324 328.804 293.956 328.383 293.645C327.961 293.334 327.531 293.096 327.09 292.931C326.63 292.758 326.238 292.669 325.914 292.666C325.59 292.663 325.325 292.723 325.119 292.847C324.913 292.972 324.763 293.139 324.669 293.35C324.548 293.621 324.557 293.878 324.695 294.118C324.834 294.362 325.054 294.594 325.358 294.813C325.661 295.035 326.003 295.27 326.386 295.519C326.766 295.768 327.131 296.038 327.484 296.327C327.835 296.617 328.138 296.93 328.391 297.265C328.645 297.603 328.801 297.987 328.86 298.42C328.919 298.853 328.833 299.329 328.601 299.848C328.347 300.416 327.958 300.875 327.437 301.229C326.916 301.584 326.274 301.786 325.514 301.838C324.754 301.889 323.897 301.735 322.949 301.378L322.957 301.383ZM321.732 302.744L327.785 289.184L329.237 289.73L323.184 303.29L321.732 302.744Z" fill="#E28A46" stroke="black" stroke-width="0.3"/>
<path d="M263.349 228.02L260.987 225.684L240.043 243.54L242.405 245.876C247.082 250.5 255.561 250.251 261.346 245.319C267.13 240.387 268.026 232.643 263.349 228.02Z" fill="#FCF4A6" stroke="black" stroke-width="0.3"/>
<mask id="mask2_579_16723" style="mask-type:luminance" maskUnits="userSpaceOnUse" x="239" y="225" width="28" height="25">
<path d="M260.958 225.577L263.305 227.892C268.031 232.551 267.103 240.327 261.307 245.256C255.605 250.105 247.265 250.439 242.509 246.015L242.284 245.801L239.938 243.485L239.821 243.371L239.945 243.265L260.756 225.569L260.86 225.48L260.958 225.577Z" fill="white" stroke="white" stroke-width="0.3"/>
</mask>
<g mask="url(#mask2_579_16723)">
<path d="M269.124 237.66L259.31 227.959L260.368 227.059L270.181 236.76L269.124 237.66ZM269.227 241.835L259.414 232.134L258.356 233.034L268.17 242.736L269.227 241.835ZM268.27 246.913L258.456 237.212L257.399 238.112L267.213 247.814L268.27 246.913ZM253.199 251.239L243.385 241.538L242.328 242.438L252.142 252.14L253.199 251.239ZM258.783 250.739L248.97 241.038L247.912 241.938L257.726 251.64L258.783 250.739ZM264.367 250.239L254.554 240.537L253.497 241.438L263.31 251.139L264.367 250.239Z" fill="#F7D151" stroke="black" stroke-width="0.3"/>
</g>
<path d="M259.293 243.22C265.077 238.289 265.974 230.544 261.298 225.921C256.621 221.298 248.142 221.547 242.358 226.477C236.575 231.407 235.678 239.152 240.354 243.776C245.031 248.399 253.51 248.15 259.293 243.22Z" fill="#FFD861" stroke="black" stroke-width="0.3"/>
<path d="M256.682 240.642C261.169 236.817 262.024 230.967 258.593 227.575C255.161 224.182 248.743 224.533 244.256 228.358C239.77 232.183 238.914 238.033 242.346 241.425C245.777 244.818 252.196 244.467 256.682 240.642Z" fill="#FCF4A6" stroke="black" stroke-width="0.3"/>
<path d="M246.233 237.768C245.673 237.214 245.217 236.611 244.869 235.957C244.519 235.303 244.322 234.705 244.277 234.167L246.195 233.548C246.248 234.043 246.407 234.559 246.669 235.097C246.931 235.638 247.27 236.114 247.691 236.53C248.012 236.846 248.306 237.071 248.58 237.203C248.851 237.333 249.096 237.393 249.311 237.382C249.526 237.371 249.717 237.293 249.882 237.152C250.091 236.974 250.183 236.76 250.159 236.508C250.135 236.26 250.041 235.978 249.876 235.673C249.711 235.367 249.52 235.04 249.305 234.694C249.09 234.351 248.887 233.991 248.695 233.618C248.507 233.245 248.374 232.866 248.298 232.482C248.221 232.098 248.248 231.72 248.377 231.347C248.507 230.971 248.775 230.611 249.184 230.26C249.632 229.879 250.147 229.635 250.73 229.532C251.314 229.43 251.932 229.5 252.592 229.743C253.249 229.987 253.908 230.436 254.568 231.09C255.01 231.525 255.384 232.006 255.696 232.534C256.008 233.061 256.212 233.577 256.306 234.086L254.43 234.746C254.318 234.264 254.144 233.815 253.911 233.399C253.679 232.983 253.408 232.623 253.101 232.32C252.78 232.004 252.486 231.782 252.212 231.658C251.941 231.533 251.691 231.482 251.467 231.509C251.243 231.536 251.048 231.617 250.884 231.758C250.674 231.936 250.58 232.153 250.601 232.407C250.621 232.661 250.716 232.937 250.886 233.234C251.054 233.531 251.252 233.856 251.476 234.207C251.696 234.559 251.9 234.919 252.082 235.292C252.265 235.665 252.394 236.038 252.477 236.411C252.556 236.787 252.536 237.163 252.412 237.544C252.291 237.925 252.029 238.288 251.626 238.631C251.184 239.007 250.674 239.242 250.091 239.339C249.508 239.437 248.887 239.364 248.221 239.118C247.555 238.872 246.893 238.423 246.233 237.771V237.768ZM244.654 238.434L255.175 229.465L256.185 230.465L245.665 239.434L244.654 238.434Z" fill="#E28A46"/>
</svg>
